<?xml version="1.0" encoding="UTF-8" standalone="no"?>
<svg
   width="64"
   height="64"
   version="1.1"
   viewBox="0 0 64 64"
   id="svg142"
   sodipodi:docname="accessories-camera.svg"
   inkscape:version="1.1.2 (0a00cf5339, 2022-02-04)"
   xmlns:inkscape="http://www.inkscape.org/namespaces/inkscape"
   xmlns:sodipodi="http://sodipodi.sourceforge.net/DTD/sodipodi-0.dtd"
   xmlns:xlink="http://www.w3.org/1999/xlink"
   xmlns="http://www.w3.org/2000/svg"
   xmlns:svg="http://www.w3.org/2000/svg">
  <sodipodi:namedview
     id="namedview144"
     pagecolor="#ffffff"
     bordercolor="#666666"
     borderopacity="1.0"
     inkscape:pageshadow="2"
     inkscape:pageopacity="0.0"
     inkscape:pagecheckerboard="0"
     showgrid="false"
     inkscape:zoom="1.2832031"
     inkscape:cx="-249.7656"
     inkscape:cy="24.547945"
     inkscape:window-width="1920"
     inkscape:window-height="1028"
     inkscape:window-x="0"
     inkscape:window-y="24"
     inkscape:window-maximized="1"
     inkscape:current-layer="svg142" />
  <defs
     id="defs36">
    <linearGradient
       id="linearGradient16753"
       x1="154.49001"
       x2="190.48"
       y1="33.84"
       y2="26.829"
       gradientUnits="userSpaceOnUse"
       spreadMethod="pad">
      <stop
         stop-color="#ffa55d"
         offset="0"
         id="stop16749"
         style="stop-color:#ffaa3a;stop-opacity:1" />
      <stop
         stop-color="#faa42a"
         offset="1"
         id="stop16751" />
    </linearGradient>
    <linearGradient
       id="linearGradient15225"
       x1="154.49"
       x2="190.48"
       y1="33.84"
       y2="26.829"
       gradientUnits="userSpaceOnUse">
      <stop
         stop-color="#ffa55d"
         offset="0"
         id="stop15221"
         style="stop-color:#ffaa3a;stop-opacity:1" />
      <stop
         stop-color="#faa42a"
         offset="1"
         id="stop15223" />
    </linearGradient>
    <linearGradient
       id="linearGradient13933"
       x1="171.75"
       x2="153.56"
       y1="28.719"
       y2="37.506"
       gradientUnits="userSpaceOnUse">
      <stop
         stop-color="#fbed8c"
         offset="0"
         id="stop13929"
         style="stop-color:#ffca74;stop-opacity:1" />
      <stop
         stop-color="#ffa55d"
         offset="1"
         id="stop13931"
         style="stop-color:#ffaa3a;stop-opacity:1" />
    </linearGradient>
    <linearGradient
       inkscape:collect="always"
       id="linearGradient11166">
      <stop
         style="stop-color:#fc7b4d;stop-opacity:1"
         offset="0"
         id="stop11162" />
      <stop
         style="stop-color:#faa42a;stop-opacity:1"
         offset="1"
         id="stop11164" />
    </linearGradient>
    <linearGradient
       id="linearGradient11084"
       x1="192.52"
       x2="149.88"
       y1="16.74"
       y2="58.956001"
       gradientUnits="userSpaceOnUse"
       spreadMethod="pad">
      <stop
         stop-color="#f8bb38"
         offset="0"
         id="stop11076" />
      <stop
         stop-color="#ff790f"
         offset=".35015"
         id="stop11078" />
      <stop
         stop-color="#ff456b"
         offset=".6461"
         id="stop11080" />
      <stop
         stop-color="#fb4574"
         offset="1"
         id="stop11082"
         style="stop-color:#fc784a;stop-opacity:1" />
    </linearGradient>
    <linearGradient
       id="linearGradient8268"
       x1="192.52"
       x2="149.88"
       y1="16.74"
       y2="58.956001"
       gradientUnits="userSpaceOnUse"
       spreadMethod="pad">
      <stop
         stop-color="#f8bb38"
         offset="0"
         id="stop8260" />
      <stop
         stop-color="#ff790f"
         offset=".35015"
         id="stop8262" />
      <stop
         stop-color="#ff456b"
         offset=".6461"
         id="stop8264" />
      <stop
         stop-color="#fb4574"
         offset="1"
         id="stop8266"
         style="stop-color:#fc794b;stop-opacity:1" />
    </linearGradient>
    <linearGradient
       id="linearGradient6485"
       x1="192.52"
       x2="149.88"
       y1="16.74"
       y2="58.956"
       gradientUnits="userSpaceOnUse">
      <stop
         stop-color="#f8bb38"
         offset="0"
         id="stop6477" />
      <stop
         stop-color="#ff790f"
         offset=".35015"
         id="stop6479" />
      <stop
         stop-color="#ff456b"
         offset=".6461"
         id="stop6481" />
      <stop
         stop-color="#fb4574"
         offset="1"
         id="stop6483"
         style="stop-color:#fc7547;stop-opacity:1" />
    </linearGradient>
    <linearGradient
       id="linearGradient4666"
       x1="175.66"
       x2="146.46"
       y1="58.037"
       y2="43.822"
       gradientUnits="userSpaceOnUse">
      <stop
         stop-color="#ff7d60"
         offset="0"
         id="stop4662"
         style="stop-color:#ffa374;stop-opacity:1" />
      <stop
         stop-color="#fc4571"
         offset="1"
         id="stop4664"
         style="stop-color:#fc7345;stop-opacity:1" />
    </linearGradient>
    <linearGradient
       id="linearGradient3315"
       x1="186.02"
       x2="176.59"
       y1="43.882999"
       y2="57.363998"
       gradientUnits="userSpaceOnUse"
       spreadMethod="pad">
      <stop
         stop-color="#febe13"
         offset="0"
         id="stop3311"
         style="stop-color:#f8c742;stop-opacity:1" />
      <stop
         stop-color="#ff7b63"
         offset="1"
         id="stop3313"
         style="stop-color:#ffa276;stop-opacity:1" />
    </linearGradient>
    <linearGradient
       id="linearGradient3231"
       x1="186.02"
       x2="176.59"
       y1="43.883"
       y2="57.364"
       gradientUnits="userSpaceOnUse">
      <stop
         stop-color="#febe13"
         offset="0"
         id="stop3227"
         style="stop-color:#f8c63e;stop-opacity:1" />
      <stop
         stop-color="#ff7b63"
         offset="1"
         id="stop3229" />
    </linearGradient>
    <linearGradient
       id="linearGradient1081"
       x1="160.85"
       x2="188.67"
       y1="42.977"
       y2="40.082"
       gradientUnits="userSpaceOnUse">
      <stop
         stop-color="#fee59e"
         offset="0"
         id="stop1077" />
      <stop
         stop-color="#febd0e"
         offset="1"
         id="stop1079"
         style="stop-color:#f8c53b;stop-opacity:1" />
    </linearGradient>
    <linearGradient
       id="linearGradient101338"
       x1="192.52"
       x2="149.88"
       y1="16.74"
       y2="58.956"
       gradientUnits="userSpaceOnUse"
       xlink:href="#linearGradient11084">
      <stop
         stop-color="#f8bb38"
         offset="0"
         id="stop2" />
      <stop
         stop-color="#ff790f"
         offset=".35015"
         id="stop4" />
      <stop
         stop-color="#ff456b"
         offset=".6461"
         id="stop6" />
      <stop
         stop-color="#fb4574"
         offset="1"
         id="stop8" />
    </linearGradient>
    <linearGradient
       id="linearGradient120180"
       x1="154.49"
       x2="190.48"
       y1="33.84"
       y2="26.829"
       gradientUnits="userSpaceOnUse"
       xlink:href="#linearGradient15225">
      <stop
         stop-color="#ffa55d"
         offset="0"
         id="stop11" />
      <stop
         stop-color="#faa42a"
         offset="1"
         id="stop13" />
    </linearGradient>
    <linearGradient
       id="linearGradient120450"
       x1="171.75"
       x2="153.56"
       y1="28.719"
       y2="37.506"
       gradientUnits="userSpaceOnUse">
      <stop
         stop-color="#fbed8c"
         offset="0"
         id="stop16" />
      <stop
         stop-color="#ffa55d"
         offset="1"
         id="stop18" />
    </linearGradient>
    <linearGradient
       id="linearGradient136781"
       x1="160.85"
       x2="188.67"
       y1="42.977"
       y2="40.082"
       gradientUnits="userSpaceOnUse">
      <stop
         stop-color="#fee59e"
         offset="0"
         id="stop21" />
      <stop
         stop-color="#febd0e"
         offset="1"
         id="stop23" />
    </linearGradient>
    <linearGradient
       id="linearGradient166410"
       x1="175.66"
       x2="146.46"
       y1="58.037"
       y2="43.822"
       gradientUnits="userSpaceOnUse">
      <stop
         stop-color="#ff7d60"
         offset="0"
         id="stop26" />
      <stop
         stop-color="#fc4571"
         offset="1"
         id="stop28" />
    </linearGradient>
    <linearGradient
       id="linearGradient219550"
       x1="186.02"
       x2="176.59"
       y1="43.883"
       y2="57.364"
       gradientUnits="userSpaceOnUse"
       xlink:href="#linearGradient3231">
      <stop
         stop-color="#febe13"
         offset="0"
         id="stop31" />
      <stop
         stop-color="#ff7b63"
         offset="1"
         id="stop33" />
    </linearGradient>
    <linearGradient
       inkscape:collect="always"
       xlink:href="#linearGradient1081"
       id="linearGradient980"
       gradientUnits="userSpaceOnUse"
       x1="160.85"
       y1="42.977"
       x2="188.67"
       y2="40.082" />
    <linearGradient
       inkscape:collect="always"
       xlink:href="#linearGradient3315"
       id="linearGradient3252"
       gradientUnits="userSpaceOnUse"
       x1="186.02"
       y1="43.883"
       x2="176.59"
       y2="57.364" />
    <linearGradient
       inkscape:collect="always"
       xlink:href="#linearGradient4666"
       id="linearGradient3317"
       gradientUnits="userSpaceOnUse"
       x1="175.66"
       y1="58.037"
       x2="146.46"
       y2="43.822" />
    <linearGradient
       inkscape:collect="always"
       xlink:href="#linearGradient11166"
       id="linearGradient11168"
       x1="150.95073"
       y1="49.693005"
       x2="184.14264"
       y2="14.959157"
       gradientUnits="userSpaceOnUse" />
    <linearGradient
       inkscape:collect="always"
       xlink:href="#linearGradient13933"
       id="linearGradient13870"
       gradientUnits="userSpaceOnUse"
       x1="171.75"
       y1="28.719"
       x2="153.56"
       y2="37.506" />
    <linearGradient
       inkscape:collect="always"
       xlink:href="#linearGradient16753"
       id="linearGradient15246"
       gradientUnits="userSpaceOnUse"
       x1="154.49"
       y1="33.84"
       x2="190.48"
       y2="26.829" />
  </defs>
  <g
     transform="translate(-139.26 -5.9102)"
     fill-rule="evenodd"
     stroke-linecap="round"
     stroke-linejoin="round"
     stroke-width=".43924"
     id="g140">
    <path
       d="m173.14 28.475c-0.30341 0.01756-0.5734 0.05353-0.80664 0.09766-0.23323 0.04412-0.42861 0.09643-0.58789 0.14648-0.31854 0.1001-0.48632 0.19141-0.48632 0.19141 4.9706 0 9 4.0294 9 9 0 4.2182-2.2898 6.4146-4.6582 7.8848-0.33045 0.25808-0.6667 0.48739-1.0059 0.68945-0.33915 0.20206-0.68267 0.37626-1.0293 0.52539s-0.69596 0.27179-1.0488 0.37109c-0.35287 0.0993-0.70852 0.17595-1.0664 0.22852-0.35789 0.05257-0.7184 0.08092-1.0801 0.08984-0.36168 0.0089-0.7256-0.0016-1.0898-0.0332-0.36424-0.03163-0.72817-0.08326-1.0938-0.15234-0.36558-0.06908-0.73197-0.15632-1.0977-0.25977-0.36568-0.10345-0.73113-0.22271-1.0957-0.35742s-0.72762-0.28438-1.0898-0.44726c-0.36222-0.16289-0.72339-0.33937-1.082-0.52734-0.35865-0.18797-0.71452-0.3877-1.0684-0.59766-0.35385-0.20996-0.70493-0.43131-1.0527-0.66016-0.34781-0.22885-0.69265-0.46629-1.0332-0.71094s-0.6777-0.49655-1.0098-0.75391c-0.33207-0.25736-0.66006-0.52014-0.98242-0.78711-0.64471-0.53393-1.2687-1.0829-1.8672-1.6367-0.59849-0.55382-1.1704-1.1112-1.7129-1.6602-0.54245-0.54895-1.0546-1.09-1.5312-1.6094s-0.91744-1.0175-1.3184-1.4824c-0.40092-0.46497-0.7627-0.89735-1.0781-1.2832-0.31542-0.38585-0.58459-0.72583-0.80469-1.0078-0.4402-0.56397-0.67969-0.89453-0.67969-0.89453-0.0619 0.54419-0.10106 1.1105-0.11328 1.6934-0.0122 0.58285 7.5e-4 1.1809 0.0391 1.793 0.0383 0.61203 0.10367 1.2374 0.19335 1.8691 0.0897 0.63174 0.2038 1.2701 0.34571 1.9121 0.1419 0.64198 0.3109 1.287 0.50586 1.9297 0.19496 0.64273 0.41716 1.284 0.66601 1.918 0.12443 0.31701 0.25452 0.63226 0.39258 0.94531s0.28375 0.62373 0.43555 0.93164c0.15179 0.30791 0.31092 0.61248 0.47656 0.91406s0.33799 0.60045 0.51758 0.89453c0.17958 0.29408 0.36495 0.58376 0.55859 0.86914s0.39572 0.56629 0.60352 0.8418c0.20779 0.2755 0.42247 0.5461 0.64453 0.81055 0.22206 0.26444 0.45107 0.5232 0.6875 0.77539s0.47957 0.49756 0.73047 0.73633 0.50991 0.47116 0.77539 0.69531 0.5382 0.44009 0.81836 0.64844 0.56638 0.40824 0.86133 0.59961c0.29495 0.19136 0.59836 0.37368 0.9082 0.54688s0.62633 0.33639 0.95117 0.49024c0.32484 0.15384 0.6581 0.29834 0.99805 0.43164 0.33994 0.1333 0.68781 0.2556 1.043 0.36719 0.35515 0.11158 0.71742 0.2121 1.0879 0.30078 0.37047 0.08868 0.74887 0.16588 1.1348 0.23047 0.38589 0.06459 0.77828 0.11694 1.1797 0.15625s0.81147 0.06527 1.2285 0.07813c0.41704 0.01285 0.82484 0.01452 1.2226 0.0059 0.39781-0.0087 0.78506-0.02757 1.1641-0.05664 0.37901-0.02907 0.74877-0.06684 1.1094-0.11524 0.36061-0.04839 0.71204-0.10721 1.0547-0.17383 0.34264-0.06662 0.67686-0.14086 1.002-0.22461 0.32509-0.08375 0.64126-0.17756 0.94922-0.27734s0.60718-0.20559 0.89844-0.32031c0.29125-0.11472 0.57464-0.23667 0.84961-0.36524 0.27496-0.12857 0.54169-0.26493 0.80078-0.40625s0.51026-0.28843 0.7539-0.44141 0.48038-0.31108 0.70899-0.47461 0.45006-0.33286 0.66406-0.50586 0.42128-0.34988 0.62109-0.53125 0.39209-0.36604 0.57813-0.55469c0.37208-0.37729 0.71759-0.76815 1.0371-1.168s0.61249-0.80907 0.88281-1.2227 0.51771-0.8314 0.74219-1.25 0.42542-0.83906 0.60742-1.2539 0.34541-0.82423 0.48828-1.2266c0.14288-0.40234 0.26593-0.79667 0.37305-1.1777 0.10711-0.38106 0.19677-0.74857 0.27148-1.0996 0.0747-0.35104 0.13402-0.6858 0.17969-0.99805 0.0457-0.31225 0.0777-0.60249 0.0977-0.86719s0.0318-0.53212 0.0332-0.80274c1e-3 -0.27062-6e-3 -0.54554-0.0234-0.82031-0.0171-0.27477-0.0444-0.55096-0.0801-0.82812s-0.0806-0.55424-0.13476-0.83203c-0.0541-0.27779-0.11688-0.55539-0.18946-0.83203-0.0726-0.27664-0.15511-0.55243-0.24609-0.82617-0.091-0.27374-0.19143-0.54539-0.30078-0.81445s-0.22778-0.5362-0.35547-0.79883c-0.12769-0.26262-0.26416-0.52097-0.41016-0.77539-0.14599-0.25442-0.30058-0.5036-0.46484-0.74805s-0.33703-0.48409-0.51953-0.7168-0.37548-0.45853-0.57617-0.67774c-0.2007-0.21921-0.41005-0.43278-0.62891-0.63672s-0.4466-0.39903-0.68359-0.58594c-0.23699-0.1869-0.4832-0.3651-0.73828-0.5332-0.25509-0.1681-0.51983-0.32512-0.79297-0.47266s-0.53921-0.28142-0.79883-0.40039-0.51219-0.22342-0.75781-0.31641c-0.24562-0.09298-0.4837-0.17457-0.71485-0.24414s-0.45566-0.12704-0.67187-0.17578-0.42421-0.08865-0.625-0.11914-0.39322-0.05158-0.57813-0.06641c-0.3698-0.02965-0.7083-0.03123-1.0117-0.01367z"
       fill="url(#linearGradient120450)"
       style="paint-order:stroke fill markers"
       id="path38" />
    <g
       fill="#fde7a2"
       id="g60">
      <path
         d="m174.36 46.33a9 9 0 0 0 0.14648-0.04297 9 9 0 0 0 1.0274-0.51758 9 9 0 0 1-1.1738 0.56055z"
         style="paint-order:stroke fill markers"
         id="path40" />
      <path
         d="m172.84 46.756a9 9 0 0 0 0.0703-0.0078 9 9 0 0 0 1.0762-0.3125 9 9 0 0 1-1.1465 0.32031z"
         style="paint-order:stroke fill markers"
         id="path42" />
      <path
         d="m168.56 46.449a9 9 0 0 0 0.37305 0.1543 9 9 0 0 0 0.24023 0.03125 9 9 0 0 1-0.61328-0.18555z"
         style="paint-order:stroke fill markers"
         id="path44" />
      <path
         d="m166.57 45.557a9 9 0 0 0 0.19336 0.14844 9 9 0 0 0 0.375 0.15625 9 9 0 0 1-0.56836-0.30469z"
         style="paint-order:stroke fill markers"
         id="path46" />
      <path
         d="m163.31 42.035a9 9 0 0 0 0.15625 0.375 9 9 0 0 0 0.14844 0.19336 9 9 0 0 1-0.30469-0.56836z"
         style="paint-order:stroke fill markers"
         id="path48" />
      <path
         d="m162.54 40a9 9 0 0 0 0.0312 0.24023 9 9 0 0 0 0.15429 0.37305 9 9 0 0 1-0.18549-0.61328z"
         style="paint-order:stroke fill markers"
         id="path50" />
      <path
         d="m162.72 35.207a9 9 0 0 0-0.15429 0.37305 9 9 0 0 0-0.0312 0.24023 9 9 0 0 1 0.18554-0.61328z"
         style="paint-order:stroke fill markers"
         id="path52" />
      <path
         d="m163.61 33.217a9 9 0 0 0-0.14844 0.19336 9 9 0 0 0-0.15625 0.375 9 9 0 0 1 0.30469-0.56836zm15.465 0.24609a9 9 0 0 1 0.14063 0.25c-0.0448-0.08476-0.0932-0.16687-0.14063-0.25z"
         style="paint-order:stroke fill markers"
         id="path54" />
      <path
         d="m167.13 29.959a9 9 0 0 0-0.375 0.15625 9 9 0 0 0-0.19336 0.14844 9 9 0 0 1 0.56836-0.30469z"
         style="paint-order:stroke fill markers"
         id="path56" />
      <path
         d="m169.17 29.186a9 9 0 0 0-0.24023 0.03125 9 9 0 0 0-0.37305 0.1543 9 9 0 0 1 0.61328-0.18555z"
         style="paint-order:stroke fill markers"
         id="path58" />
    </g>
    <path
       d="m173.57 19.434c-0.43998 0.0072-0.87132 0.02995-1.2949 0.06641-0.4236 0.03646-0.83918 0.08606-1.2461 0.15039-0.40691 0.06433-0.80542 0.14353-1.1953 0.23438-0.3899 0.09085-0.77198 0.19455-1.1445 0.31055-0.37255 0.116-0.73497 0.24302-1.0898 0.38281s-0.70217 0.2909-1.0391 0.45312-0.66385 0.33623-0.98242 0.51953-0.62781 0.37706-0.92774 0.58008c-0.29992 0.20302-0.59013 0.41534-0.87109 0.63672s-0.55278 0.45108-0.81445 0.68945-0.51381 0.48622-0.75586 0.74024c-0.24206 0.25401-0.47516 0.51491-0.69727 0.7832s-0.43292 0.543-0.63476 0.82422c-0.20185 0.28121-0.39492 0.56855-0.57618 0.86133-0.18125 0.29277-0.35138 0.59156-0.51171 0.89453-0.16034 0.30298-0.31012 0.61006-0.44922 0.92188s-0.26724 0.62796-0.38477 0.94727c-0.11753 0.3193-0.22467 0.64137-0.32031 0.9668-0.0957 0.32543-0.18048 0.65418-0.25391 0.98438-0.0734 0.33019-0.13465 0.6625-0.18554 0.99609-0.0509 0.3336-0.0911 0.66826-0.11915 1.0039-0.028 0.33564-0.044 0.67148-0.0488 1.0078-5e-3 0.33633 8.5e-4 0.67411 0.0195 1.0098 0.0187 0.33566 0.0493 0.67028 0.0918 1.0039s0.0974 0.66586 0.16407 0.99609c0.0667 0.33024 0.14516 0.65889 0.23633 0.98437 0.0912 0.32549 0.19457 0.64742 0.31054 0.9668 0.11598 0.31938 0.24561 0.63536 0.38672 0.94727s0.29437 0.62075 0.46094 0.92383 0.3467 0.59968 0.53906 0.89258 0.39676 0.58193 0.61524 0.86328c0.21847 0.28135 0.4504 0.55578 0.69531 0.82422 0.38901 0.42641 0.77393 0.81321 1.1543 1.166 0.38037 0.3528 0.75617 0.6716 1.127 0.95898 0.35607 0.18644 0.71463 0.36173 1.0742 0.52344 0.36222 0.16289 0.72527 0.31255 1.0898 0.44726 0.36457 0.13472 0.73002 0.25398 1.0957 0.35742 0.36569 0.10345 0.73208 0.19069 1.0977 0.25977s0.72951 0.12071 1.0938 0.15234c0.36424 0.0316 0.72816 0.0421 1.0898 0.0332s0.72219-0.03727 1.0801-0.08984 0.71354-0.12922 1.0664-0.22852 0.7022-0.22196 1.0488-0.37109c0.34662-0.14913 0.69014-0.32333 1.0293-0.52539s0.67541-0.43138 1.0059-0.68945c0.054-0.04221 0.0964-0.08814 0.14844-0.13086a9 9 0 0 1-0.2207 0.10547 9 9 0 0 1-1.0274 0.51758 9 9 0 0 1-0.14648 0.04297 9 9 0 0 1-0.36914 0.10547 9 9 0 0 1-1.0762 0.3125 9 9 0 0 1-0.0703 0.0078 9 9 0 0 1-1.5801 0.1543 9 9 0 0 1-2.0898-0.27539 9 9 0 0 1-0.24023-0.03125 9 9 0 0 1-0.37305-0.1543 9 9 0 0 1-1.4219-0.58789 9 9 0 0 1-0.375-0.15625 9 9 0 0 1-0.19336-0.14844 9 9 0 0 1-1.6699-1.2832 9 9 0 0 1-1.2832-1.6699 9 9 0 0 1-0.14844-0.19336 9 9 0 0 1-0.15625-0.375 9 9 0 0 1-0.58789-1.4219 9 9 0 0 1-0.15429-0.37305 9 9 0 0 1-0.03127-0.24023 9 9 0 0 1-0.27539-2.0898 9 9 0 0 1 0.27539-2.0898 9 9 0 0 1 0.0312-0.24023 9 9 0 0 1 0.15429-0.37305 9 9 0 0 1 0.58789-1.4219 9 9 0 0 1 0.15625-0.375 9 9 0 0 1 0.14844-0.19336 9 9 0 0 1 1.2832-1.6699 9 9 0 0 1 1.6699-1.2832 9 9 0 0 1 0.19336-0.14844 9 9 0 0 1 0.375-0.15625 9 9 0 0 1 1.4219-0.58789 9 9 0 0 1 0.37305-0.1543 9 9 0 0 1 0.24023-0.03125 9 9 0 0 1 2.0898-0.27539s0.16778-0.0913 0.48632-0.19141c0.15928-0.05005 0.35466-0.10236 0.58789-0.14648 0.23324-0.04412 0.50323-0.0801 0.80664-0.09766 0.30342-0.01756 0.64192-0.01598 1.0117 0.01367 0.18491 0.01482 0.37734 0.03591 0.57813 0.06641 0.20079 0.03049 0.40879 0.0704 0.625 0.11914s0.44072 0.10621 0.67187 0.17578 0.46923 0.15116 0.71485 0.24414 0.49819 0.19744 0.75781 0.31641 0.52569 0.25285 0.79883 0.40039 0.53788 0.30455 0.79297 0.47266c0.25508 0.16811 0.50129 0.3463 0.73828 0.5332 0.23699 0.18691 0.46473 0.382 0.68359 0.58594s0.42821 0.41751 0.62891 0.63672c0.20069 0.21921 0.39367 0.44502 0.57617 0.67774s0.35527 0.47235 0.51953 0.7168 0.31885 0.49363 0.46484 0.74805c0.146 0.25442 0.28247 0.51277 0.41016 0.77539s0.24612 0.52976 0.35547 0.79883 0.2098 0.54072 0.30078 0.81445c0.091 0.27374 0.17352 0.54953 0.24609 0.82617 0.0726 0.27665 0.13533 0.55424 0.18946 0.83203 0.0541 0.27779 0.0991 0.55487 0.13476 0.83203 0.0357 0.27716 0.0629 0.55335 0.0801 0.82812 0.0171 0.27477 0.0249 0.54969 0.0234 0.82031-1e-3 0.27062-0.0132 0.53804-0.0332 0.80274-0.0104 0.1383-0.0335 0.30138-0.0508 0.45312l8.6113-3.7656c0-0.37999-0.0201-0.78632-0.0625-1.2148s-0.10688-0.8784-0.19336-1.3457c-0.0865-0.4673-0.19589-0.95289-0.32812-1.4492s-0.28713-1.0039-0.4668-1.5195c-0.17966-0.51559-0.3845-1.0394-0.61328-1.5645-0.22878-0.52509-0.48214-1.0513-0.76172-1.5762-0.27958-0.52483-0.58396-1.0477-0.91601-1.5625-0.16603-0.25741-0.34007-0.51255-0.51953-0.76562-0.17947-0.25308-0.36549-0.50443-0.5586-0.75195-0.1931-0.24752-0.39265-0.49167-0.59961-0.73242s-0.42155-0.47818-0.64258-0.71094c-0.22102-0.23276-0.44829-0.46005-0.68359-0.68359s-0.47873-0.44314-0.72852-0.65625c-0.24978-0.21311-0.507-0.41964-0.77148-0.62109-0.26448-0.20146-0.53507-0.39735-0.81445-0.58594-0.27939-0.18858-0.56683-0.37043-0.86133-0.54492s-0.59643-0.34082-0.90625-0.5-0.62777-0.31048-0.95313-0.45312c-0.32535-0.14265-0.6589-0.27745-1-0.40234s-0.68982-0.23978-1.0469-0.3457c-0.35706-0.10593-0.72249-0.20333-1.0957-0.28906-0.37322-0.08573-0.75299-0.16029-1.1426-0.22461-0.3896-0.06432-0.78914-0.11846-1.1953-0.16016-0.40618-0.04169-0.81922-0.072-1.2422-0.08984s-0.85495-0.02285-1.2949-0.01563z"
       fill="url(#linearGradient136781)"
       style="paint-order:stroke fill markers"
       id="path62" />
    <path
       d="m171.7 15.764c-0.40892 0-0.81376 0.0093-1.2129 0.02734-0.39913 0.01802-0.79244 0.04472-1.1816 0.08008-0.3892 0.03535-0.77322 0.07885-1.1523 0.13086-0.37913 0.05201-0.75414 0.1117-1.123 0.17969-0.36891 0.06799-0.73129 0.14522-1.0898 0.22852-0.35855 0.08329-0.7125 0.17357-1.0606 0.27148-0.34805 0.09792-0.68993 0.20259-1.0273 0.31445-0.33742 0.11186-0.67142 0.23034-0.99805 0.35547s-0.64718 0.25682-0.96289 0.39453-0.62504 0.28202-0.92969 0.43164-0.60499 0.30399-0.89844 0.46484c-0.29344 0.16085-0.58118 0.3286-0.86328 0.5s-0.55751 0.34802-0.82812 0.5293c-0.27062 0.18127-0.53594 0.36618-0.79492 0.55664-0.51798 0.38093-1.0118 0.77973-1.4824 1.1934s-0.9177 0.8423-1.3398 1.2832-0.82084 0.89468-1.1934 1.3574-0.71923 0.93491-1.041 1.4141c-0.32178 0.47915-0.6168 0.96495-0.88671 1.4551-0.26992 0.49013-0.51551 0.98479-0.73243 1.4805-0.21691 0.49568-0.40557 0.99248-0.56836 1.4883-0.16278 0.4958-0.29872 0.98997-0.40624 1.4805-0.10753 0.4905-0.18715 0.97728-0.23829 1.457 0 0 0.23949 0.33056 0.67969 0.89453 0.2201 0.28199 0.48927 0.62196 0.80469 1.0078 0.31542 0.38585 0.6772 0.81823 1.0781 1.2832 0.40092 0.46497 0.84176 0.96308 1.3184 1.4824s0.9888 1.0604 1.5312 1.6094c0.54246 0.54895 1.1144 1.1063 1.7129 1.6602 0.5985 0.55382 1.2225 1.1028 1.8672 1.6367 0.32236 0.26697 0.65035 0.52975 0.98242 0.78711s0.66922 0.50926 1.0098 0.75391 0.68539 0.48209 1.0332 0.71094 0.69889 0.4502 1.0527 0.66016c0.35384 0.20996 0.70971 0.40969 1.0684 0.59766 3e-3 0.0014 5e-3 0.0025 8e-3 0.0039-0.37079-0.28739-0.74659-0.60618-1.127-0.95898-0.38036-0.3528-0.76528-0.73961-1.1543-1.166-0.24491-0.26844-0.47684-0.54287-0.69531-0.82422-0.21848-0.28135-0.42288-0.57039-0.61524-0.86328s-0.37249-0.5895-0.53906-0.89258-0.31983-0.61192-0.46094-0.92383-0.27074-0.62789-0.38672-0.94727c-0.11597-0.31938-0.21938-0.64131-0.31054-0.9668-0.0912-0.32548-0.16966-0.65414-0.23633-0.98437-0.0667-0.33024-0.12155-0.66247-0.16407-0.99609-0.0425-0.33363-0.0731-0.66825-0.0918-1.0039-0.0187-0.33566-0.0244-0.67344-0.0195-1.0098 5e-3 -0.33633 0.0208-0.67217 0.0488-1.0078s0.0683-0.67031 0.11915-1.0039c0.0509-0.3336 0.11211-0.6659 0.18554-0.99609 0.0734-0.33019 0.15826-0.65895 0.25391-0.98438 0.0956-0.32543 0.20278-0.6475 0.32031-0.9668s0.24567-0.63545 0.38477-0.94727 0.28888-0.6189 0.44922-0.92188c0.16033-0.30298 0.33046-0.60176 0.51171-0.89453 0.18126-0.29278 0.37433-0.58012 0.57618-0.86133 0.20184-0.28121 0.41265-0.55593 0.63476-0.82422s0.45521-0.52919 0.69727-0.7832c0.24205-0.25401 0.49419-0.50186 0.75586-0.74024s0.53349-0.46808 0.81445-0.68945 0.57117-0.4337 0.87109-0.63672c0.29993-0.20302 0.60917-0.39677 0.92774-0.58008 0.31857-0.1833 0.64553-0.3573 0.98242-0.51953s0.68418-0.31333 1.0391-0.45312 0.7173-0.26681 1.0898-0.38281c0.37255-0.116 0.75463-0.2197 1.1445-0.31055 0.38989-0.09085 0.7884-0.17004 1.1953-0.23438 0.40691-0.06433 0.82249-0.11393 1.2461-0.15039s0.85495-0.05918 1.2949-0.06641c0.43997-0.0072 0.87194-0.0022 1.2949 0.01563 0.42297 0.01784 0.83601 0.04815 1.2422 0.08984 0.40617 0.04169 0.80571 0.09583 1.1953 0.16016 0.38959 0.06432 0.76936 0.13888 1.1426 0.22461 0.37321 0.08573 0.73864 0.18314 1.0957 0.28906 0.35705 0.10592 0.70577 0.22081 1.0469 0.3457s0.67465 0.2597 1 0.40234c0.32536 0.14265 0.64331 0.29394 0.95313 0.45312s0.61175 0.32551 0.90625 0.5 0.58194 0.35634 0.86133 0.54492c0.27938 0.18859 0.54997 0.38448 0.81445 0.58594s0.5217 0.40798 0.77148 0.62109c0.24979 0.21311 0.49322 0.43271 0.72852 0.65625s0.46257 0.45084 0.68359 0.68359c0.22103 0.23276 0.43562 0.47019 0.64258 0.71094s0.40651 0.4849 0.59961 0.73242c0.19311 0.24752 0.37913 0.49888 0.5586 0.75195 0.17946 0.25308 0.3535 0.50822 0.51953 0.76562 0.22223 0.34455 0.42865 0.69303 0.62695 1.043 7.2e-4 0.0013 1e-3 0.0026 2e-3 0.0039l2.5332-1.6211s-0.12456-0.18202-0.36914-0.5c-0.24459-0.31798-0.60823-0.7713-1.0859-1.3164-0.23886-0.27255-0.50775-0.56856-0.80274-0.88086-0.29498-0.3123-0.61711-0.64173-0.96679-0.98242-0.34969-0.34069-0.72596-0.69306-1.1289-1.0508-0.40295-0.35772-0.83233-0.72058-1.2871-1.084s-0.93623-0.72626-1.4414-1.084c-0.50517-0.35773-1.0337-0.71009-1.5879-1.0508-0.55414-0.34069-1.1327-0.67012-1.7344-0.98242-0.30084-0.15615-0.60747-0.30816-0.91992-0.45508-0.31246-0.14692-0.63119-0.2895-0.95508-0.42578s-0.65314-0.26642-0.98828-0.39062c-0.33515-0.12421-0.67527-0.24279-1.0215-0.35352-0.34622-0.11072-0.69952-0.21278-1.0566-0.30859-0.35712-0.09582-0.7181-0.18418-1.0859-0.26367-0.36784-0.0795-0.74077-0.15114-1.1192-0.21289-0.37837-0.06175-0.7636-0.11366-1.1523-0.15625-0.38874-0.04259-0.78272-0.07565-1.1816-0.09766-0.39892-0.022-0.80201-0.0332-1.2109-0.0332z"
       fill="url(#linearGradient120180)"
       style="paint-order:stroke fill markers"
       id="path64" />
    <path
       d="m176.59 60.555v-6.3809c-0.0634 0.03583-0.12313 0.07426-0.1875 0.10938-0.25909 0.14132-0.52582 0.27768-0.80078 0.40625-0.27497 0.12857-0.55836 0.25051-0.84961 0.36524-0.29126 0.11472-0.59048 0.22053-0.89844 0.32031s-0.62413 0.1936-0.94922 0.27734c-0.32509 0.08375-0.65931 0.15799-1.002 0.22461-0.34265 0.06662-0.69408 0.12543-1.0547 0.17383-0.36061 0.04839-0.73037 0.08616-1.1094 0.11524-0.379 0.02907-0.76625 0.04798-1.1641 0.05664-0.39781 0.0087-0.80561 7e-3 -1.2226-0.0059-0.41705-0.01285-0.82711-0.03881-1.2285-0.07813-0.40141-0.03931-0.7938-0.09166-1.1797-0.15625s-0.76429-0.14179-1.1348-0.23047c-0.37047-0.08868-0.73274-0.1892-1.0879-0.30078s-0.70303-0.23388-1.043-0.36719c-0.33995-0.1333-0.67321-0.2778-0.99805-0.43164s-0.64133-0.31704-0.95117-0.49024-0.61325-0.35551-0.9082-0.54688c-0.29495-0.19136-0.58117-0.39126-0.86133-0.59961s-0.55288-0.42429-0.81836-0.64844-0.52449-0.45655-0.77539-0.69531-0.49404-0.48413-0.73047-0.73633-0.46544-0.51095-0.6875-0.77539-0.43674-0.53504-0.64453-0.81055c-0.2078-0.2755-0.40988-0.55641-0.60352-0.8418-0.19364-0.28538-0.37901-0.57506-0.55859-0.86914-0.17959-0.29408-0.35194-0.59294-0.51758-0.89453s-0.32477-0.60615-0.47656-0.91406c-0.1518-0.30791-0.29749-0.61859-0.43555-0.93164s-0.26815-0.62831-0.39258-0.94531c-0.18523-0.47193-0.3504-0.94821-0.50586-1.4258l-5.4746 0.5625s0.15622 0.31593 0.4668 0.86523c0.15529 0.27465 0.34998 0.60771 0.58203 0.98828s0.50233 0.80984 0.81055 1.2754c0.30821 0.46555 0.65332 0.96846 1.0371 1.498 0.38379 0.52958 0.8049 1.0855 1.2637 1.6582s0.95511 1.161 1.4883 1.7559c0.53317 0.59485 1.104 1.1949 1.7109 1.791 0.30348 0.29804 0.61567 0.59621 0.9375 0.89062 0.32182 0.29441 0.65405 0.58682 0.99414 0.875s0.68859 0.57224 1.0469 0.85156c0.35829 0.27932 0.72516 0.55246 1.1016 0.82031 0.3764 0.26785 0.7618 0.52944 1.1562 0.7832 0.39444 0.25376 0.79852 0.50123 1.2109 0.73828 0.41242 0.23705 0.83336 0.46391 1.2637 0.68164 0.43031 0.21773 0.87022 0.42531 1.3184 0.62109 0.44813 0.19578 0.9052 0.37956 1.3711 0.55078 0.46588 0.17123 0.94027 0.33056 1.4238 0.47461 0.48356 0.14405 0.9754 0.27246 1.4766 0.38672s1.0106 0.21308 1.5293 0.29492c0.51869 0.08184 1.0478 0.1485 1.584 0.19531 0.53614 0.04682 1.0793 0.07482 1.6328 0.08398 0.55353 0.0092 1.1167-0.0021 1.6875-0.0332 0.57083-0.0311 1.1502-0.08228 1.7383-0.15625 0.58805-0.07398 1.1571-0.16539 1.709-0.27344 0.24089-0.04717 0.4766-0.09885 0.71094-0.15234z"
       fill="url(#linearGradient166410)"
       style="paint-order:stroke fill markers"
       id="path66" />
    <path
       d="m192.97 38.199-8.6113 3.7656c-0.0158 0.13868-0.0251 0.26496-0.0469 0.41406-0.0457 0.31225-0.10498 0.64701-0.17969 0.99805-0.0747 0.35104-0.16437 0.71854-0.27148 1.0996-0.10712 0.38107-0.23017 0.7754-0.37305 1.1777-0.14287 0.40234-0.30628 0.81172-0.48828 1.2266-0.182 0.41485-0.38294 0.83531-0.60742 1.2539s-0.47187 0.83642-0.74219 1.25-0.56329 0.82284-0.88281 1.2227-0.66503 0.79068-1.0371 1.168c-0.18604 0.18864-0.37832 0.37332-0.57813 0.55469s-0.40709 0.35825-0.62109 0.53125-0.43545 0.34233-0.66406 0.50586-0.46535 0.32164-0.70899 0.47461c-0.1831 0.11496-0.37463 0.22366-0.5664 0.33203v6.3809c0.30248-0.06905 0.60138-0.14194 0.89258-0.2207 0.51677-0.13978 1.0152-0.29374 1.498-0.46289 0.48287-0.16916 0.95029-0.35264 1.4004-0.54883 0.4501-0.19619 0.88425-0.40608 1.3027-0.62695 0.41849-0.22087 0.82095-0.45406 1.209-0.69726s0.76042-0.49657 1.1191-0.75977c0.35872-0.2632 0.7046-0.53557 1.0352-0.81641s0.64567-0.5691 0.94922-0.86523 0.59535-0.59912 0.87304-0.9082c0.2777-0.30908 0.54194-0.62563 0.79493-0.94531 0.25298-0.31968 0.49322-0.64277 0.72265-0.9707s0.44727-0.66031 0.6543-0.99414 0.40407-0.67042 0.58984-1.0078c0.18578-0.33739 0.36168-0.67507 0.52735-1.0137s0.32203-0.67816 0.46875-1.0156c0.14671-0.33746 0.28319-0.67188 0.41211-1.0059 0.12891-0.33398 0.24906-0.666 0.36132-0.99414 0.22453-0.65629 0.4172-1.2991 0.58204-1.918 0.16483-0.61887 0.30167-1.2147 0.41601-1.7773 0.11435-0.56268 0.20624-1.0924 0.2793-1.5801 0.0731-0.4877 0.12698-0.93223 0.16797-1.3262 0.041-0.39394 0.0698-0.73812 0.0879-1.0195 0.0362-0.56282 0.0351-0.88086 0.0351-0.88086z"
       fill="url(#linearGradient219550)"
       style="paint-order:stroke fill markers"
       id="path68" />
    <path
       d="m171.26 7.9102a30 30 0 0 0-30 30 30 30 0 0 0 30 30 30 30 0 0 0 30-30 30 30 0 0 0-30-30zm0.43554 7.8535c0.40893 0 0.81202 0.0112 1.2109 0.0332s0.7929 0.05507 1.1816 0.09766 0.77397 0.0945 1.1523 0.15625c0.37838 0.06175 0.7513 0.1334 1.1192 0.21289 0.36783 0.07949 0.72881 0.16785 1.0859 0.26367 0.35712 0.09582 0.71042 0.19787 1.0566 0.30859 0.34622 0.11072 0.68634 0.2293 1.0215 0.35352 0.33514 0.12421 0.66439 0.25435 0.98828 0.39062s0.64262 0.27886 0.95508 0.42578c0.31245 0.14692 0.61908 0.29893 0.91992 0.45508 0.60168 0.3123 1.1802 0.64173 1.7344 0.98242 0.55415 0.34069 1.0827 0.69306 1.5879 1.0508 0.50518 0.35772 0.98663 0.72058 1.4414 1.084s0.88416 0.72626 1.2871 1.084c0.40295 0.35773 0.77922 0.71009 1.1289 1.0508 0.34968 0.34069 0.67181 0.67012 0.96679 0.98242 0.29499 0.3123 0.56388 0.60831 0.80274 0.88086 0.47771 0.5451 0.84135 0.99843 1.0859 1.3164 0.24458 0.31798 0.36914 0.5 0.36914 0.5l-2.5332 1.6211c0.0972 0.17166 0.19532 0.34332 0.28711 0.51562 0.27958 0.52483 0.53294 1.0511 0.76172 1.5762 0.22878 0.52509 0.43362 1.0489 0.61328 1.5645 0.17967 0.51559 0.33457 1.0232 0.4668 1.5195s0.24165 0.98191 0.32812 1.4492c0.0865 0.4673 0.15097 0.91718 0.19336 1.3457 0.0424 0.42853 0.0625 0.83486 0.0625 1.2148 0 0 1e-3 0.31804-0.0351 0.88086-0.0181 0.28141-0.0469 0.62559-0.0879 1.0195-0.041 0.39395-0.0949 0.83847-0.16797 1.3262-0.0731 0.4877-0.16495 1.0174-0.2793 1.5801-0.11434 0.56268-0.25118 1.1585-0.41601 1.7773-0.16484 0.61887-0.35751 1.2617-0.58204 1.918-0.11226 0.32814-0.23241 0.66016-0.36132 0.99414-0.12892 0.33398-0.2654 0.6684-0.41211 1.0059-0.14672 0.33746-0.30308 0.67702-0.46875 1.0156s-0.34157 0.67628-0.52735 1.0137c-0.18577 0.33739-0.38281 0.67398-0.58984 1.0078s-0.42487 0.66621-0.6543 0.99414-0.46967 0.65102-0.72265 0.9707c-0.25299 0.31968-0.51723 0.63623-0.79493 0.94531-0.27769 0.30908-0.56949 0.61207-0.87304 0.9082s-0.61866 0.5844-0.94922 0.86523-0.67644 0.55321-1.0352 0.81641c-0.35872 0.2632-0.73111 0.51656-1.1191 0.75977s-0.79049 0.4764-1.209 0.69726c-0.41849 0.22087-0.85264 0.43077-1.3027 0.62695-0.4501 0.19619-0.91752 0.37967-1.4004 0.54883-0.48286 0.16916-0.98127 0.32312-1.498 0.46289-0.51678 0.13978-1.0517 0.265-1.6035 0.37305-0.55184 0.10805-1.1209 0.19946-1.709 0.27344-0.58806 0.07397-1.1675 0.12516-1.7383 0.15625-0.57082 0.03109-1.134 0.04237-1.6875 0.0332-0.55352-0.0092-1.0967-0.03717-1.6328-0.08398-0.53614-0.04682-1.0653-0.11347-1.584-0.19531-0.51869-0.08184-1.0281-0.18067-1.5293-0.29492s-0.993-0.24267-1.4766-0.38672c-0.48356-0.14405-0.95795-0.30338-1.4238-0.47461-0.46589-0.17123-0.92296-0.355-1.3711-0.55078-0.44814-0.19579-0.88805-0.40337-1.3184-0.62109-0.43032-0.21773-0.85126-0.44459-1.2637-0.68164-0.41241-0.23705-0.81649-0.48452-1.2109-0.73828-0.39445-0.25376-0.77985-0.51535-1.1562-0.7832-0.37641-0.26785-0.74328-0.54099-1.1016-0.82031-0.35828-0.27932-0.70678-0.56338-1.0469-0.85156s-0.67232-0.58059-0.99414-0.875c-0.32183-0.29441-0.63402-0.59259-0.9375-0.89062-0.60697-0.59607-1.1778-1.1962-1.7109-1.791-0.53317-0.59485-1.0295-1.1832-1.4883-1.7559s-0.87988-1.1286-1.2637-1.6582c-0.38379-0.52959-0.7289-1.0325-1.0371-1.498-0.30822-0.46555-0.5785-0.89482-0.81055-1.2754s-0.42674-0.71363-0.58203-0.98828c-0.31058-0.5493-0.4668-0.86523-0.4668-0.86523l5.4746-0.5625c-0.0534-0.16402-0.11031-0.32788-0.16015-0.49219-0.19496-0.64273-0.36396-1.2877-0.50586-1.9297-0.14191-0.64198-0.25602-1.2804-0.34571-1.9121-0.0897-0.63174-0.15504-1.2571-0.19335-1.8691-0.0383-0.61204-0.0513-1.2101-0.0391-1.793s0.0514-1.1492 0.11328-1.6934c0.0511-0.47976 0.13076-0.96654 0.23829-1.457 0.10752-0.49049 0.24346-0.98466 0.40624-1.4805 0.1628-0.4958 0.35145-0.9926 0.56836-1.4883 0.21692-0.49568 0.46251-0.99034 0.73243-1.4805 0.26991-0.49013 0.56493-0.97593 0.88671-1.4551 0.32179-0.47915 0.6685-0.95132 1.041-1.4141s0.77122-0.91652 1.1934-1.3574 0.86922-0.86957 1.3398-1.2832 0.96445-0.81243 1.4824-1.1934c0.25898-0.19047 0.5243-0.37537 0.79492-0.55664 0.27061-0.18127 0.54602-0.3579 0.82812-0.5293s0.56984-0.33915 0.86328-0.5c0.29345-0.16085 0.59379-0.31522 0.89844-0.46484s0.61398-0.29393 0.92969-0.43164 0.63626-0.2694 0.96289-0.39453 0.66063-0.24361 0.99805-0.35547c0.33741-0.11186 0.67929-0.21654 1.0273-0.31445 0.34805-0.09792 0.702-0.18819 1.0606-0.27148 0.35855-0.08329 0.72093-0.16052 1.0898-0.22852 0.36891-0.06799 0.74392-0.12768 1.123-0.17969 0.37912-0.05201 0.76314-0.09551 1.1523-0.13086 0.3892-0.03535 0.78251-0.06206 1.1816-0.08008s0.80397-0.02734 1.2129-0.02734zm-0.43554 13.146c0.28569 0 0.56884 0.01419 0.84765 0.04102-0.27881-0.02683-0.56196-0.04102-0.84765-0.04102zm1.6797 0.1582c0.26686 0.05038 0.52812 0.11453 0.78516 0.18945-0.25704-0.07492-0.5183-0.13908-0.78516-0.18945zm-3.7715 0.11719a9 9 0 0 0-0.61133 0.18555 9 9 0 0 1 0.61133-0.18555zm5.4258 0.36914c0.24262 0.0969 0.47836 0.20465 0.70898 0.32226-0.23062-0.11761-0.46636-0.22536-0.70898-0.32226zm-7.459 0.4043a9 9 0 0 0-0.56836 0.30469 9 9 0 0 1 0.56836-0.30469zm8.9707 0.375c0.2151 0.1379 0.42353 0.28583 0.625 0.44141-0.20147-0.15558-0.4099-0.30351-0.625-0.44141zm1.3359 1.0469c0.18488 0.1751 0.36232 0.35846 0.53125 0.54883-0.16893-0.19037-0.34637-0.37373-0.53125-0.54883zm1.1035 1.2598c0.1517 0.20931 0.29454 0.42438 0.42774 0.64648-0.1332-0.22211-0.27604-0.43717-0.42774-0.64648zm-14.932 0.57617a9 9 0 0 0-0.30469 0.56836 9 9 0 0 1 0.30469-0.56836zm15.781 0.86133c0.11513 0.2439 0.22114 0.4921 0.31641 0.74609-0.0953-0.25399-0.20128-0.5022-0.31641-0.74609z"
       fill="url(#linearGradient101338)"
       style="paint-order:stroke fill markers"
       id="path70" />
    <path
       d="m173.14 28.475c-0.30341 0.01756-0.5734 0.05353-0.80664 0.09766-0.23323 0.04412-0.42861 0.09643-0.58789 0.14648-0.31854 0.1001-0.48632 0.19141-0.48632 0.19141 4.9706 0 9 4.0294 9 9 0 4.2182-2.2898 6.4146-4.6582 7.8848-0.33045 0.25808-0.6667 0.48739-1.0059 0.68945-0.33915 0.20206-0.68267 0.37626-1.0293 0.52539s-0.69596 0.27179-1.0488 0.37109c-0.35287 0.0993-0.70852 0.17595-1.0664 0.22852-0.35789 0.05257-0.7184 0.08092-1.0801 0.08984-0.36168 0.0089-0.7256-0.0016-1.0898-0.0332-0.36424-0.03163-0.72817-0.08326-1.0938-0.15234-0.36558-0.06908-0.73197-0.15632-1.0977-0.25977-0.36568-0.10345-0.73113-0.22271-1.0957-0.35742s-0.72762-0.28438-1.0898-0.44726c-0.36222-0.16289-0.72339-0.33937-1.082-0.52734-0.35865-0.18797-0.71452-0.3877-1.0684-0.59766-0.35385-0.20996-0.70493-0.43131-1.0527-0.66016-0.34781-0.22885-0.69265-0.46629-1.0332-0.71094s-0.6777-0.49655-1.0098-0.75391c-0.33207-0.25736-0.66006-0.52014-0.98242-0.78711-0.64471-0.53393-1.2687-1.0829-1.8672-1.6367-0.59849-0.55382-1.1704-1.1112-1.7129-1.6602-0.54245-0.54895-1.0546-1.09-1.5312-1.6094s-0.91744-1.0175-1.3184-1.4824c-0.40092-0.46497-0.7627-0.89735-1.0781-1.2832-0.31542-0.38585-0.58459-0.72583-0.80469-1.0078-0.4402-0.56397-0.67969-0.89453-0.67969-0.89453-0.0619 0.54419-0.10106 1.1105-0.11328 1.6934-0.0122 0.58285 7.5e-4 1.1809 0.0391 1.793 0.0383 0.61203 0.10367 1.2374 0.19335 1.8691 0.0897 0.63174 0.2038 1.2701 0.34571 1.9121 0.1419 0.64198 0.3109 1.287 0.50586 1.9297 0.19496 0.64273 0.41716 1.284 0.66601 1.918 0.12443 0.31701 0.25452 0.63226 0.39258 0.94531s0.28375 0.62373 0.43555 0.93164c0.15179 0.30791 0.31092 0.61248 0.47656 0.91406s0.33799 0.60045 0.51758 0.89453c0.17958 0.29408 0.36495 0.58376 0.55859 0.86914s0.39572 0.56629 0.60352 0.8418c0.20779 0.2755 0.42247 0.5461 0.64453 0.81055 0.22206 0.26444 0.45107 0.5232 0.6875 0.77539s0.47957 0.49756 0.73047 0.73633 0.50991 0.47116 0.77539 0.69531 0.5382 0.44009 0.81836 0.64844 0.56638 0.40824 0.86133 0.59961c0.29495 0.19136 0.59836 0.37368 0.9082 0.54688s0.62633 0.33639 0.95117 0.49024c0.32484 0.15384 0.6581 0.29834 0.99805 0.43164 0.33994 0.1333 0.68781 0.2556 1.043 0.36719 0.35515 0.11158 0.71742 0.2121 1.0879 0.30078 0.37047 0.08868 0.74887 0.16588 1.1348 0.23047 0.38589 0.06459 0.77828 0.11694 1.1797 0.15625s0.81147 0.06527 1.2285 0.07813c0.41704 0.01285 0.82484 0.01452 1.2226 0.0059 0.39781-0.0087 0.78506-0.02757 1.1641-0.05664 0.37901-0.02907 0.74877-0.06684 1.1094-0.11524 0.36061-0.04839 0.71204-0.10721 1.0547-0.17383 0.34264-0.06662 0.67686-0.14086 1.002-0.22461 0.32509-0.08375 0.64126-0.17756 0.94922-0.27734s0.60718-0.20559 0.89844-0.32031c0.29125-0.11472 0.57464-0.23667 0.84961-0.36524 0.27496-0.12857 0.54169-0.26493 0.80078-0.40625s0.51026-0.28843 0.7539-0.44141 0.48038-0.31108 0.70899-0.47461 0.45006-0.33286 0.66406-0.50586 0.42128-0.34988 0.62109-0.53125 0.39209-0.36604 0.57813-0.55469c0.37208-0.37729 0.71759-0.76815 1.0371-1.168s0.61249-0.80907 0.88281-1.2227 0.51771-0.8314 0.74219-1.25 0.42542-0.83906 0.60742-1.2539 0.34541-0.82423 0.48828-1.2266c0.14288-0.40234 0.26593-0.79667 0.37305-1.1777 0.10711-0.38106 0.19677-0.74857 0.27148-1.0996 0.0747-0.35104 0.13402-0.6858 0.17969-0.99805 0.0457-0.31225 0.0777-0.60249 0.0977-0.86719s0.0318-0.53212 0.0332-0.80274c1e-3 -0.27062-6e-3 -0.54554-0.0234-0.82031-0.0171-0.27477-0.0444-0.55096-0.0801-0.82812s-0.0806-0.55424-0.13476-0.83203c-0.0541-0.27779-0.11688-0.55539-0.18946-0.83203-0.0726-0.27664-0.15511-0.55243-0.24609-0.82617-0.091-0.27374-0.19143-0.54539-0.30078-0.81445s-0.22778-0.5362-0.35547-0.79883c-0.12769-0.26262-0.26416-0.52097-0.41016-0.77539-0.14599-0.25442-0.30058-0.5036-0.46484-0.74805s-0.33703-0.48409-0.51953-0.7168-0.37548-0.45853-0.57617-0.67774c-0.2007-0.21921-0.41005-0.43278-0.62891-0.63672s-0.4466-0.39903-0.68359-0.58594c-0.23699-0.1869-0.4832-0.3651-0.73828-0.5332-0.25509-0.1681-0.51983-0.32512-0.79297-0.47266s-0.53921-0.28142-0.79883-0.40039-0.51219-0.22342-0.75781-0.31641c-0.24562-0.09298-0.4837-0.17457-0.71485-0.24414s-0.45566-0.12704-0.67187-0.17578-0.42421-0.08865-0.625-0.11914-0.39322-0.05158-0.57813-0.06641c-0.3698-0.02965-0.7083-0.03123-1.0117-0.01367z"
       fill="url(#linearGradient120450)"
       style="paint-order:stroke fill markers"
       id="path72" />
    <g
       fill="#fde7a2"
       id="g94">
      <path
         d="m174.36 46.33a9 9 0 0 0 0.14648-0.04297 9 9 0 0 0 1.0274-0.51758 9 9 0 0 1-1.1738 0.56055z"
         style="paint-order:stroke fill markers"
         id="path74" />
      <path
         d="m172.84 46.756a9 9 0 0 0 0.0703-0.0078 9 9 0 0 0 1.0762-0.3125 9 9 0 0 1-1.1465 0.32031z"
         style="paint-order:stroke fill markers"
         id="path76" />
      <path
         d="m168.56 46.449a9 9 0 0 0 0.37305 0.1543 9 9 0 0 0 0.24023 0.03125 9 9 0 0 1-0.61328-0.18555z"
         style="paint-order:stroke fill markers"
         id="path78" />
      <path
         d="m166.57 45.557a9 9 0 0 0 0.19336 0.14844 9 9 0 0 0 0.375 0.15625 9 9 0 0 1-0.56836-0.30469z"
         style="paint-order:stroke fill markers"
         id="path80" />
      <path
         d="m163.31 42.035a9 9 0 0 0 0.15625 0.375 9 9 0 0 0 0.14844 0.19336 9 9 0 0 1-0.30469-0.56836z"
         style="paint-order:stroke fill markers"
         id="path82" />
      <path
         d="m162.54 40a9 9 0 0 0 0.0312 0.24023 9 9 0 0 0 0.15429 0.37305 9 9 0 0 1-0.18549-0.61328z"
         style="paint-order:stroke fill markers"
         id="path84" />
      <path
         d="m162.72 35.207a9 9 0 0 0-0.15429 0.37305 9 9 0 0 0-0.0312 0.24023 9 9 0 0 1 0.18554-0.61328z"
         style="paint-order:stroke fill markers"
         id="path86" />
      <path
         d="m163.61 33.217a9 9 0 0 0-0.14844 0.19336 9 9 0 0 0-0.15625 0.375 9 9 0 0 1 0.30469-0.56836zm15.465 0.24609a9 9 0 0 1 0.14063 0.25c-0.0448-0.08476-0.0932-0.16687-0.14063-0.25z"
         style="paint-order:stroke fill markers"
         id="path88" />
      <path
         d="m167.13 29.959a9 9 0 0 0-0.375 0.15625 9 9 0 0 0-0.19336 0.14844 9 9 0 0 1 0.56836-0.30469z"
         style="paint-order:stroke fill markers"
         id="path90" />
      <path
         d="m169.17 29.186a9 9 0 0 0-0.24023 0.03125 9 9 0 0 0-0.37305 0.1543 9 9 0 0 1 0.61328-0.18555z"
         style="paint-order:stroke fill markers"
         id="path92" />
    </g>
    <path
       d="m173.57 19.434c-0.43998 0.0072-0.87132 0.02995-1.2949 0.06641-0.4236 0.03646-0.83918 0.08606-1.2461 0.15039-0.40691 0.06433-0.80542 0.14353-1.1953 0.23438-0.3899 0.09085-0.77198 0.19455-1.1445 0.31055-0.37255 0.116-0.73497 0.24302-1.0898 0.38281s-0.70217 0.2909-1.0391 0.45312-0.66385 0.33623-0.98242 0.51953-0.62781 0.37706-0.92774 0.58008c-0.29992 0.20302-0.59013 0.41534-0.87109 0.63672s-0.55278 0.45108-0.81445 0.68945-0.51381 0.48622-0.75586 0.74024c-0.24206 0.25401-0.47516 0.51491-0.69727 0.7832s-0.43292 0.543-0.63476 0.82422c-0.20185 0.28121-0.39492 0.56855-0.57618 0.86133-0.18125 0.29277-0.35138 0.59156-0.51171 0.89453-0.16034 0.30298-0.31012 0.61006-0.44922 0.92188s-0.26724 0.62796-0.38477 0.94727c-0.11753 0.3193-0.22467 0.64137-0.32031 0.9668-0.0957 0.32543-0.18048 0.65418-0.25391 0.98438-0.0734 0.33019-0.13465 0.6625-0.18554 0.99609-0.0509 0.3336-0.0911 0.66826-0.11915 1.0039-0.028 0.33564-0.044 0.67148-0.0488 1.0078-5e-3 0.33633 8.5e-4 0.67411 0.0195 1.0098 0.0187 0.33566 0.0493 0.67028 0.0918 1.0039s0.0974 0.66586 0.16407 0.99609c0.0667 0.33024 0.14516 0.65889 0.23633 0.98437 0.0912 0.32549 0.19457 0.64742 0.31054 0.9668 0.11598 0.31938 0.24561 0.63536 0.38672 0.94727s0.29437 0.62075 0.46094 0.92383 0.3467 0.59968 0.53906 0.89258 0.39676 0.58193 0.61524 0.86328c0.21847 0.28135 0.4504 0.55578 0.69531 0.82422 0.38901 0.42641 0.77393 0.81321 1.1543 1.166 0.38037 0.3528 0.75617 0.6716 1.127 0.95898 0.35607 0.18644 0.71463 0.36173 1.0742 0.52344 0.36222 0.16289 0.72527 0.31255 1.0898 0.44726 0.36457 0.13472 0.73002 0.25398 1.0957 0.35742 0.36569 0.10345 0.73208 0.19069 1.0977 0.25977s0.72951 0.12071 1.0938 0.15234c0.36424 0.0316 0.72816 0.0421 1.0898 0.0332s0.72219-0.03727 1.0801-0.08984 0.71354-0.12922 1.0664-0.22852 0.7022-0.22196 1.0488-0.37109c0.34662-0.14913 0.69014-0.32333 1.0293-0.52539s0.67541-0.43138 1.0059-0.68945c0.054-0.04221 0.0964-0.08814 0.14844-0.13086a9 9 0 0 1-0.2207 0.10547 9 9 0 0 1-1.0274 0.51758 9 9 0 0 1-0.14648 0.04297 9 9 0 0 1-0.36914 0.10547 9 9 0 0 1-1.0762 0.3125 9 9 0 0 1-0.0703 0.0078 9 9 0 0 1-1.5801 0.1543 9 9 0 0 1-2.0898-0.27539 9 9 0 0 1-0.24023-0.03125 9 9 0 0 1-0.37305-0.1543 9 9 0 0 1-1.4219-0.58789 9 9 0 0 1-0.375-0.15625 9 9 0 0 1-0.19336-0.14844 9 9 0 0 1-1.6699-1.2832 9 9 0 0 1-1.2832-1.6699 9 9 0 0 1-0.14844-0.19336 9 9 0 0 1-0.15625-0.375 9 9 0 0 1-0.58789-1.4219 9 9 0 0 1-0.15429-0.37305 9 9 0 0 1-0.03127-0.24023 9 9 0 0 1-0.27539-2.0898 9 9 0 0 1 0.27539-2.0898 9 9 0 0 1 0.0312-0.24023 9 9 0 0 1 0.15429-0.37305 9 9 0 0 1 0.58789-1.4219 9 9 0 0 1 0.15625-0.375 9 9 0 0 1 0.14844-0.19336 9 9 0 0 1 1.2832-1.6699 9 9 0 0 1 1.6699-1.2832 9 9 0 0 1 0.19336-0.14844 9 9 0 0 1 0.375-0.15625 9 9 0 0 1 1.4219-0.58789 9 9 0 0 1 0.37305-0.1543 9 9 0 0 1 0.24023-0.03125 9 9 0 0 1 2.0898-0.27539s0.16778-0.0913 0.48632-0.19141c0.15928-0.05005 0.35466-0.10236 0.58789-0.14648 0.23324-0.04412 0.50323-0.0801 0.80664-0.09766 0.30342-0.01756 0.64192-0.01598 1.0117 0.01367 0.18491 0.01482 0.37734 0.03591 0.57813 0.06641 0.20079 0.03049 0.40879 0.0704 0.625 0.11914s0.44072 0.10621 0.67187 0.17578 0.46923 0.15116 0.71485 0.24414 0.49819 0.19744 0.75781 0.31641 0.52569 0.25285 0.79883 0.40039 0.53788 0.30455 0.79297 0.47266c0.25508 0.16811 0.50129 0.3463 0.73828 0.5332 0.23699 0.18691 0.46473 0.382 0.68359 0.58594s0.42821 0.41751 0.62891 0.63672c0.20069 0.21921 0.39367 0.44502 0.57617 0.67774s0.35527 0.47235 0.51953 0.7168 0.31885 0.49363 0.46484 0.74805c0.146 0.25442 0.28247 0.51277 0.41016 0.77539s0.24612 0.52976 0.35547 0.79883 0.2098 0.54072 0.30078 0.81445c0.091 0.27374 0.17352 0.54953 0.24609 0.82617 0.0726 0.27665 0.13533 0.55424 0.18946 0.83203 0.0541 0.27779 0.0991 0.55487 0.13476 0.83203 0.0357 0.27716 0.0629 0.55335 0.0801 0.82812 0.0171 0.27477 0.0249 0.54969 0.0234 0.82031-1e-3 0.27062-0.0132 0.53804-0.0332 0.80274-0.0104 0.1383-0.0335 0.30138-0.0508 0.45312l8.6113-3.7656c0-0.37999-0.0201-0.78632-0.0625-1.2148s-0.10688-0.8784-0.19336-1.3457c-0.0865-0.4673-0.19589-0.95289-0.32812-1.4492s-0.28713-1.0039-0.4668-1.5195c-0.17966-0.51559-0.3845-1.0394-0.61328-1.5645-0.22878-0.52509-0.48214-1.0513-0.76172-1.5762-0.27958-0.52483-0.58396-1.0477-0.91601-1.5625-0.16603-0.25741-0.34007-0.51255-0.51953-0.76562-0.17947-0.25308-0.36549-0.50443-0.5586-0.75195-0.1931-0.24752-0.39265-0.49167-0.59961-0.73242s-0.42155-0.47818-0.64258-0.71094c-0.22102-0.23276-0.44829-0.46005-0.68359-0.68359s-0.47873-0.44314-0.72852-0.65625c-0.24978-0.21311-0.507-0.41964-0.77148-0.62109-0.26448-0.20146-0.53507-0.39735-0.81445-0.58594-0.27939-0.18858-0.56683-0.37043-0.86133-0.54492s-0.59643-0.34082-0.90625-0.5-0.62777-0.31048-0.95313-0.45312c-0.32535-0.14265-0.6589-0.27745-1-0.40234s-0.68982-0.23978-1.0469-0.3457c-0.35706-0.10593-0.72249-0.20333-1.0957-0.28906-0.37322-0.08573-0.75299-0.16029-1.1426-0.22461-0.3896-0.06432-0.78914-0.11846-1.1953-0.16016-0.40618-0.04169-0.81922-0.072-1.2422-0.08984s-0.85495-0.02285-1.2949-0.01563z"
       fill="url(#linearGradient136781)"
       style="paint-order:stroke fill markers"
       id="path96" />
    <path
       d="m171.7 15.764c-0.40892 0-0.81376 0.0093-1.2129 0.02734-0.39913 0.01802-0.79244 0.04472-1.1816 0.08008-0.3892 0.03535-0.77322 0.07885-1.1523 0.13086-0.37913 0.05201-0.75414 0.1117-1.123 0.17969-0.36891 0.06799-0.73129 0.14522-1.0898 0.22852-0.35855 0.08329-0.7125 0.17357-1.0606 0.27148-0.34805 0.09792-0.68993 0.20259-1.0273 0.31445-0.33742 0.11186-0.67142 0.23034-0.99805 0.35547s-0.64718 0.25682-0.96289 0.39453-0.62504 0.28202-0.92969 0.43164-0.60499 0.30399-0.89844 0.46484c-0.29344 0.16085-0.58118 0.3286-0.86328 0.5s-0.55751 0.34802-0.82812 0.5293c-0.27062 0.18127-0.53594 0.36618-0.79492 0.55664-0.51798 0.38093-1.0118 0.77973-1.4824 1.1934s-0.9177 0.8423-1.3398 1.2832-0.82084 0.89468-1.1934 1.3574-0.71923 0.93491-1.041 1.4141c-0.32178 0.47915-0.6168 0.96495-0.88671 1.4551-0.26992 0.49013-0.51551 0.98479-0.73243 1.4805-0.21691 0.49568-0.40557 0.99248-0.56836 1.4883-0.16278 0.4958-0.29872 0.98997-0.40624 1.4805-0.10753 0.4905-0.18715 0.97728-0.23829 1.457 0 0 0.23949 0.33056 0.67969 0.89453 0.2201 0.28199 0.48927 0.62196 0.80469 1.0078 0.31542 0.38585 0.6772 0.81823 1.0781 1.2832 0.40092 0.46497 0.84176 0.96308 1.3184 1.4824s0.9888 1.0604 1.5312 1.6094c0.54246 0.54895 1.1144 1.1063 1.7129 1.6602 0.5985 0.55382 1.2225 1.1028 1.8672 1.6367 0.32236 0.26697 0.65035 0.52975 0.98242 0.78711s0.66922 0.50926 1.0098 0.75391 0.68539 0.48209 1.0332 0.71094 0.69889 0.4502 1.0527 0.66016c0.35384 0.20996 0.70971 0.40969 1.0684 0.59766 3e-3 0.0014 5e-3 0.0025 8e-3 0.0039-0.37079-0.28739-0.74659-0.60618-1.127-0.95898-0.38036-0.3528-0.76528-0.73961-1.1543-1.166-0.24491-0.26844-0.47684-0.54287-0.69531-0.82422-0.21848-0.28135-0.42288-0.57039-0.61524-0.86328s-0.37249-0.5895-0.53906-0.89258-0.31983-0.61192-0.46094-0.92383-0.27074-0.62789-0.38672-0.94727c-0.11597-0.31938-0.21938-0.64131-0.31054-0.9668-0.0912-0.32548-0.16966-0.65414-0.23633-0.98437-0.0667-0.33024-0.12155-0.66247-0.16407-0.99609-0.0425-0.33363-0.0731-0.66825-0.0918-1.0039-0.0187-0.33566-0.0244-0.67344-0.0195-1.0098 5e-3 -0.33633 0.0208-0.67217 0.0488-1.0078s0.0683-0.67031 0.11915-1.0039c0.0509-0.3336 0.11211-0.6659 0.18554-0.99609 0.0734-0.33019 0.15826-0.65895 0.25391-0.98438 0.0956-0.32543 0.20278-0.6475 0.32031-0.9668s0.24567-0.63545 0.38477-0.94727 0.28888-0.6189 0.44922-0.92188c0.16033-0.30298 0.33046-0.60176 0.51171-0.89453 0.18126-0.29278 0.37433-0.58012 0.57618-0.86133 0.20184-0.28121 0.41265-0.55593 0.63476-0.82422s0.45521-0.52919 0.69727-0.7832c0.24205-0.25401 0.49419-0.50186 0.75586-0.74024s0.53349-0.46808 0.81445-0.68945 0.57117-0.4337 0.87109-0.63672c0.29993-0.20302 0.60917-0.39677 0.92774-0.58008 0.31857-0.1833 0.64553-0.3573 0.98242-0.51953s0.68418-0.31333 1.0391-0.45312 0.7173-0.26681 1.0898-0.38281c0.37255-0.116 0.75463-0.2197 1.1445-0.31055 0.38989-0.09085 0.7884-0.17004 1.1953-0.23438 0.40691-0.06433 0.82249-0.11393 1.2461-0.15039s0.85495-0.05918 1.2949-0.06641c0.43997-0.0072 0.87194-0.0022 1.2949 0.01563 0.42297 0.01784 0.83601 0.04815 1.2422 0.08984 0.40617 0.04169 0.80571 0.09583 1.1953 0.16016 0.38959 0.06432 0.76936 0.13888 1.1426 0.22461 0.37321 0.08573 0.73864 0.18314 1.0957 0.28906 0.35705 0.10592 0.70577 0.22081 1.0469 0.3457s0.67465 0.2597 1 0.40234c0.32536 0.14265 0.64331 0.29394 0.95313 0.45312s0.61175 0.32551 0.90625 0.5 0.58194 0.35634 0.86133 0.54492c0.27938 0.18859 0.54997 0.38448 0.81445 0.58594s0.5217 0.40798 0.77148 0.62109c0.24979 0.21311 0.49322 0.43271 0.72852 0.65625s0.46257 0.45084 0.68359 0.68359c0.22103 0.23276 0.43562 0.47019 0.64258 0.71094s0.40651 0.4849 0.59961 0.73242c0.19311 0.24752 0.37913 0.49888 0.5586 0.75195 0.17946 0.25308 0.3535 0.50822 0.51953 0.76562 0.22223 0.34455 0.42865 0.69303 0.62695 1.043 7.2e-4 0.0013 1e-3 0.0026 2e-3 0.0039l2.5332-1.6211s-0.12456-0.18202-0.36914-0.5c-0.24459-0.31798-0.60823-0.7713-1.0859-1.3164-0.23886-0.27255-0.50775-0.56856-0.80274-0.88086-0.29498-0.3123-0.61711-0.64173-0.96679-0.98242-0.34969-0.34069-0.72596-0.69306-1.1289-1.0508-0.40295-0.35772-0.83233-0.72058-1.2871-1.084s-0.93623-0.72626-1.4414-1.084c-0.50517-0.35773-1.0337-0.71009-1.5879-1.0508-0.55414-0.34069-1.1327-0.67012-1.7344-0.98242-0.30084-0.15615-0.60747-0.30816-0.91992-0.45508-0.31246-0.14692-0.63119-0.2895-0.95508-0.42578s-0.65314-0.26642-0.98828-0.39062c-0.33515-0.12421-0.67527-0.24279-1.0215-0.35352-0.34622-0.11072-0.69952-0.21278-1.0566-0.30859-0.35712-0.09582-0.7181-0.18418-1.0859-0.26367-0.36784-0.0795-0.74077-0.15114-1.1192-0.21289-0.37837-0.06175-0.7636-0.11366-1.1523-0.15625-0.38874-0.04259-0.78272-0.07565-1.1816-0.09766-0.39892-0.022-0.80201-0.0332-1.2109-0.0332z"
       fill="url(#linearGradient120180)"
       style="paint-order:stroke fill markers"
       id="path98" />
    <path
       d="m176.59 60.555v-6.3809c-0.0634 0.03583-0.12313 0.07426-0.1875 0.10938-0.25909 0.14132-0.52582 0.27768-0.80078 0.40625-0.27497 0.12857-0.55836 0.25051-0.84961 0.36524-0.29126 0.11472-0.59048 0.22053-0.89844 0.32031s-0.62413 0.1936-0.94922 0.27734c-0.32509 0.08375-0.65931 0.15799-1.002 0.22461-0.34265 0.06662-0.69408 0.12543-1.0547 0.17383-0.36061 0.04839-0.73037 0.08616-1.1094 0.11524-0.379 0.02907-0.76625 0.04798-1.1641 0.05664-0.39781 0.0087-0.80561 7e-3 -1.2226-0.0059-0.41705-0.01285-0.82711-0.03881-1.2285-0.07813-0.40141-0.03931-0.7938-0.09166-1.1797-0.15625s-0.76429-0.14179-1.1348-0.23047c-0.37047-0.08868-0.73274-0.1892-1.0879-0.30078s-0.70303-0.23388-1.043-0.36719c-0.33995-0.1333-0.67321-0.2778-0.99805-0.43164s-0.64133-0.31704-0.95117-0.49024-0.61325-0.35551-0.9082-0.54688c-0.29495-0.19136-0.58117-0.39126-0.86133-0.59961s-0.55288-0.42429-0.81836-0.64844-0.52449-0.45655-0.77539-0.69531-0.49404-0.48413-0.73047-0.73633-0.46544-0.51095-0.6875-0.77539-0.43674-0.53504-0.64453-0.81055c-0.2078-0.2755-0.40988-0.55641-0.60352-0.8418-0.19364-0.28538-0.37901-0.57506-0.55859-0.86914-0.17959-0.29408-0.35194-0.59294-0.51758-0.89453s-0.32477-0.60615-0.47656-0.91406c-0.1518-0.30791-0.29749-0.61859-0.43555-0.93164s-0.26815-0.62831-0.39258-0.94531c-0.18523-0.47193-0.3504-0.94821-0.50586-1.4258l-5.4746 0.5625s0.15622 0.31593 0.4668 0.86523c0.15529 0.27465 0.34998 0.60771 0.58203 0.98828s0.50233 0.80984 0.81055 1.2754c0.30821 0.46555 0.65332 0.96846 1.0371 1.498 0.38379 0.52958 0.8049 1.0855 1.2637 1.6582s0.95511 1.161 1.4883 1.7559c0.53317 0.59485 1.104 1.1949 1.7109 1.791 0.30348 0.29804 0.61567 0.59621 0.9375 0.89062 0.32182 0.29441 0.65405 0.58682 0.99414 0.875s0.68859 0.57224 1.0469 0.85156c0.35829 0.27932 0.72516 0.55246 1.1016 0.82031 0.3764 0.26785 0.7618 0.52944 1.1562 0.7832 0.39444 0.25376 0.79852 0.50123 1.2109 0.73828 0.41242 0.23705 0.83336 0.46391 1.2637 0.68164 0.43031 0.21773 0.87022 0.42531 1.3184 0.62109 0.44813 0.19578 0.9052 0.37956 1.3711 0.55078 0.46588 0.17123 0.94027 0.33056 1.4238 0.47461 0.48356 0.14405 0.9754 0.27246 1.4766 0.38672s1.0106 0.21308 1.5293 0.29492c0.51869 0.08184 1.0478 0.1485 1.584 0.19531 0.53614 0.04682 1.0793 0.07482 1.6328 0.08398 0.55353 0.0092 1.1167-0.0021 1.6875-0.0332 0.57083-0.0311 1.1502-0.08228 1.7383-0.15625 0.58805-0.07398 1.1571-0.16539 1.709-0.27344 0.24089-0.04717 0.4766-0.09885 0.71094-0.15234z"
       fill="url(#linearGradient166410)"
       style="paint-order:stroke fill markers"
       id="path100" />
    <path
       d="m192.97 38.199-8.6113 3.7656c-0.0158 0.13868-0.0251 0.26496-0.0469 0.41406-0.0457 0.31225-0.10498 0.64701-0.17969 0.99805-0.0747 0.35104-0.16437 0.71854-0.27148 1.0996-0.10712 0.38107-0.23017 0.7754-0.37305 1.1777-0.14287 0.40234-0.30628 0.81172-0.48828 1.2266-0.182 0.41485-0.38294 0.83531-0.60742 1.2539s-0.47187 0.83642-0.74219 1.25-0.56329 0.82284-0.88281 1.2227-0.66503 0.79068-1.0371 1.168c-0.18604 0.18864-0.37832 0.37332-0.57813 0.55469s-0.40709 0.35825-0.62109 0.53125-0.43545 0.34233-0.66406 0.50586-0.46535 0.32164-0.70899 0.47461c-0.1831 0.11496-0.37463 0.22366-0.5664 0.33203v6.3809c0.30248-0.06905 0.60138-0.14194 0.89258-0.2207 0.51677-0.13978 1.0152-0.29374 1.498-0.46289 0.48287-0.16916 0.95029-0.35264 1.4004-0.54883 0.4501-0.19619 0.88425-0.40608 1.3027-0.62695 0.41849-0.22087 0.82095-0.45406 1.209-0.69726s0.76042-0.49657 1.1191-0.75977c0.35872-0.2632 0.7046-0.53557 1.0352-0.81641s0.64567-0.5691 0.94922-0.86523 0.59535-0.59912 0.87304-0.9082c0.2777-0.30908 0.54194-0.62563 0.79493-0.94531 0.25298-0.31968 0.49322-0.64277 0.72265-0.9707s0.44727-0.66031 0.6543-0.99414 0.40407-0.67042 0.58984-1.0078c0.18578-0.33739 0.36168-0.67507 0.52735-1.0137s0.32203-0.67816 0.46875-1.0156c0.14671-0.33746 0.28319-0.67188 0.41211-1.0059 0.12891-0.33398 0.24906-0.666 0.36132-0.99414 0.22453-0.65629 0.4172-1.2991 0.58204-1.918 0.16483-0.61887 0.30167-1.2147 0.41601-1.7773 0.11435-0.56268 0.20624-1.0924 0.2793-1.5801 0.0731-0.4877 0.12698-0.93223 0.16797-1.3262 0.041-0.39394 0.0698-0.73812 0.0879-1.0195 0.0362-0.56282 0.0351-0.88086 0.0351-0.88086z"
       fill="url(#linearGradient219550)"
       style="paint-order:stroke fill markers"
       id="path102" />
    <path
       d="m171.26 7.9102a30 30 0 0 0-30 30 30 30 0 0 0 30 30 30 30 0 0 0 30-30 30 30 0 0 0-30-30zm0.43554 7.8535c0.40893 0 0.81202 0.0112 1.2109 0.0332s0.7929 0.05507 1.1816 0.09766 0.77397 0.0945 1.1523 0.15625c0.37838 0.06175 0.7513 0.1334 1.1192 0.21289 0.36783 0.07949 0.72881 0.16785 1.0859 0.26367 0.35712 0.09582 0.71042 0.19787 1.0566 0.30859 0.34622 0.11072 0.68634 0.2293 1.0215 0.35352 0.33514 0.12421 0.66439 0.25435 0.98828 0.39062s0.64262 0.27886 0.95508 0.42578c0.31245 0.14692 0.61908 0.29893 0.91992 0.45508 0.60168 0.3123 1.1802 0.64173 1.7344 0.98242 0.55415 0.34069 1.0827 0.69306 1.5879 1.0508 0.50518 0.35772 0.98663 0.72058 1.4414 1.084s0.88416 0.72626 1.2871 1.084c0.40295 0.35773 0.77922 0.71009 1.1289 1.0508 0.34968 0.34069 0.67181 0.67012 0.96679 0.98242 0.29499 0.3123 0.56388 0.60831 0.80274 0.88086 0.47771 0.5451 0.84135 0.99843 1.0859 1.3164 0.24458 0.31798 0.36914 0.5 0.36914 0.5l-2.5332 1.6211c0.0972 0.17166 0.19532 0.34332 0.28711 0.51562 0.27958 0.52483 0.53294 1.0511 0.76172 1.5762 0.22878 0.52509 0.43362 1.0489 0.61328 1.5645 0.17967 0.51559 0.33457 1.0232 0.4668 1.5195s0.24165 0.98191 0.32812 1.4492c0.0865 0.4673 0.15097 0.91718 0.19336 1.3457 0.0424 0.42853 0.0625 0.83486 0.0625 1.2148 0 0 1e-3 0.31804-0.0351 0.88086-0.0181 0.28141-0.0469 0.62559-0.0879 1.0195-0.041 0.39395-0.0949 0.83847-0.16797 1.3262-0.0731 0.4877-0.16495 1.0174-0.2793 1.5801-0.11434 0.56268-0.25118 1.1585-0.41601 1.7773-0.16484 0.61887-0.35751 1.2617-0.58204 1.918-0.11226 0.32814-0.23241 0.66016-0.36132 0.99414-0.12892 0.33398-0.2654 0.6684-0.41211 1.0059-0.14672 0.33746-0.30308 0.67702-0.46875 1.0156s-0.34157 0.67628-0.52735 1.0137c-0.18577 0.33739-0.38281 0.67398-0.58984 1.0078s-0.42487 0.66621-0.6543 0.99414-0.46967 0.65102-0.72265 0.9707c-0.25299 0.31968-0.51723 0.63623-0.79493 0.94531-0.27769 0.30908-0.56949 0.61207-0.87304 0.9082s-0.61866 0.5844-0.94922 0.86523-0.67644 0.55321-1.0352 0.81641c-0.35872 0.2632-0.73111 0.51656-1.1191 0.75977s-0.79049 0.4764-1.209 0.69726c-0.41849 0.22087-0.85264 0.43077-1.3027 0.62695-0.4501 0.19619-0.91752 0.37967-1.4004 0.54883-0.48286 0.16916-0.98127 0.32312-1.498 0.46289-0.51678 0.13978-1.0517 0.265-1.6035 0.37305-0.55184 0.10805-1.1209 0.19946-1.709 0.27344-0.58806 0.07397-1.1675 0.12516-1.7383 0.15625-0.57082 0.03109-1.134 0.04237-1.6875 0.0332-0.55352-0.0092-1.0967-0.03717-1.6328-0.08398-0.53614-0.04682-1.0653-0.11347-1.584-0.19531-0.51869-0.08184-1.0281-0.18067-1.5293-0.29492s-0.993-0.24267-1.4766-0.38672c-0.48356-0.14405-0.95795-0.30338-1.4238-0.47461-0.46589-0.17123-0.92296-0.355-1.3711-0.55078-0.44814-0.19579-0.88805-0.40337-1.3184-0.62109-0.43032-0.21773-0.85126-0.44459-1.2637-0.68164-0.41241-0.23705-0.81649-0.48452-1.2109-0.73828-0.39445-0.25376-0.77985-0.51535-1.1562-0.7832-0.37641-0.26785-0.74328-0.54099-1.1016-0.82031-0.35828-0.27932-0.70678-0.56338-1.0469-0.85156s-0.67232-0.58059-0.99414-0.875c-0.32183-0.29441-0.63402-0.59259-0.9375-0.89062-0.60697-0.59607-1.1778-1.1962-1.7109-1.791-0.53317-0.59485-1.0295-1.1832-1.4883-1.7559s-0.87988-1.1286-1.2637-1.6582c-0.38379-0.52959-0.7289-1.0325-1.0371-1.498-0.30822-0.46555-0.5785-0.89482-0.81055-1.2754s-0.42674-0.71363-0.58203-0.98828c-0.31058-0.5493-0.4668-0.86523-0.4668-0.86523l5.4746-0.5625c-0.0534-0.16402-0.11031-0.32788-0.16015-0.49219-0.19496-0.64273-0.36396-1.2877-0.50586-1.9297-0.14191-0.64198-0.25602-1.2804-0.34571-1.9121-0.0897-0.63174-0.15504-1.2571-0.19335-1.8691-0.0383-0.61204-0.0513-1.2101-0.0391-1.793s0.0514-1.1492 0.11328-1.6934c0.0511-0.47976 0.13076-0.96654 0.23829-1.457 0.10752-0.49049 0.24346-0.98466 0.40624-1.4805 0.1628-0.4958 0.35145-0.9926 0.56836-1.4883 0.21692-0.49568 0.46251-0.99034 0.73243-1.4805 0.26991-0.49013 0.56493-0.97593 0.88671-1.4551 0.32179-0.47915 0.6685-0.95132 1.041-1.4141s0.77122-0.91652 1.1934-1.3574 0.86922-0.86957 1.3398-1.2832 0.96445-0.81243 1.4824-1.1934c0.25898-0.19047 0.5243-0.37537 0.79492-0.55664 0.27061-0.18127 0.54602-0.3579 0.82812-0.5293s0.56984-0.33915 0.86328-0.5c0.29345-0.16085 0.59379-0.31522 0.89844-0.46484s0.61398-0.29393 0.92969-0.43164 0.63626-0.2694 0.96289-0.39453 0.66063-0.24361 0.99805-0.35547c0.33741-0.11186 0.67929-0.21654 1.0273-0.31445 0.34805-0.09792 0.702-0.18819 1.0606-0.27148 0.35855-0.08329 0.72093-0.16052 1.0898-0.22852 0.36891-0.06799 0.74392-0.12768 1.123-0.17969 0.37912-0.05201 0.76314-0.09551 1.1523-0.13086 0.3892-0.03535 0.78251-0.06206 1.1816-0.08008s0.80397-0.02734 1.2129-0.02734zm-0.43554 13.146c0.28569 0 0.56884 0.01419 0.84765 0.04102-0.27881-0.02683-0.56196-0.04102-0.84765-0.04102zm1.6797 0.1582c0.26686 0.05038 0.52812 0.11453 0.78516 0.18945-0.25704-0.07492-0.5183-0.13908-0.78516-0.18945zm-3.7715 0.11719a9 9 0 0 0-0.61133 0.18555 9 9 0 0 1 0.61133-0.18555zm5.4258 0.36914c0.24262 0.0969 0.47836 0.20465 0.70898 0.32226-0.23062-0.11761-0.46636-0.22536-0.70898-0.32226zm-7.459 0.4043a9 9 0 0 0-0.56836 0.30469 9 9 0 0 1 0.56836-0.30469zm8.9707 0.375c0.2151 0.1379 0.42353 0.28583 0.625 0.44141-0.20147-0.15558-0.4099-0.30351-0.625-0.44141zm1.3359 1.0469c0.18488 0.1751 0.36232 0.35846 0.53125 0.54883-0.16893-0.19037-0.34637-0.37373-0.53125-0.54883zm1.1035 1.2598c0.1517 0.20931 0.29454 0.42438 0.42774 0.64648-0.1332-0.22211-0.27604-0.43717-0.42774-0.64648zm-14.932 0.57617a9 9 0 0 0-0.30469 0.56836 9 9 0 0 1 0.30469-0.56836zm15.781 0.86133c0.11513 0.2439 0.22114 0.4921 0.31641 0.74609-0.0953-0.25399-0.20128-0.5022-0.31641-0.74609z"
       fill="url(#linearGradient101338)"
       style="paint-order:stroke fill markers"
       id="path104" />
    <path
       d="m 173.14,28.475 c -0.76812,-0.0088 -2.77982,0.551172 -0.96065,0.482016 4.37717,0.355174 8.05991,4.328548 8.07686,8.721238 0.16098,2.95733 -1.3011,5.892868 -3.77511,7.5292 -1.83393,1.410859 -3.99558,2.592386 -6.3823,2.495197 -4.67302,-0.125782 -8.69979,-2.991073 -12.13998,-5.896599 -3.06871,-2.68124 -5.82682,-5.71311 -8.27587,-8.967752 -0.56374,5.980557 1.25811,12.176986 4.93804,16.921199 3.12764,4.087991 8.19412,6.577721 13.35052,6.468792 4.74264,0.118817 9.67452,-1.683766 12.67455,-5.470868 2.54121,-3.203758 4.11689,-7.369994 3.71853,-11.488742 -0.4628,-4.493212 -3.43639,-8.788676 -7.80563,-10.242081 -1.09124,-0.393132 -2.25643,-0.616488 -3.41896,-0.5516 z"
       fill="url(#linearGradient120450)"
       style="fill:url(#linearGradient13870);paint-order:stroke fill markers"
       id="path106" />
    <g
       fill="#fde7a2"
       id="g128">
      <path
         d="m174.36 46.33a9 9 0 0 0 0.14648-0.04297 9 9 0 0 0 1.0274-0.51758 9 9 0 0 1-1.1738 0.56055z"
         style="paint-order:stroke fill markers"
         id="path108" />
      <path
         d="m172.84 46.756a9 9 0 0 0 0.0703-0.0078 9 9 0 0 0 1.0762-0.3125 9 9 0 0 1-1.1465 0.32031z"
         style="paint-order:stroke fill markers"
         id="path110" />
      <path
         d="m168.56 46.449a9 9 0 0 0 0.37305 0.1543 9 9 0 0 0 0.24023 0.03125 9 9 0 0 1-0.61328-0.18555z"
         style="paint-order:stroke fill markers"
         id="path112" />
      <path
         d="m166.57 45.557a9 9 0 0 0 0.19336 0.14844 9 9 0 0 0 0.375 0.15625 9 9 0 0 1-0.56836-0.30469z"
         style="paint-order:stroke fill markers"
         id="path114" />
      <path
         d="m163.31 42.035a9 9 0 0 0 0.15625 0.375 9 9 0 0 0 0.14844 0.19336 9 9 0 0 1-0.30469-0.56836z"
         style="paint-order:stroke fill markers"
         id="path116" />
      <path
         d="m162.54 40a9 9 0 0 0 0.0312 0.24023 9 9 0 0 0 0.15429 0.37305 9 9 0 0 1-0.18549-0.61328z"
         style="paint-order:stroke fill markers"
         id="path118" />
      <path
         d="m162.72 35.207a9 9 0 0 0-0.15429 0.37305 9 9 0 0 0-0.0312 0.24023 9 9 0 0 1 0.18554-0.61328z"
         style="paint-order:stroke fill markers"
         id="path120" />
      <path
         d="m163.61 33.217a9 9 0 0 0-0.14844 0.19336 9 9 0 0 0-0.15625 0.375 9 9 0 0 1 0.30469-0.56836zm15.465 0.24609a9 9 0 0 1 0.14063 0.25c-0.0448-0.08476-0.0932-0.16687-0.14063-0.25z"
         style="paint-order:stroke fill markers"
         id="path122" />
      <path
         d="m167.13 29.959a9 9 0 0 0-0.375 0.15625 9 9 0 0 0-0.19336 0.14844 9 9 0 0 1 0.56836-0.30469z"
         style="paint-order:stroke fill markers"
         id="path124" />
      <path
         d="m169.17 29.186a9 9 0 0 0-0.24023 0.03125 9 9 0 0 0-0.37305 0.1543 9 9 0 0 1 0.61328-0.18555z"
         style="paint-order:stroke fill markers"
         id="path126" />
    </g>
    <path
       d="m 173.57,19.434 c -5.43944,-0.0239 -10.86957,2.872971 -13.53317,7.67587 -2.94916,4.98827 -2.70306,11.833932 1.15223,16.284081 1.24563,1.442111 2.65769,2.833139 4.52974,3.39914 3.0841,1.303828 6.89988,1.316397 9.63173,-0.809566 1.01601,-0.786707 -0.78525,0.423507 -1.36638,0.452445 -6.37656,2.457406 -13.48013,-4.358039 -11.42001,-10.85539 1.0738,-4.613963 5.69187,-6.65024 9.94929,-7.039223 3.81922,-0.430382 7.63398,1.75783 9.72251,4.892743 1.64968,2.484948 2.47126,5.557022 2.12106,8.53124 2.87043,-1.2552 5.74087,-2.5104 8.6113,-3.7656 -0.19274,-5.208546 -2.62531,-10.261901 -6.3457,-13.87692 -3.44627,-3.350677 -8.27985,-5.027527 -13.0526,-4.88882 z"
       fill="url(#linearGradient136781)"
       style="fill:url(#linearGradient980);paint-order:stroke fill markers"
       id="path130" />
    <path
       d="m 171.7,15.764 c -7.73582,-0.11922 -15.59357,3.738146 -19.6423,10.436365 -1.229,2.018768 -2.11208,4.278494 -2.36922,6.637975 3.92786,5.096812 8.45348,9.956977 14.1467,13.08791 -3.67378,-2.710425 -6.03059,-7.187688 -5.79501,-11.78928 0.12643,-6.389962 4.75824,-12.35924 10.93745,-14.025875 6.54298,-1.859314 14.14834,0.05387 18.66255,5.247679 1.00584,1.116293 1.8869,2.34528 2.6227,3.655356 0.8444,-0.540367 1.6888,-1.080733 2.5332,-1.6211 C 187.85488,20.82994 180.14111,15.72972 171.7,15.764 Z"
       fill="url(#linearGradient120180)"
       style="fill:url(#linearGradient15246);paint-order:stroke fill markers"
       id="path132" />
    <path
       d="m 176.59,60.555 c 0,-2.126967 0,-4.253933 0,-6.3809 -3.76065,2.105526 -8.32278,2.489 -12.502,1.64243 -5.24519,-1.086242 -9.50772,-5.035225 -11.82629,-9.75592 -0.67543,-1.063793 -0.95319,-2.628245 -1.594,-3.518182 -1.7766,0.182541 -3.5532,0.365081 -5.3298,0.547622 3.01932,5.570232 7.26878,10.570997 12.59572,14.0527 4.86701,3.205299 10.89036,4.677602 16.6739,3.779139 0.66544,-0.09502 1.32778,-0.215437 1.98247,-0.366889 z"
       fill="url(#linearGradient166410)"
       style="fill:url(#linearGradient3317);paint-order:stroke fill markers"
       id="path134" />
    <path
       d="m 192.97,38.199 c -2.87043,1.2552 -5.74087,2.5104 -8.6113,3.7656 -0.61209,4.929413 -3.35966,9.750392 -7.76759,12.20905 0,2.126967 0,4.253933 0,6.3809 4.62979,-0.991472 8.88849,-3.694019 11.62269,-7.577188 3.01002,-4.223127 4.49202,-9.406675 4.75215,-14.54893 l 0.004,-0.170884 3.9e-4,-0.05849 z"
       fill="url(#linearGradient219550)"
       style="fill:url(#linearGradient3252);paint-order:stroke fill markers"
       id="path136" />
    <path
       d="m 171.26,7.9102 c -20.55857,-0.8493632 -36.36852,22.8119 -27.71639,41.480503 7.08272,19.318677 34.99308,24.870393 48.92959,9.7327 C 206.3979,46.289092 203.04951,21.451022 186.84752,12.277618 182.18112,9.4310668 176.72611,7.9026352 171.26,7.9102 Z m 0.43554,7.8535 c 8.44272,-0.02017 16.15013,5.050456 21.09555,11.62896 -0.65793,0.7351 -2.82658,1.089711 -2.24609,2.13672 2.27373,4.077338 3.01777,8.934733 1.85551,13.47656 -1.32572,7.35157 -6.09268,14.480461 -13.41796,16.86524 -7.73966,2.781906 -16.66758,0.976171 -23.03434,-4.123665 -4.38664,-3.393587 -7.98428,-7.78047 -10.60828,-12.657535 1.82487,-0.1875 3.64973,-0.375 5.4746,-0.5625 -1.88442,-5.564343 -1.86427,-12.137446 1.70114,-17.05089 4.17566,-6.279442 11.7202,-9.809819 19.17987,-9.71289 z M 171.26,28.9097 c 1.12296,0.04522 1.12296,0.04522 0,0 z m 1.6797,0.1582 c 1.0418,0.242341 1.0418,0.242327 0,0 z m -3.7715,0.11719 -0.61133,0.18555 z m 5.4258,0.36914 c 0.94217,0.419468 0.94217,0.419468 0,0 z m -7.459,0.4043 -0.56836,0.30469 z m 8.9707,0.375 c 0.83196,0.578413 0.83196,0.578413 0,0 z m 1.3359,1.0469 c 0.70881,0.721617 0.70881,0.721617 0,0 z m 1.1035,1.2598 c 0.57271,0.851917 0.57271,0.851901 0,0 z m -14.932,0.57617 -0.30469,0.56836 z m 15.781,0.86133 c 0.42587,0.985076 0.42583,0.985061 0,0 z"
       fill="url(#linearGradient101338)"
       style="fill:url(#linearGradient11168);fill-opacity:1;paint-order:stroke fill markers"
       id="path138" />
  </g>
</svg>
