<?xml version="1.0" encoding="UTF-8" standalone="no"?>
<!-- Created with Inkscape (http://www.inkscape.org/) -->

<svg
   width="64"
   height="64"
   viewBox="0 0 16.933333 16.933333"
   version="1.1"
   id="svg8"
   inkscape:version="1.1.2 (0a00cf5339, 2022-02-04)"
   sodipodi:docname="calendar.svg"
   xmlns:inkscape="http://www.inkscape.org/namespaces/inkscape"
   xmlns:sodipodi="http://sodipodi.sourceforge.net/DTD/sodipodi-0.dtd"
   xmlns:xlink="http://www.w3.org/1999/xlink"
   xmlns="http://www.w3.org/2000/svg"
   xmlns:svg="http://www.w3.org/2000/svg"
   xmlns:rdf="http://www.w3.org/1999/02/22-rdf-syntax-ns#"
   xmlns:cc="http://creativecommons.org/ns#"
   xmlns:dc="http://purl.org/dc/elements/1.1/">
  <defs
     id="defs2">
    <linearGradient
       inkscape:collect="always"
       id="linearGradient3036">
      <stop
         style="stop-color:#ffbe78;stop-opacity:1;"
         offset="0"
         id="stop3032" />
      <stop
         style="stop-color:#ffbe78;stop-opacity:0;"
         offset="1"
         id="stop3034" />
    </linearGradient>
    <linearGradient
       inkscape:collect="always"
       id="linearGradient56464">
      <stop
         style="stop-color:#72099a;stop-opacity:0.57614454"
         offset="0"
         id="stop56460" />
      <stop
         style="stop-color:#72099a;stop-opacity:0;"
         offset="1"
         id="stop56462" />
    </linearGradient>
    <linearGradient
       inkscape:collect="always"
       id="linearGradient56004">
      <stop
         style="stop-color:#6d148f;stop-opacity:1;"
         offset="0"
         id="stop56000" />
      <stop
         style="stop-color:#6d148f;stop-opacity:0;"
         offset="1"
         id="stop56002" />
    </linearGradient>
    <linearGradient
       inkscape:collect="always"
       id="linearGradient23646">
      <stop
         style="stop-color:#ffffff;stop-opacity:1;"
         offset="0"
         id="stop23642" />
      <stop
         style="stop-color:#fd9278;stop-opacity:1"
         offset="1"
         id="stop23644" />
    </linearGradient>
    <linearGradient
       inkscape:collect="always"
       id="linearGradient17195">
      <stop
         style="stop-color:#fa574f;stop-opacity:1"
         offset="0"
         id="stop17191" />
      <stop
         style="stop-color:#fdb1a0;stop-opacity:1"
         offset="1"
         id="stop17193" />
    </linearGradient>
    <linearGradient
       inkscape:collect="always"
       id="linearGradient15418">
      <stop
         style="stop-color:#e49588;stop-opacity:1"
         offset="0"
         id="stop15414" />
      <stop
         style="stop-color:#f53655;stop-opacity:1;"
         offset="0.09258872"
         id="stop2471" />
      <stop
         style="stop-color:#fdc498;stop-opacity:1;"
         offset="0.78003961"
         id="stop5028" />
      <stop
         style="stop-color:#fecf9e;stop-opacity:1"
         offset="1"
         id="stop15416" />
    </linearGradient>
    <linearGradient
       inkscape:collect="always"
       id="linearGradient13872">
      <stop
         style="stop-color:#dd272d;stop-opacity:1"
         offset="0"
         id="stop13868" />
      <stop
         style="stop-color:#fca283;stop-opacity:1"
         offset="1"
         id="stop13870" />
    </linearGradient>
    <linearGradient
       inkscape:collect="always"
       id="linearGradient12676">
      <stop
         style="stop-color:#ffc67d;stop-opacity:1"
         offset="0"
         id="stop12672" />
      <stop
         style="stop-color:#fe5e3e;stop-opacity:1"
         offset="1"
         id="stop12674" />
    </linearGradient>
    <linearGradient
       inkscape:collect="always"
       id="linearGradient842">
      <stop
         style="stop-color:#ffffff;stop-opacity:1"
         offset="0"
         id="stop838" />
      <stop
         style="stop-color:#e4e4e4;stop-opacity:1"
         offset="1"
         id="stop840" />
    </linearGradient>
    <linearGradient
       inkscape:collect="always"
       xlink:href="#linearGradient842"
       id="linearGradient844"
       x1="9.7574968"
       y1="280.90738"
       x2="9.3091936"
       y2="296.54614"
       gradientUnits="userSpaceOnUse" />
    <radialGradient
       inkscape:collect="always"
       xlink:href="#linearGradient12676"
       id="radialGradient12678"
       cx="25.926777"
       cy="281.1561"
       fx="25.926777"
       fy="281.1561"
       r="7.2801967"
       gradientUnits="userSpaceOnUse"
       gradientTransform="matrix(4.8818849,0,0,2.1027148,-117.9282,-309.91411)" />
    <linearGradient
       inkscape:collect="always"
       xlink:href="#linearGradient13872"
       id="linearGradient13874"
       x1="89.13002"
       y1="59.63636"
       x2="103.70291"
       y2="42.972118"
       gradientUnits="userSpaceOnUse"
       gradientTransform="matrix(0.26458333,0,0,0.26458333,-17.283435,280.18755)" />
    <linearGradient
       inkscape:collect="always"
       xlink:href="#linearGradient17195"
       id="linearGradient17197"
       x1="84.664238"
       y1="46.794224"
       x2="70.475266"
       y2="59.033821"
       gradientUnits="userSpaceOnUse"
       gradientTransform="matrix(0.26458333,0,0,0.26458333,-17.283435,280.18755)" />
    <linearGradient
       inkscape:collect="always"
       xlink:href="#linearGradient23646"
       id="linearGradient23648"
       x1="21.58477"
       y1="283.86966"
       x2="21.58477"
       y2="302.02594"
       gradientUnits="userSpaceOnUse" />
    <linearGradient
       inkscape:collect="always"
       xlink:href="#linearGradient56004"
       id="linearGradient56006"
       x1="24.897202"
       y1="294.41238"
       x2="27.096647"
       y2="289.89676"
       gradientUnits="userSpaceOnUse" />
    <linearGradient
       inkscape:collect="always"
       xlink:href="#linearGradient23646"
       id="linearGradient56292"
       gradientUnits="userSpaceOnUse"
       x1="21.58477"
       y1="283.86966"
       x2="21.58477"
       y2="302.02594"
       gradientTransform="translate(-17.283435,0.12087699)" />
    <linearGradient
       inkscape:collect="always"
       xlink:href="#linearGradient56464"
       id="linearGradient56466"
       x1="-6.0193481"
       y1="82.825043"
       x2="35.026543"
       y2="30.492748"
       gradientUnits="userSpaceOnUse" />
    <radialGradient
       inkscape:collect="always"
       xlink:href="#linearGradient15418"
       id="radialGradient2405"
       gradientUnits="userSpaceOnUse"
       gradientTransform="matrix(0.48288974,0.30574138,-0.12054157,0.19038408,-29.992246,257.55373)"
       cx="87.407486"
       cy="35.502693"
       fx="87.407486"
       fy="35.502693"
       r="24.266601" />
    <radialGradient
       inkscape:collect="always"
       xlink:href="#linearGradient3036"
       id="radialGradient4672"
       gradientUnits="userSpaceOnUse"
       gradientTransform="matrix(1,0,0,0.85168548,0,43.061453)"
       cx="7.7835088"
       cy="290.33875"
       fx="7.7835088"
       fy="290.33875"
       r="6.4205392" />
  </defs>
  <sodipodi:namedview
     id="base"
     pagecolor="#ffffff"
     bordercolor="#666666"
     borderopacity="1.0"
     inkscape:pageopacity="0"
     inkscape:pageshadow="2"
     inkscape:zoom="2"
     inkscape:cx="-107.5"
     inkscape:cy="4.5"
     inkscape:document-units="mm"
     inkscape:current-layer="layer1"
     showgrid="false"
     units="px"
     inkscape:window-width="1920"
     inkscape:window-height="1033"
     inkscape:window-x="0"
     inkscape:window-y="24"
     inkscape:window-maximized="1"
     inkscape:pagecheckerboard="0"
     inkscape:lockguides="true" />
  <metadata
     id="metadata5">
    <rdf:RDF>
      <cc:Work
         rdf:about="">
        <dc:format>image/svg+xml</dc:format>
        <dc:type
           rdf:resource="http://purl.org/dc/dcmitype/StillImage" />
      </cc:Work>
    </rdf:RDF>
  </metadata>
  <g
     inkscape:label="Layer 1"
     inkscape:groupmode="layer"
     id="layer1"
     transform="translate(0,-280.06667)">
    <path
       id="circle872"
       style="opacity:1;fill:none;fill-opacity:1;stroke:url(#linearGradient844);stroke-width:0.81756413;stroke-linecap:round;stroke-miterlimit:4;stroke-dasharray:none;stroke-dashoffset:0;stroke-opacity:1"
       r="7.7297897"
       cy="288.60864"
       cx="8.5411577" />
    <rect
       style="fill:url(#radialGradient12678);fill-opacity:1;stroke-width:0.1;stroke-linecap:round;stroke-linejoin:round"
       id="rect980"
       width="14.560393"
       height="14.560393"
       x="1.3631448"
       y="281.24652"
       rx="3.0470095"
       ry="3.0470095" />
    <path
       id="rect1160"
       style="fill:url(#radialGradient2405);fill-opacity:1;stroke-width:0.1;stroke-linecap:round;stroke-linejoin:round;stroke:url(#radialGradient4672)"
       d="m 1.3681396,284.87047 -0.00517,0.007 v 7.88272 c 0,1.68804 1.3593161,3.04684 3.0473594,3.04684 h 8.466151 c 0.476416,0 0.926729,-0.10793 1.327568,-0.30127 -2.667556,-0.11261 -1.868115,-3.17109 -3.015319,-3.99976 -1.148855,-0.82981 -2.8252202,-0.31717 -5.3319742,-0.92966 -2.5067504,-0.61249 -4.4843332,-4.21972 -4.4886152,-5.70559 z" />
    <g
       id="g1446"
       style="opacity:0.60921139">
      <g
         aria-label="12"
         id="g1262"
         style="font-size:10.8921px;line-height:1.25;font-family:Couture;-inkscape-font-specification:Couture;fill:#000080;fill-opacity:0.08081757;stroke-width:0.0544606"
         transform="translate(0.38638405,0.11714345)">
        <path
           d="m 4.301335,285.02781 v 0.98029 h 1.1654547 v 6.15404 h 1.524894 v -7.70072 z"
           id="path1254"
           style="fill:#000080;fill-opacity:0.08081757" />
        <path
           d="m 7.8194708,292.16214 h 5.2608842 v -1.35062 H 9.7255884 c 0.1851657,-0.35944 0.7079866,-0.69709 1.7318436,-1.42687 0.762447,-0.52282 1.612031,-1.15456 1.612031,-2.51607 0,-1.55757 -1.176347,-2.43983 -2.657672,-2.43983 -0.6862026,0 -2.5269676,0.20695 -2.5269676,2.73392 h 1.4813257 c 0,-0.56639 0.032676,-1.44865 1.1109939,-1.44865 0.729771,0 1.067426,0.57728 1.067426,1.1001 0,0.88226 -0.555497,1.26348 -1.9496858,2.27645 -0.6644181,0.49014 -1.5140019,1.15456 -1.7754124,1.56846 z"
           id="path1256"
           style="fill:#000080;fill-opacity:0.08081757" />
        <path
           d="m 4.301335,285.02781 v 0.98029 h 1.1654547 v 6.15404 h 1.524894 v -7.70072 z"
           id="path1258"
           style="fill:#000080;fill-opacity:0.08081757" />
        <path
           d="m 7.8194708,292.16214 h 5.2608842 v -1.35062 H 9.7255884 c 0.1851657,-0.35944 0.7079866,-0.69709 1.7318436,-1.42687 0.762447,-0.52282 1.612031,-1.15456 1.612031,-2.51607 0,-1.55757 -1.176347,-2.43983 -2.657672,-2.43983 -0.6862026,0 -2.5269676,0.20695 -2.5269676,2.73392 h 1.4813257 c 0,-0.56639 0.032676,-1.44865 1.1109939,-1.44865 0.729771,0 1.067426,0.57728 1.067426,1.1001 0,0.88226 -0.555497,1.26348 -1.9496858,2.27645 -0.6644181,0.49014 -1.5140019,1.15456 -1.7754124,1.56846 z"
           id="path1260"
           style="fill:#000080;fill-opacity:0.08081757" />
      </g>
      <g
         aria-label="12"
         id="g1434"
         style="font-size:10.8921px;line-height:1.25;font-family:Couture;-inkscape-font-specification:Couture;fill:#000080;fill-opacity:0.0808175;stroke-width:0.0544606"
         transform="translate(0.65941344,0.62588533)">
        <path
           d="m 4.301335,285.02781 v 0.98029 h 1.1654547 v 6.15404 h 1.524894 v -7.70072 z"
           id="path1426"
           style="fill:#000080;fill-opacity:0.0808175" />
        <path
           d="m 7.8194708,292.16214 h 5.2608842 v -1.35062 H 9.7255884 c 0.1851657,-0.35944 0.7079866,-0.69709 1.7318436,-1.42687 0.762447,-0.52282 1.612031,-1.15456 1.612031,-2.51607 0,-1.55757 -1.176347,-2.43983 -2.657672,-2.43983 -0.6862026,0 -2.5269676,0.20695 -2.5269676,2.73392 h 1.4813257 c 0,-0.56639 0.032676,-1.44865 1.1109939,-1.44865 0.729771,0 1.067426,0.57728 1.067426,1.1001 0,0.88226 -0.555497,1.26348 -1.9496858,2.27645 -0.6644181,0.49014 -1.5140019,1.15456 -1.7754124,1.56846 z"
           id="path1428"
           style="fill:#000080;fill-opacity:0.0808175" />
        <path
           d="m 4.301335,285.02781 v 0.98029 h 1.1654547 v 6.15404 h 1.524894 v -7.70072 z"
           id="path1430"
           style="fill:#000080;fill-opacity:0.0808175" />
        <path
           d="m 7.8194708,292.16214 h 5.2608842 v -1.35062 H 9.7255884 c 0.1851657,-0.35944 0.7079866,-0.69709 1.7318436,-1.42687 0.762447,-0.52282 1.612031,-1.15456 1.612031,-2.51607 0,-1.55757 -1.176347,-2.43983 -2.657672,-2.43983 -0.6862026,0 -2.5269676,0.20695 -2.5269676,2.73392 h 1.4813257 c 0,-0.56639 0.032676,-1.44865 1.1109939,-1.44865 0.729771,0 1.067426,0.57728 1.067426,1.1001 0,0.88226 -0.555497,1.26348 -1.9496858,2.27645 -0.6644181,0.49014 -1.5140019,1.15456 -1.7754124,1.56846 z"
           id="path1432"
           style="fill:#000080;fill-opacity:0.0808175" />
      </g>
    </g>
    <g
       aria-label="12"
       id="text2468"
       style="font-size:10.8921px;line-height:1.25;font-family:Couture;-inkscape-font-specification:Couture;fill:url(#linearGradient56292);stroke-width:0.0544606">
      <path
         d="m 4.301335,285.02781 v 0.98029 h 1.1654547 v 6.15404 h 1.524894 v -7.70072 z"
         id="path1023" />
      <path
         d="m 7.8194708,292.16214 h 5.2608842 v -1.35062 H 9.7255884 c 0.1851657,-0.35944 0.7079866,-0.69709 1.7318436,-1.42687 0.762447,-0.52282 1.612031,-1.15456 1.612031,-2.51607 0,-1.55757 -1.176347,-2.43983 -2.657672,-2.43983 -0.6862026,0 -2.5269676,0.20695 -2.5269676,2.73392 h 1.4813257 c 0,-0.56639 0.032676,-1.44865 1.1109939,-1.44865 0.729771,0 1.067426,0.57728 1.067426,1.1001 0,0.88226 -0.555497,1.26348 -1.9496858,2.27645 -0.6644181,0.49014 -1.5140019,1.15456 -1.7754124,1.56846 z"
         id="path1020" />
      <path
         d="m 4.301335,285.02781 v 0.98029 h 1.1654547 v 6.15404 h 1.524894 v -7.70072 z"
         id="path1124" />
      <path
         d="m 7.8194708,292.16214 h 5.2608842 v -1.35062 H 9.7255884 c 0.1851657,-0.35944 0.7079866,-0.69709 1.7318436,-1.42687 0.762447,-0.52282 1.612031,-1.15456 1.612031,-2.51607 0,-1.55757 -1.176347,-2.43983 -2.657672,-2.43983 -0.6862026,0 -2.5269676,0.20695 -2.5269676,2.73392 h 1.4813257 c 0,-0.56639 0.032676,-1.44865 1.1109939,-1.44865 0.729771,0 1.067426,0.57728 1.067426,1.1001 0,0.88226 -0.555497,1.26348 -1.9496858,2.27645 -0.6644181,0.49014 -1.5140019,1.15456 -1.7754124,1.56846 z"
         id="path1126" />
    </g>
    <path
       id="path1349"
       style="fill:url(#linearGradient13874);fill-opacity:1;stroke-width:0.1;stroke-linecap:round;stroke-linejoin:round"
       d="m 1.3681396,284.87047 -0.00517,0.007 c 0.1484611,5.92338 6.1234478,10.62829 12.8410754,10.62829 -2.667556,-0.11261 -1.868115,-3.17109 -3.015319,-3.99976 -1.148855,-0.82981 -2.8252199,-0.31717 -5.3319739,-0.92966 -2.5067504,-0.61249 -4.4843332,-4.21972 -4.4886152,-5.70559 z" />
    <circle
       style="fill:#fffdfd;fill-opacity:1;stroke-width:0.1;stroke-linecap:round;stroke-linejoin:round"
       id="path11950"
       cx="3.8064659"
       cy="283.23334"
       r="1.0259831" />
    <circle
       style="fill:#fffdfd;fill-opacity:1;stroke-width:0.1;stroke-linecap:round;stroke-linejoin:round"
       id="circle12032"
       cx="13.303077"
       cy="283.23334"
       r="1.0259831" />
    <path
       id="path12086"
       style="fill:url(#linearGradient17197);fill-opacity:1;stroke:none;stroke-width:0.264583px;stroke-linecap:butt;stroke-linejoin:miter;stroke-opacity:1"
       d="m 1.3629717,290.13888 v 2.62103 c 0,1.68804 1.3593162,3.04684 3.0473594,3.04684 H 8.0995115 C 5.1574896,294.97803 2.6552674,293.258 1.3629717,290.13888 Z" />
    <path
       id="path29037"
       style="fill:#ffffff;fill-opacity:0.128264;stroke-width:0.1;stroke-linecap:round;stroke-linejoin:round"
       d="m 1.3681396,284.87047 -0.00517,0.007 c 0.00915,0.36526 0.040745,0.72589 0.093018,1.08107 0.5517078,1.70847 2.2476647,4.21336 4.2984456,4.71444 2.5067538,0.61249 4.1831186,0.0999 5.3319738,0.92966 1.029343,0.74353 0.491959,3.28214 2.297534,3.87728 0.272118,0.0155 0.54515,0.0258 0.820105,0.0258 -2.667556,-0.1126 -1.868115,-3.17109 -3.015319,-3.99976 -1.148855,-0.82981 -2.8252206,-0.31717 -5.3319746,-0.92966 -2.5067504,-0.61249 -4.4843332,-4.21972 -4.4886152,-5.70559 z" />
    <path
       id="rect56343"
       style="fill:url(#linearGradient56466);fill-opacity:1;stroke-width:0.377953;stroke-linecap:round;stroke-linejoin:round"
       d="M 16.667969 4.4589844 C 10.287963 4.4589844 5.1523438 9.5946034 5.1523438 15.974609 L 5.1523438 18.181641 L 5.171875 18.15625 C 5.1880589 23.772137 12.662387 37.40578 22.136719 39.720703 C 31.611065 42.035626 37.946933 40.098085 42.289062 43.234375 C 46.624668 46.366151 43.603866 57.924521 53.683594 58.351562 C 53.684253 58.35159 53.684887 58.351535 53.685547 58.351562 C 57.537649 56.492843 60.183594 52.553388 60.183594 47.974609 L 60.183594 15.974609 C 60.183594 9.5946034 55.047975 4.4589844 48.667969 4.4589844 L 16.667969 4.4589844 z "
       transform="matrix(0.26458333,0,0,0.26458333,0,280.06667)" />
    <path
       id="path3116"
       style="fill:#ffffff;fill-opacity:0.38348934;stroke-width:0.377953;stroke-linecap:round;stroke-linejoin:round"
       d="M 5.171875 18.15625 L 5.1523438 18.181641 C 5.7134566 40.569219 28.296088 58.351562 53.685547 58.351562 C 52.572171 58.304562 51.618209 58.122293 50.796875 57.830078 C 28.351165 56.47971 8.811339 41.377501 5.8984375 21.931641 C 5.4289379 20.484541 5.1748382 19.184477 5.171875 18.15625 z "
       transform="matrix(0.26458333,0,0,0.26458333,0,280.06667)" />
  </g>
</svg>
