<?xml version="1.0" encoding="UTF-8" standalone="no"?>
<svg
   xmlns:dc="http://purl.org/dc/elements/1.1/"
   xmlns:cc="http://creativecommons.org/ns#"
   xmlns:rdf="http://www.w3.org/1999/02/22-rdf-syntax-ns#"
   xmlns:svg="http://www.w3.org/2000/svg"
   xmlns="http://www.w3.org/2000/svg"
   xmlns:xlink="http://www.w3.org/1999/xlink"
   xmlns:sodipodi="http://sodipodi.sourceforge.net/DTD/sodipodi-0.dtd"
   xmlns:inkscape="http://www.inkscape.org/namespaces/inkscape"
   width="64"
   height="64"
   viewBox="0 0 16.933333 16.933333"
   version="1.1"
   id="svg8"
   inkscape:version="1.1-dev (1:0.92.0+devel+202004260039+9758c7a)"
   sodipodi:docname="com.github.needle-and-thread.vocal.svg">
  <defs
     id="defs2">
    <linearGradient
       id="linearGradient976"
       inkscape:collect="always">
      <stop
         id="stop972"
         offset="0"
         style="stop-color:#000000;stop-opacity:1;" />
      <stop
         id="stop974"
         offset="1"
         style="stop-color:#000000;stop-opacity:0;" />
    </linearGradient>
    <linearGradient
       id="linearGradient936"
       inkscape:collect="always">
      <stop
         id="stop932"
         offset="0"
         style="stop-color:#f4608c;stop-opacity:1;" />
      <stop
         id="stop934"
         offset="1"
         style="stop-color:#9440a8;stop-opacity:0.99835092" />
    </linearGradient>
    <linearGradient
       inkscape:collect="always"
       id="linearGradient838">
      <stop
         style="stop-color:#ffffff;stop-opacity:1"
         offset="0"
         id="stop834" />
      <stop
         style="stop-color:#f7f7f7;stop-opacity:1"
         offset="1"
         id="stop836" />
    </linearGradient>
    <linearGradient
       inkscape:collect="always"
       id="linearGradient842">
      <stop
         style="stop-color:#ffffff;stop-opacity:1"
         offset="0"
         id="stop838" />
      <stop
         style="stop-color:#e4e4e4;stop-opacity:1"
         offset="1"
         id="stop840" />
    </linearGradient>
    <linearGradient
       inkscape:collect="always"
       xlink:href="#linearGradient842"
       id="linearGradient844"
       x1="9.7574968"
       y1="280.90738"
       x2="9.3091936"
       y2="296.54614"
       gradientUnits="userSpaceOnUse" />
    <linearGradient
       inkscape:collect="always"
       xlink:href="#linearGradient838"
       id="linearGradient840"
       x1="8.6235685"
       y1="279.39548"
       x2="8.6004887"
       y2="297.49109"
       gradientUnits="userSpaceOnUse" />
    <linearGradient
       gradientUnits="userSpaceOnUse"
       y2="51.527111"
       x2="32.195312"
       y1="12.240234"
       x1="32.195312"
       id="linearGradient938"
       xlink:href="#linearGradient936"
       inkscape:collect="always" />
    <linearGradient
       gradientUnits="userSpaceOnUse"
       y2="288.77801"
       x2="16.185243"
       y1="288.77801"
       x1="1.0152794"
       id="linearGradient978"
       xlink:href="#linearGradient976"
       inkscape:collect="always" />
    <linearGradient
       gradientUnits="userSpaceOnUse"
       y2="293.86996"
       x2="23.65691"
       y1="284.1571"
       x1="23.65691"
       id="linearGradient1044"
       xlink:href="#linearGradient936"
       inkscape:collect="always" />
    <linearGradient
       y2="293.86996"
       x2="23.65691"
       y1="284.1571"
       x1="23.65691"
       gradientUnits="userSpaceOnUse"
       id="linearGradient1094"
       xlink:href="#linearGradient936"
       inkscape:collect="always" />
    <linearGradient
       y2="293.86996"
       x2="23.65691"
       y1="284.1571"
       x1="23.65691"
       gradientUnits="userSpaceOnUse"
       id="linearGradient1096"
       xlink:href="#linearGradient936"
       inkscape:collect="always" />
    <linearGradient
       y2="293.86996"
       x2="23.65691"
       y1="284.1571"
       x1="23.65691"
       gradientUnits="userSpaceOnUse"
       id="linearGradient1098"
       xlink:href="#linearGradient936"
       inkscape:collect="always" />
    <linearGradient
       y2="293.86996"
       x2="23.65691"
       y1="284.1571"
       x1="23.65691"
       gradientUnits="userSpaceOnUse"
       id="linearGradient1100"
       xlink:href="#linearGradient936"
       inkscape:collect="always" />
    <linearGradient
       y2="293.86996"
       x2="23.65691"
       y1="284.1571"
       x1="23.65691"
       gradientUnits="userSpaceOnUse"
       id="linearGradient1102"
       xlink:href="#linearGradient936"
       inkscape:collect="always" />
    <linearGradient
       y2="293.86996"
       x2="23.65691"
       y1="284.1571"
       x1="23.65691"
       gradientUnits="userSpaceOnUse"
       id="linearGradient1104"
       xlink:href="#linearGradient936"
       inkscape:collect="always" />
    <linearGradient
       y2="293.86996"
       x2="23.65691"
       y1="284.1571"
       x1="23.65691"
       gradientUnits="userSpaceOnUse"
       id="linearGradient1106"
       xlink:href="#linearGradient936"
       inkscape:collect="always" />
    <linearGradient
       y2="293.86996"
       x2="23.65691"
       y1="284.1571"
       x1="23.65691"
       gradientUnits="userSpaceOnUse"
       id="linearGradient1108"
       xlink:href="#linearGradient936"
       inkscape:collect="always" />
    <linearGradient
       y2="293.86996"
       x2="23.65691"
       y1="284.1571"
       x1="23.65691"
       gradientUnits="userSpaceOnUse"
       id="linearGradient1110"
       xlink:href="#linearGradient936"
       inkscape:collect="always" />
    <linearGradient
       y2="293.86996"
       x2="23.65691"
       y1="284.1571"
       x1="23.65691"
       gradientUnits="userSpaceOnUse"
       id="linearGradient1112"
       xlink:href="#linearGradient936"
       inkscape:collect="always" />
    <linearGradient
       y2="293.86996"
       x2="23.65691"
       y1="284.1571"
       x1="23.65691"
       gradientUnits="userSpaceOnUse"
       id="linearGradient1114"
       xlink:href="#linearGradient936"
       inkscape:collect="always" />
    <linearGradient
       y2="293.86996"
       x2="23.65691"
       y1="284.1571"
       x1="23.65691"
       gradientUnits="userSpaceOnUse"
       id="linearGradient1116"
       xlink:href="#linearGradient936"
       inkscape:collect="always" />
    <linearGradient
       y2="293.86996"
       x2="23.65691"
       y1="284.1571"
       x1="23.65691"
       gradientUnits="userSpaceOnUse"
       id="linearGradient1118"
       xlink:href="#linearGradient936"
       inkscape:collect="always" />
    <linearGradient
       y2="293.86996"
       x2="23.65691"
       y1="284.1571"
       x1="23.65691"
       gradientUnits="userSpaceOnUse"
       id="linearGradient1120"
       xlink:href="#linearGradient936"
       inkscape:collect="always" />
    <linearGradient
       y2="293.86996"
       x2="23.65691"
       y1="284.1571"
       x1="23.65691"
       gradientUnits="userSpaceOnUse"
       id="linearGradient1122"
       xlink:href="#linearGradient936"
       inkscape:collect="always" />
  </defs>
  <sodipodi:namedview
     id="base"
     pagecolor="#ffffff"
     bordercolor="#666666"
     borderopacity="1.0"
     inkscape:pageopacity="0"
     inkscape:pageshadow="2"
     inkscape:zoom="5.6"
     inkscape:cx="28.416023"
     inkscape:cy="39.427872"
     inkscape:document-units="mm"
     inkscape:current-layer="layer1"
     showgrid="false"
     units="px"
     inkscape:window-width="1920"
     inkscape:window-height="1024"
     inkscape:window-x="0"
     inkscape:window-y="30"
     inkscape:window-maximized="1" />
  <metadata
     id="metadata5">
    <rdf:RDF>
      <cc:Work
         rdf:about="">
        <dc:format>image/svg+xml</dc:format>
        <dc:type
           rdf:resource="http://purl.org/dc/dcmitype/StillImage" />
      </cc:Work>
    </rdf:RDF>
  </metadata>
  <g
     inkscape:label="Layer 1"
     inkscape:groupmode="layer"
     id="layer1"
     transform="translate(0,-280.06667)">
    <circle
       style="opacity:1;fill:#fff2ef;fill-opacity:1;stroke:none;stroke-width:0.81756413;stroke-linecap:round;stroke-miterlimit:4;stroke-dasharray:none;stroke-dashoffset:0;stroke-opacity:1"
       id="path826"
       cx="8.5411577"
       cy="288.60864"
       r="7.7297897" />
    <g
       style="opacity:0.46310965"
       transform="translate(-14.80062)"
       id="g1092">
      <path
         sodipodi:nodetypes="scssscscsssccssscscsssccsssccsssccccsssccssscscssscs"
         d="m 23.319011,283.30523 c -1.427094,0 -2.619552,0.95851 -2.97863,2.2686 h 1.856734 c 0.186197,0 0.336414,0.15021 0.336414,0.33641 0,0.18619 -0.150217,0.3359 -0.336414,0.3359 h -1.962154 c -0.0024,0.0504 -0.0078,0.0999 -0.0078,0.15089 v 0.82683 h 2.337842 c 0.186197,0 0.336413,0.15021 0.336413,0.33641 0,0.18619 -0.150216,0.3359 -0.336413,0.3359 h -2.337842 v 0.97771 h 1.969905 c 0.186197,0 0.336414,0.14971 0.336414,0.3359 0,0.18619 -0.150217,0.33641 -0.336414,0.33641 h -1.969905 v 0.67232 c 0,0.10326 0.0067,0.20481 0.01654,0.3054 h 2.321306 c 0.186197,0 0.336413,0.14971 0.336413,0.3359 0,0.1862 -0.150216,0.33641 -0.336413,0.33641 h -2.179195 c 0.278962,0.84119 0.906826,1.52044 1.71514,1.86552 v 0.83251 c 0,0.67471 0.543302,1.2175 1.218014,1.2175 0.674712,0 1.218013,-0.54279 1.218013,-1.2175 v -0.83251 c 0.808315,-0.34508 1.436178,-1.02433 1.715141,-1.86552 h -1.69856 c -0.186197,0 -0.335897,-0.15021 -0.335897,-0.33641 0,-0.18619 0.1497,-0.3359 0.335897,-0.3359 h 1.643915 c 0.196101,0 0.203219,-0.0738 0.213336,-0.3054 v -0.48947 c 0,-0.18409 -0.04777,-0.18285 -0.168903,-0.18285 h -1.320412 c -0.186197,0 -0.335897,-0.15022 -0.335897,-0.33641 0,-0.18619 0.1497,-0.3359 0.335897,-0.3359 h 1.489315 v -0.97771 H 24.55356 c -0.186197,0 -0.335897,-0.14971 -0.335897,-0.3359 0,-0.1862 0.1497,-0.33641 0.335897,-0.33641 h 1.857251 v -0.82683 c 0,-0.051 -0.0053,-0.10052 -0.0078,-0.15089 h -1.481563 c -0.186197,0 -0.335897,-0.14971 -0.335897,-0.3359 0,-0.1862 0.1497,-0.33641 0.335897,-0.33641 h 1.376144 c -0.359076,-1.31009 -1.551534,-2.2686 -2.978628,-2.2686 z"
         style="opacity:0.0456598;fill:none;fill-opacity:1;stroke:url(#linearGradient1094);stroke-width:0.1;stroke-linecap:round;stroke-linejoin:round;stroke-miterlimit:4;stroke-dasharray:none;stroke-opacity:1"
         id="path1034" />
      <path
         id="path1046"
         style="opacity:0.0456598;fill:none;fill-opacity:1;stroke:url(#linearGradient1096);stroke-width:0.2;stroke-linecap:round;stroke-linejoin:round;stroke-miterlimit:4;stroke-dasharray:none;stroke-opacity:1"
         d="m 23.319011,283.30523 c -1.427094,0 -2.619552,0.95851 -2.97863,2.2686 h 1.856734 c 0.186197,0 0.336414,0.15021 0.336414,0.33641 0,0.18619 -0.150217,0.3359 -0.336414,0.3359 h -1.962154 c -0.0024,0.0504 -0.0078,0.0999 -0.0078,0.15089 v 0.82683 h 2.337842 c 0.186197,0 0.336413,0.15021 0.336413,0.33641 0,0.18619 -0.150216,0.3359 -0.336413,0.3359 h -2.337842 v 0.97771 h 1.969905 c 0.186197,0 0.336414,0.14971 0.336414,0.3359 0,0.18619 -0.150217,0.33641 -0.336414,0.33641 h -1.969905 v 0.67232 c 0,0.10326 0.0067,0.20481 0.01654,0.3054 h 2.321306 c 0.186197,0 0.336413,0.14971 0.336413,0.3359 0,0.1862 -0.150216,0.33641 -0.336413,0.33641 h -2.179195 c 0.278962,0.84119 0.906826,1.52044 1.71514,1.86552 v 0.83251 c 0,0.67471 0.543302,1.2175 1.218014,1.2175 0.674712,0 1.218013,-0.54279 1.218013,-1.2175 v -0.83251 c 0.808315,-0.34508 1.436178,-1.02433 1.715141,-1.86552 h -1.69856 c -0.186197,0 -0.335897,-0.15021 -0.335897,-0.33641 0,-0.18619 0.1497,-0.3359 0.335897,-0.3359 h 1.643915 c 0.196101,0 0.203219,-0.0738 0.213336,-0.3054 v -0.48947 c 0,-0.18409 -0.04777,-0.18285 -0.168903,-0.18285 h -1.320412 c -0.186197,0 -0.335897,-0.15022 -0.335897,-0.33641 0,-0.18619 0.1497,-0.3359 0.335897,-0.3359 h 1.489315 v -0.97771 H 24.55356 c -0.186197,0 -0.335897,-0.14971 -0.335897,-0.3359 0,-0.1862 0.1497,-0.33641 0.335897,-0.33641 h 1.857251 v -0.82683 c 0,-0.051 -0.0053,-0.10052 -0.0078,-0.15089 h -1.481563 c -0.186197,0 -0.335897,-0.14971 -0.335897,-0.3359 0,-0.1862 0.1497,-0.33641 0.335897,-0.33641 h 1.376144 c -0.359076,-1.31009 -1.551534,-2.2686 -2.978628,-2.2686 z"
         sodipodi:nodetypes="scssscscsssccssscscsssccsssccsssccccsssccssscscssscs" />
      <path
         sodipodi:nodetypes="scssscscsssccssscscsssccsssccsssccccsssccssscscssscs"
         d="m 23.319011,283.30523 c -1.427094,0 -2.619552,0.95851 -2.97863,2.2686 h 1.856734 c 0.186197,0 0.336414,0.15021 0.336414,0.33641 0,0.18619 -0.150217,0.3359 -0.336414,0.3359 h -1.962154 c -0.0024,0.0504 -0.0078,0.0999 -0.0078,0.15089 v 0.82683 h 2.337842 c 0.186197,0 0.336413,0.15021 0.336413,0.33641 0,0.18619 -0.150216,0.3359 -0.336413,0.3359 h -2.337842 v 0.97771 h 1.969905 c 0.186197,0 0.336414,0.14971 0.336414,0.3359 0,0.18619 -0.150217,0.33641 -0.336414,0.33641 h -1.969905 v 0.67232 c 0,0.10326 0.0067,0.20481 0.01654,0.3054 h 2.321306 c 0.186197,0 0.336413,0.14971 0.336413,0.3359 0,0.1862 -0.150216,0.33641 -0.336413,0.33641 h -2.179195 c 0.278962,0.84119 0.906826,1.52044 1.71514,1.86552 v 0.83251 c 0,0.67471 0.543302,1.2175 1.218014,1.2175 0.674712,0 1.218013,-0.54279 1.218013,-1.2175 v -0.83251 c 0.808315,-0.34508 1.436178,-1.02433 1.715141,-1.86552 h -1.69856 c -0.186197,0 -0.335897,-0.15021 -0.335897,-0.33641 0,-0.18619 0.1497,-0.3359 0.335897,-0.3359 h 1.643915 c 0.196101,0 0.203219,-0.0738 0.213336,-0.3054 v -0.48947 c 0,-0.18409 -0.04777,-0.18285 -0.168903,-0.18285 h -1.320412 c -0.186197,0 -0.335897,-0.15022 -0.335897,-0.33641 0,-0.18619 0.1497,-0.3359 0.335897,-0.3359 h 1.489315 v -0.97771 H 24.55356 c -0.186197,0 -0.335897,-0.14971 -0.335897,-0.3359 0,-0.1862 0.1497,-0.33641 0.335897,-0.33641 h 1.857251 v -0.82683 c 0,-0.051 -0.0053,-0.10052 -0.0078,-0.15089 h -1.481563 c -0.186197,0 -0.335897,-0.14971 -0.335897,-0.3359 0,-0.1862 0.1497,-0.33641 0.335897,-0.33641 h 1.376144 c -0.359076,-1.31009 -1.551534,-2.2686 -2.978628,-2.2686 z"
         style="opacity:0.0456598;fill:none;fill-opacity:1;stroke:url(#linearGradient1098);stroke-width:0.3;stroke-linecap:round;stroke-linejoin:round;stroke-miterlimit:4;stroke-dasharray:none;stroke-opacity:1"
         id="path1048" />
      <path
         id="path1050"
         style="opacity:0.0456598;fill:none;fill-opacity:1;stroke:url(#linearGradient1100);stroke-width:0.4;stroke-linecap:round;stroke-linejoin:round;stroke-miterlimit:4;stroke-dasharray:none;stroke-opacity:1"
         d="m 23.319011,283.30523 c -1.427094,0 -2.619552,0.95851 -2.97863,2.2686 h 1.856734 c 0.186197,0 0.336414,0.15021 0.336414,0.33641 0,0.18619 -0.150217,0.3359 -0.336414,0.3359 h -1.962154 c -0.0024,0.0504 -0.0078,0.0999 -0.0078,0.15089 v 0.82683 h 2.337842 c 0.186197,0 0.336413,0.15021 0.336413,0.33641 0,0.18619 -0.150216,0.3359 -0.336413,0.3359 h -2.337842 v 0.97771 h 1.969905 c 0.186197,0 0.336414,0.14971 0.336414,0.3359 0,0.18619 -0.150217,0.33641 -0.336414,0.33641 h -1.969905 v 0.67232 c 0,0.10326 0.0067,0.20481 0.01654,0.3054 h 2.321306 c 0.186197,0 0.336413,0.14971 0.336413,0.3359 0,0.1862 -0.150216,0.33641 -0.336413,0.33641 h -2.179195 c 0.278962,0.84119 0.906826,1.52044 1.71514,1.86552 v 0.83251 c 0,0.67471 0.543302,1.2175 1.218014,1.2175 0.674712,0 1.218013,-0.54279 1.218013,-1.2175 v -0.83251 c 0.808315,-0.34508 1.436178,-1.02433 1.715141,-1.86552 h -1.69856 c -0.186197,0 -0.335897,-0.15021 -0.335897,-0.33641 0,-0.18619 0.1497,-0.3359 0.335897,-0.3359 h 1.643915 c 0.196101,0 0.203219,-0.0738 0.213336,-0.3054 v -0.48947 c 0,-0.18409 -0.04777,-0.18285 -0.168903,-0.18285 h -1.320412 c -0.186197,0 -0.335897,-0.15022 -0.335897,-0.33641 0,-0.18619 0.1497,-0.3359 0.335897,-0.3359 h 1.489315 v -0.97771 H 24.55356 c -0.186197,0 -0.335897,-0.14971 -0.335897,-0.3359 0,-0.1862 0.1497,-0.33641 0.335897,-0.33641 h 1.857251 v -0.82683 c 0,-0.051 -0.0053,-0.10052 -0.0078,-0.15089 h -1.481563 c -0.186197,0 -0.335897,-0.14971 -0.335897,-0.3359 0,-0.1862 0.1497,-0.33641 0.335897,-0.33641 h 1.376144 c -0.359076,-1.31009 -1.551534,-2.2686 -2.978628,-2.2686 z"
         sodipodi:nodetypes="scssscscsssccssscscsssccsssccsssccccsssccssscscssscs" />
      <path
         sodipodi:nodetypes="scssscscsssccssscscsssccsssccsssccccsssccssscscssscs"
         d="m 23.319011,283.30523 c -1.427094,0 -2.619552,0.95851 -2.97863,2.2686 h 1.856734 c 0.186197,0 0.336414,0.15021 0.336414,0.33641 0,0.18619 -0.150217,0.3359 -0.336414,0.3359 h -1.962154 c -0.0024,0.0504 -0.0078,0.0999 -0.0078,0.15089 v 0.82683 h 2.337842 c 0.186197,0 0.336413,0.15021 0.336413,0.33641 0,0.18619 -0.150216,0.3359 -0.336413,0.3359 h -2.337842 v 0.97771 h 1.969905 c 0.186197,0 0.336414,0.14971 0.336414,0.3359 0,0.18619 -0.150217,0.33641 -0.336414,0.33641 h -1.969905 v 0.67232 c 0,0.10326 0.0067,0.20481 0.01654,0.3054 h 2.321306 c 0.186197,0 0.336413,0.14971 0.336413,0.3359 0,0.1862 -0.150216,0.33641 -0.336413,0.33641 h -2.179195 c 0.278962,0.84119 0.906826,1.52044 1.71514,1.86552 v 0.83251 c 0,0.67471 0.543302,1.2175 1.218014,1.2175 0.674712,0 1.218013,-0.54279 1.218013,-1.2175 v -0.83251 c 0.808315,-0.34508 1.436178,-1.02433 1.715141,-1.86552 h -1.69856 c -0.186197,0 -0.335897,-0.15021 -0.335897,-0.33641 0,-0.18619 0.1497,-0.3359 0.335897,-0.3359 h 1.643915 c 0.196101,0 0.203219,-0.0738 0.213336,-0.3054 v -0.48947 c 0,-0.18409 -0.04777,-0.18285 -0.168903,-0.18285 h -1.320412 c -0.186197,0 -0.335897,-0.15022 -0.335897,-0.33641 0,-0.18619 0.1497,-0.3359 0.335897,-0.3359 h 1.489315 v -0.97771 H 24.55356 c -0.186197,0 -0.335897,-0.14971 -0.335897,-0.3359 0,-0.1862 0.1497,-0.33641 0.335897,-0.33641 h 1.857251 v -0.82683 c 0,-0.051 -0.0053,-0.10052 -0.0078,-0.15089 h -1.481563 c -0.186197,0 -0.335897,-0.14971 -0.335897,-0.3359 0,-0.1862 0.1497,-0.33641 0.335897,-0.33641 h 1.376144 c -0.359076,-1.31009 -1.551534,-2.2686 -2.978628,-2.2686 z"
         style="opacity:0.0456598;fill:none;fill-opacity:1;stroke:url(#linearGradient1102);stroke-width:0.5;stroke-linecap:round;stroke-linejoin:round;stroke-miterlimit:4;stroke-dasharray:none;stroke-opacity:1"
         id="path1052" />
      <path
         id="path1054"
         style="opacity:0.0456598;fill:none;fill-opacity:1;stroke:url(#linearGradient1104);stroke-width:0.6;stroke-linecap:round;stroke-linejoin:round;stroke-miterlimit:4;stroke-dasharray:none;stroke-opacity:1"
         d="m 23.319011,283.30523 c -1.427094,0 -2.619552,0.95851 -2.97863,2.2686 h 1.856734 c 0.186197,0 0.336414,0.15021 0.336414,0.33641 0,0.18619 -0.150217,0.3359 -0.336414,0.3359 h -1.962154 c -0.0024,0.0504 -0.0078,0.0999 -0.0078,0.15089 v 0.82683 h 2.337842 c 0.186197,0 0.336413,0.15021 0.336413,0.33641 0,0.18619 -0.150216,0.3359 -0.336413,0.3359 h -2.337842 v 0.97771 h 1.969905 c 0.186197,0 0.336414,0.14971 0.336414,0.3359 0,0.18619 -0.150217,0.33641 -0.336414,0.33641 h -1.969905 v 0.67232 c 0,0.10326 0.0067,0.20481 0.01654,0.3054 h 2.321306 c 0.186197,0 0.336413,0.14971 0.336413,0.3359 0,0.1862 -0.150216,0.33641 -0.336413,0.33641 h -2.179195 c 0.278962,0.84119 0.906826,1.52044 1.71514,1.86552 v 0.83251 c 0,0.67471 0.543302,1.2175 1.218014,1.2175 0.674712,0 1.218013,-0.54279 1.218013,-1.2175 v -0.83251 c 0.808315,-0.34508 1.436178,-1.02433 1.715141,-1.86552 h -1.69856 c -0.186197,0 -0.335897,-0.15021 -0.335897,-0.33641 0,-0.18619 0.1497,-0.3359 0.335897,-0.3359 h 1.643915 c 0.196101,0 0.203219,-0.0738 0.213336,-0.3054 v -0.48947 c 0,-0.18409 -0.04777,-0.18285 -0.168903,-0.18285 h -1.320412 c -0.186197,0 -0.335897,-0.15022 -0.335897,-0.33641 0,-0.18619 0.1497,-0.3359 0.335897,-0.3359 h 1.489315 v -0.97771 H 24.55356 c -0.186197,0 -0.335897,-0.14971 -0.335897,-0.3359 0,-0.1862 0.1497,-0.33641 0.335897,-0.33641 h 1.857251 v -0.82683 c 0,-0.051 -0.0053,-0.10052 -0.0078,-0.15089 h -1.481563 c -0.186197,0 -0.335897,-0.14971 -0.335897,-0.3359 0,-0.1862 0.1497,-0.33641 0.335897,-0.33641 h 1.376144 c -0.359076,-1.31009 -1.551534,-2.2686 -2.978628,-2.2686 z"
         sodipodi:nodetypes="scssscscsssccssscscsssccsssccsssccccsssccssscscssscs" />
      <path
         sodipodi:nodetypes="scssscscsssccssscscsssccsssccsssccccsssccssscscssscs"
         d="m 23.319011,283.30523 c -1.427094,0 -2.619552,0.95851 -2.97863,2.2686 h 1.856734 c 0.186197,0 0.336414,0.15021 0.336414,0.33641 0,0.18619 -0.150217,0.3359 -0.336414,0.3359 h -1.962154 c -0.0024,0.0504 -0.0078,0.0999 -0.0078,0.15089 v 0.82683 h 2.337842 c 0.186197,0 0.336413,0.15021 0.336413,0.33641 0,0.18619 -0.150216,0.3359 -0.336413,0.3359 h -2.337842 v 0.97771 h 1.969905 c 0.186197,0 0.336414,0.14971 0.336414,0.3359 0,0.18619 -0.150217,0.33641 -0.336414,0.33641 h -1.969905 v 0.67232 c 0,0.10326 0.0067,0.20481 0.01654,0.3054 h 2.321306 c 0.186197,0 0.336413,0.14971 0.336413,0.3359 0,0.1862 -0.150216,0.33641 -0.336413,0.33641 h -2.179195 c 0.278962,0.84119 0.906826,1.52044 1.71514,1.86552 v 0.83251 c 0,0.67471 0.543302,1.2175 1.218014,1.2175 0.674712,0 1.218013,-0.54279 1.218013,-1.2175 v -0.83251 c 0.808315,-0.34508 1.436178,-1.02433 1.715141,-1.86552 h -1.69856 c -0.186197,0 -0.335897,-0.15021 -0.335897,-0.33641 0,-0.18619 0.1497,-0.3359 0.335897,-0.3359 h 1.643915 c 0.196101,0 0.203219,-0.0738 0.213336,-0.3054 v -0.48947 c 0,-0.18409 -0.04777,-0.18285 -0.168903,-0.18285 h -1.320412 c -0.186197,0 -0.335897,-0.15022 -0.335897,-0.33641 0,-0.18619 0.1497,-0.3359 0.335897,-0.3359 h 1.489315 v -0.97771 H 24.55356 c -0.186197,0 -0.335897,-0.14971 -0.335897,-0.3359 0,-0.1862 0.1497,-0.33641 0.335897,-0.33641 h 1.857251 v -0.82683 c 0,-0.051 -0.0053,-0.10052 -0.0078,-0.15089 h -1.481563 c -0.186197,0 -0.335897,-0.14971 -0.335897,-0.3359 0,-0.1862 0.1497,-0.33641 0.335897,-0.33641 h 1.376144 c -0.359076,-1.31009 -1.551534,-2.2686 -2.978628,-2.2686 z"
         style="opacity:0.0456598;fill:none;fill-opacity:1;stroke:url(#linearGradient1106);stroke-width:0.7;stroke-linecap:round;stroke-linejoin:round;stroke-miterlimit:4;stroke-dasharray:none;stroke-opacity:1"
         id="path1056" />
      <path
         id="path1058"
         style="opacity:0.0456598;fill:none;fill-opacity:1;stroke:url(#linearGradient1108);stroke-width:0.8;stroke-linecap:round;stroke-linejoin:round;stroke-miterlimit:4;stroke-dasharray:none;stroke-opacity:1"
         d="m 23.319011,283.30523 c -1.427094,0 -2.619552,0.95851 -2.97863,2.2686 h 1.856734 c 0.186197,0 0.336414,0.15021 0.336414,0.33641 0,0.18619 -0.150217,0.3359 -0.336414,0.3359 h -1.962154 c -0.0024,0.0504 -0.0078,0.0999 -0.0078,0.15089 v 0.82683 h 2.337842 c 0.186197,0 0.336413,0.15021 0.336413,0.33641 0,0.18619 -0.150216,0.3359 -0.336413,0.3359 h -2.337842 v 0.97771 h 1.969905 c 0.186197,0 0.336414,0.14971 0.336414,0.3359 0,0.18619 -0.150217,0.33641 -0.336414,0.33641 h -1.969905 v 0.67232 c 0,0.10326 0.0067,0.20481 0.01654,0.3054 h 2.321306 c 0.186197,0 0.336413,0.14971 0.336413,0.3359 0,0.1862 -0.150216,0.33641 -0.336413,0.33641 h -2.179195 c 0.278962,0.84119 0.906826,1.52044 1.71514,1.86552 v 0.83251 c 0,0.67471 0.543302,1.2175 1.218014,1.2175 0.674712,0 1.218013,-0.54279 1.218013,-1.2175 v -0.83251 c 0.808315,-0.34508 1.436178,-1.02433 1.715141,-1.86552 h -1.69856 c -0.186197,0 -0.335897,-0.15021 -0.335897,-0.33641 0,-0.18619 0.1497,-0.3359 0.335897,-0.3359 h 1.643915 c 0.196101,0 0.203219,-0.0738 0.213336,-0.3054 v -0.48947 c 0,-0.18409 -0.04777,-0.18285 -0.168903,-0.18285 h -1.320412 c -0.186197,0 -0.335897,-0.15022 -0.335897,-0.33641 0,-0.18619 0.1497,-0.3359 0.335897,-0.3359 h 1.489315 v -0.97771 H 24.55356 c -0.186197,0 -0.335897,-0.14971 -0.335897,-0.3359 0,-0.1862 0.1497,-0.33641 0.335897,-0.33641 h 1.857251 v -0.82683 c 0,-0.051 -0.0053,-0.10052 -0.0078,-0.15089 h -1.481563 c -0.186197,0 -0.335897,-0.14971 -0.335897,-0.3359 0,-0.1862 0.1497,-0.33641 0.335897,-0.33641 h 1.376144 c -0.359076,-1.31009 -1.551534,-2.2686 -2.978628,-2.2686 z"
         sodipodi:nodetypes="scssscscsssccssscscsssccsssccsssccccsssccssscscssscs" />
      <path
         sodipodi:nodetypes="scssscscsssccssscscsssccsssccsssccccsssccssscscssscs"
         d="m 23.319011,283.30523 c -1.427094,0 -2.619552,0.95851 -2.97863,2.2686 h 1.856734 c 0.186197,0 0.336414,0.15021 0.336414,0.33641 0,0.18619 -0.150217,0.3359 -0.336414,0.3359 h -1.962154 c -0.0024,0.0504 -0.0078,0.0999 -0.0078,0.15089 v 0.82683 h 2.337842 c 0.186197,0 0.336413,0.15021 0.336413,0.33641 0,0.18619 -0.150216,0.3359 -0.336413,0.3359 h -2.337842 v 0.97771 h 1.969905 c 0.186197,0 0.336414,0.14971 0.336414,0.3359 0,0.18619 -0.150217,0.33641 -0.336414,0.33641 h -1.969905 v 0.67232 c 0,0.10326 0.0067,0.20481 0.01654,0.3054 h 2.321306 c 0.186197,0 0.336413,0.14971 0.336413,0.3359 0,0.1862 -0.150216,0.33641 -0.336413,0.33641 h -2.179195 c 0.278962,0.84119 0.906826,1.52044 1.71514,1.86552 v 0.83251 c 0,0.67471 0.543302,1.2175 1.218014,1.2175 0.674712,0 1.218013,-0.54279 1.218013,-1.2175 v -0.83251 c 0.808315,-0.34508 1.436178,-1.02433 1.715141,-1.86552 h -1.69856 c -0.186197,0 -0.335897,-0.15021 -0.335897,-0.33641 0,-0.18619 0.1497,-0.3359 0.335897,-0.3359 h 1.643915 c 0.196101,0 0.203219,-0.0738 0.213336,-0.3054 v -0.48947 c 0,-0.18409 -0.04777,-0.18285 -0.168903,-0.18285 h -1.320412 c -0.186197,0 -0.335897,-0.15022 -0.335897,-0.33641 0,-0.18619 0.1497,-0.3359 0.335897,-0.3359 h 1.489315 v -0.97771 H 24.55356 c -0.186197,0 -0.335897,-0.14971 -0.335897,-0.3359 0,-0.1862 0.1497,-0.33641 0.335897,-0.33641 h 1.857251 v -0.82683 c 0,-0.051 -0.0053,-0.10052 -0.0078,-0.15089 h -1.481563 c -0.186197,0 -0.335897,-0.14971 -0.335897,-0.3359 0,-0.1862 0.1497,-0.33641 0.335897,-0.33641 h 1.376144 c -0.359076,-1.31009 -1.551534,-2.2686 -2.978628,-2.2686 z"
         style="opacity:0.0456598;fill:none;fill-opacity:1;stroke:url(#linearGradient1110);stroke-width:0.9;stroke-linecap:round;stroke-linejoin:round;stroke-miterlimit:4;stroke-dasharray:none;stroke-opacity:1"
         id="path1060" />
      <path
         id="path1062"
         style="opacity:0.0456598;fill:none;fill-opacity:1;stroke:url(#linearGradient1112);stroke-width:1;stroke-linecap:round;stroke-linejoin:round;stroke-miterlimit:4;stroke-dasharray:none;stroke-opacity:1"
         d="m 23.319011,283.30523 c -1.427094,0 -2.619552,0.95851 -2.97863,2.2686 h 1.856734 c 0.186197,0 0.336414,0.15021 0.336414,0.33641 0,0.18619 -0.150217,0.3359 -0.336414,0.3359 h -1.962154 c -0.0024,0.0504 -0.0078,0.0999 -0.0078,0.15089 v 0.82683 h 2.337842 c 0.186197,0 0.336413,0.15021 0.336413,0.33641 0,0.18619 -0.150216,0.3359 -0.336413,0.3359 h -2.337842 v 0.97771 h 1.969905 c 0.186197,0 0.336414,0.14971 0.336414,0.3359 0,0.18619 -0.150217,0.33641 -0.336414,0.33641 h -1.969905 v 0.67232 c 0,0.10326 0.0067,0.20481 0.01654,0.3054 h 2.321306 c 0.186197,0 0.336413,0.14971 0.336413,0.3359 0,0.1862 -0.150216,0.33641 -0.336413,0.33641 h -2.179195 c 0.278962,0.84119 0.906826,1.52044 1.71514,1.86552 v 0.83251 c 0,0.67471 0.543302,1.2175 1.218014,1.2175 0.674712,0 1.218013,-0.54279 1.218013,-1.2175 v -0.83251 c 0.808315,-0.34508 1.436178,-1.02433 1.715141,-1.86552 h -1.69856 c -0.186197,0 -0.335897,-0.15021 -0.335897,-0.33641 0,-0.18619 0.1497,-0.3359 0.335897,-0.3359 h 1.643915 c 0.196101,0 0.203219,-0.0738 0.213336,-0.3054 v -0.48947 c 0,-0.18409 -0.04777,-0.18285 -0.168903,-0.18285 h -1.320412 c -0.186197,0 -0.335897,-0.15022 -0.335897,-0.33641 0,-0.18619 0.1497,-0.3359 0.335897,-0.3359 h 1.489315 v -0.97771 H 24.55356 c -0.186197,0 -0.335897,-0.14971 -0.335897,-0.3359 0,-0.1862 0.1497,-0.33641 0.335897,-0.33641 h 1.857251 v -0.82683 c 0,-0.051 -0.0053,-0.10052 -0.0078,-0.15089 h -1.481563 c -0.186197,0 -0.335897,-0.14971 -0.335897,-0.3359 0,-0.1862 0.1497,-0.33641 0.335897,-0.33641 h 1.376144 c -0.359076,-1.31009 -1.551534,-2.2686 -2.978628,-2.2686 z"
         sodipodi:nodetypes="scssscscsssccssscscsssccsssccsssccccsssccssscscssscs" />
      <path
         sodipodi:nodetypes="scssscscsssccssscscsssccsssccsssccccsssccssscscssscs"
         d="m 23.319011,283.30523 c -1.427094,0 -2.619552,0.95851 -2.97863,2.2686 h 1.856734 c 0.186197,0 0.336414,0.15021 0.336414,0.33641 0,0.18619 -0.150217,0.3359 -0.336414,0.3359 h -1.962154 c -0.0024,0.0504 -0.0078,0.0999 -0.0078,0.15089 v 0.82683 h 2.337842 c 0.186197,0 0.336413,0.15021 0.336413,0.33641 0,0.18619 -0.150216,0.3359 -0.336413,0.3359 h -2.337842 v 0.97771 h 1.969905 c 0.186197,0 0.336414,0.14971 0.336414,0.3359 0,0.18619 -0.150217,0.33641 -0.336414,0.33641 h -1.969905 v 0.67232 c 0,0.10326 0.0067,0.20481 0.01654,0.3054 h 2.321306 c 0.186197,0 0.336413,0.14971 0.336413,0.3359 0,0.1862 -0.150216,0.33641 -0.336413,0.33641 h -2.179195 c 0.278962,0.84119 0.906826,1.52044 1.71514,1.86552 v 0.83251 c 0,0.67471 0.543302,1.2175 1.218014,1.2175 0.674712,0 1.218013,-0.54279 1.218013,-1.2175 v -0.83251 c 0.808315,-0.34508 1.436178,-1.02433 1.715141,-1.86552 h -1.69856 c -0.186197,0 -0.335897,-0.15021 -0.335897,-0.33641 0,-0.18619 0.1497,-0.3359 0.335897,-0.3359 h 1.643915 c 0.196101,0 0.203219,-0.0738 0.213336,-0.3054 v -0.48947 c 0,-0.18409 -0.04777,-0.18285 -0.168903,-0.18285 h -1.320412 c -0.186197,0 -0.335897,-0.15022 -0.335897,-0.33641 0,-0.18619 0.1497,-0.3359 0.335897,-0.3359 h 1.489315 v -0.97771 H 24.55356 c -0.186197,0 -0.335897,-0.14971 -0.335897,-0.3359 0,-0.1862 0.1497,-0.33641 0.335897,-0.33641 h 1.857251 v -0.82683 c 0,-0.051 -0.0053,-0.10052 -0.0078,-0.15089 h -1.481563 c -0.186197,0 -0.335897,-0.14971 -0.335897,-0.3359 0,-0.1862 0.1497,-0.33641 0.335897,-0.33641 h 1.376144 c -0.359076,-1.31009 -1.551534,-2.2686 -2.978628,-2.2686 z"
         style="opacity:0.0456598;fill:none;fill-opacity:1;stroke:url(#linearGradient1114);stroke-width:1.2;stroke-linecap:round;stroke-linejoin:round;stroke-miterlimit:4;stroke-dasharray:none;stroke-opacity:1"
         id="path1064" />
      <path
         id="path1066"
         style="opacity:0.0456598;fill:none;fill-opacity:1;stroke:url(#linearGradient1116);stroke-width:1.3;stroke-linecap:round;stroke-linejoin:round;stroke-miterlimit:4;stroke-dasharray:none;stroke-opacity:1"
         d="m 23.319011,283.30523 c -1.427094,0 -2.619552,0.95851 -2.97863,2.2686 h 1.856734 c 0.186197,0 0.336414,0.15021 0.336414,0.33641 0,0.18619 -0.150217,0.3359 -0.336414,0.3359 h -1.962154 c -0.0024,0.0504 -0.0078,0.0999 -0.0078,0.15089 v 0.82683 h 2.337842 c 0.186197,0 0.336413,0.15021 0.336413,0.33641 0,0.18619 -0.150216,0.3359 -0.336413,0.3359 h -2.337842 v 0.97771 h 1.969905 c 0.186197,0 0.336414,0.14971 0.336414,0.3359 0,0.18619 -0.150217,0.33641 -0.336414,0.33641 h -1.969905 v 0.67232 c 0,0.10326 0.0067,0.20481 0.01654,0.3054 h 2.321306 c 0.186197,0 0.336413,0.14971 0.336413,0.3359 0,0.1862 -0.150216,0.33641 -0.336413,0.33641 h -2.179195 c 0.278962,0.84119 0.906826,1.52044 1.71514,1.86552 v 0.83251 c 0,0.67471 0.543302,1.2175 1.218014,1.2175 0.674712,0 1.218013,-0.54279 1.218013,-1.2175 v -0.83251 c 0.808315,-0.34508 1.436178,-1.02433 1.715141,-1.86552 h -1.69856 c -0.186197,0 -0.335897,-0.15021 -0.335897,-0.33641 0,-0.18619 0.1497,-0.3359 0.335897,-0.3359 h 1.643915 c 0.196101,0 0.203219,-0.0738 0.213336,-0.3054 v -0.48947 c 0,-0.18409 -0.04777,-0.18285 -0.168903,-0.18285 h -1.320412 c -0.186197,0 -0.335897,-0.15022 -0.335897,-0.33641 0,-0.18619 0.1497,-0.3359 0.335897,-0.3359 h 1.489315 v -0.97771 H 24.55356 c -0.186197,0 -0.335897,-0.14971 -0.335897,-0.3359 0,-0.1862 0.1497,-0.33641 0.335897,-0.33641 h 1.857251 v -0.82683 c 0,-0.051 -0.0053,-0.10052 -0.0078,-0.15089 h -1.481563 c -0.186197,0 -0.335897,-0.14971 -0.335897,-0.3359 0,-0.1862 0.1497,-0.33641 0.335897,-0.33641 h 1.376144 c -0.359076,-1.31009 -1.551534,-2.2686 -2.978628,-2.2686 z"
         sodipodi:nodetypes="scssscscsssccssscscsssccsssccsssccccsssccssscscssscs" />
      <path
         sodipodi:nodetypes="scssscscsssccssscscsssccsssccsssccccsssccssscscssscs"
         d="m 23.319011,283.30523 c -1.427094,0 -2.619552,0.95851 -2.97863,2.2686 h 1.856734 c 0.186197,0 0.336414,0.15021 0.336414,0.33641 0,0.18619 -0.150217,0.3359 -0.336414,0.3359 h -1.962154 c -0.0024,0.0504 -0.0078,0.0999 -0.0078,0.15089 v 0.82683 h 2.337842 c 0.186197,0 0.336413,0.15021 0.336413,0.33641 0,0.18619 -0.150216,0.3359 -0.336413,0.3359 h -2.337842 v 0.97771 h 1.969905 c 0.186197,0 0.336414,0.14971 0.336414,0.3359 0,0.18619 -0.150217,0.33641 -0.336414,0.33641 h -1.969905 v 0.67232 c 0,0.10326 0.0067,0.20481 0.01654,0.3054 h 2.321306 c 0.186197,0 0.336413,0.14971 0.336413,0.3359 0,0.1862 -0.150216,0.33641 -0.336413,0.33641 h -2.179195 c 0.278962,0.84119 0.906826,1.52044 1.71514,1.86552 v 0.83251 c 0,0.67471 0.543302,1.2175 1.218014,1.2175 0.674712,0 1.218013,-0.54279 1.218013,-1.2175 v -0.83251 c 0.808315,-0.34508 1.436178,-1.02433 1.715141,-1.86552 h -1.69856 c -0.186197,0 -0.335897,-0.15021 -0.335897,-0.33641 0,-0.18619 0.1497,-0.3359 0.335897,-0.3359 h 1.643915 c 0.196101,0 0.203219,-0.0738 0.213336,-0.3054 v -0.48947 c 0,-0.18409 -0.04777,-0.18285 -0.168903,-0.18285 h -1.320412 c -0.186197,0 -0.335897,-0.15022 -0.335897,-0.33641 0,-0.18619 0.1497,-0.3359 0.335897,-0.3359 h 1.489315 v -0.97771 H 24.55356 c -0.186197,0 -0.335897,-0.14971 -0.335897,-0.3359 0,-0.1862 0.1497,-0.33641 0.335897,-0.33641 h 1.857251 v -0.82683 c 0,-0.051 -0.0053,-0.10052 -0.0078,-0.15089 h -1.481563 c -0.186197,0 -0.335897,-0.14971 -0.335897,-0.3359 0,-0.1862 0.1497,-0.33641 0.335897,-0.33641 h 1.376144 c -0.359076,-1.31009 -1.551534,-2.2686 -2.978628,-2.2686 z"
         style="opacity:0.0456598;fill:none;fill-opacity:1;stroke:url(#linearGradient1118);stroke-width:1.5;stroke-linecap:round;stroke-linejoin:round;stroke-miterlimit:4;stroke-dasharray:none;stroke-opacity:1"
         id="path1068" />
      <path
         id="path1070"
         style="opacity:0.0456598;fill:none;fill-opacity:1;stroke:url(#linearGradient1120);stroke-width:2;stroke-linecap:round;stroke-linejoin:round;stroke-miterlimit:4;stroke-dasharray:none;stroke-opacity:1"
         d="m 23.319011,283.30523 c -1.427094,0 -2.619552,0.95851 -2.97863,2.2686 h 1.856734 c 0.186197,0 0.336414,0.15021 0.336414,0.33641 0,0.18619 -0.150217,0.3359 -0.336414,0.3359 h -1.962154 c -0.0024,0.0504 -0.0078,0.0999 -0.0078,0.15089 v 0.82683 h 2.337842 c 0.186197,0 0.336413,0.15021 0.336413,0.33641 0,0.18619 -0.150216,0.3359 -0.336413,0.3359 h -2.337842 v 0.97771 h 1.969905 c 0.186197,0 0.336414,0.14971 0.336414,0.3359 0,0.18619 -0.150217,0.33641 -0.336414,0.33641 h -1.969905 v 0.67232 c 0,0.10326 0.0067,0.20481 0.01654,0.3054 h 2.321306 c 0.186197,0 0.336413,0.14971 0.336413,0.3359 0,0.1862 -0.150216,0.33641 -0.336413,0.33641 h -2.179195 c 0.278962,0.84119 0.906826,1.52044 1.71514,1.86552 v 0.83251 c 0,0.67471 0.543302,1.2175 1.218014,1.2175 0.674712,0 1.218013,-0.54279 1.218013,-1.2175 v -0.83251 c 0.808315,-0.34508 1.436178,-1.02433 1.715141,-1.86552 h -1.69856 c -0.186197,0 -0.335897,-0.15021 -0.335897,-0.33641 0,-0.18619 0.1497,-0.3359 0.335897,-0.3359 h 1.643915 c 0.196101,0 0.203219,-0.0738 0.213336,-0.3054 v -0.48947 c 0,-0.18409 -0.04777,-0.18285 -0.168903,-0.18285 h -1.320412 c -0.186197,0 -0.335897,-0.15022 -0.335897,-0.33641 0,-0.18619 0.1497,-0.3359 0.335897,-0.3359 h 1.489315 v -0.97771 H 24.55356 c -0.186197,0 -0.335897,-0.14971 -0.335897,-0.3359 0,-0.1862 0.1497,-0.33641 0.335897,-0.33641 h 1.857251 v -0.82683 c 0,-0.051 -0.0053,-0.10052 -0.0078,-0.15089 h -1.481563 c -0.186197,0 -0.335897,-0.14971 -0.335897,-0.3359 0,-0.1862 0.1497,-0.33641 0.335897,-0.33641 h 1.376144 c -0.359076,-1.31009 -1.551534,-2.2686 -2.978628,-2.2686 z"
         sodipodi:nodetypes="scssscscsssccssscscsssccsssccsssccccsssccssscscssscs" />
      <path
         sodipodi:nodetypes="scssscscsssccssscscsssccsssccsssccccsssccssscscssscs"
         d="m 23.319011,283.30523 c -1.427094,0 -2.619552,0.95851 -2.97863,2.2686 h 1.856734 c 0.186197,0 0.336414,0.15021 0.336414,0.33641 0,0.18619 -0.150217,0.3359 -0.336414,0.3359 h -1.962154 c -0.0024,0.0504 -0.0078,0.0999 -0.0078,0.15089 v 0.82683 h 2.337842 c 0.186197,0 0.336413,0.15021 0.336413,0.33641 0,0.18619 -0.150216,0.3359 -0.336413,0.3359 h -2.337842 v 0.97771 h 1.969905 c 0.186197,0 0.336414,0.14971 0.336414,0.3359 0,0.18619 -0.150217,0.33641 -0.336414,0.33641 h -1.969905 v 0.67232 c 0,0.10326 0.0067,0.20481 0.01654,0.3054 h 2.321306 c 0.186197,0 0.336413,0.14971 0.336413,0.3359 0,0.1862 -0.150216,0.33641 -0.336413,0.33641 h -2.179195 c 0.278962,0.84119 0.906826,1.52044 1.71514,1.86552 v 0.83251 c 0,0.67471 0.543302,1.2175 1.218014,1.2175 0.674712,0 1.218013,-0.54279 1.218013,-1.2175 v -0.83251 c 0.808315,-0.34508 1.436178,-1.02433 1.715141,-1.86552 h -1.69856 c -0.186197,0 -0.335897,-0.15021 -0.335897,-0.33641 0,-0.18619 0.1497,-0.3359 0.335897,-0.3359 h 1.643915 c 0.196101,0 0.203219,-0.0738 0.213336,-0.3054 v -0.48947 c 0,-0.18409 -0.04777,-0.18285 -0.168903,-0.18285 h -1.320412 c -0.186197,0 -0.335897,-0.15022 -0.335897,-0.33641 0,-0.18619 0.1497,-0.3359 0.335897,-0.3359 h 1.489315 v -0.97771 H 24.55356 c -0.186197,0 -0.335897,-0.14971 -0.335897,-0.3359 0,-0.1862 0.1497,-0.33641 0.335897,-0.33641 h 1.857251 v -0.82683 c 0,-0.051 -0.0053,-0.10052 -0.0078,-0.15089 h -1.481563 c -0.186197,0 -0.335897,-0.14971 -0.335897,-0.3359 0,-0.1862 0.1497,-0.33641 0.335897,-0.33641 h 1.376144 c -0.359076,-1.31009 -1.551534,-2.2686 -2.978628,-2.2686 z"
         style="opacity:0.0456598;fill:none;fill-opacity:1;stroke:url(#linearGradient1122);stroke-width:2.5;stroke-linecap:round;stroke-linejoin:round;stroke-miterlimit:4;stroke-dasharray:none;stroke-opacity:1"
         id="path1072" />
      <path
         id="path1074"
         style="opacity:0.0456598;fill:none;fill-opacity:1;stroke:url(#linearGradient1044);stroke-width:3;stroke-linecap:round;stroke-linejoin:round;stroke-miterlimit:4;stroke-dasharray:none;stroke-opacity:1"
         d="m 23.319011,283.30523 c -1.427094,0 -2.619552,0.95851 -2.97863,2.2686 h 1.856734 c 0.186197,0 0.336414,0.15021 0.336414,0.33641 0,0.18619 -0.150217,0.3359 -0.336414,0.3359 h -1.962154 c -0.0024,0.0504 -0.0078,0.0999 -0.0078,0.15089 v 0.82683 h 2.337842 c 0.186197,0 0.336413,0.15021 0.336413,0.33641 0,0.18619 -0.150216,0.3359 -0.336413,0.3359 h -2.337842 v 0.97771 h 1.969905 c 0.186197,0 0.336414,0.14971 0.336414,0.3359 0,0.18619 -0.150217,0.33641 -0.336414,0.33641 h -1.969905 v 0.67232 c 0,0.10326 0.0067,0.20481 0.01654,0.3054 h 2.321306 c 0.186197,0 0.336413,0.14971 0.336413,0.3359 0,0.1862 -0.150216,0.33641 -0.336413,0.33641 h -2.179195 c 0.278962,0.84119 0.906826,1.52044 1.71514,1.86552 v 0.83251 c 0,0.67471 0.543302,1.2175 1.218014,1.2175 0.674712,0 1.218013,-0.54279 1.218013,-1.2175 v -0.83251 c 0.808315,-0.34508 1.436178,-1.02433 1.715141,-1.86552 h -1.69856 c -0.186197,0 -0.335897,-0.15021 -0.335897,-0.33641 0,-0.18619 0.1497,-0.3359 0.335897,-0.3359 h 1.643915 c 0.196101,0 0.203219,-0.0738 0.213336,-0.3054 v -0.48947 c 0,-0.18409 -0.04777,-0.18285 -0.168903,-0.18285 h -1.320412 c -0.186197,0 -0.335897,-0.15022 -0.335897,-0.33641 0,-0.18619 0.1497,-0.3359 0.335897,-0.3359 h 1.489315 v -0.97771 H 24.55356 c -0.186197,0 -0.335897,-0.14971 -0.335897,-0.3359 0,-0.1862 0.1497,-0.33641 0.335897,-0.33641 h 1.857251 v -0.82683 c 0,-0.051 -0.0053,-0.10052 -0.0078,-0.15089 h -1.481563 c -0.186197,0 -0.335897,-0.14971 -0.335897,-0.3359 0,-0.1862 0.1497,-0.33641 0.335897,-0.33641 h 1.376144 c -0.359076,-1.31009 -1.551534,-2.2686 -2.978628,-2.2686 z"
         sodipodi:nodetypes="scssscscsssccssscscsssccsssccsssccccsssccssscscssscs" />
    </g>
    <g
       id="g1000">
      <path
         style="fill:none;stroke:#000000;stroke-width:0.05;stroke-linecap:butt;stroke-linejoin:miter;stroke-opacity:0.4867191;stroke-miterlimit:4;stroke-dasharray:none"
         d="m 1.0207697,288.49302 c 7.6338853,2.27116 10.4894663,-2.47383 15.1512363,0"
         id="path940"
         sodipodi:nodetypes="cc" />
      <path
         sodipodi:nodetypes="cc"
         id="path942"
         d="m 1.0207697,288.49302 c 6.7011419,-1.50849 10.8918443,2.65858 15.1512363,0"
         style="fill:none;stroke:url(#linearGradient978);stroke-width:0.05;stroke-linecap:butt;stroke-linejoin:miter;stroke-opacity:1;stroke-miterlimit:4;stroke-dasharray:none" />
      <path
         style="fill:none;stroke:#000000;stroke-width:0.05;stroke-linecap:butt;stroke-linejoin:miter;stroke-opacity:1;stroke-miterlimit:4;stroke-dasharray:none"
         d="m 1.0207697,288.49302 c 4.5323989,-0.0442 10.8275053,2.70202 15.1512363,0"
         id="path944"
         sodipodi:nodetypes="cc" />
      <path
         sodipodi:nodetypes="cc"
         id="path946"
         d="m 1.0207697,288.49302 c 4.9324994,3.68349 10.6342153,-1.05633 15.1512363,0"
         style="fill:none;stroke:#555555;stroke-width:0.05;stroke-linecap:butt;stroke-linejoin:miter;stroke-opacity:1;stroke-miterlimit:4;stroke-dasharray:none" />
    </g>
    <path
       transform="matrix(0.26458333,0,0,0.26458333,0,280.06667)"
       sodipodi:nodetypes="scssscscsssccssscscsssccsssccsssccccsssccssscscssscs"
       d="m 32.195312,12.240234 c -5.393739,0 -9.900668,3.622721 -11.257812,8.574219 h 7.017578 c 0.703736,0 1.271485,0.567736 1.271484,1.271485 10e-7,0.703708 -0.567748,1.269531 -1.271484,1.269531 h -7.416016 c -0.0091,0.190394 -0.0293,0.377577 -0.0293,0.570312 v 3.125 h 8.835937 c 0.703737,0 1.271485,0.567737 1.271485,1.271485 0,0.70371 -0.567748,1.269531 -1.271485,1.269531 h -8.835937 v 3.695312 h 7.445312 c 0.703736,0 1.271485,0.565821 1.271484,1.269532 1e-6,0.70371 -0.567748,1.271484 -1.271484,1.271484 h -7.445312 v 2.541016 c 0,0.390286 0.02545,0.774086 0.0625,1.154297 h 8.773437 c 0.703737,0 1.271485,0.565821 1.271485,1.269531 0,0.703748 -0.567748,1.271484 -1.271485,1.271484 h -8.236328 c 1.054348,3.179283 3.427374,5.746545 6.482422,7.050781 v 3.146485 c 0,2.550085 2.053423,4.601562 4.603515,4.601562 2.550095,0 4.603516,-2.051477 4.603516,-4.601562 v -3.146485 c 3.055049,-1.304236 5.428074,-3.871498 6.482422,-7.050781 h -6.419922 c -0.703736,0 -1.269531,-0.567736 -1.269531,-1.271484 0,-0.70371 0.565795,-1.269531 1.269531,-1.269531 h 6.213223 c 0.74117,0 0.768073,-0.278874 0.806308,-1.154297 v -1.849958 c 0,-0.695778 -0.18054,-0.691058 -0.638371,-0.691058 h -4.990535 c -0.703737,0 -1.269531,-0.567774 -1.269531,-1.271484 0,-0.703711 0.565794,-1.269532 1.269531,-1.269532 h 5.628906 v -3.695312 h -7.019531 c -0.703736,0 -1.269531,-0.565821 -1.269531,-1.269531 0,-0.703748 0.565795,-1.271485 1.269531,-1.271485 h 7.019531 v -3.125 c 0,-0.192735 -0.02016,-0.379918 -0.0293,-0.570312 h -5.599609 c -0.703737,0 -1.269531,-0.565823 -1.269531,-1.269531 0,-0.703749 0.565794,-1.271485 1.269531,-1.271485 h 5.201172 C 42.095982,15.862955 37.589056,12.240234 32.195312,12.240234 Z"
       style="fill:url(#linearGradient938);fill-opacity:1;stroke-width:3;stroke-linecap:round;stroke-linejoin:round;stroke-opacity:0.02"
       id="path930" />
    <path
       id="circle872"
       style="opacity:1;fill:none;fill-opacity:1;stroke:url(#linearGradient844);stroke-width:0.81756413;stroke-linecap:round;stroke-miterlimit:4;stroke-dasharray:none;stroke-dashoffset:0;stroke-opacity:1"
       r="7.7297897"
       cy="288.60864"
       cx="8.5411577" />
    <circle
       r="7.7297897"
       cy="288.60864"
       cx="8.5411577"
       id="circle832"
       style="opacity:1;fill:none;fill-opacity:1;stroke:url(#linearGradient840);stroke-width:0.81756413;stroke-linecap:round;stroke-miterlimit:4;stroke-dasharray:none;stroke-dashoffset:0;stroke-opacity:1" />
  </g>
</svg>
