<?xml version="1.0" encoding="UTF-8" standalone="no"?>
<!-- Created with Inkscape (http://www.inkscape.org/) -->

<svg
   width="64"
   height="64"
   viewBox="0 0 16.933333 16.933333"
   version="1.1"
   id="svg8"
   inkscape:version="1.1.2 (0a00cf5339, 2022-02-04)"
   sodipodi:docname="brasero.svg"
   xmlns:inkscape="http://www.inkscape.org/namespaces/inkscape"
   xmlns:sodipodi="http://sodipodi.sourceforge.net/DTD/sodipodi-0.dtd"
   xmlns:xlink="http://www.w3.org/1999/xlink"
   xmlns="http://www.w3.org/2000/svg"
   xmlns:svg="http://www.w3.org/2000/svg"
   xmlns:rdf="http://www.w3.org/1999/02/22-rdf-syntax-ns#"
   xmlns:cc="http://creativecommons.org/ns#"
   xmlns:dc="http://purl.org/dc/elements/1.1/">
  <defs
     id="defs2">
    <linearGradient
       inkscape:collect="always"
       xlink:href="#linearGradient3732"
       id="linearGradient3734"
       x1="234.66406"
       y1="294.83316"
       x2="234.66406"
       y2="184.884"
       gradientUnits="userSpaceOnUse"
       gradientTransform="matrix(0.06926746,0,0,0.06926746,-7.6270463,269.09504)" />
    <linearGradient
       inkscape:collect="always"
       id="linearGradient3732">
      <stop
         style="stop-color:#ee1f1f;stop-opacity:1"
         offset="0"
         id="stop3728" />
      <stop
         style="stop-color:#f8a53c;stop-opacity:1"
         offset="1"
         id="stop3730" />
    </linearGradient>
    <linearGradient
       inkscape:collect="always"
       xlink:href="#linearGradient11514"
       id="linearGradient11516"
       x1="273.79138"
       y1="304.85706"
       x2="200.22331"
       y2="380.32397"
       gradientUnits="userSpaceOnUse"
       gradientTransform="matrix(0.06926746,0,0,0.06926746,-7.6270463,269.09504)" />
    <linearGradient
       inkscape:collect="always"
       id="linearGradient11514">
      <stop
         style="stop-color:#f48d24;stop-opacity:1;"
         offset="0"
         id="stop11510" />
      <stop
         style="stop-color:#f48d24;stop-opacity:0;"
         offset="1"
         id="stop11512" />
    </linearGradient>
    <linearGradient
       inkscape:collect="always"
       xlink:href="#linearGradient12199"
       id="linearGradient12201"
       x1="218.57761"
       y1="277.63647"
       x2="141.89513"
       y2="285.37659"
       gradientUnits="userSpaceOnUse"
       gradientTransform="matrix(0.06926746,0,0,0.06926746,-7.6270463,269.09504)" />
    <linearGradient
       inkscape:collect="always"
       id="linearGradient12199">
      <stop
         style="stop-color:#ffe739;stop-opacity:0.11829989"
         offset="0"
         id="stop12195" />
      <stop
         style="stop-color:#ffe5cb;stop-opacity:0;"
         offset="1"
         id="stop12197" />
    </linearGradient>
    <linearGradient
       inkscape:collect="always"
       xlink:href="#linearGradient13667"
       id="linearGradient13669"
       x1="169.29817"
       y1="335.56531"
       x2="210.46999"
       y2="335.56531"
       gradientUnits="userSpaceOnUse"
       gradientTransform="matrix(0.06926746,0,0,0.06926746,-7.6270463,269.09504)" />
    <linearGradient
       inkscape:collect="always"
       id="linearGradient13667">
      <stop
         style="stop-color:#ee2b20;stop-opacity:1;"
         offset="0"
         id="stop13663" />
      <stop
         style="stop-color:#ee2b20;stop-opacity:0;"
         offset="1"
         id="stop13665" />
    </linearGradient>
  </defs>
  <sodipodi:namedview
     id="base"
     pagecolor="#ffffff"
     bordercolor="#666666"
     borderopacity="1.0"
     inkscape:pageopacity="0"
     inkscape:pageshadow="2"
     inkscape:zoom="1.8368204"
     inkscape:cx="-77.307506"
     inkscape:cy="57.164001"
     inkscape:document-units="mm"
     inkscape:current-layer="layer1"
     showgrid="false"
     units="px"
     inkscape:window-width="1920"
     inkscape:window-height="1033"
     inkscape:window-x="0"
     inkscape:window-y="24"
     inkscape:window-maximized="1"
     inkscape:pagecheckerboard="0"
     inkscape:lockguides="true" />
  <metadata
     id="metadata5">
    <rdf:RDF>
      <cc:Work
         rdf:about="">
        <dc:format>image/svg+xml</dc:format>
        <dc:type
           rdf:resource="http://purl.org/dc/dcmitype/StillImage" />
      </cc:Work>
    </rdf:RDF>
  </metadata>
  <g
     inkscape:label="Layer 1"
     inkscape:groupmode="layer"
     id="layer1"
     transform="translate(0,-280.06667)">
    <path
       style="fill:url(#linearGradient3734);fill-opacity:1;stroke:none;stroke-width:0.0692675px;stroke-linecap:butt;stroke-linejoin:miter;stroke-opacity:1"
       d="m 6.3628812,288.65372 c -1.3584284,1.01141 0.044638,3.48155 1.6223007,2.44859 0.6980816,-0.50216 0.7838936,-1.66894 0.1567321,-2.32971 -0.3985635,-0.41993 -1.4357529,-1.47711 -1.6209326,-3.01889 -0.2481348,-3.05151 1.9559884,-4.57337 3.6217926,-4.77865 0,0 -2.3292895,2.27809 -0.3527787,4.71626 0,0 0.7639077,-1.20161 2.0060427,-0.6878 0,0 -0.685336,0.53593 -0.764026,1.26134 -0.02646,1.12197 2.505718,2.4747 1.204072,6.05182 -0.639574,1.44022 -1.92493,2.30092 -2.237676,2.5228 -0.1332833,0.0946 -1.2217843,0.89205 -0.4613816,1.87798 -7.1890895,-0.62121 -5.836566,-7.9044 -3.1741452,-8.06374 z"
       id="path1055"
       sodipodi:nodetypes="ccsccccccscc" />
    <path
       id="path9717"
       style="fill:url(#linearGradient11516);fill-opacity:1;stroke:none;stroke-width:0.0692675px;stroke-linecap:butt;stroke-linejoin:miter;stroke-opacity:1"
       d="m 11.050006,286.15284 c -0.124812,2.87808 -0.858744,4.8158 -3.3888303,5.11713 l -0.00122,-0.002 c -1.4338745,0.53059 -2.561201,-1.67206 -1.2971412,-2.61322 -2.6624211,0.15934 -4.0148274,7.44249 3.1742625,8.06371 -0.760403,-0.98594 0.3280494,-1.78338 0.4613328,-1.87793 0.3127462,-0.22189 1.5980892,-1.08264 2.2376632,-2.52285 1.301646,-3.57713 -1.230518,-4.92988 -1.204064,-6.05184 0.0041,-0.038 0.01073,-0.0751 0.01799,-0.11202 z"
       sodipodi:nodetypes="cccccsccc" />
    <path
       id="path11876"
       style="fill:url(#linearGradient12201);fill-opacity:1;stroke:none;stroke-width:0.0692675px;stroke-linecap:butt;stroke-linejoin:miter;stroke-opacity:1"
       d="m 10.142764,280.9751 c -1.6658046,0.20528 -3.8699305,1.72713 -3.6217958,4.77864 0.1851797,1.54177 1.222322,2.59889 1.6208856,3.01881 0.6271614,0.66078 0.541418,1.82764 -0.1566636,2.3298 -1.5776627,1.03295 -2.9808019,-1.43716 -1.6223735,-2.44858 -1.1011891,0.0659 -1.9759111,1.35111 -2.1172575,2.87893 0.4457984,0.73684 1.2244041,1.53078 2.5925244,1.90594 1.7709453,0.48561 6.5504014,-1.64321 2.4161088,-5.67831 -4.1342923,-4.0351 0.8885716,-6.78523 0.8885716,-6.78523 z" />
    <path
       id="path12336"
       style="fill:url(#linearGradient13669);fill-opacity:1;stroke:none;stroke-width:0.0692675px;stroke-linecap:butt;stroke-linejoin:miter;stroke-opacity:1"
       d="m 10.142764,280.9751 c -1.6658046,0.20528 -3.8699305,1.72713 -3.6217958,4.77864 0.1851797,1.54177 1.222322,2.59889 1.6208856,3.01881 0.6271614,0.66078 0.541418,1.82764 -0.1566636,2.3298 -1.5776627,1.03295 -2.9808019,-1.43716 -1.6223735,-2.44858 -1.1011891,0.0659 -1.9759111,1.35111 -2.1172575,2.87893 0.4457984,0.73684 1.2244041,1.53078 2.5925244,1.90594 1.7709453,0.48561 6.5504014,-1.64321 2.4161088,-5.67831 -4.1342923,-4.0351 0.8885716,-6.78523 0.8885716,-6.78523 z" />
    <path
       id="path984"
       style="fill:#730000;fill-opacity:0.0890922;stroke:none;stroke-width:0.261798px;stroke-linecap:butt;stroke-linejoin:miter;stroke-opacity:1"
       d="M 38.333984 3.4335938 C 32.038031 4.2094552 23.708652 9.9608745 24.646484 21.494141 C 25.346376 27.321341 29.267056 31.31716 30.773438 32.904297 C 33.143812 35.401695 32.818106 39.811057 30.179688 41.708984 C 28.800866 42.611755 27.458848 42.804695 26.271484 42.523438 C 27.610513 43.067465 29.203133 43.000565 30.847656 41.923828 C 33.486075 40.025901 33.809827 35.614586 31.439453 33.117188 C 29.933071 31.53005 26.014345 27.536184 25.314453 21.708984 C 24.426916 10.794243 31.838591 5.0599075 37.972656 3.8183594 C 38.197373 3.5666533 38.333984 3.4335938 38.333984 3.4335938 z M 42.140625 18.177734 C 39.570429 18.243458 37.846016 20.1442 37.244141 20.923828 C 37.380042 21.10657 37.521342 21.289372 37.669922 21.472656 C 37.669922 21.472656 40.193895 17.503128 44.359375 18.574219 C 43.564859 18.276755 42.822515 18.160297 42.140625 18.177734 z M 24.048828 32.455078 C 14.914981 33.001719 9.8612416 55.730249 29.326172 61.677734 C 11.460778 55.69278 15.294755 35.121681 23.560547 32.865234 C 23.711858 32.722659 23.873587 32.585553 24.048828 32.455078 z "
       transform="matrix(0.26458333,0,0,0.26458333,0,280.06667)" />
  </g>
</svg>
