<?xml version="1.0" encoding="UTF-8" standalone="no"?>
<svg
   xmlns:dc="http://purl.org/dc/elements/1.1/"
   xmlns:cc="http://creativecommons.org/ns#"
   xmlns:rdf="http://www.w3.org/1999/02/22-rdf-syntax-ns#"
   xmlns:svg="http://www.w3.org/2000/svg"
   xmlns="http://www.w3.org/2000/svg"
   xmlns:xlink="http://www.w3.org/1999/xlink"
   xmlns:sodipodi="http://sodipodi.sourceforge.net/DTD/sodipodi-0.dtd"
   xmlns:inkscape="http://www.inkscape.org/namespaces/inkscape"
   width="64"
   height="64"
   viewBox="0 0 16.933333 16.933333"
   version="1.1"
   id="svg8"
   inkscape:version="1.0.1 (3bc2e813f5, 2020-09-07)"
   sodipodi:docname="zathura.svg">
  <defs
     id="defs2">
    <linearGradient
       inkscape:collect="always"
       id="linearGradient1049">
      <stop
         style="stop-color:#d4c5a6;stop-opacity:1"
         offset="0"
         id="stop1045" />
      <stop
         style="stop-color:#a59f95;stop-opacity:0.9997232"
         offset="1"
         id="stop1047" />
    </linearGradient>
    <linearGradient
       inkscape:collect="always"
       id="linearGradient1041">
      <stop
         style="stop-color:#ffffff;stop-opacity:1;"
         offset="0"
         id="stop1037" />
      <stop
         style="stop-color:#d4d0c7;stop-opacity:1"
         offset="1"
         id="stop1039" />
    </linearGradient>
    <linearGradient
       inkscape:collect="always"
       id="linearGradient1014">
      <stop
         style="stop-color:#ffffff;stop-opacity:1"
         offset="0"
         id="stop1010" />
      <stop
         style="stop-color:#cccccc;stop-opacity:1"
         offset="1"
         id="stop1012" />
    </linearGradient>
    <linearGradient
       id="linearGradient3866">
      <stop
         style="stop-color:#000000;stop-opacity:0.52083331"
         offset="0"
         id="stop3868" />
      <stop
         style="stop-color:#2883c3;stop-opacity:0;"
         offset="1"
         id="stop3870" />
    </linearGradient>
    <linearGradient
       id="linearGradient3874">
      <stop
         style="stop-color:#000d0e;stop-opacity:0.84105963;"
         offset="0"
         id="stop3876" />
      <stop
         style="stop-color:#000000;stop-opacity:0;"
         offset="1"
         id="stop3878" />
    </linearGradient>
    <clipPath
       clipPathUnits="userSpaceOnUse"
       id="clipPath4178">
      <circle
         r="225"
         cy="222.68037"
         cx="204.3168"
         id="circle4180"
         style="opacity:1;fill:#1c5266;fill-opacity:0.19099205;fill-rule:evenodd;stroke:none;stroke-width:3.33392239;stroke-linecap:butt;stroke-linejoin:miter;stroke-miterlimit:4;stroke-dasharray:none;stroke-dashoffset:0;stroke-opacity:1" />
    </clipPath>
    <clipPath
       clipPathUnits="userSpaceOnUse"
       id="clipPath4178-1">
      <circle
         r="225"
         cy="222.68037"
         cx="204.3168"
         id="circle4180-7"
         style="opacity:1;fill:#1c5266;fill-opacity:0.19099205;fill-rule:evenodd;stroke:none;stroke-width:3.33392239;stroke-linecap:butt;stroke-linejoin:miter;stroke-miterlimit:4;stroke-dasharray:none;stroke-dashoffset:0;stroke-opacity:1" />
    </clipPath>
    <linearGradient
       id="linearGradient5048-8">
      <stop
         offset="0"
         style="stop-color:#000000;stop-opacity:0"
         id="stop5050-4" />
      <stop
         offset="0.5"
         style="stop-color:#000000;stop-opacity:1"
         id="stop5056-7" />
      <stop
         offset="1"
         style="stop-color:#000000;stop-opacity:0"
         id="stop5052-0-1" />
    </linearGradient>
    <linearGradient
       id="linearGradient5060-29">
      <stop
         offset="0"
         style="stop-color:#000000;stop-opacity:1"
         id="stop5062-9" />
      <stop
         offset="1"
         style="stop-color:#000000;stop-opacity:0"
         id="stop5064-08" />
    </linearGradient>
    <linearGradient
       id="linearGradient4050-7">
      <stop
         id="stop4052-6"
         offset="0"
         style="stop-color:#ffffff;stop-opacity:0.66929132;" />
      <stop
         id="stop4054-0"
         offset="1"
         style="stop-color:#ffffff;stop-opacity:0;" />
    </linearGradient>
    <linearGradient
       gradientUnits="userSpaceOnUse"
       id="linearGradient4132-3"
       x1="-5.3196001"
       x2="-50.520779"
       gradientTransform="matrix(0,-1,-1,0,0,0)">
      <stop
         offset="0"
         stop-color="#f65454"
         id="stop29-7" />
      <stop
         offset="1"
         stop-color="#740000"
         id="stop31-0" />
    </linearGradient>
    <linearGradient
       gradientUnits="userSpaceOnUse"
       id="linearGradient3298-8-9"
       x1="-39.333229"
       x2="-1.64257"
       gradientTransform="matrix(0,-1,-1,0,0,0)">
      <stop
         offset="0"
         stop-color="#791235"
         id="stop24-3"
         style="stop-color:#5f0e0e;stop-opacity:1;" />
      <stop
         offset="1"
         stop-color="#dd3b27"
         id="stop26-3" />
    </linearGradient>
    <linearGradient
       id="linearGradient8265-821-176-38-919-66-249-7-7">
      <stop
         offset="0"
         style="stop-color:#ffffff;stop-opacity:1"
         id="stop2687-1-9" />
      <stop
         offset="1"
         style="stop-color:#ffffff;stop-opacity:0"
         id="stop2689-5-4" />
    </linearGradient>
    <linearGradient
       id="linearGradient3924">
      <stop
         offset="0"
         style="stop-color:#ffffff;stop-opacity:1;"
         id="stop3926" />
      <stop
         id="stop3928"
         style="stop-color:#ffffff;stop-opacity:0.23529412;"
         offset="0.06316455" />
      <stop
         offset="0.95056331"
         style="stop-color:#ffffff;stop-opacity:0.15686275;"
         id="stop3930" />
      <stop
         offset="1"
         style="stop-color:#ffffff;stop-opacity:0.39215687;"
         id="stop3932" />
    </linearGradient>
    <linearGradient
       id="linearGradient3688-166-749">
      <stop
         offset="0"
         style="stop-color:#181818;stop-opacity:1"
         id="stop2883" />
      <stop
         offset="1"
         style="stop-color:#181818;stop-opacity:0"
         id="stop2885" />
    </linearGradient>
    <linearGradient
       id="linearGradient3702-501-757">
      <stop
         offset="0"
         style="stop-color:#181818;stop-opacity:0"
         id="stop2895" />
      <stop
         offset="0.5"
         style="stop-color:#181818;stop-opacity:1"
         id="stop2897" />
      <stop
         offset="1"
         style="stop-color:#181818;stop-opacity:0"
         id="stop2899" />
    </linearGradient>
    <linearGradient
       id="linearGradient3895-9-0-3">
      <stop
         offset="0"
         style="stop-color:#dc6838;stop-opacity:1"
         id="stop3897-0-5-7" />
      <stop
         offset="1"
         style="stop-color:#ba3d12;stop-opacity:1"
         id="stop3899-8-7-06" />
    </linearGradient>
    <linearGradient
       y2="1044.3767"
       x2="28.53125"
       y1="994.81909"
       x1="28.53125"
       gradientTransform="translate(12,-100)"
       gradientUnits="userSpaceOnUse"
       id="linearGradient4195"
       xlink:href="#linearGradient3895-9-0-3"
       inkscape:collect="always" />
    <linearGradient
       id="linearGradient4067-0-2">
      <stop
         id="stop4069-2-9"
         offset="0"
         style="stop-color:#acffe3;stop-opacity:1" />
      <stop
         id="stop4071-8-9"
         offset="1"
         style="stop-color:#ffffff;stop-opacity:1" />
    </linearGradient>
    <linearGradient
       id="linearGradient4644-104-3-3-6-2">
      <stop
         id="stop5237-6-5-1-7"
         style="stop-color:#51c3cc;stop-opacity:1"
         offset="0" />
      <stop
         id="stop5239-4-6-4-8"
         style="stop-color:#b3efec;stop-opacity:1"
         offset="1" />
    </linearGradient>
    <radialGradient
       inkscape:collect="always"
       xlink:href="#linearGradient922"
       id="radialGradient928"
       gradientUnits="userSpaceOnUse"
       gradientTransform="matrix(0.14383744,0,0,0.15194474,-38.669084,283.56367)"
       cx="18.213728"
       cy="28.929352"
       fx="18.213728"
       fy="28.929352"
       r="4.4701633" />
    <linearGradient
       inkscape:collect="always"
       id="linearGradient922">
      <stop
         style="stop-color:#0e1014;stop-opacity:1;"
         offset="0"
         id="stop918" />
      <stop
         style="stop-color:#0e1014;stop-opacity:0;"
         offset="1"
         id="stop920" />
    </linearGradient>
    <linearGradient
       gradientTransform="matrix(0.29027243,0,0,0.29027243,-0.78118387,279.03065)"
       id="j"
       x1="44"
       x2="30.5"
       y1="21"
       y2="46"
       gradientUnits="userSpaceOnUse">
      <stop
         stop-color="#999"
         offset="0"
         id="stop12"
         style="stop-color:#999999;stop-opacity:1" />
      <stop
         stop-color="#aeaeae"
         offset="1"
         id="stop14"
         style="stop-color:#c5c4bf;stop-opacity:1" />
    </linearGradient>
    <radialGradient
       inkscape:collect="always"
       xlink:href="#linearGradient903"
       id="radialGradient905"
       cx="74.344193"
       cy="69.270531"
       fx="74.344193"
       fy="69.270531"
       r="9.0084085"
       gradientTransform="matrix(0.3040015,-0.00587726,0.00484894,0.25081209,-219.18568,195.52987)"
       gradientUnits="userSpaceOnUse" />
    <linearGradient
       inkscape:collect="always"
       id="linearGradient903">
      <stop
         style="stop-color:#000000;stop-opacity:0"
         offset="0"
         id="stop899" />
      <stop
         id="stop911"
         offset="0.40499553"
         style="stop-color:#000000;stop-opacity:0" />
      <stop
         id="stop907"
         offset="0.55552781"
         style="stop-color:#000000;stop-opacity:0.09411765" />
      <stop
         style="stop-color:#000000;stop-opacity:0.11764706"
         offset="0.77253407"
         id="stop909" />
      <stop
         id="stop913"
         offset="0.87728614"
         style="stop-color:#000000;stop-opacity:0.05882353" />
      <stop
         style="stop-color:#000000;stop-opacity:0"
         offset="1"
         id="stop901" />
    </linearGradient>
    <radialGradient
       inkscape:collect="always"
       xlink:href="#linearGradient903"
       id="radialGradient877"
       gradientUnits="userSpaceOnUse"
       gradientTransform="matrix(0.3040015,-0.00587726,0.00484894,0.25081209,-224.82463,196.41117)"
       cx="74.344193"
       cy="69.270531"
       fx="74.344193"
       fy="69.270531"
       r="9.0084085" />
    <linearGradient
       inkscape:collect="always"
       xlink:href="#linearGradient938"
       id="linearGradient940"
       x1="116.20521"
       y1="4.0277567"
       x2="125.40958"
       y2="4.0277567"
       gradientUnits="userSpaceOnUse"
       gradientTransform="matrix(0.14808176,0,0,0.28755505,151.73006,234.62064)" />
    <linearGradient
       inkscape:collect="always"
       id="linearGradient938">
      <stop
         style="stop-color:#d6d7d7;stop-opacity:0"
         offset="0"
         id="stop934" />
      <stop
         id="stop942"
         offset="0.10416689"
         style="stop-color:#000000;stop-opacity:0.0627451" />
      <stop
         style="stop-color:#000000;stop-opacity:0.06666667;"
         offset="0.1770836"
         id="stop964" />
      <stop
         id="stop962"
         offset="0.36458367"
         style="stop-color:#000000;stop-opacity:0.15686275" />
      <stop
         style="stop-color:#000000;stop-opacity:0.16470589"
         offset="0.52083373"
         id="stop956" />
      <stop
         id="stop958"
         offset="0.66666716"
         style="stop-color:#000000;stop-opacity:0.16862746" />
      <stop
         style="stop-color:#000000;stop-opacity:0.14901961"
         offset="0.79166722"
         id="stop960" />
      <stop
         style="stop-color:#000000;stop-opacity:0.09019608"
         offset="0.91666728"
         id="stop944" />
      <stop
         style="stop-color:#000000;stop-opacity:0;"
         offset="1"
         id="stop936" />
    </linearGradient>
    <linearGradient
       inkscape:collect="always"
       xlink:href="#linearGradient1102"
       id="linearGradient1090"
       gradientUnits="userSpaceOnUse"
       gradientTransform="matrix(-1,0,0,1,-32.167265,-207.81833)"
       x1="66.418762"
       y1="564.57068"
       x2="272.56073"
       y2="630.47174" />
    <linearGradient
       inkscape:collect="always"
       id="linearGradient1102">
      <stop
         style="stop-color:#4f524f;stop-opacity:1;"
         offset="0"
         id="stop1092" />
      <stop
         style="stop-color:#322b2b;stop-opacity:1"
         offset="0.21392521"
         id="stop1104" />
      <stop
         style="stop-color:#1d2017;stop-opacity:1"
         offset="0.34032217"
         id="stop1094" />
      <stop
         style="stop-color:#1d1f16;stop-opacity:1"
         offset="0.39864299"
         id="stop1096" />
      <stop
         style="stop-color:#403b37;stop-opacity:1"
         offset="0.44530693"
         id="stop1098" />
      <stop
         style="stop-color:#4f524f;stop-opacity:1"
         offset="1"
         id="stop1100" />
    </linearGradient>
    <linearGradient
       inkscape:collect="always"
       xlink:href="#linearGradient1068"
       id="linearGradient1080"
       gradientUnits="userSpaceOnUse"
       x1="66.418762"
       y1="564.57068"
       x2="272.56073"
       y2="630.47174"
       gradientTransform="translate(-348.17871,-209.7695)" />
    <linearGradient
       inkscape:collect="always"
       id="linearGradient1068">
      <stop
         style="stop-color:#4f524f;stop-opacity:1;"
         offset="0"
         id="stop1064" />
      <stop
         style="stop-color:#2b2f22;stop-opacity:1"
         offset="0.34032217"
         id="stop1084" />
      <stop
         style="stop-color:#1d1f16;stop-opacity:1"
         offset="0.39864299"
         id="stop1082" />
      <stop
         style="stop-color:#403b37;stop-opacity:1"
         offset="0.44530693"
         id="stop1086" />
      <stop
         style="stop-color:#4f524f;stop-opacity:1"
         offset="1"
         id="stop1066" />
    </linearGradient>
    <radialGradient
       inkscape:collect="always"
       xlink:href="#linearGradient5060-29"
       id="radialGradient1169"
       cx="-243.46973"
       cy="404.14951"
       fx="-243.46973"
       fy="404.14951"
       r="67.988022"
       gradientTransform="matrix(0.62688726,0.0269257,-0.00919949,0.21418363,-105.51751,321.82231)"
       gradientUnits="userSpaceOnUse" />
    <linearGradient
       inkscape:collect="always"
       xlink:href="#linearGradient969"
       id="linearGradient975"
       gradientUnits="userSpaceOnUse"
       x1="-55.745987"
       y1="610.9715"
       x2="199.16199"
       y2="697.95905"
       gradientTransform="translate(-266.77071,-289.52323)" />
    <linearGradient
       inkscape:collect="always"
       id="linearGradient969">
      <stop
         style="stop-color:#46433f;stop-opacity:1"
         offset="0"
         id="stop965" />
      <stop
         style="stop-color:#534842;stop-opacity:1"
         offset="0.03929963"
         id="stop977" />
      <stop
         style="stop-color:#5c5c50;stop-opacity:1"
         offset="0.19827832"
         id="stop979" />
      <stop
         style="stop-color:#1b1f13;stop-opacity:1"
         offset="0.38444456"
         id="stop981" />
      <stop
         style="stop-color:#625a57;stop-opacity:1"
         offset="0.57076639"
         id="stop983" />
      <stop
         style="stop-color:#7f7b68;stop-opacity:1"
         offset="0.68960679"
         id="stop985" />
      <stop
         style="stop-color:#1b1e13;stop-opacity:1"
         offset="1"
         id="stop967" />
    </linearGradient>
    <linearGradient
       inkscape:collect="always"
       xlink:href="#linearGradient885"
       id="linearGradient887-3"
       x1="314.18341"
       y1="344.46381"
       x2="376.44778"
       y2="352.11011"
       gradientUnits="userSpaceOnUse"
       gradientTransform="translate(-623.04257,5.26124)" />
    <linearGradient
       inkscape:collect="always"
       id="linearGradient885">
      <stop
         style="stop-color:#d26f64;stop-opacity:0.22367907"
         offset="0"
         id="stop881" />
      <stop
         style="stop-color:#f0e55e;stop-opacity:0"
         offset="1"
         id="stop883" />
    </linearGradient>
    <linearGradient
       inkscape:collect="always"
       xlink:href="#linearGradient895"
       id="linearGradient897-5"
       x1="266.72867"
       y1="399.1106"
       x2="275.35666"
       y2="420.77036"
       gradientUnits="userSpaceOnUse"
       gradientTransform="translate(-537.83104,-66.55068)" />
    <linearGradient
       inkscape:collect="always"
       id="linearGradient895">
      <stop
         style="stop-color:#f8ec56;stop-opacity:0.23665076"
         offset="0"
         id="stop891" />
      <stop
         style="stop-color:#f8ec56;stop-opacity:0;"
         offset="1"
         id="stop893" />
    </linearGradient>
    <linearGradient
       inkscape:collect="always"
       xlink:href="#linearGradient1151"
       id="linearGradient910-6"
       x1="327.45316"
       y1="414.42969"
       x2="238.13451"
       y2="429.71494"
       gradientUnits="userSpaceOnUse"
       gradientTransform="translate(-534.73846,-69.97696)" />
    <linearGradient
       inkscape:collect="always"
       id="linearGradient1151">
      <stop
         style="stop-color:#438106;stop-opacity:0.43220097"
         offset="0"
         id="stop1147" />
      <stop
         style="stop-color:#f1f1f1;stop-opacity:0.03168504"
         offset="1"
         id="stop1149" />
    </linearGradient>
    <linearGradient
       inkscape:collect="always"
       xlink:href="#linearGradient1026"
       id="linearGradient1028"
       x1="-53.588032"
       y1="327.51132"
       x2="-143.71889"
       y2="362.73959"
       gradientUnits="userSpaceOnUse" />
    <linearGradient
       inkscape:collect="always"
       id="linearGradient1026">
      <stop
         style="stop-color:#378d24;stop-opacity:0.25407726"
         offset="0"
         id="stop1022" />
      <stop
         style="stop-color:#904021;stop-opacity:0.09067351"
         offset="1"
         id="stop1024" />
    </linearGradient>
    <linearGradient
       inkscape:collect="always"
       xlink:href="#linearGradient1123"
       id="linearGradient1125"
       x1="-125.40194"
       y1="427.03622"
       x2="-182.1689"
       y2="338.76733"
       gradientUnits="userSpaceOnUse" />
    <linearGradient
       inkscape:collect="always"
       id="linearGradient1123">
      <stop
         style="stop-color:#1a1918;stop-opacity:1;"
         offset="0"
         id="stop1119" />
      <stop
         style="stop-color:#1a1918;stop-opacity:0;"
         offset="1"
         id="stop1121" />
    </linearGradient>
    <radialGradient
       inkscape:collect="always"
       xlink:href="#linearGradient1040"
       id="radialGradient1042"
       cx="-119.56147"
       cy="342.40799"
       fx="-119.56147"
       fy="342.40799"
       r="27.185547"
       gradientTransform="matrix(0.80534755,0.05497316,-0.15872843,2.3253447,31.301627,-449.78204)"
       gradientUnits="userSpaceOnUse" />
    <linearGradient
       inkscape:collect="always"
       id="linearGradient1040">
      <stop
         style="stop-color:#fff125;stop-opacity:0.11057635"
         offset="0"
         id="stop1036" />
      <stop
         style="stop-color:#fff125;stop-opacity:0;"
         offset="1"
         id="stop1038" />
    </linearGradient>
    <radialGradient
       inkscape:collect="always"
       xlink:href="#linearGradient1135"
       id="radialGradient1129"
       cx="-72.38662"
       cy="365.18356"
       fx="-72.38662"
       fy="365.18356"
       r="142.27911"
       gradientTransform="matrix(0.64412629,-0.02713672,0.0216355,0.51354748,-26.85872,169.13641)"
       gradientUnits="userSpaceOnUse" />
    <linearGradient
       inkscape:collect="always"
       id="linearGradient1135">
      <stop
         style="stop-color:#225613;stop-opacity:0.49949288"
         offset="0"
         id="stop1131" />
      <stop
         style="stop-color:#2a4c11;stop-opacity:0"
         offset="1"
         id="stop1133" />
    </linearGradient>
    <radialGradient
       inkscape:collect="always"
       xlink:href="#linearGradient1143"
       id="radialGradient1145"
       cx="-101.33073"
       cy="312.28171"
       fx="-101.33073"
       fy="312.28171"
       r="142.27911"
       gradientTransform="matrix(0.49222612,-0.02999321,0.02010139,0.32988883,-103.81722,231.10809)"
       gradientUnits="userSpaceOnUse" />
    <linearGradient
       inkscape:collect="always"
       id="linearGradient1143">
      <stop
         style="stop-color:#563113;stop-opacity:0.37731934"
         offset="0"
         id="stop1139" />
      <stop
         style="stop-color:#563113;stop-opacity:0;"
         offset="1"
         id="stop1141" />
    </linearGradient>
    <linearGradient
       inkscape:collect="always"
       xlink:href="#linearGradient1181"
       id="linearGradient1185"
       gradientUnits="userSpaceOnUse"
       x1="-116.55801"
       y1="453.49283"
       x2="-122.76414"
       y2="432.18112"
       gradientTransform="matrix(0.85539532,-0.27325831,0.28951919,0.80735196,-123.43131,25.18563)" />
    <linearGradient
       inkscape:collect="always"
       id="linearGradient1181">
      <stop
         style="stop-color:#ffffff;stop-opacity:0"
         offset="0"
         id="stop1177" />
      <stop
         style="stop-color:#ffffff;stop-opacity:1"
         offset="0.54486841"
         id="stop1187" />
      <stop
         style="stop-color:#ffffff;stop-opacity:0"
         offset="1"
         id="stop1179" />
    </linearGradient>
    <linearGradient
       inkscape:collect="always"
       xlink:href="#linearGradient1014"
       id="linearGradient1016"
       x1="29.960272"
       y1="34.46109"
       x2="59.732258"
       y2="48.570526"
       gradientUnits="userSpaceOnUse" />
    <linearGradient
       inkscape:collect="always"
       xlink:href="#linearGradient1041"
       id="linearGradient1043"
       x1="2.9923578"
       y1="288.17422"
       x2="10.015409"
       y2="290.09677"
       gradientUnits="userSpaceOnUse" />
    <linearGradient
       inkscape:collect="always"
       xlink:href="#linearGradient1049"
       id="linearGradient1051"
       x1="2.9923577"
       y1="285.12637"
       x2="9.2415276"
       y2="290.02994"
       gradientUnits="userSpaceOnUse" />
  </defs>
  <sodipodi:namedview
     id="base"
     pagecolor="#ffffff"
     bordercolor="#666666"
     borderopacity="1.0"
     inkscape:pageopacity="0"
     inkscape:pageshadow="2"
     inkscape:zoom="0.7"
     inkscape:cx="-58.79531"
     inkscape:cy="55.255897"
     inkscape:document-units="mm"
     inkscape:current-layer="layer1"
     showgrid="false"
     units="px"
     inkscape:window-width="1920"
     inkscape:window-height="1027"
     inkscape:window-x="0"
     inkscape:window-y="25"
     inkscape:window-maximized="1"
     showguides="false"
     inkscape:lockguides="true"
     inkscape:document-rotation="0" />
  <metadata
     id="metadata5">
    <rdf:RDF>
      <cc:Work
         rdf:about="">
        <dc:format>image/svg+xml</dc:format>
        <dc:type
           rdf:resource="http://purl.org/dc/dcmitype/StillImage" />
        <dc:title />
      </cc:Work>
    </rdf:RDF>
  </metadata>
  <g
     inkscape:label="Layer 1"
     inkscape:groupmode="layer"
     id="layer1"
     transform="translate(0,-280.06667)">
    <path
       style="color:#000000;font-style:normal;font-variant:normal;font-weight:normal;font-stretch:normal;font-size:medium;line-height:normal;font-family:sans-serif;font-variant-ligatures:normal;font-variant-position:normal;font-variant-caps:normal;font-variant-numeric:normal;font-variant-alternates:normal;font-feature-settings:normal;text-indent:0;text-align:start;text-decoration:none;text-decoration-line:none;text-decoration-style:solid;text-decoration-color:#000000;letter-spacing:normal;word-spacing:normal;text-transform:none;writing-mode:lr-tb;direction:ltr;text-orientation:mixed;dominant-baseline:auto;baseline-shift:baseline;text-anchor:start;white-space:normal;shape-padding:0;clip-rule:nonzero;display:inline;overflow:visible;visibility:visible;opacity:1;isolation:auto;mix-blend-mode:normal;color-interpolation:sRGB;color-interpolation-filters:linearRGB;solid-color:#000000;solid-opacity:1;vector-effect:none;fill:url(#linearGradient1051);fill-opacity:1;fill-rule:nonzero;stroke:none;stroke-width:0.81756413;stroke-linecap:round;stroke-linejoin:miter;stroke-miterlimit:4;stroke-dasharray:none;stroke-dashoffset:0;stroke-opacity:1;color-rendering:auto;image-rendering:auto;shape-rendering:auto;text-rendering:auto;enable-background:accumulate"
       d="m 8.5410156,280.4707 c -4.4899672,0 -8.13867185,3.64871 -8.13867185,8.13868 0,4.48996 3.64870465,8.13867 8.13867185,8.13867 4.4899674,0 8.1386724,-3.64871 8.1386724,-8.13867 0,-4.48997 -3.648705,-8.13868 -8.1386724,-8.13868 z"
       id="circle872"
       inkscape:connector-curvature="0"
       sodipodi:nodetypes="sssss" />
    <circle
       r="0.70065802"
       cy="287.95923"
       cx="-36.049271"
       id="circle926"
       style="opacity:0.222;fill:url(#radialGradient928);fill-opacity:1;stroke:#1c3325;stroke-width:3.17049;stroke-linecap:round;stroke-linejoin:round;stroke-miterlimit:4;stroke-dasharray:none;stroke-dashoffset:0;stroke-opacity:0.00784314"
       transform="rotate(-10.250387)" />
    <path
       id="path30"
       d="m 2.9923578,283.96527 v 0.58056 H 13.151892 v -0.58056 z m 0,1.16109 v 0.58054 h 8.9984442 v -0.58054 z m 0,1.16109 V 290.061 H 7.346444 v -3.77355 z m 4.9346307,0 v 0.58055 h 5.2249035 v -0.58055 z m 0,1.1611 v 0.58053 h 4.0638135 v -0.58053 z m 0,1.1605 v 0.57545 h 5.2249035 v -0.57545 z m -4.9346307,2.03249 v 0.58055 H 13.151892 v -0.58055 z m 0,1.16109 v 0.58055 h 4.6443581 v -0.58055 z"
       style="color:#000000;fill:url(#linearGradient1043);fill-opacity:1;stroke-width:0.290273;enable-background:accumulate"
       inkscape:connector-curvature="0" />
    <path
       id="path1000"
       style="fill:url(#linearGradient1016);stroke:none;stroke-width:0.999999px;stroke-linecap:butt;stroke-linejoin:miter;stroke-opacity:1;fill-opacity:1"
       d="M 46.929688 5.2402344 C 31.518723 21.949224 34.473969 43.609156 17.150391 59.056641 C 21.62093 61.592179 26.781682 63.046875 32.28125 63.046875 C 49.251206 63.046875 63.041016 49.257037 63.041016 32.287109 C 63.041016 20.617769 56.52127 10.452398 46.929688 5.2402344 z "
       transform="matrix(0.26458333,0,0,0.26458333,0,280.06667)" />
    <ellipse
       style="opacity:1;fill:none;fill-opacity:1;stroke:url(#radialGradient905);stroke-width:1.6586;stroke-linecap:round;stroke-linejoin:round;stroke-miterlimit:4;stroke-dasharray:none;stroke-opacity:1"
       id="path889"
       cx="-196.24904"
       cy="212.46681"
       rx="1.9678329"
       ry="1.4805601"
       transform="rotate(-45.442962)" />
    <ellipse
       transform="rotate(-45.442962)"
       ry="1.4805601"
       rx="1.9678329"
       cy="213.34808"
       cx="-201.88794"
       id="ellipse875"
       style="opacity:1;fill:none;fill-opacity:1;stroke:url(#radialGradient877);stroke-width:1.6586;stroke-linecap:round;stroke-linejoin:round;stroke-miterlimit:4;stroke-dasharray:none;stroke-opacity:1" />
    <rect
       style="opacity:1;fill:url(#linearGradient940);fill-opacity:1;stroke:#000000;stroke-width:0;stroke-linecap:round;stroke-linejoin:round;stroke-miterlimit:4;stroke-dasharray:none;stroke-opacity:0.0941176"
       id="rect932"
       width="1.3629999"
       height="9.346384"
       x="168.93794"
       y="231.10565"
       rx="0.31731847"
       ry="0.6161902"
       transform="rotate(33.542991)" />
    <g
       id="g1217"
       transform="matrix(0.02055156,-0.0290605,0.0290605,0.02055156,5.5415798,278.244)">
      <path
         style="fill:url(#linearGradient1090);fill-opacity:1;stroke:none;stroke-width:1px;stroke-linecap:butt;stroke-linejoin:miter;stroke-opacity:1"
         d="m -326.75795,329.46248 c 0,0 102.54227,32.19571 109.34127,34.78812 6.06993,2.31442 25.72866,11.41606 56.48979,11.43498 0,0 29.63562,-3.44549 49.35015,45.15793 2.39883,5.14905 7.3265,13.57448 12.927505,8.49704 2.66493,-2.99412 2.37136,-7.45959 -1.13151,-11.73092 0,0 -38.771355,-60.95333 -67.744195,-68.7651 -28.97283,-7.81176 -149.30902,-32.42998 -156.91866,-31.38717 -7.60964,1.04281 -2.31435,12.00512 -2.31435,12.00512 z"
         id="path1088"
         sodipodi:nodetypes="csccccssc" />
      <path
         style="fill:url(#linearGradient1080);fill-opacity:1;stroke:none;stroke-width:1px;stroke-linecap:butt;stroke-linejoin:miter;stroke-opacity:1"
         d="m -53.58803,327.51131 c 0,0 -102.54227,32.19571 -109.34127,34.78812 -6.06993,2.31442 -25.72866,11.41606 -56.48979,11.43498 0,0 -29.63561,-3.44549 -49.35014,45.15793 -2.39883,5.14905 -7.3265,13.57448 -12.92751,8.49704 -2.66493,-2.99412 -2.37136,-7.45959 1.13151,-11.73092 0,0 38.77136,-60.95333 67.74419,-68.7651 28.97283,-7.81176 149.30902,-32.42998 156.91866,-31.38717 7.60964,1.04281 2.31435,12.00512 2.31435,12.00512 z"
         id="path1062"
         sodipodi:nodetypes="csccccssc" />
      <path
         id="path1193"
         style="fill:#ffffff;fill-opacity:0.240548;stroke:none;stroke-width:1px;stroke-linecap:butt;stroke-linejoin:miter;stroke-opacity:1"
         d="m -67.230469,328.92969 c 0,0 -102.542801,32.19665 -109.341801,34.78906 -3.28048,1.25083 -10.56251,4.47892 -21.38867,7.18945 15.21322,-2.87682 25.22493,-7.37375 29.24414,-8.90625 6.799,-2.59241 109.3418,-34.78906 109.3418,-34.78906 -2.679981,0.041 -7.152761,-0.86974 -7.855469,1.7168 z"
         sodipodi:nodetypes="cscscc" />
      <path
         id="path1153"
         style="opacity:1;fill:url(#radialGradient1169);fill-opacity:1;stroke:none;stroke-width:7.55906;stroke-linecap:round;stroke-linejoin:round"
         d="m -252.35156,378.04492 c -15.91699,18.28406 -28.21289,37.61328 -28.21289,37.61328 -2.54495,3.10326 -3.38755,6.30707 -2.64063,8.97657 a 67.988022,24.018761 0 0 0 10.47461,0.90234 c 1.64182,-2.03071 3.00495,-4.59251 3.96094,-6.64453 9.18773,-22.65107 20.52811,-33.99335 30.02148,-39.65235 a 67.988022,24.018761 0 0 0 -13.60351,-1.19531 z" />
      <path
         id="rect837"
         style="fill:url(#linearGradient975);fill-opacity:1;stroke-width:7.55906;stroke-linecap:round;stroke-linejoin:round"
         d="m -117.38885,298.46248 c -10.05324,0.0287 -19.74681,1.22013 -28.29687,3.37193 -15.59463,5.38031 -24.18024,9.91525 -35.44785,9.89214 l -30.618,0.56723 c -9.19254,0.005 -21.80256,-5.06536 -31.0804,-6.96162 -7.42516,-1.48335 -15.50863,-2.27377 -23.7854,-2.27397 -18.93206,9e-5 -36.74712,4.13115 -48.03515,11.13867 l -15.06055,0.27929 c -1.6896,0.0313 -3.04154,1.38047 -3.03125,3.07032 l 0.0391,6.6875 c 0.006,0.99586 3.07845,3.40491 5.94727,5.22851 -0.88866,4.44085 -1.37309,9.04428 -1.37305,13.77149 0.21423,4.3733 0.52928,9.28389 1.44922,14.29297 2.19584,11.7698 6.19385,21.76812 13.35547,32.58593 7.96759,11.90965 19.82262,18.31528 45.63281,18.23438 32.99931,1.4e-4 59.80189,-28.498 60.4082,-63.89453 h 0.0254 c 0.27174,-5.32026 4.73156,-10.60352 10.04882,-10.60352 h 5.75391 c 5.24166,0 9.33254,5.13444 9.68945,10.37695 0.84169,35.22822 29.5907,63.53138 64.95703,63.53126 27.75645,0.0809 40.50387,-6.32473 49.07227,-18.23438 7.70166,-10.81781 12.00186,-20.81614 14.36328,-32.58594 0.98931,-5.00908 1.3282,-9.91967 1.5586,-14.29297 4e-5,-5.21059 -0.61675,-10.2764 -1.77149,-15.13281 2.79562,-1.81267 5.60232,-4.08153 5.39063,-5.00976 l -2.30274,-10.10352 c -0.37576,-1.64757 -1.38072,-3.06254 -3.07031,-3.03125 l -15.33008,0.2832 c -11.28245,-7.03638 -29.13619,-11.18764 -48.11523,-11.1875 -0.12435,-1.8e-4 -0.2487,-1.8e-4 -0.37305,0 z m -0.1582,14.60547 c 7.0086,-0.0929 14.19047,0.32484 20.67382,1.05664 5.40518,0.6884 10.72113,2.1184 16.08985,5.45508 6.87458,4.77526 11.29258,12.59664 11.84765,24.12305 1.02439,21.27201 -13.86252,40.62892 -24.03515,46.34765 -7.99238,4.49307 -17.24605,6.48441 -29.89649,4.71485 -7.92456,-1.25496 -15.41342,-3.8098 -22.49023,-8.69336 -5.42406,-4.07947 -11.08397,-9.87769 -15.07617,-18.60352 -3.51706,-7.90156 -6.89627,-18.52331 -6.82227,-27.57226 0.39069,-10.35129 8.57688,-17.09442 17.80078,-21.21094 6.20523,-2.31616 12.7927,-3.97491 19.66797,-4.85547 3.89143,-0.46614 8.03507,-0.70596 12.24024,-0.76172 z m -150.53907,2.75781 c 3.23161,-0.006 6.41211,0.0797 9.44336,0.22071 6.47459,0.3553 12.44032,1.36443 18.39453,3.13672 9.89639,3.07898 17.21663,6.03026 18.43555,18.01562 0.72689,8.62851 -1.65059,19.0001 -4.35547,26.78711 -3.08797,8.60698 -7.94423,14.53965 -12.70508,18.81445 -3.34648,2.76497 -6.85126,4.89988 -10.50781,6.55664 -8.75481,3.16291 -17.68904,5.1386 -26.08398,5.00391 -9.88286,-0.17134 -17.50084,-3.82776 -23.85352,-10.24023 -8.48184,-8.63767 -12.16484,-19.98578 -12.63281,-36.10352 -0.32044,-11.03666 1.97241,-19.06452 8.03516,-24.10547 2.0399,-1.52553 4.09562,-2.71537 6.17187,-3.66015 6.79938,-2.51372 13.546,-3.65685 19.90625,-4.10157 3.23609,-0.22025 6.52035,-0.31833 9.75195,-0.32422 z"
         sodipodi:nodetypes="cccccccccccccccccssccccccccccccsccssccccccssccccccccscccs" />
      <path
         style="fill:url(#linearGradient887-3);fill-opacity:1;stroke:none;stroke-width:1px;stroke-linecap:butt;stroke-linejoin:miter;stroke-opacity:1"
         d="m -244.71174,326.01685 c -0.34527,16.61213 -56.69755,51.41778 -56.69755,51.41778 0,0 -16.74587,-30.18719 -0.0245,-46.62426 16.72141,-16.43706 56.72201,-4.79352 56.72201,-4.79352 z"
         id="path879-1"
         sodipodi:nodetypes="cczc" />
      <path
         style="fill:url(#linearGradient897-5);fill-opacity:1;stroke:none;stroke-width:1px;stroke-linecap:butt;stroke-linejoin:miter;stroke-opacity:1"
         d="m -278.67705,377.3705 c -16.93962,-35.55919 8.06434,-53.18728 8.06434,-53.18728 0,0 28.25795,-2.38008 28.53707,3.90066 0,0 -14.27453,38.11259 -36.60141,49.28662 z"
         id="path889-2" />
      <path
         id="path899-7"
         style="fill:url(#linearGradient910-6);fill-opacity:1;stroke:none;stroke-width:1px;stroke-linecap:butt;stroke-linejoin:miter;stroke-opacity:1"
         d="m -268.08612,315.82577 c -3.2316,0.006 -6.51586,0.10397 -9.75195,0.32422 -6.36025,0.44472 -13.10687,1.58785 -19.90625,4.10157 -2.07625,0.94478 -4.13197,2.13462 -6.17188,3.66015 -6.06274,5.04095 -8.35559,13.06881 -8.03515,24.10547 0.46797,16.11774 4.15097,27.46585 12.63281,36.10352 6.35268,6.41247 13.97066,10.06889 23.85352,10.24023 8.39494,0.13469 17.32917,-1.841 26.08398,-5.00391 3.65655,-1.65676 7.16133,-3.79167 10.50781,-6.55664 4.76085,-4.2748 9.61711,-10.20747 12.70508,-18.81445 2.70488,-7.78701 5.08236,-18.1586 4.35547,-26.78711 -1.21892,-11.98536 -8.53916,-14.93664 -18.43555,-18.01562 -5.95421,-1.77229 -11.91994,-2.78142 -18.39453,-3.13672 -3.03125,-0.14099 -6.21175,-0.22659 -9.44336,-0.22071 z" />
      <path
         id="path990"
         style="fill:#ffffff;fill-opacity:0.410275;stroke:none;stroke-width:1px;stroke-linecap:butt;stroke-linejoin:miter;stroke-opacity:1"
         d="m -271.82227,313.58789 c -3.2316,0.006 -6.51586,0.10397 -9.75195,0.32422 -6.36025,0.44472 -13.10687,1.58784 -19.90625,4.10156 -2.07625,0.94478 -4.13196,2.13463 -6.17187,3.66016 -6.06274,5.04095 -8.3556,13.06881 -8.03516,24.10547 0.46797,16.11774 4.15097,27.46584 12.63281,36.10351 3.31994,3.35118 6.98883,5.94191 11.14258,7.6836 -3.30335,-1.68356 -6.29042,-3.94034 -9.03906,-6.71485 -8.48184,-8.63767 -12.16484,-19.98577 -12.63281,-36.10351 -0.32044,-11.03666 1.97241,-19.06452 8.03515,-24.10547 2.03991,-1.52553 4.09563,-2.71538 6.17188,-3.66016 6.79938,-2.51372 13.546,-3.65684 19.90625,-4.10156 3.23609,-0.22025 6.52035,-0.31822 9.75195,-0.32422 3.23161,-0.006 6.41211,0.0797 9.44336,0.2207 6.47459,0.3553 12.44032,1.36443 18.39453,3.13672 2.37067,0.73757 4.58868,1.47147 6.61524,2.32032 -2.55469,-1.29205 -5.49589,-2.28636 -8.71876,-3.28907 -5.9542,-1.77229 -11.91994,-2.78142 -18.39453,-3.13672 -3.03125,-0.14099 -6.21175,-0.22658 -9.44336,-0.2207 z" />
      <path
         id="path995"
         style="fill:#f9fff8;fill-opacity:0.410275;stroke:none;stroke-width:7.48107;stroke-linecap:round;stroke-linejoin:round"
         d="m -211.85531,338.08642 c 0.63635,3.69454 0.95652,7.43661 0.95703,11.18555 -2.19548,36.4788 -29.19949,57.4348 -65.62328,57.43489 -6.91135,-4.7e-4 -13.77967,-1.0873 -20.35351,-3.22071 7.30981,2.79927 15.07096,4.23446 22.89843,4.23438 35.36121,-2.7e-4 60.08453,-21.51877 63.69946,-55.51106 -3.6e-4,-4.75166 -0.52966,-9.48851 -1.57813,-14.12305 z"
         sodipodi:nodetypes="ccccccc" />
      <path
         id="path1002"
         style="fill:url(#linearGradient1028);fill-opacity:1;stroke:none;stroke-width:7.42;stroke-linecap:round;stroke-linejoin:round"
         d="m -117.54688,313.06836 c -4.20517,0.0558 -8.3488,0.29558 -12.24023,0.76172 -6.87527,0.88056 -13.46274,2.53931 -19.66797,4.85547 -9.2239,4.11652 -17.41009,10.85964 -17.80078,21.21093 -0.074,9.04895 3.30521,19.67071 6.82227,27.57227 3.9922,8.72583 9.65211,14.52405 15.07617,18.60352 7.07681,4.88356 14.56567,7.4384 22.49023,8.69335 12.65044,1.76956 21.90411,-0.22177 29.896487,-4.71484 10.17263,-5.71873 25.059546,-25.07564 24.035156,-46.34766 -0.55507,-11.5264 -4.973076,-19.34778 -11.847656,-24.12304 -5.36872,-3.33668 -10.684664,-4.76668 -16.089844,-5.45508 -6.483353,-0.7318 -13.665223,-1.14954 -20.673833,-1.05664 z" />
      <path
         id="path1010"
         style="fill:#ffffff;fill-opacity:0.410275;stroke:none;stroke-width:7.42;stroke-linecap:round;stroke-linejoin:round"
         d="m -121.37891,311.73633 c -4.20517,0.0558 -8.3488,0.29558 -12.24023,0.76172 -6.87527,0.88056 -13.46274,2.53931 -19.66797,4.85547 -9.2239,4.11652 -17.41009,10.85964 -17.80078,21.21093 -0.074,9.04895 3.3052,19.67071 6.82227,27.57227 3.99219,8.72583 9.65211,14.52404 15.07617,18.60351 4.16533,2.87441 8.47794,4.92385 12.93359,6.39454 -3.70371,-1.40043 -7.30534,-3.24142 -10.80469,-5.65625 -5.42406,-4.07947 -11.08397,-9.87769 -15.07617,-18.60352 -3.51706,-7.90156 -6.89626,-18.52332 -6.82226,-27.57227 0.39069,-10.35129 8.57688,-17.09441 17.80078,-21.21093 6.20523,-2.31616 12.7927,-3.97491 19.66797,-4.85547 3.89143,-0.46614 8.03506,-0.70592 12.24023,-0.76172 7.00861,-0.0929 14.19047,0.32484 20.673828,1.05664 2.625112,0.33433 5.228841,0.85033 7.828125,1.66797 -3.307482,-1.26814 -6.614887,-1.9806 -9.957033,-2.40625 -6.48336,-0.7318 -13.66522,-1.14954 -20.67383,-1.05664 z" />
      <path
         id="path1117"
         style="fill:url(#linearGradient1125);fill-opacity:1;stroke-width:7.55906;stroke-linecap:round;stroke-linejoin:round"
         d="m -117.38885,298.46248 c -10.05324,0.0287 -19.74681,1.22013 -28.29687,3.37193 -15.59463,5.38031 -24.18024,9.91525 -35.44785,9.89214 l -30.618,0.56723 c -9.19254,0.005 -21.80256,-5.06536 -31.0804,-6.96162 -7.42516,-1.48335 -15.50863,-2.27377 -23.7854,-2.27397 -18.93206,9e-5 -36.74712,4.13115 -48.03515,11.13867 l -15.06055,0.27929 c -1.6896,0.0313 -3.04154,1.38047 -3.03125,3.07032 l 0.0391,6.6875 c 0.006,0.99586 3.07845,3.40491 5.94727,5.22851 -0.88866,4.44085 -1.37309,9.04428 -1.37305,13.77149 0.21423,4.3733 0.52928,9.28389 1.44922,14.29297 2.19584,11.7698 6.19385,21.76812 13.35547,32.58593 7.96759,11.90965 19.82262,18.31528 45.63281,18.23438 32.99931,1.4e-4 59.80189,-28.498 60.4082,-63.89453 h 0.0254 c 0.27174,-5.32026 4.73156,-10.60352 10.04882,-10.60352 h 5.75391 c 5.24166,0 9.33254,5.13444 9.68945,10.37695 0.84169,35.22822 29.5907,63.53138 64.95703,63.53126 27.75645,0.0809 40.50387,-6.32473 49.07227,-18.23438 7.70166,-10.81781 12.00186,-20.81614 14.36328,-32.58594 0.98931,-5.00908 1.3282,-9.91967 1.5586,-14.29297 4e-5,-5.21059 -0.61675,-10.2764 -1.77149,-15.13281 2.79562,-1.81267 5.60232,-4.08153 5.39063,-5.00976 l -2.30274,-10.10352 c -0.37576,-1.64757 -1.38072,-3.06254 -3.07031,-3.03125 l -15.33008,0.2832 c -11.28245,-7.03638 -29.13619,-11.18764 -48.11523,-11.1875 -0.12435,-1.8e-4 -0.2487,-1.8e-4 -0.37305,0 z m -0.1582,14.60547 c 7.0086,-0.0929 14.19047,0.32484 20.67382,1.05664 5.40518,0.6884 10.72113,2.1184 16.08985,5.45508 6.87458,4.77526 11.29258,12.59664 11.84765,24.12305 1.02439,21.27201 -13.86252,40.62892 -24.03515,46.34765 -7.99238,4.49307 -17.24605,6.48441 -29.89649,4.71485 -7.92456,-1.25496 -15.41342,-3.8098 -22.49023,-8.69336 -5.42406,-4.07947 -11.08397,-9.87769 -15.07617,-18.60352 -3.51706,-7.90156 -6.89627,-18.52331 -6.82227,-27.57226 0.39069,-10.35129 8.57688,-17.09442 17.80078,-21.21094 6.20523,-2.31616 12.7927,-3.97491 19.66797,-4.85547 3.89143,-0.46614 8.03507,-0.70596 12.24024,-0.76172 z m -150.53907,2.75781 c 3.23161,-0.006 6.41211,0.0797 9.44336,0.22071 6.47459,0.3553 12.44032,1.36443 18.39453,3.13672 9.89639,3.07898 17.21663,6.03026 18.43555,18.01562 0.72689,8.62851 -1.65059,19.0001 -4.35547,26.78711 -3.08797,8.60698 -7.94423,14.53965 -12.70508,18.81445 -3.34648,2.76497 -6.85126,4.89988 -10.50781,6.55664 -8.75481,3.16291 -17.68904,5.1386 -26.08398,5.00391 -9.88286,-0.17134 -17.50084,-3.82776 -23.85352,-10.24023 -8.48184,-8.63767 -12.16484,-19.98578 -12.63281,-36.10352 -0.32044,-11.03666 1.97241,-19.06452 8.03516,-24.10547 2.0399,-1.52553 4.09562,-2.71537 6.17187,-3.66015 6.79938,-2.51372 13.546,-3.65685 19.90625,-4.10157 3.23609,-0.22025 6.52035,-0.31833 9.75195,-0.32422 z"
         sodipodi:nodetypes="cccccccccccccccccssccccccccccccsccssccccccssccccccccscccs" />
      <path
         id="path1015"
         style="fill:#ffffff;fill-opacity:1;stroke-width:7.55906;stroke-linecap:round;stroke-linejoin:round"
         d="m -96.166676,405.49267 c 10.575128,-2.96389 22.319759,-11.04757 27.485035,-18.22705 7.70166,-10.81781 12.001862,-20.81613 14.363282,-32.58593 0.98931,-5.00908 1.328193,-9.91967 1.558593,-14.29297 3.7e-5,-4.7428 -0.515944,-9.3642 -1.478515,-13.81836 0.729336,3.8995 1.119172,7.91971 1.11914,12.03125 -0.2304,4.3733 -0.569283,9.28389 -1.558593,14.29297 -2.36142,11.7698 -6.661622,21.76813 -14.363282,32.58594 -11.169811,13.55775 -20.84195,16.51608 -27.12566,20.01415 z"
         sodipodi:nodetypes="ccccscccc" />
      <path
         id="path1030"
         style="fill:url(#radialGradient1042);fill-opacity:1;stroke:none;stroke-width:7.55906;stroke-linecap:round;stroke-linejoin:round"
         d="m -117.54688,313.06836 c -4.20516,0.0558 -8.3488,0.29558 -12.24023,0.76172 -5.85937,0.75045 -11.50777,2.07085 -16.89062,3.87695 a 27.185955,43.421734 0 0 0 -1.57813,14.57813 27.185955,43.421734 0 0 0 27.18555,43.42187 27.185955,43.421734 0 0 0 27.185544,-43.42187 27.185955,43.421734 0 0 0 -2.470703,-18.08399 c -0.172682,-0.0236 -0.344718,-0.0541 -0.517578,-0.0762 -6.483353,-0.7318 -13.665213,-1.14954 -20.673833,-1.05664 z" />
      <path
         id="path1044"
         style="fill:#602b1f;fill-opacity:0.33456;stroke:none;stroke-width:7.42;stroke-linecap:round;stroke-linejoin:round"
         d="m -132.0332,314.15234 c -6.06539,0.93461 -11.89604,2.47064 -17.42188,4.53321 -9.2239,4.11652 -17.41009,10.85964 -17.80078,21.21093 -0.074,9.04895 3.30521,19.67071 6.82227,27.57227 3.9922,8.72583 9.65211,14.52405 15.07617,18.60352 4.19715,2.89637 8.54319,4.95889 13.03515,6.43164 -1.27946,-0.78457 -2.5473,-1.63763 -3.80078,-2.57422 -5.42406,-4.41708 -11.08397,-10.69656 -15.07617,-20.14453 -3.51706,-8.55548 -6.89626,-20.05569 -6.82226,-29.85352 0.39069,-11.20795 8.57688,-18.5096 17.80078,-22.9668 2.65995,-1.07502 5.3945,-2.00937 8.1875,-2.8125 z" />
      <path
         id="path1127"
         style="fill:url(#radialGradient1129);fill-opacity:1;stroke-width:7.55906;stroke-linecap:round;stroke-linejoin:round"
         d="m -117.38885,298.46248 c -10.05324,0.0287 -19.74681,1.22013 -28.29687,3.37193 -15.59463,5.38031 -24.18024,9.91525 -35.44785,9.89214 l -30.618,0.56723 c -9.19254,0.005 -21.80256,-5.06536 -31.0804,-6.96162 -7.42516,-1.48335 -15.50863,-2.27377 -23.7854,-2.27397 -18.93206,9e-5 -36.74712,4.13115 -48.03515,11.13867 l -15.06055,0.27929 c -1.6896,0.0313 -3.04154,1.38047 -3.03125,3.07032 l 0.0391,6.6875 c 0.006,0.99586 3.07845,3.40491 5.94727,5.22851 -0.88866,4.44085 -1.37309,9.04428 -1.37305,13.77149 0.21423,4.3733 0.52928,9.28389 1.44922,14.29297 2.19584,11.7698 6.19385,21.76812 13.35547,32.58593 7.96759,11.90965 19.82262,18.31528 45.63281,18.23438 32.99931,1.4e-4 59.80189,-28.498 60.4082,-63.89453 h 0.0254 c 0.27174,-5.32026 4.73156,-10.60352 10.04882,-10.60352 h 5.75391 c 5.24166,0 9.33254,5.13444 9.68945,10.37695 0.84169,35.22822 29.5907,63.53138 64.95703,63.53126 27.75645,0.0809 40.50387,-6.32473 49.07227,-18.23438 7.70166,-10.81781 12.00186,-20.81614 14.36328,-32.58594 0.98931,-5.00908 1.3282,-9.91967 1.5586,-14.29297 4e-5,-5.21059 -0.61675,-10.2764 -1.77149,-15.13281 2.79562,-1.81267 5.60232,-4.08153 5.39063,-5.00976 l -2.30274,-10.10352 c -0.37576,-1.64757 -1.38072,-3.06254 -3.07031,-3.03125 l -15.33008,0.2832 c -11.28245,-7.03638 -29.13619,-11.18764 -48.11523,-11.1875 -0.12435,-1.8e-4 -0.2487,-1.8e-4 -0.37305,0 z m -0.1582,14.60547 c 7.0086,-0.0929 14.19047,0.32484 20.67382,1.05664 5.40518,0.6884 10.72113,2.1184 16.08985,5.45508 6.87458,4.77526 11.29258,12.59664 11.84765,24.12305 1.02439,21.27201 -13.86252,40.62892 -24.03515,46.34765 -7.99238,4.49307 -17.24605,6.48441 -29.89649,4.71485 -7.92456,-1.25496 -15.41342,-3.8098 -22.49023,-8.69336 -5.42406,-4.07947 -11.08397,-9.87769 -15.07617,-18.60352 -3.51706,-7.90156 -6.89627,-18.52331 -6.82227,-27.57226 0.39069,-10.35129 8.57688,-17.09442 17.80078,-21.21094 6.20523,-2.31616 12.7927,-3.97491 19.66797,-4.85547 3.89143,-0.46614 8.03507,-0.70596 12.24024,-0.76172 z m -150.53907,2.75781 c 3.23161,-0.006 6.41211,0.0797 9.44336,0.22071 6.47459,0.3553 12.44032,1.36443 18.39453,3.13672 9.89639,3.07898 17.21663,6.03026 18.43555,18.01562 0.72689,8.62851 -1.65059,19.0001 -4.35547,26.78711 -3.08797,8.60698 -7.94423,14.53965 -12.70508,18.81445 -3.34648,2.76497 -6.85126,4.89988 -10.50781,6.55664 -8.75481,3.16291 -17.68904,5.1386 -26.08398,5.00391 -9.88286,-0.17134 -17.50084,-3.82776 -23.85352,-10.24023 -8.48184,-8.63767 -12.16484,-19.98578 -12.63281,-36.10352 -0.32044,-11.03666 1.97241,-19.06452 8.03516,-24.10547 2.0399,-1.52553 4.09562,-2.71537 6.17187,-3.66015 6.79938,-2.51372 13.546,-3.65685 19.90625,-4.10157 3.23609,-0.22025 6.52035,-0.31833 9.75195,-0.32422 z"
         sodipodi:nodetypes="cccccccccccccccccssccccccccccccsccssccccccssccccccccscccs" />
      <path
         id="path1137"
         style="fill:url(#radialGradient1145);fill-opacity:1;stroke-width:7.55906;stroke-linecap:round;stroke-linejoin:round"
         d="m -117.38885,298.46248 c -10.05324,0.0287 -19.74681,1.22013 -28.29687,3.37193 -15.59463,5.38031 -24.18024,9.91525 -35.44785,9.89214 l -30.618,0.56723 c -9.19254,0.005 -21.80256,-5.06536 -31.0804,-6.96162 -7.42516,-1.48335 -15.50863,-2.27377 -23.7854,-2.27397 -18.93206,9e-5 -36.74712,4.13115 -48.03515,11.13867 l -15.06055,0.27929 c -1.6896,0.0313 -3.04154,1.38047 -3.03125,3.07032 l 0.0391,6.6875 c 0.006,0.99586 3.07845,3.40491 5.94727,5.22851 -0.88866,4.44085 -1.37309,9.04428 -1.37305,13.77149 0.21423,4.3733 0.52928,9.28389 1.44922,14.29297 2.19584,11.7698 6.19385,21.76812 13.35547,32.58593 7.96759,11.90965 19.82262,18.31528 45.63281,18.23438 32.99931,1.4e-4 59.80189,-28.498 60.4082,-63.89453 h 0.0254 c 0.27174,-5.32026 4.73156,-10.60352 10.04882,-10.60352 h 5.75391 c 5.24166,0 9.33254,5.13444 9.68945,10.37695 0.84169,35.22822 29.5907,63.53138 64.95703,63.53126 27.75645,0.0809 40.50387,-6.32473 49.07227,-18.23438 7.70166,-10.81781 12.00186,-20.81614 14.36328,-32.58594 0.98931,-5.00908 1.3282,-9.91967 1.5586,-14.29297 4e-5,-5.21059 -0.61675,-10.2764 -1.77149,-15.13281 2.79562,-1.81267 5.60232,-4.08153 5.39063,-5.00976 l -2.30274,-10.10352 c -0.37576,-1.64757 -1.38072,-3.06254 -3.07031,-3.03125 l -15.33008,0.2832 c -11.28245,-7.03638 -29.13619,-11.18764 -48.11523,-11.1875 -0.12435,-1.8e-4 -0.2487,-1.8e-4 -0.37305,0 z m -0.1582,14.60547 c 7.0086,-0.0929 14.19047,0.32484 20.67382,1.05664 5.40518,0.6884 10.72113,2.1184 16.08985,5.45508 6.87458,4.77526 11.29258,12.59664 11.84765,24.12305 1.02439,21.27201 -13.86252,40.62892 -24.03515,46.34765 -7.99238,4.49307 -17.24605,6.48441 -29.89649,4.71485 -7.92456,-1.25496 -15.41342,-3.8098 -22.49023,-8.69336 -5.42406,-4.07947 -11.08397,-9.87769 -15.07617,-18.60352 -3.51706,-7.90156 -6.89627,-18.52331 -6.82227,-27.57226 0.39069,-10.35129 8.57688,-17.09442 17.80078,-21.21094 6.20523,-2.31616 12.7927,-3.97491 19.66797,-4.85547 3.89143,-0.46614 8.03507,-0.70596 12.24024,-0.76172 z m -150.53907,2.75781 c 3.23161,-0.006 6.41211,0.0797 9.44336,0.22071 6.47459,0.3553 12.44032,1.36443 18.39453,3.13672 9.89639,3.07898 17.21663,6.03026 18.43555,18.01562 0.72689,8.62851 -1.65059,19.0001 -4.35547,26.78711 -3.08797,8.60698 -7.94423,14.53965 -12.70508,18.81445 -3.34648,2.76497 -6.85126,4.89988 -10.50781,6.55664 -8.75481,3.16291 -17.68904,5.1386 -26.08398,5.00391 -9.88286,-0.17134 -17.50084,-3.82776 -23.85352,-10.24023 -8.48184,-8.63767 -12.16484,-19.98578 -12.63281,-36.10352 -0.32044,-11.03666 1.97241,-19.06452 8.03516,-24.10547 2.0399,-1.52553 4.09562,-2.71537 6.17187,-3.66015 6.79938,-2.51372 13.546,-3.65685 19.90625,-4.10157 3.23609,-0.22025 6.52035,-0.31833 9.75195,-0.32422 z"
         sodipodi:nodetypes="cccccccccccccccccssccccccccccccsccssccccccssccccccccscccs" />
      <path
         id="rect1175"
         style="opacity:0.418769;fill:url(#linearGradient1185);fill-opacity:1;stroke:none;stroke-width:6.63184;stroke-linecap:round;stroke-linejoin:round"
         d="m -110.88672,401.56641 -8.82031,2.81836 c 2.81967,4.68999 5.56077,10.12278 8.13086,16.45898 2.39883,5.14905 7.32673,13.57353 12.927732,8.49609 2.66493,-2.99412 2.370058,-7.45914 -1.132812,-11.73046 0,0 -4.33257,-6.77724 -11.10547,-16.04297 z" />
    </g>
  </g>
</svg>
