<?xml version="1.0" encoding="UTF-8" standalone="no"?>
<!-- Created with Inkscape (http://www.inkscape.org/) -->

<svg
   width="64"
   height="64"
   version="1.1"
   viewBox="0 0 16.933 16.933"
   id="svg72"
   sodipodi:docname="plugin-colorfilter.svg"
   inkscape:version="1.1.2 (0a00cf5339, 2022-02-04)"
   xmlns:inkscape="http://www.inkscape.org/namespaces/inkscape"
   xmlns:sodipodi="http://sodipodi.sourceforge.net/DTD/sodipodi-0.dtd"
   xmlns:xlink="http://www.w3.org/1999/xlink"
   xmlns="http://www.w3.org/2000/svg"
   xmlns:svg="http://www.w3.org/2000/svg">
  <sodipodi:namedview
     id="namedview74"
     pagecolor="#ffffff"
     bordercolor="#666666"
     borderopacity="1.0"
     inkscape:pageshadow="2"
     inkscape:pageopacity="0.0"
     inkscape:pagecheckerboard="0"
     showgrid="false"
     inkscape:zoom="5.1328125"
     inkscape:cx="-39.25723"
     inkscape:cy="40.231355"
     inkscape:window-width="1920"
     inkscape:window-height="1028"
     inkscape:window-x="0"
     inkscape:window-y="24"
     inkscape:window-maximized="1"
     inkscape:current-layer="svg72" />
  <defs
     id="defs44">
    <linearGradient
       id="linearGradient1446">
      <stop
         stop-color="#95fcfb"
         offset="0"
         id="stop1442"
         style="stop-color:#00d873;stop-opacity:1" />
      <stop
         stop-color="#09f5ca"
         offset="1"
         id="stop1444"
         style="stop-color:#00a889;stop-opacity:1" />
    </linearGradient>
    <linearGradient
       id="linearGradient1364">
      <stop
         stop-color="#05fdf5"
         offset="0"
         id="stop1360"
         style="stop-color:#3dd9fa;stop-opacity:1" />
      <stop
         stop-color="#428afc"
         offset="1"
         id="stop1362"
         style="stop-color:#297cff;stop-opacity:1" />
    </linearGradient>
    <linearGradient
       id="linearGradient1257">
      <stop
         stop-color="#fc0360"
         offset="0"
         id="stop1253"
         style="stop-color:#d532fe;stop-opacity:1" />
      <stop
         stop-color="#fb89b9"
         offset="1"
         id="stop1255" />
    </linearGradient>
    <linearGradient
       id="linearGradient1002">
      <stop
         stop-color="#eed097"
         offset="0"
         id="stop996"
         style="stop-color:#ebe3c8;stop-opacity:1" />
      <stop
         stop-color="#fe5b4e"
         offset="1"
         id="stop1000"
         style="stop-color:#fe5c32;stop-opacity:1" />
    </linearGradient>
    <linearGradient
       id="linearGradient935">
      <stop
         stop-color="#fdf305"
         offset="0"
         id="stop931"
         style="stop-color:#fdb605;stop-opacity:1" />
      <stop
         stop-color="#febc1e"
         offset="1"
         id="stop933"
         style="stop-color:#fe8912;stop-opacity:1" />
    </linearGradient>
    <linearGradient
       id="linearGradient88290">
      <stop
         stop-color="#fc0360"
         offset="0"
         id="stop2" />
      <stop
         stop-color="#fb89b9"
         offset="1"
         id="stop4" />
    </linearGradient>
    <linearGradient
       id="linearGradient73100">
      <stop
         stop-color="#eed097"
         offset="0"
         id="stop7" />
      <stop
         stop-color="#f59e75"
         offset=".31001"
         id="stop9" />
      <stop
         stop-color="#fe5b4e"
         offset="1"
         id="stop11" />
    </linearGradient>
    <linearGradient
       id="linearGradient62782">
      <stop
         stop-color="#fdf305"
         offset="0"
         id="stop14" />
      <stop
         stop-color="#febc1e"
         offset="1"
         id="stop16" />
    </linearGradient>
    <linearGradient
       id="linearGradient24501">
      <stop
         stop-color="#12c9e5"
         offset="0"
         id="stop19" />
      <stop
         stop-color="#3696e3"
         offset=".073608"
         id="stop21" />
      <stop
         stop-color="#8822d6"
         offset="1"
         id="stop23" />
    </linearGradient>
    <linearGradient
       id="linearGradient12185">
      <stop
         stop-color="#05fdf5"
         offset="0"
         id="stop26" />
      <stop
         stop-color="#428afc"
         offset="1"
         id="stop30" />
    </linearGradient>
    <linearGradient
       id="linearGradient1874">
      <stop
         stop-color="#95fcfb"
         offset="0"
         id="stop33" />
      <stop
         stop-color="#09f5ca"
         offset="1"
         id="stop35" />
    </linearGradient>
    <linearGradient
       id="linearGradient1876"
       x1="131.53"
       x2="135.93"
       y1="13.6"
       y2="25.701"
       gradientUnits="userSpaceOnUse"
       xlink:href="#linearGradient1874" />
    <linearGradient
       id="linearGradient12187"
       x1="145.33"
       x2="131.24"
       y1="23.864"
       y2="40.155"
       gradientUnits="userSpaceOnUse"
       xlink:href="#linearGradient12185" />
    <linearGradient
       id="linearGradient24503"
       x1="151.6"
       x2="131.86"
       y1="31.521"
       y2="54.036"
       gradientUnits="userSpaceOnUse"
       xlink:href="#linearGradient24501" />
    <linearGradient
       id="linearGradient62740"
       x1="29.771"
       x2="34.056"
       y1="14.458"
       y2="8.0227"
       gradientTransform="translate(.0001006 .083319)"
       gradientUnits="userSpaceOnUse"
       xlink:href="#linearGradient62782" />
    <linearGradient
       id="linearGradient73102"
       x1="29.994"
       x2="34.295"
       y1="14.563"
       y2="11.17"
       gradientTransform="translate(.0001006 .083319)"
       gradientUnits="userSpaceOnUse"
       xlink:href="#linearGradient73100" />
    <linearGradient
       id="linearGradient88292"
       x1="34.223"
       x2="33.578"
       y1="14.526"
       y2="18.113"
       gradientTransform="translate(.0001006 .083319)"
       gradientUnits="userSpaceOnUse"
       xlink:href="#linearGradient88290" />
    <linearGradient
       inkscape:collect="always"
       xlink:href="#linearGradient935"
       id="linearGradient910"
       gradientUnits="userSpaceOnUse"
       gradientTransform="translate(1.006e-4,0.083319)"
       x1="29.897985"
       y1="12.014503"
       x2="34.056"
       y2="8.0227003" />
    <linearGradient
       inkscape:collect="always"
       xlink:href="#linearGradient1002"
       id="linearGradient975"
       gradientUnits="userSpaceOnUse"
       gradientTransform="translate(1.006e-4,0.083319)"
       x1="29.994"
       y1="14.563"
       x2="34.295"
       y2="11.17" />
    <linearGradient
       inkscape:collect="always"
       xlink:href="#linearGradient1257"
       id="linearGradient1118"
       gradientUnits="userSpaceOnUse"
       gradientTransform="translate(1.006e-4,0.083319)"
       x1="34.223"
       y1="14.526"
       x2="33.578"
       y2="18.113" />
    <linearGradient
       inkscape:collect="always"
       xlink:href="#linearGradient24501"
       id="linearGradient1259"
       gradientUnits="userSpaceOnUse"
       x1="151.6"
       y1="31.521"
       x2="131.86"
       y2="54.036"
       gradientTransform="scale(0.26458)" />
    <linearGradient
       inkscape:collect="always"
       xlink:href="#linearGradient1364"
       id="linearGradient1280"
       gradientUnits="userSpaceOnUse"
       x1="146.37941"
       y1="20.441362"
       x2="131.24001"
       y2="40.154999"
       gradientTransform="scale(0.26458)" />
    <linearGradient
       inkscape:collect="always"
       xlink:href="#linearGradient1446"
       id="linearGradient1301"
       gradientUnits="userSpaceOnUse"
       x1="130.59393"
       y1="18.887369"
       x2="137.63286"
       y2="24.106087"
       gradientTransform="scale(0.26458)" />
  </defs>
  <g
     transform="matrix(1.0169 0 0 1.0169 -26.508 -2.571)"
     id="g70">
    <path
       transform="scale(.26458)"
       d="m145.88 24.434c0.0407 0.11772 0.0805 0.23432 0.11914 0.35547 0.0587 0.18382 0.11471 0.37289 0.16797 0.56445 0.0533 0.19156 0.10338 0.38683 0.15039 0.58594 0.047 0.19911 0.0909 0.40095 0.13085 0.60742 0.02 0.10323 0.0386 0.20746 0.0566 0.3125s0.0367 0.21154 0.0527 0.31836c0.016 0.10682 0.0311 0.2137 0.0449 0.32227s0.0255 0.21782 0.0371 0.32812 0.022 0.22198 0.0312 0.33398c9e-3 0.11201 0.0167 0.22615 0.0234 0.33984 7e-3 0.11369 0.0134 0.22645 0.0176 0.3418 4e-3 0.11535 6e-3 0.23263 8e-3 0.34961 2e-3 0.11698 1e-3 0.23492 0 0.35352s-4e-3 0.23724-8e-3 0.35742-0.0104 0.24154-0.0176 0.36328c-7e-3 0.12174-0.0151 0.24391-0.0254 0.36719-0.0103 0.12328-0.0217 0.24826-0.0352 0.37305-0.0135 0.12479-0.0281 0.25067-0.0449 0.37695-0.0168 0.12628-0.0364 0.25311-0.0566 0.38086s-0.0407 0.25558-0.0645 0.38477c-0.0237 0.12918-0.0508 0.25807-0.0781 0.38867-0.0274 0.1306-0.0568 0.26254-0.0879 0.39453s-0.0627 0.26507-0.0977 0.39844c-0.0349 0.13336-0.0724 0.26764-0.11132 0.40234-0.0389 0.13471-0.0804 0.26662-0.125 0.39648-0.0446 0.12986-0.0926 0.25771-0.14258 0.38281-0.05 0.1251-0.10292 0.24676-0.1582 0.36719-0.0553 0.12043-0.11153 0.23962-0.17188 0.35547-0.0603 0.11584-0.12424 0.2285-0.18945 0.33984-0.0652 0.11134-0.13325 0.22119-0.20313 0.32812-0.0699 0.10693-0.1405 0.21184-0.21484 0.31445-0.0744 0.10261-0.15186 0.20241-0.23047 0.30078-0.0786 0.09837-0.1595 0.19484-0.24219 0.28906-0.0827 0.09422-0.16735 0.18718-0.2539 0.27734-0.0866 0.09016-0.1754 0.17749-0.26563 0.26367-0.0902 0.08618-0.18169 0.16966-0.27539 0.25195-0.0937 0.08229-0.18818 0.1637-0.28516 0.24219-0.097 0.07849-0.19682 0.15569-0.29687 0.23047-0.10005 0.07478-0.20177 0.1476-0.30469 0.21875-0.10292 0.07115-0.2069 0.13942-0.3125 0.20703-0.1056 0.06761-0.21224 0.13311-0.32031 0.19727-0.10808 0.06415-0.21777 0.12671-0.32813 0.1875-0.11035 0.06079-0.22155 0.12023-0.33398 0.17773-0.11243 0.05751-0.22553 0.11366-0.33984 0.16797-0.11432 0.05431-0.22971 0.107-0.34571 0.1582-0.11599 0.05121-0.23213 0.10025-0.34961 0.14844-0.11747 0.04819-0.23671 0.09537-0.35547 0.14062-0.11876 0.04526-0.23757 0.08845-0.35742 0.13086-0.11984 0.04241-0.2406 0.08534-0.36133 0.125-0.12072 0.03966-0.24186 0.0763-0.36328 0.11328-0.12141 0.03699-0.24333 0.07302-0.36523 0.10742-0.1219 0.0344-0.24305 0.0677-0.36524 0.09961s-0.2449 0.0623-0.36718 0.0918c-0.12228 0.02949-0.24502 0.05877-0.36719 0.08594-0.24434 0.05434-0.48777 0.10286-0.73047 0.14844-0.2427 0.04558-0.48318 0.08749-0.72266 0.125-0.23947 0.03751-0.47823 0.07143-0.71289 0.10156-0.23465 0.03013-0.46511 0.05662-0.69336 0.08008-0.22824 0.02345-0.45358 0.04308-0.67382 0.06055-0.22025 0.01747-0.43584 0.03274-0.64649 0.04492-0.21064 0.01219-0.41578 0.0217-0.61523 0.0293-0.19946 0.0076-0.3934 0.01387-0.58008 0.01758-0.18668 0.0037-0.36676 0.0054-0.53906 0.0059-0.17231 5.07e-4 -0.33781 4e-5 -0.49414-2e-3 -0.15634-2e-3 -0.30458-6e-3 -0.44336-0.0098-0.25785-0.0071-0.47468-0.0175-0.66407-0.02734l-8e-3 13.727h5.3789c1.0839 0 10.744 1.1234 15.861-8.6914 5.556-10.656-2.2988-18.479-2.2988-18.479s-1.9849-2.0437-3.0391-3.1289z"
       fill="url(#linearGradient24503)"
       id="path46" />
    <path
       transform="scale(.26458)"
       d="m130 27.326-0.01 13.68c0.18939 0.0098 0.40622 0.02029 0.66407 0.02734 0.13878 0.0038 0.28702 0.0078 0.44336 0.0098 0.15633 2e-3 0.32183 0.0025 0.49414 2e-3 0.1723-5.07e-4 0.35238-0.0022 0.53906-0.0059s0.38062-0.01 0.58008-0.01758c0.19945-0.0076 0.40459-0.01711 0.61523-0.0293 0.21065-0.01219 0.42624-0.02745 0.64649-0.04492 0.22024-0.01747 0.44558-0.03709 0.67382-0.06055 0.22825-0.02345 0.45871-0.04995 0.69336-0.08008 0.23466-0.03013 0.47342-0.06405 0.71289-0.10156 0.23948-0.03751 0.47996-0.07942 0.72266-0.125s0.48613-0.09409 0.73047-0.14844c0.12217-0.02717 0.24491-0.05644 0.36719-0.08594 0.12228-0.02949 0.24499-0.05989 0.36718-0.0918s0.24334-0.06521 0.36524-0.09961 0.24382-0.07044 0.36523-0.10742c0.12142-0.03699 0.24256-0.07363 0.36328-0.11328 0.12073-0.03966 0.24149-0.08259 0.36133-0.125 0.11985-0.04241 0.23866-0.0856 0.35742-0.13086s0.238-0.09244 0.35547-0.14062c0.11748-0.04819 0.23362-0.09723 0.34961-0.14844 0.116-0.05121 0.23139-0.10389 0.34571-0.1582 0.11431-0.05431 0.22741-0.11046 0.33984-0.16797 0.11243-0.05751 0.22363-0.11695 0.33398-0.17773 0.11036-0.06079 0.22005-0.12335 0.32813-0.1875 0.10807-0.06415 0.21471-0.12966 0.32031-0.19727 0.1056-0.06761 0.20958-0.13588 0.3125-0.20703 0.10292-0.07115 0.20464-0.14397 0.30469-0.21875 0.10005-0.07478 0.1999-0.15198 0.29687-0.23047 0.097-0.07849 0.19146-0.15989 0.28516-0.24219 0.0937-0.08229 0.18516-0.16577 0.27539-0.25195 0.0902-0.08618 0.17907-0.17351 0.26563-0.26367 0.0865-0.09016 0.17122-0.18312 0.2539-0.27734 0.0827-0.09422 0.16357-0.19069 0.24219-0.28906 0.0786-0.09837 0.15612-0.19817 0.23047-0.30078 0.0743-0.10261 0.14496-0.20752 0.21484-0.31445 0.0699-0.10693 0.13792-0.21678 0.20313-0.32812 0.0652-0.11134 0.1291-0.224 0.18945-0.33984 0.0603-0.11584 0.11659-0.23504 0.17188-0.35547 0.0553-0.12043 0.10818-0.24209 0.1582-0.36719 0.05-0.1251 0.098-0.25295 0.14258-0.38281 0.0446-0.12986 0.0861-0.26178 0.125-0.39648s0.0764-0.26898 0.11132-0.40234c0.035-0.13336 0.0666-0.26644 0.0977-0.39844s0.0605-0.26393 0.0879-0.39453c0.0274-0.1306 0.0544-0.25949 0.0781-0.38867 0.0237-0.12919 0.0443-0.25702 0.0645-0.38477s0.0399-0.25458 0.0566-0.38086c0.0168-0.12628 0.0315-0.25216 0.0449-0.37695 0.0135-0.12479 0.0249-0.24977 0.0352-0.37305 0.0103-0.12328 0.0182-0.24545 0.0254-0.36719 7e-3 -0.12174 0.0134-0.2431 0.0176-0.36328 4e-3 -0.12018 7e-3 -0.23883 8e-3 -0.35742s2e-3 -0.23653 0-0.35352c-2e-3 -0.11698-4e-3 -0.23426-8e-3 -0.34961s-0.0108-0.22811-0.0176-0.3418c-7e-3 -0.11369-0.0142-0.22784-0.0234-0.33984-9e-3 -0.11201-0.0197-0.22368-0.0312-0.33398-0.0116-0.1103-0.0233-0.21955-0.0371-0.32812s-0.0289-0.21545-0.0449-0.32227c-0.016-0.10682-0.0347-0.21332-0.0527-0.31836s-0.0367-0.20927-0.0566-0.3125c-0.0399-0.20647-0.0839-0.40831-0.13085-0.60742-0.047-0.19911-0.0971-0.39438-0.15039-0.58594-0.0533-0.19156-0.10931-0.38064-0.16797-0.56445-0.0387-0.12115-0.0784-0.23775-0.11914-0.35547-2.0744-2.1354-5.086-5.2359-7.4434-7.6602 0.0115 0.03718 0.0239 0.07407 0.0352 0.11133 0.0564 0.18666 0.10928 0.37428 0.15821 0.5625 0.0489 0.18822 0.0942 0.37723 0.13476 0.56641 0.0406 0.18917 0.076 0.37883 0.10742 0.56836 0.0314 0.18953 0.0588 0.37908 0.0801 0.56836s0.0365 0.37798 0.0469 0.56641 0.0151 0.37748 0.0137 0.56445c-1e-3 0.18697-9e-3 0.37172-0.0234 0.55664-0.0142 0.18492-0.0348 0.36852-0.0625 0.55078s-0.0613 0.36397-0.10352 0.54297c-0.0422 0.179-0.0929 0.35612-0.15039 0.53125-0.0575 0.17513-0.11969 0.34295-0.1875 0.50586-0.0678 0.16291-0.14141 0.32154-0.21875 0.47266-0.0773 0.15112-0.15805 0.29579-0.24414 0.43555-0.0861 0.13976-0.17743 0.2735-0.27148 0.40234-0.0941 0.12884-0.19173 0.25274-0.29297 0.37109-0.10124 0.11835-0.20485 0.23154-0.3125 0.33984-0.10764 0.10831-0.21876 0.21185-0.33203 0.31055-0.11327 0.09869-0.22954 0.19173-0.34766 0.28125-0.11811 0.08952-0.2372 0.17508-0.35937 0.25586-0.12218 0.08078-0.24759 0.158-0.37305 0.23047-0.12545 0.07247-0.25095 0.14048-0.3789 0.20508-0.12796 0.0646-0.25705 0.12447-0.38672 0.18164-0.12968 0.05717-0.26002 0.11194-0.39063 0.16211-0.13061 0.05017-0.26181 0.09702-0.39258 0.14062-0.13077 0.04361-0.26243 0.08362-0.39257 0.12109-0.13015 0.03748-0.25994 0.07173-0.38868 0.10352-0.25747 0.06358-0.51065 0.11673-0.75781 0.16016-0.24716 0.04343-0.48815 0.07675-0.71875 0.10352-0.2306 0.02676-0.45041 0.04696-0.6582 0.06055-0.2078 0.01359-0.4033 0.02149-0.58203 0.02539-0.17874 0.0039-0.34095 0.0043-0.48438 2e-3 -0.0804-0.0013-0.13923-0.0054-0.20703-0.0078z"
       fill="url(#linearGradient12187)"
       id="path48" />
    <path
       transform="scale(.26458)"
       d="m130 27.326c0.0678 0.0024 0.12659 0.0065 0.20703 0.0078 0.14343 0.0023 0.30564 0.0019 0.48438-2e-3 0.17873-0.0039 0.37423-0.0118 0.58203-0.02539 0.20779-0.01359 0.4276-0.03378 0.6582-0.06055 0.2306-0.02676 0.47159-0.06009 0.71875-0.10352 0.24716-0.04343 0.50034-0.09658 0.75781-0.16016 0.12874-0.03179 0.25853-0.06604 0.38868-0.10352 0.13014-0.03748 0.2618-0.07749 0.39257-0.12109 0.13077-0.04361 0.26197-0.09046 0.39258-0.14062 0.13061-0.05017 0.26095-0.10494 0.39063-0.16211 0.12967-0.05717 0.25876-0.11704 0.38672-0.18164 0.12795-0.0646 0.25345-0.13261 0.3789-0.20508 0.12546-0.07247 0.25087-0.14969 0.37305-0.23047 0.12217-0.08077 0.24126-0.16634 0.35937-0.25586 0.11812-0.08952 0.23439-0.18256 0.34766-0.28125 0.11327-0.09869 0.22439-0.20224 0.33203-0.31055 0.10765-0.10831 0.21126-0.22149 0.3125-0.33984 0.10124-0.11836 0.19892-0.24226 0.29297-0.37109 0.094-0.12884 0.1854-0.26258 0.27148-0.40234 0.0861-0.13976 0.16681-0.28443 0.24414-0.43555 0.0773-0.15112 0.15095-0.30975 0.21875-0.47266s0.13001-0.33072 0.1875-0.50586c0.0575-0.17514 0.10822-0.35225 0.15039-0.53125 0.0422-0.179 0.0758-0.36071 0.10352-0.54297 0.0277-0.18226 0.0483-0.36586 0.0625-0.55078 0.0142-0.18492 0.022-0.36967 0.0234-0.55664 1e-3 -0.18697-3e-3 -0.37603-0.0137-0.56445-0.0103-0.18843-0.0256-0.37713-0.0469-0.56641s-0.0487-0.37883-0.0801-0.56836-0.0668-0.37919-0.10742-0.56836c-0.0406-0.18917-0.0858-0.37819-0.13476-0.56641-0.0489-0.18822-0.10181-0.37584-0.15821-0.5625-0.0113-0.03726-0.0236-0.07415-0.0352-0.11133-1.7874-1.8382-3.242-3.3318-3.377-3.4668-0.27742-0.27742-1.1753-0.7968-2.1953-0.80078-0.46363-0.0018-0.95335 0.10298-1.4199 0.38477-1.4929 0.90176-1.4491 2.418-1.4491 2.418v11.691z"
       fill="url(#linearGradient1876)"
       id="path50" />
    <path
       d="m30.188 15.243c-0.01077-0.03115-0.0213-0.062-0.03152-0.09405-0.01553-0.04863-0.03035-0.09866-0.04444-0.14934-0.0141-0.05068-0.02735-0.10234-0.03979-0.15503-0.01243-0.05268-0.02405-0.10608-0.03462-0.16071-0.0053-0.02731-0.01021-0.05489-0.01497-0.08268-0.0048-0.02779-0.0097-0.05597-0.01394-0.08423-0.0042-0.02826-0.0082-0.05654-0.01188-0.08526-0.0037-0.02873-0.0067-0.05763-0.0098-0.08681s-0.0058-0.05873-0.0083-0.08836c-0.0024-0.02964-0.0044-0.05984-0.0062-0.08992-0.0019-0.03008-0.0035-0.05991-0.0047-0.09043-0.0011-0.03052-0.0016-0.06155-0.0021-0.0925-5.29e-4 -0.03095-2.65e-4 -0.06216 0-0.09353 2.64e-4 -0.03138 0.0011-0.06277 0.0021-0.09457 0.0011-0.0318 0.0028-0.06391 0.0047-0.09612s4e-3 -0.06453 0.0067-0.09715 0.0057-0.06568 0.0093-0.0987 0.0074-0.06632 0.01188-0.09973c0.0044-0.03341 0.0096-0.06697 0.01497-0.10077 0.0053-0.0338 0.01077-0.06762 0.01706-0.1018 0.0063-0.03418 0.01344-0.06828 0.02066-0.10283 0.0072-0.03456 0.01503-0.06946 0.02326-0.10438 0.0082-0.03492 0.01659-0.07013 0.02585-0.10542 0.0092-0.03529 0.01915-0.07081 0.02945-0.10645 0.01029-0.03564 0.02127-0.07054 0.03307-0.1049 0.0118-0.03436 0.0245-0.06818 0.03772-0.10128 0.01323-0.0331 0.02723-0.06529 0.04186-0.09715s0.02951-0.0634 0.04547-0.09405c0.01595-0.03065 0.03287-0.06046 0.05012-0.08992s0.03525-0.05852 0.05374-0.08681 0.03717-0.05605 0.05684-0.0832c0.01968-0.02715 0.04018-0.05355 0.06098-0.07958s0.0422-0.05155 0.06408-0.07648 0.04428-0.04952 0.06718-0.07338c0.02291-0.02385 0.04641-0.04696 0.07028-0.06976s0.04807-0.04489 0.07286-0.06666 0.04979-0.04331 0.07545-0.06408 0.05207-0.04119 0.07855-0.06098c0.02647-0.01978 0.05338-0.03905 0.08061-0.05788 0.02723-0.01882 0.05474-0.03689 0.08268-0.05478s0.05615-0.03522 0.08475-0.05219 0.05762-0.03352 0.08682-0.04961c0.0292-0.01608 0.05862-0.03181 0.08836-0.04702 0.02975-0.01522 0.05967-0.03007 0.08991-0.04444 0.03025-0.01437 0.06078-0.02831 0.09147-0.04186s0.06142-0.02652 0.0925-0.03927 0.06263-0.02523 0.09405-0.03721c0.03142-0.01197 0.06286-0.0234 0.09456-0.03462 0.03171-0.01122 0.06366-0.02258 0.0956-0.03307s0.06399-0.02019 0.09612-0.02997c0.03212-0.0098 0.06438-0.01932 0.09663-0.02842s0.06431-0.01791 0.09663-0.02635c0.03233-0.0084 0.0648-0.01648 0.09715-0.02429 0.03235-0.0078 0.06483-0.01555 0.09715-0.02274 0.06465-0.01438 0.12905-0.02721 0.19327-0.03927 0.06421-0.01206 0.12784-0.02315 0.1912-0.03307 0.06336-0.0099 0.12653-0.0189 0.18862-0.02687 0.06208-8e-3 0.12306-0.01498 0.18345-0.02119 0.06039-0.0062 0.12001-0.0114 0.17828-0.01602 0.05827-0.0046 0.11531-0.0087 0.17105-0.01188 0.05573-0.0032 0.11001-0.0057 0.16278-0.0078 0.05277-2e-3 0.10408-0.0037 0.15348-0.0047 0.04939-9.79e-4 0.09704-0.0014 0.14262-0.0016 0.04559-1.34e-4 0.08938-1e-5 0.13074 5.29e-4 0.04136 5.29e-4 0.08059 0.0016 0.1173 0.0026 0.06822 0.0019 0.12559 0.0046 0.1757 0.0072l0.0021-3.6317h-1.4231c-0.28677 0-2.8426-0.29723-4.1966 2.2996-1.47 2.8194 0.60822 4.889 0.60822 4.889s0.52515 0.54072 0.80407 0.82784z"
       fill="url(#linearGradient62740)"
       id="path52" />
    <path
       d="m34.39 14.478 0.0026-3.6193c-0.05011-0.0026-0.10748-0.0054-0.1757-0.0072-0.03672-1e-3 -0.07594-0.0021-0.1173-0.0026-0.04136-5.29e-4 -0.08515-6.61e-4 -0.13074-5.29e-4 -0.04559 1.34e-4 -0.09323 5.82e-4 -0.14262 0.0016-0.04939 9.79e-4 -0.1007 0.0026-0.15348 0.0047-0.05277 2e-3 -0.10705 0.0045-0.16278 0.0078-0.05573 0.0032-0.11277 0.0073-0.17105 0.01188-0.05827 0.0046-0.11789 0.0098-0.17828 0.01602-0.06039 0.0062-0.12136 0.01322-0.18345 0.02119-0.06209 8e-3 -0.12526 0.01695-0.18862 0.02687-0.06336 0.0099-0.12699 0.02101-0.1912 0.03307-0.06421 0.01206-0.12862 0.02489-0.19327 0.03927-0.03232 0.0072-0.0648 0.01493-0.09715 0.02274-0.03235 0.0078-0.06482 0.01585-0.09715 0.02429-0.03233 0.0084-0.06438 0.01725-0.09663 0.02636-0.03225 0.0091-0.06451 0.01864-0.09663 0.02842-0.03213 0.0098-0.06418 0.01948-0.09612 0.02997s-0.06389 0.02185-0.0956 0.03307-0.06314 0.02265-0.09456 0.03462-0.06297 0.02446-0.09405 0.03721-0.06181 0.02572-0.0925 0.03927-0.06122 0.02749-0.09147 0.04186c-0.03024 0.01437-0.06017 0.02923-0.08991 0.04444-0.02975 0.01522-0.05917 0.03094-0.08836 0.04702-0.0292 0.01608-0.05822 0.03264-0.08682 0.04961-0.02859 0.01697-0.05681 0.0343-0.08475 0.05219s-0.05545 0.03595-0.08268 0.05478c-0.02723 0.01882-0.05414 0.03809-0.08061 0.05788s-0.05289 0.04021-0.07855 0.06098-0.05066 0.0423-0.07545 0.06408c-0.02479 0.02177-0.04899 0.04386-0.07286 0.06666s-0.04738 0.04591-0.07028 0.06976c-0.02289 0.02386-0.0453 0.04845-0.06718 0.07338s-0.04328 0.05045-0.06408 0.07648-0.04131 0.05243-0.06098 0.07958c-0.01966 0.02715-0.03835 0.0549-0.05684 0.0832-0.01849 0.02829-0.03649 0.05735-0.05374 0.08681s-0.03416 0.05927-0.05013 0.08992c-0.01595 0.03065-0.03085 0.06219-0.04547 0.09405-0.01463 0.03186-0.02862 0.06405-0.04186 0.09715-0.01323 0.0331-0.02593 0.06692-0.03772 0.10128-0.0118 0.03436-0.02278 0.06926-0.03307 0.1049-0.01029 0.03564-0.02021 0.07117-0.02945 0.10645-0.0093 0.03529-0.01762 0.0705-0.02585 0.10542-0.0082 0.03492-0.01601 0.06983-0.02326 0.10438-0.0072 0.03455-0.01439 0.06866-0.02066 0.10283-0.0063 0.03418-0.01172 0.068-0.01707 0.1018-0.0053 0.0338-0.01056 0.06736-0.01497 0.10077-0.0044 0.03341-0.0083 0.06672-0.01188 0.09973-0.0036 0.03302-0.0066 0.06608-0.0093 0.0987s-0.0048 0.06494-0.0067 0.09715-0.0035 0.06432-0.0047 0.09612c-0.0011 0.0318-0.0019 0.06319-0.0021 0.09457-2.65e-4 0.03138-5.29e-4 0.06258 0 0.09353s0.0011 0.06198 0.0021 0.0925c0.0011 0.03052 0.0029 0.06035 0.0047 0.09043 0.0019 0.03008 0.0038 0.06028 0.0062 0.08991 0.0024 0.02964 0.0052 0.05918 0.0083 0.08836s0.0062 0.05809 0.0098 0.08681c0.0037 0.02873 0.0076 0.057 0.01188 0.08526 0.0042 0.02826 0.0092 0.05644 0.01394 0.08423 0.0048 0.02779 0.0097 0.05537 0.01497 0.08268 0.01056 0.05463 0.0222 0.10803 0.03462 0.16071 0.01243 0.05268 0.02569 0.10434 0.03979 0.15503 0.0141 0.05068 0.02892 0.10071 0.04444 0.14934 0.01024 0.03205 0.02074 0.0629 0.03152 0.09405 0.54884 0.56498 1.3457 1.3853 1.9694 2.0267-3e-3 -0.0098-0.0063-0.0196-0.0093-0.02945-0.01492-0.04939-0.02891-0.09903-0.04186-0.14883-0.01294-0.0498-0.02492-0.09981-0.03566-0.14986-0.01074-0.05005-0.02011-0.10023-0.02842-0.15038-0.0083-0.05014-0.01556-0.1003-0.02119-0.15038-0.0056-0.05008-0.0097-0.10001-0.01241-0.14986-0.0028-0.04985-4e-3 -0.09987-0.0036-0.14934 2.65e-4 -0.04947 0.0024-0.09835 0.0062-0.14728 0.0038-0.04893 0.0092-0.0975 0.01654-0.14572 0.0073-0.04822 0.01622-0.0963 0.02739-0.14366 0.01116-0.04736 0.02458-0.09422 0.03979-0.14056 0.01521-0.04634 0.03167-0.09074 0.04961-0.13384s0.03741-0.08507 0.05788-0.12505c0.02045-0.03998 0.04182-0.07826 0.06459-0.11524 0.02278-0.03698 0.04694-0.07236 0.07183-0.10645 0.0249-0.03409 0.05073-0.06687 0.07751-0.09818 0.02679-0.03131 0.0542-0.06126 0.08268-0.08991 0.02848-0.02866 0.05788-0.05605 0.08785-0.08216s0.06073-0.05073 0.09198-0.07441c0.03125-0.02369 0.06276-0.04632 0.09508-0.0677 0.03233-0.02137 0.06551-0.0418 0.0987-0.06098 0.03319-0.01917 0.0664-0.03717 0.10025-0.05426 0.03386-0.01709 0.06801-0.03293 0.10232-0.04806 0.03431-0.01513 0.0688-0.02962 0.10335-0.04289 0.03456-0.01327 0.06927-0.02567 0.10387-0.03721 0.0346-0.01154 0.06943-0.02212 0.10387-0.03204 0.03444-0.0099 0.06877-0.01898 0.10284-0.02739 0.06812-0.01682 0.13511-0.03088 0.2005-0.04237 0.06539-0.01149 0.12915-0.02031 0.19016-0.02739 0.06101-0.0071 0.11917-0.01242 0.17415-0.01602 0.05498-0.0036 0.1067-0.0057 0.15399-0.0067 0.04729-1e-3 0.09021-0.0011 0.12816-5.29e-4 0.02127 3.44e-4 0.03684 0.0014 0.05477 0.0021z"
       fill="url(#linearGradient73102)"
       id="path54" />
    <path
       d="m34.39 14.478c-0.01794-6.35e-4 -0.03349-0.0017-0.05477-0.0021-0.03795-6.08e-4 -0.08087-5.03e-4 -0.12816 5.29e-4 -0.04729 1e-3 -0.09901 0.0031-0.15399 0.0067-0.05498 0.0036-0.11313 0.0089-0.17414 0.01602-0.06101 0.0071-0.12477 0.0159-0.19017 0.02739-0.06539 0.01149-0.13238 0.02555-0.2005 0.04237-0.03406 0.0084-0.0684 0.01747-0.10284 0.02739-0.03443 0.0099-0.06927 0.0205-0.10386 0.03204-0.0346 0.01154-0.06931 0.02393-0.10387 0.03721-0.03456 0.01327-0.06904 0.02777-0.10335 0.04289-0.03431 0.01513-0.06846 0.03097-0.10232 0.04806-0.03385 0.01709-0.06706 0.03509-0.10025 0.05426-0.03319 0.01917-0.06638 0.0396-0.0987 0.06098-0.03232 0.02137-0.06383 0.04401-0.09508 0.0677s-0.06202 0.0483-0.09198 0.07441c-0.02997 0.02611-0.05937 0.05351-0.08785 0.08216-0.02848 0.02866-0.05589 0.0586-0.08268 0.08991s-0.05263 0.0641-0.07751 0.09818c-0.02487 0.03409-0.04905 0.06947-0.07183 0.10645-0.02278 0.03698-0.04413 0.07525-0.06459 0.11524-0.02045 0.03998-0.03994 0.08195-0.05788 0.12506-0.01794 0.0431-0.0344 0.0875-0.04961 0.13384-0.01521 0.04634-0.02863 0.0932-0.03979 0.14056-0.01116 0.04736-0.02005 0.09544-0.02739 0.14366-0.0073 0.04822-0.01278 0.0968-0.01654 0.14572-0.0038 0.04893-0.0058 0.09781-0.0062 0.14728-2.65e-4 0.04947 7.93e-4 0.09949 0.0036 0.14934 0.0027 0.04985 0.0068 0.09978 0.01241 0.14986 0.0056 0.05008 0.01289 0.10023 0.02119 0.15038 0.0083 0.05014 0.01767 0.10032 0.02842 0.15038 0.01074 0.05005 0.0227 0.10006 0.03565 0.14986 0.01294 0.0498 0.02694 0.09944 0.04186 0.14882 3e-3 0.0099 0.0062 0.01962 0.0093 0.02945 0.47291 0.48634 0.85775 0.88152 0.89347 0.91724 0.0734 0.0734 0.31096 0.21082 0.58083 0.21187 0.12267 4.76e-4 0.25224-0.02725 0.37568-0.1018 0.39499-0.23859 0.38339-0.63976 0.38339-0.63976v-3.0933z"
       fill="url(#linearGradient88292)"
       id="path56" />
    <path
       d="m 38.59693,6.4647477 c 0.31752,0.9189057 0.307069,1.9699444 -0.101871,2.8581863 -0.445203,0.852245 -1.409296,1.248782 -2.308357,1.413844 -0.590974,0.109355 -1.195336,0.141769 -1.795218,0.112645 -7.06e-4,1.21063 -0.0014,2.42126 -0.0021,3.63189 0.689027,-0.0035 1.378305,0.0046 2.06692,0.0031 1.223706,-0.04616 2.424886,-0.644441 3.143125,-1.646004 0.802411,-1.072232 1.173595,-2.514161 0.77269,-3.8161209 C 40.140771,8.2109175 39.656063,7.4906651 39.039602,6.920677 38.892128,6.7687361 38.743831,6.6163917 38.59693,6.4647477 Z"
       fill="url(#linearGradient24503)"
       id="path58"
       style="fill:url(#linearGradient1259);stroke-width:0.26458" />
    <path
       d="m 34.3954,7.2299131 c -8.81e-4,1.2064848 -0.0018,2.4129696 -0.0026,3.6194539 1.04357,0.04046 2.131319,-0.05669 3.074658,-0.537353 0.608084,-0.305892 1.093967,-0.8700079 1.22981,-1.5458171 C 38.889434,8.0109715 38.856671,7.2002605 38.5982,6.4646922 37.94183,5.7890268 37.285511,5.1133138 36.628826,4.4379564 36.836457,5.073852 36.872956,5.8304116 36.466003,6.3980455 36.008155,7.0509448 35.149985,7.2511372 34.3954,7.2299131 Z"
       fill="url(#linearGradient12187)"
       id="path60"
       style="fill:url(#linearGradient1280);stroke-width:0.26458" />
    <path
       d="M 34.3954,7.2299131 C 35.019862,7.2456199 35.683836,7.1201116 36.17678,6.7133288 36.624116,6.3468091 36.82579,5.7459209 36.775339,5.1792017 36.75752,4.9272347 36.704035,4.678647 36.628786,4.4378506 36.318415,4.1230316 36.016074,3.7996075 35.700338,3.4904703 35.413514,3.2792601 34.97982,3.2298421 34.69346,3.4691637 c -0.213238,0.159047 -0.318398,0.4299822 -0.298073,0.6913383 8e-6,1.0231372 -1.9e-5,2.0462741 1.3e-5,3.0694111 z"
       fill="url(#linearGradient1876)"
       id="path62"
       style="fill:url(#linearGradient1301);stroke-width:0.26458" />
    <path
       d="m 30.188,15.243 c -0.317479,-0.918896 -0.307186,-1.969913 0.10179,-2.85815 0.445186,-0.852249 1.409282,-1.248789 2.30834,-1.41384 0.59098,-0.109301 1.195334,-0.141824 1.79522,-0.112801 7e-4,-1.2105667 0.0014,-2.4211333 0.0021,-3.6317 -0.689009,0.00353 -1.378268,-0.00463 -2.066862,-0.0031 -1.223731,0.04617 -2.424916,0.64447 -3.143197,1.6460249 -0.802439,1.0721953 -1.173627,2.5141288 -0.772721,3.8160728 0.231327,0.811347 0.71607,1.531525 1.332493,2.101497 0.147589,0.152005 0.295374,0.304 0.442837,0.456001 z"
       fill="url(#linearGradient62740)"
       id="path64"
       style="fill:url(#linearGradient910)" />
    <path
       d="m 34.39,14.478 c 8.67e-4,-1.206433 0.0017,-2.412867 0.0026,-3.6193 -1.043567,-0.04027 -2.131313,0.05685 -3.07465,0.537509 -0.608091,0.305892 -1.093957,0.870014 -1.229816,1.545821 -0.192219,0.755223 -0.159328,1.565899 0.0991,2.301461 0.656369,0.675662 1.312716,1.351345 1.9694,2.0267 -0.207634,-0.635902 -0.244063,-1.39245 0.16287,-1.960086 0.457791,-0.653106 1.316276,-0.852747 2.0705,-0.832105 z"
       fill="url(#linearGradient73102)"
       id="path66"
       style="fill:url(#linearGradient975)" />
    <path
       d="m 34.39,14.478 c -0.624455,-0.01583 -1.288429,0.10978 -1.781363,0.516539 -0.447359,0.366512 -0.648947,0.9674 -0.598598,1.534114 0.01782,0.251965 0.07131,0.500545 0.146541,0.741346 0.310373,0.314811 0.612705,0.638236 0.928432,0.947375 0.286821,0.211213 0.720516,0.260624 1.006878,0.02131 0.213238,-0.159048 0.318387,-0.429986 0.29806,-0.691341 3.3e-5,-1.023114 -6.6e-5,-2.046227 5e-5,-3.06934 z"
       fill="url(#linearGradient88292)"
       id="path68"
       style="fill:url(#linearGradient1118)" />
  </g>
</svg>
