<?xml version="1.0" encoding="UTF-8" standalone="no"?>
<svg
   xmlns:dc="http://purl.org/dc/elements/1.1/"
   xmlns:cc="http://creativecommons.org/ns#"
   xmlns:rdf="http://www.w3.org/1999/02/22-rdf-syntax-ns#"
   xmlns:svg="http://www.w3.org/2000/svg"
   xmlns="http://www.w3.org/2000/svg"
   xmlns:xlink="http://www.w3.org/1999/xlink"
   xmlns:sodipodi="http://sodipodi.sourceforge.net/DTD/sodipodi-0.dtd"
   xmlns:inkscape="http://www.inkscape.org/namespaces/inkscape"
   sodipodi:docname="preferences-system.svg"
   inkscape:version="1.1-dev (1:0.92.0+devel+202004260039+9758c7a)"
   id="svg8"
   version="1.1"
   viewBox="0 0 16.933333 16.933333"
   height="64"
   width="64">
  <defs
     id="defs2">
    <linearGradient
       id="linearGradient1161"
       inkscape:collect="always">
      <stop
         id="stop1157"
         offset="0"
         style="stop-color:#eaf0f0;stop-opacity:1" />
      <stop
         id="stop1159"
         offset="1"
         style="stop-color:#ffffff;stop-opacity:1" />
    </linearGradient>
    <linearGradient
       id="linearGradient1043"
       inkscape:collect="always">
      <stop
         id="stop1039"
         offset="0"
         style="stop-color:#3ab3ae;stop-opacity:1" />
      <stop
         id="stop1041"
         offset="1"
         style="stop-color:#8fdbd8;stop-opacity:1" />
    </linearGradient>
    <linearGradient
       id="linearGradient1019"
       inkscape:collect="always">
      <stop
         id="stop1015"
         offset="0"
         style="stop-color:#36a8a4;stop-opacity:1;" />
      <stop
         id="stop1017"
         offset="1"
         style="stop-color:#8fdbd8;stop-opacity:1" />
    </linearGradient>
    <linearGradient
       id="linearGradient1003"
       inkscape:collect="always">
      <stop
         id="stop999"
         offset="0"
         style="stop-color:#36a8a4;stop-opacity:1" />
      <stop
         id="stop1001"
         offset="1"
         style="stop-color:#8fdbd8;stop-opacity:1" />
    </linearGradient>
    <linearGradient
       id="linearGradient838"
       inkscape:collect="always">
      <stop
         id="stop834"
         offset="0"
         style="stop-color:#ffffff;stop-opacity:1" />
      <stop
         id="stop836"
         offset="1"
         style="stop-color:#f7f7f7;stop-opacity:1" />
    </linearGradient>
    <linearGradient
       id="linearGradient842"
       inkscape:collect="always">
      <stop
         id="stop838"
         offset="0"
         style="stop-color:#ffffff;stop-opacity:1" />
      <stop
         id="stop840"
         offset="1"
         style="stop-color:#e4e4e4;stop-opacity:1" />
    </linearGradient>
    <linearGradient
       gradientUnits="userSpaceOnUse"
       y2="296.54614"
       x2="9.3091936"
       y1="280.90738"
       x1="9.7574968"
       id="linearGradient844"
       xlink:href="#linearGradient842"
       inkscape:collect="always" />
    <linearGradient
       gradientUnits="userSpaceOnUse"
       y2="297.49109"
       x2="8.6004887"
       y1="279.39548"
       x1="8.6235685"
       id="linearGradient840"
       xlink:href="#linearGradient838"
       inkscape:collect="always" />
    <linearGradient
       gradientUnits="userSpaceOnUse"
       y2="38.992771"
       x2="59.499382"
       y1="4.4864378"
       x1="30.371506"
       id="linearGradient1005"
       xlink:href="#linearGradient1003"
       inkscape:collect="always" />
    <linearGradient
       gradientTransform="matrix(3.7795276,0,0,3.7795276,0,-1058.5197)"
       gradientUnits="userSpaceOnUse"
       y2="291.81015"
       x2="5.5913424"
       y1="291.84366"
       x1="13.535731"
       id="linearGradient1021"
       xlink:href="#linearGradient1019"
       inkscape:collect="always" />
    <linearGradient
       gradientTransform="matrix(3.7795276,0,0,3.7795276,0,-1058.5197)"
       gradientUnits="userSpaceOnUse"
       y2="284.45673"
       x2="7.8936691"
       y1="290.6228"
       x1="1.6338917"
       id="linearGradient1045"
       xlink:href="#linearGradient1043"
       inkscape:collect="always" />
    <radialGradient
       gradientUnits="userSpaceOnUse"
       gradientTransform="matrix(0.82648561,0,0,0.84496637,1.4820138,44.744036)"
       r="3.5851068"
       fy="288.60864"
       fx="8.5411577"
       cy="288.60864"
       cx="8.5411577"
       id="radialGradient1163"
       xlink:href="#linearGradient1161"
       inkscape:collect="always" />
  </defs>
  <sodipodi:namedview
     inkscape:window-maximized="1"
     inkscape:window-y="30"
     inkscape:window-x="0"
     inkscape:window-height="1024"
     inkscape:window-width="1920"
     units="px"
     showgrid="false"
     inkscape:current-layer="layer1"
     inkscape:document-units="mm"
     inkscape:cy="28.993987"
     inkscape:cx="46.713847"
     inkscape:zoom="3.959798"
     inkscape:pageshadow="2"
     inkscape:pageopacity="0"
     borderopacity="1.0"
     bordercolor="#666666"
     pagecolor="#ffffff"
     id="base" />
  <metadata
     id="metadata5">
    <rdf:RDF>
      <cc:Work
         rdf:about="">
        <dc:format>image/svg+xml</dc:format>
        <dc:type
           rdf:resource="http://purl.org/dc/dcmitype/StillImage" />
      </cc:Work>
    </rdf:RDF>
  </metadata>
  <g
     transform="translate(0,-280.06667)"
     id="layer1"
     inkscape:groupmode="layer"
     inkscape:label="Layer 1">
    <circle
       r="7.7297897"
       cy="288.60864"
       cx="8.5411577"
       id="path826"
       style="opacity:1;fill:#8fdbd8;fill-opacity:1;stroke:none;stroke-width:0.81756413;stroke-linecap:round;stroke-miterlimit:4;stroke-dasharray:none;stroke-dashoffset:0;stroke-opacity:1" />
    <path
       cx="8.5411577"
       cy="288.60864"
       r="7.7297897"
       style="opacity:1;fill:none;fill-opacity:1;stroke:url(#linearGradient844);stroke-width:0.81756413;stroke-linecap:round;stroke-miterlimit:4;stroke-dasharray:none;stroke-dashoffset:0;stroke-opacity:1"
       id="circle872" />
    <path
       transform="matrix(0.26458333,0,0,0.26458333,0,280.06667)"
       d="M 43.728516 10.691406 C 35.176717 10.929729 27.434998 16.42194 28.517578 22.484375 L 42.728516 33.96875 C 48.15176 35.929692 36.326554 54.059759 33.691406 61.460938 A 29.214953 29.214953 0 0 0 46.142578 57.996094 C 46.690936 57.700531 47.224086 57.385531 47.748047 57.058594 A 29.214953 29.214953 0 0 0 48.058594 56.861328 C 48.481808 56.589789 48.896413 56.306904 49.302734 56.015625 A 29.214953 29.214953 0 0 0 49.638672 55.775391 C 50.128216 55.41386 50.606889 55.039553 51.070312 54.650391 C 51.565981 54.234149 52.045038 53.803501 52.509766 53.357422 A 29.214953 29.214953 0 0 0 52.529297 53.339844 C 52.552894 53.317153 52.574141 53.292296 52.597656 53.269531 C 53.008012 52.872265 53.405864 52.462251 53.791016 52.042969 A 29.214953 29.214953 0 0 0 54.035156 51.771484 C 54.372803 51.394559 54.698613 51.0084 55.015625 50.615234 A 29.214953 29.214953 0 0 0 55.244141 50.332031 C 55.599876 49.879415 55.943495 49.417513 56.271484 48.945312 A 29.214953 29.214953 0 0 0 56.3125 48.890625 C 56.315995 48.885568 56.318773 48.88006 56.322266 48.875 C 56.686814 48.346829 57.034406 47.808545 57.363281 47.257812 C 57.672921 46.739292 57.965124 46.208799 58.242188 45.671875 A 29.214953 29.214953 0 0 0 58.421875 45.306641 C 58.629515 44.890126 58.827914 44.469379 59.015625 44.042969 A 29.214953 29.214953 0 0 0 59.224609 43.556641 C 59.401667 43.133803 59.567384 42.70686 59.724609 42.275391 A 29.214953 29.214953 0 0 0 59.878906 41.855469 C 60.077716 41.282723 60.262528 40.703219 60.425781 40.117188 C 60.586826 39.539083 60.726011 38.952822 60.851562 38.363281 A 29.214953 29.214953 0 0 0 60.953125 37.832031 C 61.036956 37.399129 61.11339 36.965426 61.177734 36.527344 A 29.214953 29.214953 0 0 0 61.251953 35.992188 C 61.308764 35.548365 61.354133 35.100607 61.390625 34.652344 A 29.214953 29.214953 0 0 0 61.433594 34.105469 C 61.471365 33.501377 61.495963 32.895569 61.496094 32.285156 A 29.214953 29.214953 0 0 0 61.457031 30.869141 C 61.448574 30.69691 61.43727 30.525354 61.425781 30.353516 A 29.214953 29.214953 0 0 0 61.353516 29.474609 C 61.331418 29.247379 61.30863 29.019316 61.28125 28.792969 A 29.214953 29.214953 0 0 0 61.181641 28.078125 C 61.149165 27.855887 61.121536 27.633313 61.083984 27.412109 A 29.214953 29.214953 0 0 0 60.835938 26.123047 C 60.791156 25.916091 60.738693 25.711669 60.689453 25.505859 A 29.214953 29.214953 0 0 0 60.513672 24.796875 C 60.443999 24.534807 60.367922 24.273588 60.291016 24.013672 A 29.214953 29.214953 0 0 0 60.130859 23.492188 C 60.04589 23.223564 59.961832 22.955476 59.869141 22.689453 A 29.214953 29.214953 0 0 0 59.732422 22.316406 C 59.489838 21.649509 59.22629 20.989797 58.935547 20.341797 C 58.785759 20.007953 58.627224 19.677894 58.464844 19.349609 A 29.214953 29.214953 0 0 0 58.365234 19.146484 C 58.202602 18.824001 58.034095 18.504148 57.859375 18.1875 A 29.214953 29.214953 0 0 0 57.775391 18.037109 C 57.195114 16.999968 56.551404 15.99466 55.84375 15.029297 A 29.214953 29.214953 0 0 0 55.84375 15.027344 C 55.599525 14.694217 55.346931 14.36654 55.087891 14.042969 C 51.629061 11.56492 47.598425 10.583559 43.728516 10.691406 z "
       style="fill:url(#linearGradient1005);fill-opacity:1;stroke:none;stroke-width:0.377953;stroke-linecap:butt;stroke-linejoin:miter;stroke-miterlimit:4;stroke-dasharray:none;stroke-opacity:0.282651"
       id="path991" />
    <path
       transform="matrix(0.26458333,0,0,0.26458333,0,280.06667)"
       d="M 5.0566406 21.904297 A 29.214953 29.214953 0 0 0 3.0664062 32.285156 A 29.214953 29.214953 0 0 0 32.28125 61.5 A 29.214953 29.214953 0 0 0 36.916016 61.126953 C 49.210675 55.402322 51.104269 36.996625 42.728516 33.96875 L 25.677734 40.445312 C 18.879563 46.174927 3.9253519 35.381934 5.0566406 21.904297 z "
       style="fill:url(#linearGradient1021);fill-opacity:1;stroke:none;stroke-width:0.377953;stroke-linecap:butt;stroke-linejoin:miter;stroke-miterlimit:4;stroke-dasharray:none;stroke-opacity:0.282651"
       id="path1011" />
    <path
       transform="matrix(0.26458333,0,0,0.26458333,0,280.06667)"
       d="M 32.28125 3.0703125 A 29.214953 29.214953 0 0 0 5.0566406 21.904297 C 3.9253519 35.381934 18.879563 46.174927 25.677734 40.445312 L 28.517578 22.484375 C 26.945103 13.678531 43.985675 6.0888818 55.087891 14.042969 A 29.214953 29.214953 0 0 0 32.28125 3.0703125 z "
       style="fill:url(#linearGradient1045);fill-opacity:1;stroke:none;stroke-width:0.377953;stroke-linecap:butt;stroke-linejoin:miter;stroke-miterlimit:4;stroke-dasharray:none;stroke-opacity:0.282651"
       id="path1037" />
    <g
       style="opacity:0.4622893"
       transform="translate(-16.926416)"
       id="g1155">
      <path
         d="m 25.467315,284.62413 c -0.551888,0 -0.995804,0.44392 -0.995804,0.9958 v 0.39584 a 2.8007783,2.8007783 0 0 0 -0.751376,0.43357 l -0.342614,-0.19792 c -0.477951,-0.27595 -1.084696,-0.11312 -1.360641,0.36483 -0.27594,0.47795 -0.113632,1.0847 0.364319,1.36064 l 0.342615,0.19792 a 2.8007783,2.8007783 0 0 0 -0.05684,0.43357 2.8007783,2.8007783 0 0 0 0.05684,0.43408 l -0.342615,0.19792 c -0.477951,0.27595 -0.640264,0.88269 -0.364319,1.36064 0.275945,0.47795 0.88269,0.64078 1.360641,0.36484 l 0.342614,-0.19792 a 2.8007783,2.8007783 0 0 0 0.751376,0.43356 v 0.39584 c 0,0.55189 0.443916,0.99581 0.995804,0.99581 0.551889,0 0.996322,-0.44392 0.996322,-0.99581 v -0.37258 a 2.8007783,2.8007783 0 0 0 0.771012,-0.44545 l 0.322977,0.18655 c 0.477951,0.27594 1.084701,0.1131 1.360641,-0.36484 0.275945,-0.47795 0.113632,-1.08469 -0.364319,-1.36064 l -0.322461,-0.18603 a 2.8007783,2.8007783 0 0 0 0.03669,-0.44597 2.8007783,2.8007783 0 0 0 -0.03669,-0.44493 l 0.322461,-0.18656 c 0.477951,-0.27594 0.640264,-0.88269 0.364319,-1.36064 -0.275945,-0.47795 -0.88269,-0.64078 -1.360641,-0.36483 l -0.322977,0.18655 a 2.8007783,2.8007783 0 0 0 -0.771012,-0.44545 v -0.37259 c 0,-0.55188 -0.444433,-0.9958 -0.996322,-0.9958 z"
         style="opacity:1;fill:none;fill-opacity:1;stroke:#35807e;stroke-width:0.05;stroke-linecap:round;stroke-linejoin:round;stroke-miterlimit:4;stroke-dasharray:none;stroke-opacity:0.02"
         id="path1051" />
      <path
         id="path1061"
         style="opacity:1;fill:none;fill-opacity:1;stroke:#35807e;stroke-width:0.1;stroke-linecap:round;stroke-linejoin:round;stroke-miterlimit:4;stroke-dasharray:none;stroke-opacity:0.02"
         d="m 25.467315,284.62413 c -0.551888,0 -0.995804,0.44392 -0.995804,0.9958 v 0.39584 a 2.8007783,2.8007783 0 0 0 -0.751376,0.43357 l -0.342614,-0.19792 c -0.477951,-0.27595 -1.084696,-0.11312 -1.360641,0.36483 -0.27594,0.47795 -0.113632,1.0847 0.364319,1.36064 l 0.342615,0.19792 a 2.8007783,2.8007783 0 0 0 -0.05684,0.43357 2.8007783,2.8007783 0 0 0 0.05684,0.43408 l -0.342615,0.19792 c -0.477951,0.27595 -0.640264,0.88269 -0.364319,1.36064 0.275945,0.47795 0.88269,0.64078 1.360641,0.36484 l 0.342614,-0.19792 a 2.8007783,2.8007783 0 0 0 0.751376,0.43356 v 0.39584 c 0,0.55189 0.443916,0.99581 0.995804,0.99581 0.551889,0 0.996322,-0.44392 0.996322,-0.99581 v -0.37258 a 2.8007783,2.8007783 0 0 0 0.771012,-0.44545 l 0.322977,0.18655 c 0.477951,0.27594 1.084701,0.1131 1.360641,-0.36484 0.275945,-0.47795 0.113632,-1.08469 -0.364319,-1.36064 l -0.322461,-0.18603 a 2.8007783,2.8007783 0 0 0 0.03669,-0.44597 2.8007783,2.8007783 0 0 0 -0.03669,-0.44493 l 0.322461,-0.18656 c 0.477951,-0.27594 0.640264,-0.88269 0.364319,-1.36064 -0.275945,-0.47795 -0.88269,-0.64078 -1.360641,-0.36483 l -0.322977,0.18655 a 2.8007783,2.8007783 0 0 0 -0.771012,-0.44545 v -0.37259 c 0,-0.55188 -0.444433,-0.9958 -0.996322,-0.9958 z" />
      <path
         d="m 25.467315,284.62413 c -0.551888,0 -0.995804,0.44392 -0.995804,0.9958 v 0.39584 a 2.8007783,2.8007783 0 0 0 -0.751376,0.43357 l -0.342614,-0.19792 c -0.477951,-0.27595 -1.084696,-0.11312 -1.360641,0.36483 -0.27594,0.47795 -0.113632,1.0847 0.364319,1.36064 l 0.342615,0.19792 a 2.8007783,2.8007783 0 0 0 -0.05684,0.43357 2.8007783,2.8007783 0 0 0 0.05684,0.43408 l -0.342615,0.19792 c -0.477951,0.27595 -0.640264,0.88269 -0.364319,1.36064 0.275945,0.47795 0.88269,0.64078 1.360641,0.36484 l 0.342614,-0.19792 a 2.8007783,2.8007783 0 0 0 0.751376,0.43356 v 0.39584 c 0,0.55189 0.443916,0.99581 0.995804,0.99581 0.551889,0 0.996322,-0.44392 0.996322,-0.99581 v -0.37258 a 2.8007783,2.8007783 0 0 0 0.771012,-0.44545 l 0.322977,0.18655 c 0.477951,0.27594 1.084701,0.1131 1.360641,-0.36484 0.275945,-0.47795 0.113632,-1.08469 -0.364319,-1.36064 l -0.322461,-0.18603 a 2.8007783,2.8007783 0 0 0 0.03669,-0.44597 2.8007783,2.8007783 0 0 0 -0.03669,-0.44493 l 0.322461,-0.18656 c 0.477951,-0.27594 0.640264,-0.88269 0.364319,-1.36064 -0.275945,-0.47795 -0.88269,-0.64078 -1.360641,-0.36483 l -0.322977,0.18655 a 2.8007783,2.8007783 0 0 0 -0.771012,-0.44545 v -0.37259 c 0,-0.55188 -0.444433,-0.9958 -0.996322,-0.9958 z"
         style="opacity:1;fill:none;fill-opacity:1;stroke:#35807e;stroke-width:0.15;stroke-linecap:round;stroke-linejoin:round;stroke-miterlimit:4;stroke-dasharray:none;stroke-opacity:0.02"
         id="path1063" />
      <path
         id="path1065"
         style="opacity:1;fill:none;fill-opacity:1;stroke:#35807e;stroke-width:0.2;stroke-linecap:round;stroke-linejoin:round;stroke-miterlimit:4;stroke-dasharray:none;stroke-opacity:0.02"
         d="m 25.467315,284.62413 c -0.551888,0 -0.995804,0.44392 -0.995804,0.9958 v 0.39584 a 2.8007783,2.8007783 0 0 0 -0.751376,0.43357 l -0.342614,-0.19792 c -0.477951,-0.27595 -1.084696,-0.11312 -1.360641,0.36483 -0.27594,0.47795 -0.113632,1.0847 0.364319,1.36064 l 0.342615,0.19792 a 2.8007783,2.8007783 0 0 0 -0.05684,0.43357 2.8007783,2.8007783 0 0 0 0.05684,0.43408 l -0.342615,0.19792 c -0.477951,0.27595 -0.640264,0.88269 -0.364319,1.36064 0.275945,0.47795 0.88269,0.64078 1.360641,0.36484 l 0.342614,-0.19792 a 2.8007783,2.8007783 0 0 0 0.751376,0.43356 v 0.39584 c 0,0.55189 0.443916,0.99581 0.995804,0.99581 0.551889,0 0.996322,-0.44392 0.996322,-0.99581 v -0.37258 a 2.8007783,2.8007783 0 0 0 0.771012,-0.44545 l 0.322977,0.18655 c 0.477951,0.27594 1.084701,0.1131 1.360641,-0.36484 0.275945,-0.47795 0.113632,-1.08469 -0.364319,-1.36064 l -0.322461,-0.18603 a 2.8007783,2.8007783 0 0 0 0.03669,-0.44597 2.8007783,2.8007783 0 0 0 -0.03669,-0.44493 l 0.322461,-0.18656 c 0.477951,-0.27594 0.640264,-0.88269 0.364319,-1.36064 -0.275945,-0.47795 -0.88269,-0.64078 -1.360641,-0.36483 l -0.322977,0.18655 a 2.8007783,2.8007783 0 0 0 -0.771012,-0.44545 v -0.37259 c 0,-0.55188 -0.444433,-0.9958 -0.996322,-0.9958 z" />
      <path
         d="m 25.467315,284.62413 c -0.551888,0 -0.995804,0.44392 -0.995804,0.9958 v 0.39584 a 2.8007783,2.8007783 0 0 0 -0.751376,0.43357 l -0.342614,-0.19792 c -0.477951,-0.27595 -1.084696,-0.11312 -1.360641,0.36483 -0.27594,0.47795 -0.113632,1.0847 0.364319,1.36064 l 0.342615,0.19792 a 2.8007783,2.8007783 0 0 0 -0.05684,0.43357 2.8007783,2.8007783 0 0 0 0.05684,0.43408 l -0.342615,0.19792 c -0.477951,0.27595 -0.640264,0.88269 -0.364319,1.36064 0.275945,0.47795 0.88269,0.64078 1.360641,0.36484 l 0.342614,-0.19792 a 2.8007783,2.8007783 0 0 0 0.751376,0.43356 v 0.39584 c 0,0.55189 0.443916,0.99581 0.995804,0.99581 0.551889,0 0.996322,-0.44392 0.996322,-0.99581 v -0.37258 a 2.8007783,2.8007783 0 0 0 0.771012,-0.44545 l 0.322977,0.18655 c 0.477951,0.27594 1.084701,0.1131 1.360641,-0.36484 0.275945,-0.47795 0.113632,-1.08469 -0.364319,-1.36064 l -0.322461,-0.18603 a 2.8007783,2.8007783 0 0 0 0.03669,-0.44597 2.8007783,2.8007783 0 0 0 -0.03669,-0.44493 l 0.322461,-0.18656 c 0.477951,-0.27594 0.640264,-0.88269 0.364319,-1.36064 -0.275945,-0.47795 -0.88269,-0.64078 -1.360641,-0.36483 l -0.322977,0.18655 a 2.8007783,2.8007783 0 0 0 -0.771012,-0.44545 v -0.37259 c 0,-0.55188 -0.444433,-0.9958 -0.996322,-0.9958 z"
         style="opacity:1;fill:none;fill-opacity:1;stroke:#35807e;stroke-width:0.25;stroke-linecap:round;stroke-linejoin:round;stroke-miterlimit:4;stroke-dasharray:none;stroke-opacity:0.02"
         id="path1067" />
      <path
         id="path1069"
         style="opacity:1;fill:none;fill-opacity:1;stroke:#35807e;stroke-width:0.3;stroke-linecap:round;stroke-linejoin:round;stroke-miterlimit:4;stroke-dasharray:none;stroke-opacity:0.02"
         d="m 25.467315,284.62413 c -0.551888,0 -0.995804,0.44392 -0.995804,0.9958 v 0.39584 a 2.8007783,2.8007783 0 0 0 -0.751376,0.43357 l -0.342614,-0.19792 c -0.477951,-0.27595 -1.084696,-0.11312 -1.360641,0.36483 -0.27594,0.47795 -0.113632,1.0847 0.364319,1.36064 l 0.342615,0.19792 a 2.8007783,2.8007783 0 0 0 -0.05684,0.43357 2.8007783,2.8007783 0 0 0 0.05684,0.43408 l -0.342615,0.19792 c -0.477951,0.27595 -0.640264,0.88269 -0.364319,1.36064 0.275945,0.47795 0.88269,0.64078 1.360641,0.36484 l 0.342614,-0.19792 a 2.8007783,2.8007783 0 0 0 0.751376,0.43356 v 0.39584 c 0,0.55189 0.443916,0.99581 0.995804,0.99581 0.551889,0 0.996322,-0.44392 0.996322,-0.99581 v -0.37258 a 2.8007783,2.8007783 0 0 0 0.771012,-0.44545 l 0.322977,0.18655 c 0.477951,0.27594 1.084701,0.1131 1.360641,-0.36484 0.275945,-0.47795 0.113632,-1.08469 -0.364319,-1.36064 l -0.322461,-0.18603 a 2.8007783,2.8007783 0 0 0 0.03669,-0.44597 2.8007783,2.8007783 0 0 0 -0.03669,-0.44493 l 0.322461,-0.18656 c 0.477951,-0.27594 0.640264,-0.88269 0.364319,-1.36064 -0.275945,-0.47795 -0.88269,-0.64078 -1.360641,-0.36483 l -0.322977,0.18655 a 2.8007783,2.8007783 0 0 0 -0.771012,-0.44545 v -0.37259 c 0,-0.55188 -0.444433,-0.9958 -0.996322,-0.9958 z" />
      <path
         d="m 25.467315,284.62413 c -0.551888,0 -0.995804,0.44392 -0.995804,0.9958 v 0.39584 a 2.8007783,2.8007783 0 0 0 -0.751376,0.43357 l -0.342614,-0.19792 c -0.477951,-0.27595 -1.084696,-0.11312 -1.360641,0.36483 -0.27594,0.47795 -0.113632,1.0847 0.364319,1.36064 l 0.342615,0.19792 a 2.8007783,2.8007783 0 0 0 -0.05684,0.43357 2.8007783,2.8007783 0 0 0 0.05684,0.43408 l -0.342615,0.19792 c -0.477951,0.27595 -0.640264,0.88269 -0.364319,1.36064 0.275945,0.47795 0.88269,0.64078 1.360641,0.36484 l 0.342614,-0.19792 a 2.8007783,2.8007783 0 0 0 0.751376,0.43356 v 0.39584 c 0,0.55189 0.443916,0.99581 0.995804,0.99581 0.551889,0 0.996322,-0.44392 0.996322,-0.99581 v -0.37258 a 2.8007783,2.8007783 0 0 0 0.771012,-0.44545 l 0.322977,0.18655 c 0.477951,0.27594 1.084701,0.1131 1.360641,-0.36484 0.275945,-0.47795 0.113632,-1.08469 -0.364319,-1.36064 l -0.322461,-0.18603 a 2.8007783,2.8007783 0 0 0 0.03669,-0.44597 2.8007783,2.8007783 0 0 0 -0.03669,-0.44493 l 0.322461,-0.18656 c 0.477951,-0.27594 0.640264,-0.88269 0.364319,-1.36064 -0.275945,-0.47795 -0.88269,-0.64078 -1.360641,-0.36483 l -0.322977,0.18655 a 2.8007783,2.8007783 0 0 0 -0.771012,-0.44545 v -0.37259 c 0,-0.55188 -0.444433,-0.9958 -0.996322,-0.9958 z"
         style="opacity:1;fill:none;fill-opacity:1;stroke:#35807e;stroke-width:0.35;stroke-linecap:round;stroke-linejoin:round;stroke-miterlimit:4;stroke-dasharray:none;stroke-opacity:0.02"
         id="path1071" />
      <path
         id="path1073"
         style="opacity:1;fill:none;fill-opacity:1;stroke:#35807e;stroke-width:0.4;stroke-linecap:round;stroke-linejoin:round;stroke-miterlimit:4;stroke-dasharray:none;stroke-opacity:0.02"
         d="m 25.467315,284.62413 c -0.551888,0 -0.995804,0.44392 -0.995804,0.9958 v 0.39584 a 2.8007783,2.8007783 0 0 0 -0.751376,0.43357 l -0.342614,-0.19792 c -0.477951,-0.27595 -1.084696,-0.11312 -1.360641,0.36483 -0.27594,0.47795 -0.113632,1.0847 0.364319,1.36064 l 0.342615,0.19792 a 2.8007783,2.8007783 0 0 0 -0.05684,0.43357 2.8007783,2.8007783 0 0 0 0.05684,0.43408 l -0.342615,0.19792 c -0.477951,0.27595 -0.640264,0.88269 -0.364319,1.36064 0.275945,0.47795 0.88269,0.64078 1.360641,0.36484 l 0.342614,-0.19792 a 2.8007783,2.8007783 0 0 0 0.751376,0.43356 v 0.39584 c 0,0.55189 0.443916,0.99581 0.995804,0.99581 0.551889,0 0.996322,-0.44392 0.996322,-0.99581 v -0.37258 a 2.8007783,2.8007783 0 0 0 0.771012,-0.44545 l 0.322977,0.18655 c 0.477951,0.27594 1.084701,0.1131 1.360641,-0.36484 0.275945,-0.47795 0.113632,-1.08469 -0.364319,-1.36064 l -0.322461,-0.18603 a 2.8007783,2.8007783 0 0 0 0.03669,-0.44597 2.8007783,2.8007783 0 0 0 -0.03669,-0.44493 l 0.322461,-0.18656 c 0.477951,-0.27594 0.640264,-0.88269 0.364319,-1.36064 -0.275945,-0.47795 -0.88269,-0.64078 -1.360641,-0.36483 l -0.322977,0.18655 a 2.8007783,2.8007783 0 0 0 -0.771012,-0.44545 v -0.37259 c 0,-0.55188 -0.444433,-0.9958 -0.996322,-0.9958 z" />
      <path
         d="m 25.467315,284.62413 c -0.551888,0 -0.995804,0.44392 -0.995804,0.9958 v 0.39584 a 2.8007783,2.8007783 0 0 0 -0.751376,0.43357 l -0.342614,-0.19792 c -0.477951,-0.27595 -1.084696,-0.11312 -1.360641,0.36483 -0.27594,0.47795 -0.113632,1.0847 0.364319,1.36064 l 0.342615,0.19792 a 2.8007783,2.8007783 0 0 0 -0.05684,0.43357 2.8007783,2.8007783 0 0 0 0.05684,0.43408 l -0.342615,0.19792 c -0.477951,0.27595 -0.640264,0.88269 -0.364319,1.36064 0.275945,0.47795 0.88269,0.64078 1.360641,0.36484 l 0.342614,-0.19792 a 2.8007783,2.8007783 0 0 0 0.751376,0.43356 v 0.39584 c 0,0.55189 0.443916,0.99581 0.995804,0.99581 0.551889,0 0.996322,-0.44392 0.996322,-0.99581 v -0.37258 a 2.8007783,2.8007783 0 0 0 0.771012,-0.44545 l 0.322977,0.18655 c 0.477951,0.27594 1.084701,0.1131 1.360641,-0.36484 0.275945,-0.47795 0.113632,-1.08469 -0.364319,-1.36064 l -0.322461,-0.18603 a 2.8007783,2.8007783 0 0 0 0.03669,-0.44597 2.8007783,2.8007783 0 0 0 -0.03669,-0.44493 l 0.322461,-0.18656 c 0.477951,-0.27594 0.640264,-0.88269 0.364319,-1.36064 -0.275945,-0.47795 -0.88269,-0.64078 -1.360641,-0.36483 l -0.322977,0.18655 a 2.8007783,2.8007783 0 0 0 -0.771012,-0.44545 v -0.37259 c 0,-0.55188 -0.444433,-0.9958 -0.996322,-0.9958 z"
         style="opacity:1;fill:none;fill-opacity:1;stroke:#35807e;stroke-width:0.45;stroke-linecap:round;stroke-linejoin:round;stroke-miterlimit:4;stroke-dasharray:none;stroke-opacity:0.02"
         id="path1075" />
      <path
         id="path1077"
         style="opacity:1;fill:none;fill-opacity:1;stroke:#35807e;stroke-width:0.5;stroke-linecap:round;stroke-linejoin:round;stroke-miterlimit:4;stroke-dasharray:none;stroke-opacity:0.02"
         d="m 25.467315,284.62413 c -0.551888,0 -0.995804,0.44392 -0.995804,0.9958 v 0.39584 a 2.8007783,2.8007783 0 0 0 -0.751376,0.43357 l -0.342614,-0.19792 c -0.477951,-0.27595 -1.084696,-0.11312 -1.360641,0.36483 -0.27594,0.47795 -0.113632,1.0847 0.364319,1.36064 l 0.342615,0.19792 a 2.8007783,2.8007783 0 0 0 -0.05684,0.43357 2.8007783,2.8007783 0 0 0 0.05684,0.43408 l -0.342615,0.19792 c -0.477951,0.27595 -0.640264,0.88269 -0.364319,1.36064 0.275945,0.47795 0.88269,0.64078 1.360641,0.36484 l 0.342614,-0.19792 a 2.8007783,2.8007783 0 0 0 0.751376,0.43356 v 0.39584 c 0,0.55189 0.443916,0.99581 0.995804,0.99581 0.551889,0 0.996322,-0.44392 0.996322,-0.99581 v -0.37258 a 2.8007783,2.8007783 0 0 0 0.771012,-0.44545 l 0.322977,0.18655 c 0.477951,0.27594 1.084701,0.1131 1.360641,-0.36484 0.275945,-0.47795 0.113632,-1.08469 -0.364319,-1.36064 l -0.322461,-0.18603 a 2.8007783,2.8007783 0 0 0 0.03669,-0.44597 2.8007783,2.8007783 0 0 0 -0.03669,-0.44493 l 0.322461,-0.18656 c 0.477951,-0.27594 0.640264,-0.88269 0.364319,-1.36064 -0.275945,-0.47795 -0.88269,-0.64078 -1.360641,-0.36483 l -0.322977,0.18655 a 2.8007783,2.8007783 0 0 0 -0.771012,-0.44545 v -0.37259 c 0,-0.55188 -0.444433,-0.9958 -0.996322,-0.9958 z" />
      <path
         d="m 25.467315,284.62413 c -0.551888,0 -0.995804,0.44392 -0.995804,0.9958 v 0.39584 a 2.8007783,2.8007783 0 0 0 -0.751376,0.43357 l -0.342614,-0.19792 c -0.477951,-0.27595 -1.084696,-0.11312 -1.360641,0.36483 -0.27594,0.47795 -0.113632,1.0847 0.364319,1.36064 l 0.342615,0.19792 a 2.8007783,2.8007783 0 0 0 -0.05684,0.43357 2.8007783,2.8007783 0 0 0 0.05684,0.43408 l -0.342615,0.19792 c -0.477951,0.27595 -0.640264,0.88269 -0.364319,1.36064 0.275945,0.47795 0.88269,0.64078 1.360641,0.36484 l 0.342614,-0.19792 a 2.8007783,2.8007783 0 0 0 0.751376,0.43356 v 0.39584 c 0,0.55189 0.443916,0.99581 0.995804,0.99581 0.551889,0 0.996322,-0.44392 0.996322,-0.99581 v -0.37258 a 2.8007783,2.8007783 0 0 0 0.771012,-0.44545 l 0.322977,0.18655 c 0.477951,0.27594 1.084701,0.1131 1.360641,-0.36484 0.275945,-0.47795 0.113632,-1.08469 -0.364319,-1.36064 l -0.322461,-0.18603 a 2.8007783,2.8007783 0 0 0 0.03669,-0.44597 2.8007783,2.8007783 0 0 0 -0.03669,-0.44493 l 0.322461,-0.18656 c 0.477951,-0.27594 0.640264,-0.88269 0.364319,-1.36064 -0.275945,-0.47795 -0.88269,-0.64078 -1.360641,-0.36483 l -0.322977,0.18655 a 2.8007783,2.8007783 0 0 0 -0.771012,-0.44545 v -0.37259 c 0,-0.55188 -0.444433,-0.9958 -0.996322,-0.9958 z"
         style="opacity:1;fill:none;fill-opacity:1;stroke:#35807e;stroke-width:0.55;stroke-linecap:round;stroke-linejoin:round;stroke-miterlimit:4;stroke-dasharray:none;stroke-opacity:0.02"
         id="path1079" />
      <path
         id="path1081"
         style="opacity:1;fill:none;fill-opacity:1;stroke:#35807e;stroke-width:0.6;stroke-linecap:round;stroke-linejoin:round;stroke-miterlimit:4;stroke-dasharray:none;stroke-opacity:0.02"
         d="m 25.467315,284.62413 c -0.551888,0 -0.995804,0.44392 -0.995804,0.9958 v 0.39584 a 2.8007783,2.8007783 0 0 0 -0.751376,0.43357 l -0.342614,-0.19792 c -0.477951,-0.27595 -1.084696,-0.11312 -1.360641,0.36483 -0.27594,0.47795 -0.113632,1.0847 0.364319,1.36064 l 0.342615,0.19792 a 2.8007783,2.8007783 0 0 0 -0.05684,0.43357 2.8007783,2.8007783 0 0 0 0.05684,0.43408 l -0.342615,0.19792 c -0.477951,0.27595 -0.640264,0.88269 -0.364319,1.36064 0.275945,0.47795 0.88269,0.64078 1.360641,0.36484 l 0.342614,-0.19792 a 2.8007783,2.8007783 0 0 0 0.751376,0.43356 v 0.39584 c 0,0.55189 0.443916,0.99581 0.995804,0.99581 0.551889,0 0.996322,-0.44392 0.996322,-0.99581 v -0.37258 a 2.8007783,2.8007783 0 0 0 0.771012,-0.44545 l 0.322977,0.18655 c 0.477951,0.27594 1.084701,0.1131 1.360641,-0.36484 0.275945,-0.47795 0.113632,-1.08469 -0.364319,-1.36064 l -0.322461,-0.18603 a 2.8007783,2.8007783 0 0 0 0.03669,-0.44597 2.8007783,2.8007783 0 0 0 -0.03669,-0.44493 l 0.322461,-0.18656 c 0.477951,-0.27594 0.640264,-0.88269 0.364319,-1.36064 -0.275945,-0.47795 -0.88269,-0.64078 -1.360641,-0.36483 l -0.322977,0.18655 a 2.8007783,2.8007783 0 0 0 -0.771012,-0.44545 v -0.37259 c 0,-0.55188 -0.444433,-0.9958 -0.996322,-0.9958 z" />
      <path
         d="m 25.467315,284.62413 c -0.551888,0 -0.995804,0.44392 -0.995804,0.9958 v 0.39584 a 2.8007783,2.8007783 0 0 0 -0.751376,0.43357 l -0.342614,-0.19792 c -0.477951,-0.27595 -1.084696,-0.11312 -1.360641,0.36483 -0.27594,0.47795 -0.113632,1.0847 0.364319,1.36064 l 0.342615,0.19792 a 2.8007783,2.8007783 0 0 0 -0.05684,0.43357 2.8007783,2.8007783 0 0 0 0.05684,0.43408 l -0.342615,0.19792 c -0.477951,0.27595 -0.640264,0.88269 -0.364319,1.36064 0.275945,0.47795 0.88269,0.64078 1.360641,0.36484 l 0.342614,-0.19792 a 2.8007783,2.8007783 0 0 0 0.751376,0.43356 v 0.39584 c 0,0.55189 0.443916,0.99581 0.995804,0.99581 0.551889,0 0.996322,-0.44392 0.996322,-0.99581 v -0.37258 a 2.8007783,2.8007783 0 0 0 0.771012,-0.44545 l 0.322977,0.18655 c 0.477951,0.27594 1.084701,0.1131 1.360641,-0.36484 0.275945,-0.47795 0.113632,-1.08469 -0.364319,-1.36064 l -0.322461,-0.18603 a 2.8007783,2.8007783 0 0 0 0.03669,-0.44597 2.8007783,2.8007783 0 0 0 -0.03669,-0.44493 l 0.322461,-0.18656 c 0.477951,-0.27594 0.640264,-0.88269 0.364319,-1.36064 -0.275945,-0.47795 -0.88269,-0.64078 -1.360641,-0.36483 l -0.322977,0.18655 a 2.8007783,2.8007783 0 0 0 -0.771012,-0.44545 v -0.37259 c 0,-0.55188 -0.444433,-0.9958 -0.996322,-0.9958 z"
         style="opacity:1;fill:none;fill-opacity:1;stroke:#35807e;stroke-width:0.7;stroke-linecap:round;stroke-linejoin:round;stroke-miterlimit:4;stroke-dasharray:none;stroke-opacity:0.02"
         id="path1083" />
      <path
         id="path1085"
         style="opacity:1;fill:none;fill-opacity:1;stroke:#35807e;stroke-width:0.8;stroke-linecap:round;stroke-linejoin:round;stroke-miterlimit:4;stroke-dasharray:none;stroke-opacity:0.02"
         d="m 25.467315,284.62413 c -0.551888,0 -0.995804,0.44392 -0.995804,0.9958 v 0.39584 a 2.8007783,2.8007783 0 0 0 -0.751376,0.43357 l -0.342614,-0.19792 c -0.477951,-0.27595 -1.084696,-0.11312 -1.360641,0.36483 -0.27594,0.47795 -0.113632,1.0847 0.364319,1.36064 l 0.342615,0.19792 a 2.8007783,2.8007783 0 0 0 -0.05684,0.43357 2.8007783,2.8007783 0 0 0 0.05684,0.43408 l -0.342615,0.19792 c -0.477951,0.27595 -0.640264,0.88269 -0.364319,1.36064 0.275945,0.47795 0.88269,0.64078 1.360641,0.36484 l 0.342614,-0.19792 a 2.8007783,2.8007783 0 0 0 0.751376,0.43356 v 0.39584 c 0,0.55189 0.443916,0.99581 0.995804,0.99581 0.551889,0 0.996322,-0.44392 0.996322,-0.99581 v -0.37258 a 2.8007783,2.8007783 0 0 0 0.771012,-0.44545 l 0.322977,0.18655 c 0.477951,0.27594 1.084701,0.1131 1.360641,-0.36484 0.275945,-0.47795 0.113632,-1.08469 -0.364319,-1.36064 l -0.322461,-0.18603 a 2.8007783,2.8007783 0 0 0 0.03669,-0.44597 2.8007783,2.8007783 0 0 0 -0.03669,-0.44493 l 0.322461,-0.18656 c 0.477951,-0.27594 0.640264,-0.88269 0.364319,-1.36064 -0.275945,-0.47795 -0.88269,-0.64078 -1.360641,-0.36483 l -0.322977,0.18655 a 2.8007783,2.8007783 0 0 0 -0.771012,-0.44545 v -0.37259 c 0,-0.55188 -0.444433,-0.9958 -0.996322,-0.9958 z" />
      <path
         d="m 25.467315,284.62413 c -0.551888,0 -0.995804,0.44392 -0.995804,0.9958 v 0.39584 a 2.8007783,2.8007783 0 0 0 -0.751376,0.43357 l -0.342614,-0.19792 c -0.477951,-0.27595 -1.084696,-0.11312 -1.360641,0.36483 -0.27594,0.47795 -0.113632,1.0847 0.364319,1.36064 l 0.342615,0.19792 a 2.8007783,2.8007783 0 0 0 -0.05684,0.43357 2.8007783,2.8007783 0 0 0 0.05684,0.43408 l -0.342615,0.19792 c -0.477951,0.27595 -0.640264,0.88269 -0.364319,1.36064 0.275945,0.47795 0.88269,0.64078 1.360641,0.36484 l 0.342614,-0.19792 a 2.8007783,2.8007783 0 0 0 0.751376,0.43356 v 0.39584 c 0,0.55189 0.443916,0.99581 0.995804,0.99581 0.551889,0 0.996322,-0.44392 0.996322,-0.99581 v -0.37258 a 2.8007783,2.8007783 0 0 0 0.771012,-0.44545 l 0.322977,0.18655 c 0.477951,0.27594 1.084701,0.1131 1.360641,-0.36484 0.275945,-0.47795 0.113632,-1.08469 -0.364319,-1.36064 l -0.322461,-0.18603 a 2.8007783,2.8007783 0 0 0 0.03669,-0.44597 2.8007783,2.8007783 0 0 0 -0.03669,-0.44493 l 0.322461,-0.18656 c 0.477951,-0.27594 0.640264,-0.88269 0.364319,-1.36064 -0.275945,-0.47795 -0.88269,-0.64078 -1.360641,-0.36483 l -0.322977,0.18655 a 2.8007783,2.8007783 0 0 0 -0.771012,-0.44545 v -0.37259 c 0,-0.55188 -0.444433,-0.9958 -0.996322,-0.9958 z"
         style="opacity:1;fill:none;fill-opacity:1;stroke:#35807e;stroke-width:0.9;stroke-linecap:round;stroke-linejoin:round;stroke-miterlimit:4;stroke-dasharray:none;stroke-opacity:0.02"
         id="path1087" />
      <path
         id="path1089"
         style="opacity:1;fill:none;fill-opacity:1;stroke:#35807e;stroke-width:1;stroke-linecap:round;stroke-linejoin:round;stroke-miterlimit:4;stroke-dasharray:none;stroke-opacity:0.02"
         d="m 25.467315,284.62413 c -0.551888,0 -0.995804,0.44392 -0.995804,0.9958 v 0.39584 a 2.8007783,2.8007783 0 0 0 -0.751376,0.43357 l -0.342614,-0.19792 c -0.477951,-0.27595 -1.084696,-0.11312 -1.360641,0.36483 -0.27594,0.47795 -0.113632,1.0847 0.364319,1.36064 l 0.342615,0.19792 a 2.8007783,2.8007783 0 0 0 -0.05684,0.43357 2.8007783,2.8007783 0 0 0 0.05684,0.43408 l -0.342615,0.19792 c -0.477951,0.27595 -0.640264,0.88269 -0.364319,1.36064 0.275945,0.47795 0.88269,0.64078 1.360641,0.36484 l 0.342614,-0.19792 a 2.8007783,2.8007783 0 0 0 0.751376,0.43356 v 0.39584 c 0,0.55189 0.443916,0.99581 0.995804,0.99581 0.551889,0 0.996322,-0.44392 0.996322,-0.99581 v -0.37258 a 2.8007783,2.8007783 0 0 0 0.771012,-0.44545 l 0.322977,0.18655 c 0.477951,0.27594 1.084701,0.1131 1.360641,-0.36484 0.275945,-0.47795 0.113632,-1.08469 -0.364319,-1.36064 l -0.322461,-0.18603 a 2.8007783,2.8007783 0 0 0 0.03669,-0.44597 2.8007783,2.8007783 0 0 0 -0.03669,-0.44493 l 0.322461,-0.18656 c 0.477951,-0.27594 0.640264,-0.88269 0.364319,-1.36064 -0.275945,-0.47795 -0.88269,-0.64078 -1.360641,-0.36483 l -0.322977,0.18655 a 2.8007783,2.8007783 0 0 0 -0.771012,-0.44545 v -0.37259 c 0,-0.55188 -0.444433,-0.9958 -0.996322,-0.9958 z" />
      <path
         d="m 25.467315,284.62413 c -0.551888,0 -0.995804,0.44392 -0.995804,0.9958 v 0.39584 a 2.8007783,2.8007783 0 0 0 -0.751376,0.43357 l -0.342614,-0.19792 c -0.477951,-0.27595 -1.084696,-0.11312 -1.360641,0.36483 -0.27594,0.47795 -0.113632,1.0847 0.364319,1.36064 l 0.342615,0.19792 a 2.8007783,2.8007783 0 0 0 -0.05684,0.43357 2.8007783,2.8007783 0 0 0 0.05684,0.43408 l -0.342615,0.19792 c -0.477951,0.27595 -0.640264,0.88269 -0.364319,1.36064 0.275945,0.47795 0.88269,0.64078 1.360641,0.36484 l 0.342614,-0.19792 a 2.8007783,2.8007783 0 0 0 0.751376,0.43356 v 0.39584 c 0,0.55189 0.443916,0.99581 0.995804,0.99581 0.551889,0 0.996322,-0.44392 0.996322,-0.99581 v -0.37258 a 2.8007783,2.8007783 0 0 0 0.771012,-0.44545 l 0.322977,0.18655 c 0.477951,0.27594 1.084701,0.1131 1.360641,-0.36484 0.275945,-0.47795 0.113632,-1.08469 -0.364319,-1.36064 l -0.322461,-0.18603 a 2.8007783,2.8007783 0 0 0 0.03669,-0.44597 2.8007783,2.8007783 0 0 0 -0.03669,-0.44493 l 0.322461,-0.18656 c 0.477951,-0.27594 0.640264,-0.88269 0.364319,-1.36064 -0.275945,-0.47795 -0.88269,-0.64078 -1.360641,-0.36483 l -0.322977,0.18655 a 2.8007783,2.8007783 0 0 0 -0.771012,-0.44545 v -0.37259 c 0,-0.55188 -0.444433,-0.9958 -0.996322,-0.9958 z"
         style="opacity:1;fill:none;fill-opacity:1;stroke:#35807e;stroke-width:1.1;stroke-linecap:round;stroke-linejoin:round;stroke-miterlimit:4;stroke-dasharray:none;stroke-opacity:0.02"
         id="path1091" />
      <path
         id="path1093"
         style="opacity:1;fill:none;fill-opacity:1;stroke:#35807e;stroke-width:1.2;stroke-linecap:round;stroke-linejoin:round;stroke-miterlimit:4;stroke-dasharray:none;stroke-opacity:0.02"
         d="m 25.467315,284.62413 c -0.551888,0 -0.995804,0.44392 -0.995804,0.9958 v 0.39584 a 2.8007783,2.8007783 0 0 0 -0.751376,0.43357 l -0.342614,-0.19792 c -0.477951,-0.27595 -1.084696,-0.11312 -1.360641,0.36483 -0.27594,0.47795 -0.113632,1.0847 0.364319,1.36064 l 0.342615,0.19792 a 2.8007783,2.8007783 0 0 0 -0.05684,0.43357 2.8007783,2.8007783 0 0 0 0.05684,0.43408 l -0.342615,0.19792 c -0.477951,0.27595 -0.640264,0.88269 -0.364319,1.36064 0.275945,0.47795 0.88269,0.64078 1.360641,0.36484 l 0.342614,-0.19792 a 2.8007783,2.8007783 0 0 0 0.751376,0.43356 v 0.39584 c 0,0.55189 0.443916,0.99581 0.995804,0.99581 0.551889,0 0.996322,-0.44392 0.996322,-0.99581 v -0.37258 a 2.8007783,2.8007783 0 0 0 0.771012,-0.44545 l 0.322977,0.18655 c 0.477951,0.27594 1.084701,0.1131 1.360641,-0.36484 0.275945,-0.47795 0.113632,-1.08469 -0.364319,-1.36064 l -0.322461,-0.18603 a 2.8007783,2.8007783 0 0 0 0.03669,-0.44597 2.8007783,2.8007783 0 0 0 -0.03669,-0.44493 l 0.322461,-0.18656 c 0.477951,-0.27594 0.640264,-0.88269 0.364319,-1.36064 -0.275945,-0.47795 -0.88269,-0.64078 -1.360641,-0.36483 l -0.322977,0.18655 a 2.8007783,2.8007783 0 0 0 -0.771012,-0.44545 v -0.37259 c 0,-0.55188 -0.444433,-0.9958 -0.996322,-0.9958 z" />
      <path
         d="m 25.467315,284.62413 c -0.551888,0 -0.995804,0.44392 -0.995804,0.9958 v 0.39584 a 2.8007783,2.8007783 0 0 0 -0.751376,0.43357 l -0.342614,-0.19792 c -0.477951,-0.27595 -1.084696,-0.11312 -1.360641,0.36483 -0.27594,0.47795 -0.113632,1.0847 0.364319,1.36064 l 0.342615,0.19792 a 2.8007783,2.8007783 0 0 0 -0.05684,0.43357 2.8007783,2.8007783 0 0 0 0.05684,0.43408 l -0.342615,0.19792 c -0.477951,0.27595 -0.640264,0.88269 -0.364319,1.36064 0.275945,0.47795 0.88269,0.64078 1.360641,0.36484 l 0.342614,-0.19792 a 2.8007783,2.8007783 0 0 0 0.751376,0.43356 v 0.39584 c 0,0.55189 0.443916,0.99581 0.995804,0.99581 0.551889,0 0.996322,-0.44392 0.996322,-0.99581 v -0.37258 a 2.8007783,2.8007783 0 0 0 0.771012,-0.44545 l 0.322977,0.18655 c 0.477951,0.27594 1.084701,0.1131 1.360641,-0.36484 0.275945,-0.47795 0.113632,-1.08469 -0.364319,-1.36064 l -0.322461,-0.18603 a 2.8007783,2.8007783 0 0 0 0.03669,-0.44597 2.8007783,2.8007783 0 0 0 -0.03669,-0.44493 l 0.322461,-0.18656 c 0.477951,-0.27594 0.640264,-0.88269 0.364319,-1.36064 -0.275945,-0.47795 -0.88269,-0.64078 -1.360641,-0.36483 l -0.322977,0.18655 a 2.8007783,2.8007783 0 0 0 -0.771012,-0.44545 v -0.37259 c 0,-0.55188 -0.444433,-0.9958 -0.996322,-0.9958 z"
         style="opacity:1;fill:none;fill-opacity:1;stroke:#35807e;stroke-width:1.3;stroke-linecap:round;stroke-linejoin:round;stroke-miterlimit:4;stroke-dasharray:none;stroke-opacity:0.02"
         id="path1095" />
      <path
         id="path1097"
         style="opacity:1;fill:none;fill-opacity:1;stroke:#35807e;stroke-width:1.4;stroke-linecap:round;stroke-linejoin:round;stroke-miterlimit:4;stroke-dasharray:none;stroke-opacity:0.02"
         d="m 25.467315,284.62413 c -0.551888,0 -0.995804,0.44392 -0.995804,0.9958 v 0.39584 a 2.8007783,2.8007783 0 0 0 -0.751376,0.43357 l -0.342614,-0.19792 c -0.477951,-0.27595 -1.084696,-0.11312 -1.360641,0.36483 -0.27594,0.47795 -0.113632,1.0847 0.364319,1.36064 l 0.342615,0.19792 a 2.8007783,2.8007783 0 0 0 -0.05684,0.43357 2.8007783,2.8007783 0 0 0 0.05684,0.43408 l -0.342615,0.19792 c -0.477951,0.27595 -0.640264,0.88269 -0.364319,1.36064 0.275945,0.47795 0.88269,0.64078 1.360641,0.36484 l 0.342614,-0.19792 a 2.8007783,2.8007783 0 0 0 0.751376,0.43356 v 0.39584 c 0,0.55189 0.443916,0.99581 0.995804,0.99581 0.551889,0 0.996322,-0.44392 0.996322,-0.99581 v -0.37258 a 2.8007783,2.8007783 0 0 0 0.771012,-0.44545 l 0.322977,0.18655 c 0.477951,0.27594 1.084701,0.1131 1.360641,-0.36484 0.275945,-0.47795 0.113632,-1.08469 -0.364319,-1.36064 l -0.322461,-0.18603 a 2.8007783,2.8007783 0 0 0 0.03669,-0.44597 2.8007783,2.8007783 0 0 0 -0.03669,-0.44493 l 0.322461,-0.18656 c 0.477951,-0.27594 0.640264,-0.88269 0.364319,-1.36064 -0.275945,-0.47795 -0.88269,-0.64078 -1.360641,-0.36483 l -0.322977,0.18655 a 2.8007783,2.8007783 0 0 0 -0.771012,-0.44545 v -0.37259 c 0,-0.55188 -0.444433,-0.9958 -0.996322,-0.9958 z" />
      <path
         d="m 25.467315,284.62413 c -0.551888,0 -0.995804,0.44392 -0.995804,0.9958 v 0.39584 a 2.8007783,2.8007783 0 0 0 -0.751376,0.43357 l -0.342614,-0.19792 c -0.477951,-0.27595 -1.084696,-0.11312 -1.360641,0.36483 -0.27594,0.47795 -0.113632,1.0847 0.364319,1.36064 l 0.342615,0.19792 a 2.8007783,2.8007783 0 0 0 -0.05684,0.43357 2.8007783,2.8007783 0 0 0 0.05684,0.43408 l -0.342615,0.19792 c -0.477951,0.27595 -0.640264,0.88269 -0.364319,1.36064 0.275945,0.47795 0.88269,0.64078 1.360641,0.36484 l 0.342614,-0.19792 a 2.8007783,2.8007783 0 0 0 0.751376,0.43356 v 0.39584 c 0,0.55189 0.443916,0.99581 0.995804,0.99581 0.551889,0 0.996322,-0.44392 0.996322,-0.99581 v -0.37258 a 2.8007783,2.8007783 0 0 0 0.771012,-0.44545 l 0.322977,0.18655 c 0.477951,0.27594 1.084701,0.1131 1.360641,-0.36484 0.275945,-0.47795 0.113632,-1.08469 -0.364319,-1.36064 l -0.322461,-0.18603 a 2.8007783,2.8007783 0 0 0 0.03669,-0.44597 2.8007783,2.8007783 0 0 0 -0.03669,-0.44493 l 0.322461,-0.18656 c 0.477951,-0.27594 0.640264,-0.88269 0.364319,-1.36064 -0.275945,-0.47795 -0.88269,-0.64078 -1.360641,-0.36483 l -0.322977,0.18655 a 2.8007783,2.8007783 0 0 0 -0.771012,-0.44545 v -0.37259 c 0,-0.55188 -0.444433,-0.9958 -0.996322,-0.9958 z"
         style="opacity:1;fill:none;fill-opacity:1;stroke:#35807e;stroke-width:1.5;stroke-linecap:round;stroke-linejoin:round;stroke-miterlimit:4;stroke-dasharray:none;stroke-opacity:0.02"
         id="path1099" />
      <path
         id="path1101"
         style="opacity:1;fill:none;fill-opacity:1;stroke:#35807e;stroke-width:1.7;stroke-linecap:round;stroke-linejoin:round;stroke-miterlimit:4;stroke-dasharray:none;stroke-opacity:0.02"
         d="m 25.467315,284.62413 c -0.551888,0 -0.995804,0.44392 -0.995804,0.9958 v 0.39584 a 2.8007783,2.8007783 0 0 0 -0.751376,0.43357 l -0.342614,-0.19792 c -0.477951,-0.27595 -1.084696,-0.11312 -1.360641,0.36483 -0.27594,0.47795 -0.113632,1.0847 0.364319,1.36064 l 0.342615,0.19792 a 2.8007783,2.8007783 0 0 0 -0.05684,0.43357 2.8007783,2.8007783 0 0 0 0.05684,0.43408 l -0.342615,0.19792 c -0.477951,0.27595 -0.640264,0.88269 -0.364319,1.36064 0.275945,0.47795 0.88269,0.64078 1.360641,0.36484 l 0.342614,-0.19792 a 2.8007783,2.8007783 0 0 0 0.751376,0.43356 v 0.39584 c 0,0.55189 0.443916,0.99581 0.995804,0.99581 0.551889,0 0.996322,-0.44392 0.996322,-0.99581 v -0.37258 a 2.8007783,2.8007783 0 0 0 0.771012,-0.44545 l 0.322977,0.18655 c 0.477951,0.27594 1.084701,0.1131 1.360641,-0.36484 0.275945,-0.47795 0.113632,-1.08469 -0.364319,-1.36064 l -0.322461,-0.18603 a 2.8007783,2.8007783 0 0 0 0.03669,-0.44597 2.8007783,2.8007783 0 0 0 -0.03669,-0.44493 l 0.322461,-0.18656 c 0.477951,-0.27594 0.640264,-0.88269 0.364319,-1.36064 -0.275945,-0.47795 -0.88269,-0.64078 -1.360641,-0.36483 l -0.322977,0.18655 a 2.8007783,2.8007783 0 0 0 -0.771012,-0.44545 v -0.37259 c 0,-0.55188 -0.444433,-0.9958 -0.996322,-0.9958 z" />
      <path
         d="m 25.467315,284.62413 c -0.551888,0 -0.995804,0.44392 -0.995804,0.9958 v 0.39584 a 2.8007783,2.8007783 0 0 0 -0.751376,0.43357 l -0.342614,-0.19792 c -0.477951,-0.27595 -1.084696,-0.11312 -1.360641,0.36483 -0.27594,0.47795 -0.113632,1.0847 0.364319,1.36064 l 0.342615,0.19792 a 2.8007783,2.8007783 0 0 0 -0.05684,0.43357 2.8007783,2.8007783 0 0 0 0.05684,0.43408 l -0.342615,0.19792 c -0.477951,0.27595 -0.640264,0.88269 -0.364319,1.36064 0.275945,0.47795 0.88269,0.64078 1.360641,0.36484 l 0.342614,-0.19792 a 2.8007783,2.8007783 0 0 0 0.751376,0.43356 v 0.39584 c 0,0.55189 0.443916,0.99581 0.995804,0.99581 0.551889,0 0.996322,-0.44392 0.996322,-0.99581 v -0.37258 a 2.8007783,2.8007783 0 0 0 0.771012,-0.44545 l 0.322977,0.18655 c 0.477951,0.27594 1.084701,0.1131 1.360641,-0.36484 0.275945,-0.47795 0.113632,-1.08469 -0.364319,-1.36064 l -0.322461,-0.18603 a 2.8007783,2.8007783 0 0 0 0.03669,-0.44597 2.8007783,2.8007783 0 0 0 -0.03669,-0.44493 l 0.322461,-0.18656 c 0.477951,-0.27594 0.640264,-0.88269 0.364319,-1.36064 -0.275945,-0.47795 -0.88269,-0.64078 -1.360641,-0.36483 l -0.322977,0.18655 a 2.8007783,2.8007783 0 0 0 -0.771012,-0.44545 v -0.37259 c 0,-0.55188 -0.444433,-0.9958 -0.996322,-0.9958 z"
         style="opacity:1;fill:none;fill-opacity:1;stroke:#35807e;stroke-width:1.9;stroke-linecap:round;stroke-linejoin:round;stroke-miterlimit:4;stroke-dasharray:none;stroke-opacity:0.02"
         id="path1103" />
      <path
         id="path1105"
         style="opacity:1;fill:none;fill-opacity:1;stroke:#35807e;stroke-width:2.1;stroke-linecap:round;stroke-linejoin:round;stroke-miterlimit:4;stroke-dasharray:none;stroke-opacity:0.02"
         d="m 25.467315,284.62413 c -0.551888,0 -0.995804,0.44392 -0.995804,0.9958 v 0.39584 a 2.8007783,2.8007783 0 0 0 -0.751376,0.43357 l -0.342614,-0.19792 c -0.477951,-0.27595 -1.084696,-0.11312 -1.360641,0.36483 -0.27594,0.47795 -0.113632,1.0847 0.364319,1.36064 l 0.342615,0.19792 a 2.8007783,2.8007783 0 0 0 -0.05684,0.43357 2.8007783,2.8007783 0 0 0 0.05684,0.43408 l -0.342615,0.19792 c -0.477951,0.27595 -0.640264,0.88269 -0.364319,1.36064 0.275945,0.47795 0.88269,0.64078 1.360641,0.36484 l 0.342614,-0.19792 a 2.8007783,2.8007783 0 0 0 0.751376,0.43356 v 0.39584 c 0,0.55189 0.443916,0.99581 0.995804,0.99581 0.551889,0 0.996322,-0.44392 0.996322,-0.99581 v -0.37258 a 2.8007783,2.8007783 0 0 0 0.771012,-0.44545 l 0.322977,0.18655 c 0.477951,0.27594 1.084701,0.1131 1.360641,-0.36484 0.275945,-0.47795 0.113632,-1.08469 -0.364319,-1.36064 l -0.322461,-0.18603 a 2.8007783,2.8007783 0 0 0 0.03669,-0.44597 2.8007783,2.8007783 0 0 0 -0.03669,-0.44493 l 0.322461,-0.18656 c 0.477951,-0.27594 0.640264,-0.88269 0.364319,-1.36064 -0.275945,-0.47795 -0.88269,-0.64078 -1.360641,-0.36483 l -0.322977,0.18655 a 2.8007783,2.8007783 0 0 0 -0.771012,-0.44545 v -0.37259 c 0,-0.55188 -0.444433,-0.9958 -0.996322,-0.9958 z" />
      <path
         d="m 25.467315,284.62413 c -0.551888,0 -0.995804,0.44392 -0.995804,0.9958 v 0.39584 a 2.8007783,2.8007783 0 0 0 -0.751376,0.43357 l -0.342614,-0.19792 c -0.477951,-0.27595 -1.084696,-0.11312 -1.360641,0.36483 -0.27594,0.47795 -0.113632,1.0847 0.364319,1.36064 l 0.342615,0.19792 a 2.8007783,2.8007783 0 0 0 -0.05684,0.43357 2.8007783,2.8007783 0 0 0 0.05684,0.43408 l -0.342615,0.19792 c -0.477951,0.27595 -0.640264,0.88269 -0.364319,1.36064 0.275945,0.47795 0.88269,0.64078 1.360641,0.36484 l 0.342614,-0.19792 a 2.8007783,2.8007783 0 0 0 0.751376,0.43356 v 0.39584 c 0,0.55189 0.443916,0.99581 0.995804,0.99581 0.551889,0 0.996322,-0.44392 0.996322,-0.99581 v -0.37258 a 2.8007783,2.8007783 0 0 0 0.771012,-0.44545 l 0.322977,0.18655 c 0.477951,0.27594 1.084701,0.1131 1.360641,-0.36484 0.275945,-0.47795 0.113632,-1.08469 -0.364319,-1.36064 l -0.322461,-0.18603 a 2.8007783,2.8007783 0 0 0 0.03669,-0.44597 2.8007783,2.8007783 0 0 0 -0.03669,-0.44493 l 0.322461,-0.18656 c 0.477951,-0.27594 0.640264,-0.88269 0.364319,-1.36064 -0.275945,-0.47795 -0.88269,-0.64078 -1.360641,-0.36483 l -0.322977,0.18655 a 2.8007783,2.8007783 0 0 0 -0.771012,-0.44545 v -0.37259 c 0,-0.55188 -0.444433,-0.9958 -0.996322,-0.9958 z"
         style="opacity:1;fill:none;fill-opacity:1;stroke:#35807e;stroke-width:2.3;stroke-linecap:round;stroke-linejoin:round;stroke-miterlimit:4;stroke-dasharray:none;stroke-opacity:0.02"
         id="path1107" />
      <path
         id="path1109"
         style="opacity:1;fill:none;fill-opacity:1;stroke:#35807e;stroke-width:2.5;stroke-linecap:round;stroke-linejoin:round;stroke-miterlimit:4;stroke-dasharray:none;stroke-opacity:0.02"
         d="m 25.467315,284.62413 c -0.551888,0 -0.995804,0.44392 -0.995804,0.9958 v 0.39584 a 2.8007783,2.8007783 0 0 0 -0.751376,0.43357 l -0.342614,-0.19792 c -0.477951,-0.27595 -1.084696,-0.11312 -1.360641,0.36483 -0.27594,0.47795 -0.113632,1.0847 0.364319,1.36064 l 0.342615,0.19792 a 2.8007783,2.8007783 0 0 0 -0.05684,0.43357 2.8007783,2.8007783 0 0 0 0.05684,0.43408 l -0.342615,0.19792 c -0.477951,0.27595 -0.640264,0.88269 -0.364319,1.36064 0.275945,0.47795 0.88269,0.64078 1.360641,0.36484 l 0.342614,-0.19792 a 2.8007783,2.8007783 0 0 0 0.751376,0.43356 v 0.39584 c 0,0.55189 0.443916,0.99581 0.995804,0.99581 0.551889,0 0.996322,-0.44392 0.996322,-0.99581 v -0.37258 a 2.8007783,2.8007783 0 0 0 0.771012,-0.44545 l 0.322977,0.18655 c 0.477951,0.27594 1.084701,0.1131 1.360641,-0.36484 0.275945,-0.47795 0.113632,-1.08469 -0.364319,-1.36064 l -0.322461,-0.18603 a 2.8007783,2.8007783 0 0 0 0.03669,-0.44597 2.8007783,2.8007783 0 0 0 -0.03669,-0.44493 l 0.322461,-0.18656 c 0.477951,-0.27594 0.640264,-0.88269 0.364319,-1.36064 -0.275945,-0.47795 -0.88269,-0.64078 -1.360641,-0.36483 l -0.322977,0.18655 a 2.8007783,2.8007783 0 0 0 -0.771012,-0.44545 v -0.37259 c 0,-0.55188 -0.444433,-0.9958 -0.996322,-0.9958 z" />
      <path
         d="m 25.467315,284.62413 c -0.551888,0 -0.995804,0.44392 -0.995804,0.9958 v 0.39584 a 2.8007783,2.8007783 0 0 0 -0.751376,0.43357 l -0.342614,-0.19792 c -0.477951,-0.27595 -1.084696,-0.11312 -1.360641,0.36483 -0.27594,0.47795 -0.113632,1.0847 0.364319,1.36064 l 0.342615,0.19792 a 2.8007783,2.8007783 0 0 0 -0.05684,0.43357 2.8007783,2.8007783 0 0 0 0.05684,0.43408 l -0.342615,0.19792 c -0.477951,0.27595 -0.640264,0.88269 -0.364319,1.36064 0.275945,0.47795 0.88269,0.64078 1.360641,0.36484 l 0.342614,-0.19792 a 2.8007783,2.8007783 0 0 0 0.751376,0.43356 v 0.39584 c 0,0.55189 0.443916,0.99581 0.995804,0.99581 0.551889,0 0.996322,-0.44392 0.996322,-0.99581 v -0.37258 a 2.8007783,2.8007783 0 0 0 0.771012,-0.44545 l 0.322977,0.18655 c 0.477951,0.27594 1.084701,0.1131 1.360641,-0.36484 0.275945,-0.47795 0.113632,-1.08469 -0.364319,-1.36064 l -0.322461,-0.18603 a 2.8007783,2.8007783 0 0 0 0.03669,-0.44597 2.8007783,2.8007783 0 0 0 -0.03669,-0.44493 l 0.322461,-0.18656 c 0.477951,-0.27594 0.640264,-0.88269 0.364319,-1.36064 -0.275945,-0.47795 -0.88269,-0.64078 -1.360641,-0.36483 l -0.322977,0.18655 a 2.8007783,2.8007783 0 0 0 -0.771012,-0.44545 v -0.37259 c 0,-0.55188 -0.444433,-0.9958 -0.996322,-0.9958 z"
         style="opacity:1;fill:none;fill-opacity:1;stroke:#35807e;stroke-width:2.7;stroke-linecap:round;stroke-linejoin:round;stroke-miterlimit:4;stroke-dasharray:none;stroke-opacity:0.02"
         id="path1111" />
      <path
         id="path1113"
         style="opacity:1;fill:none;fill-opacity:1;stroke:#35807e;stroke-width:2.9;stroke-linecap:round;stroke-linejoin:round;stroke-miterlimit:4;stroke-dasharray:none;stroke-opacity:0.02"
         d="m 25.467315,284.62413 c -0.551888,0 -0.995804,0.44392 -0.995804,0.9958 v 0.39584 a 2.8007783,2.8007783 0 0 0 -0.751376,0.43357 l -0.342614,-0.19792 c -0.477951,-0.27595 -1.084696,-0.11312 -1.360641,0.36483 -0.27594,0.47795 -0.113632,1.0847 0.364319,1.36064 l 0.342615,0.19792 a 2.8007783,2.8007783 0 0 0 -0.05684,0.43357 2.8007783,2.8007783 0 0 0 0.05684,0.43408 l -0.342615,0.19792 c -0.477951,0.27595 -0.640264,0.88269 -0.364319,1.36064 0.275945,0.47795 0.88269,0.64078 1.360641,0.36484 l 0.342614,-0.19792 a 2.8007783,2.8007783 0 0 0 0.751376,0.43356 v 0.39584 c 0,0.55189 0.443916,0.99581 0.995804,0.99581 0.551889,0 0.996322,-0.44392 0.996322,-0.99581 v -0.37258 a 2.8007783,2.8007783 0 0 0 0.771012,-0.44545 l 0.322977,0.18655 c 0.477951,0.27594 1.084701,0.1131 1.360641,-0.36484 0.275945,-0.47795 0.113632,-1.08469 -0.364319,-1.36064 l -0.322461,-0.18603 a 2.8007783,2.8007783 0 0 0 0.03669,-0.44597 2.8007783,2.8007783 0 0 0 -0.03669,-0.44493 l 0.322461,-0.18656 c 0.477951,-0.27594 0.640264,-0.88269 0.364319,-1.36064 -0.275945,-0.47795 -0.88269,-0.64078 -1.360641,-0.36483 l -0.322977,0.18655 a 2.8007783,2.8007783 0 0 0 -0.771012,-0.44545 v -0.37259 c 0,-0.55188 -0.444433,-0.9958 -0.996322,-0.9958 z" />
      <path
         d="m 25.467315,284.62413 c -0.551888,0 -0.995804,0.44392 -0.995804,0.9958 v 0.39584 a 2.8007783,2.8007783 0 0 0 -0.751376,0.43357 l -0.342614,-0.19792 c -0.477951,-0.27595 -1.084696,-0.11312 -1.360641,0.36483 -0.27594,0.47795 -0.113632,1.0847 0.364319,1.36064 l 0.342615,0.19792 a 2.8007783,2.8007783 0 0 0 -0.05684,0.43357 2.8007783,2.8007783 0 0 0 0.05684,0.43408 l -0.342615,0.19792 c -0.477951,0.27595 -0.640264,0.88269 -0.364319,1.36064 0.275945,0.47795 0.88269,0.64078 1.360641,0.36484 l 0.342614,-0.19792 a 2.8007783,2.8007783 0 0 0 0.751376,0.43356 v 0.39584 c 0,0.55189 0.443916,0.99581 0.995804,0.99581 0.551889,0 0.996322,-0.44392 0.996322,-0.99581 v -0.37258 a 2.8007783,2.8007783 0 0 0 0.771012,-0.44545 l 0.322977,0.18655 c 0.477951,0.27594 1.084701,0.1131 1.360641,-0.36484 0.275945,-0.47795 0.113632,-1.08469 -0.364319,-1.36064 l -0.322461,-0.18603 a 2.8007783,2.8007783 0 0 0 0.03669,-0.44597 2.8007783,2.8007783 0 0 0 -0.03669,-0.44493 l 0.322461,-0.18656 c 0.477951,-0.27594 0.640264,-0.88269 0.364319,-1.36064 -0.275945,-0.47795 -0.88269,-0.64078 -1.360641,-0.36483 l -0.322977,0.18655 a 2.8007783,2.8007783 0 0 0 -0.771012,-0.44545 v -0.37259 c 0,-0.55188 -0.444433,-0.9958 -0.996322,-0.9958 z"
         style="opacity:1;fill:none;fill-opacity:1;stroke:#35807e;stroke-width:3.1;stroke-linecap:round;stroke-linejoin:round;stroke-miterlimit:4;stroke-dasharray:none;stroke-opacity:0.02"
         id="path1115" />
      <path
         id="path1117"
         style="opacity:1;fill:none;fill-opacity:1;stroke:#35807e;stroke-width:3.4;stroke-linecap:round;stroke-linejoin:round;stroke-miterlimit:4;stroke-dasharray:none;stroke-opacity:0.02"
         d="m 25.467315,284.62413 c -0.551888,0 -0.995804,0.44392 -0.995804,0.9958 v 0.39584 a 2.8007783,2.8007783 0 0 0 -0.751376,0.43357 l -0.342614,-0.19792 c -0.477951,-0.27595 -1.084696,-0.11312 -1.360641,0.36483 -0.27594,0.47795 -0.113632,1.0847 0.364319,1.36064 l 0.342615,0.19792 a 2.8007783,2.8007783 0 0 0 -0.05684,0.43357 2.8007783,2.8007783 0 0 0 0.05684,0.43408 l -0.342615,0.19792 c -0.477951,0.27595 -0.640264,0.88269 -0.364319,1.36064 0.275945,0.47795 0.88269,0.64078 1.360641,0.36484 l 0.342614,-0.19792 a 2.8007783,2.8007783 0 0 0 0.751376,0.43356 v 0.39584 c 0,0.55189 0.443916,0.99581 0.995804,0.99581 0.551889,0 0.996322,-0.44392 0.996322,-0.99581 v -0.37258 a 2.8007783,2.8007783 0 0 0 0.771012,-0.44545 l 0.322977,0.18655 c 0.477951,0.27594 1.084701,0.1131 1.360641,-0.36484 0.275945,-0.47795 0.113632,-1.08469 -0.364319,-1.36064 l -0.322461,-0.18603 a 2.8007783,2.8007783 0 0 0 0.03669,-0.44597 2.8007783,2.8007783 0 0 0 -0.03669,-0.44493 l 0.322461,-0.18656 c 0.477951,-0.27594 0.640264,-0.88269 0.364319,-1.36064 -0.275945,-0.47795 -0.88269,-0.64078 -1.360641,-0.36483 l -0.322977,0.18655 a 2.8007783,2.8007783 0 0 0 -0.771012,-0.44545 v -0.37259 c 0,-0.55188 -0.444433,-0.9958 -0.996322,-0.9958 z" />
      <path
         d="m 25.467315,284.62413 c -0.551888,0 -0.995804,0.44392 -0.995804,0.9958 v 0.39584 a 2.8007783,2.8007783 0 0 0 -0.751376,0.43357 l -0.342614,-0.19792 c -0.477951,-0.27595 -1.084696,-0.11312 -1.360641,0.36483 -0.27594,0.47795 -0.113632,1.0847 0.364319,1.36064 l 0.342615,0.19792 a 2.8007783,2.8007783 0 0 0 -0.05684,0.43357 2.8007783,2.8007783 0 0 0 0.05684,0.43408 l -0.342615,0.19792 c -0.477951,0.27595 -0.640264,0.88269 -0.364319,1.36064 0.275945,0.47795 0.88269,0.64078 1.360641,0.36484 l 0.342614,-0.19792 a 2.8007783,2.8007783 0 0 0 0.751376,0.43356 v 0.39584 c 0,0.55189 0.443916,0.99581 0.995804,0.99581 0.551889,0 0.996322,-0.44392 0.996322,-0.99581 v -0.37258 a 2.8007783,2.8007783 0 0 0 0.771012,-0.44545 l 0.322977,0.18655 c 0.477951,0.27594 1.084701,0.1131 1.360641,-0.36484 0.275945,-0.47795 0.113632,-1.08469 -0.364319,-1.36064 l -0.322461,-0.18603 a 2.8007783,2.8007783 0 0 0 0.03669,-0.44597 2.8007783,2.8007783 0 0 0 -0.03669,-0.44493 l 0.322461,-0.18656 c 0.477951,-0.27594 0.640264,-0.88269 0.364319,-1.36064 -0.275945,-0.47795 -0.88269,-0.64078 -1.360641,-0.36483 l -0.322977,0.18655 a 2.8007783,2.8007783 0 0 0 -0.771012,-0.44545 v -0.37259 c 0,-0.55188 -0.444433,-0.9958 -0.996322,-0.9958 z"
         style="opacity:1;fill:none;fill-opacity:1;stroke:#35807e;stroke-width:3.7;stroke-linecap:round;stroke-linejoin:round;stroke-miterlimit:4;stroke-dasharray:none;stroke-opacity:0.02"
         id="path1119" />
      <path
         id="path1121"
         style="opacity:1;fill:none;fill-opacity:1;stroke:#35807e;stroke-width:4;stroke-linecap:round;stroke-linejoin:round;stroke-miterlimit:4;stroke-dasharray:none;stroke-opacity:0.02"
         d="m 25.467315,284.62413 c -0.551888,0 -0.995804,0.44392 -0.995804,0.9958 v 0.39584 a 2.8007783,2.8007783 0 0 0 -0.751376,0.43357 l -0.342614,-0.19792 c -0.477951,-0.27595 -1.084696,-0.11312 -1.360641,0.36483 -0.27594,0.47795 -0.113632,1.0847 0.364319,1.36064 l 0.342615,0.19792 a 2.8007783,2.8007783 0 0 0 -0.05684,0.43357 2.8007783,2.8007783 0 0 0 0.05684,0.43408 l -0.342615,0.19792 c -0.477951,0.27595 -0.640264,0.88269 -0.364319,1.36064 0.275945,0.47795 0.88269,0.64078 1.360641,0.36484 l 0.342614,-0.19792 a 2.8007783,2.8007783 0 0 0 0.751376,0.43356 v 0.39584 c 0,0.55189 0.443916,0.99581 0.995804,0.99581 0.551889,0 0.996322,-0.44392 0.996322,-0.99581 v -0.37258 a 2.8007783,2.8007783 0 0 0 0.771012,-0.44545 l 0.322977,0.18655 c 0.477951,0.27594 1.084701,0.1131 1.360641,-0.36484 0.275945,-0.47795 0.113632,-1.08469 -0.364319,-1.36064 l -0.322461,-0.18603 a 2.8007783,2.8007783 0 0 0 0.03669,-0.44597 2.8007783,2.8007783 0 0 0 -0.03669,-0.44493 l 0.322461,-0.18656 c 0.477951,-0.27594 0.640264,-0.88269 0.364319,-1.36064 -0.275945,-0.47795 -0.88269,-0.64078 -1.360641,-0.36483 l -0.322977,0.18655 a 2.8007783,2.8007783 0 0 0 -0.771012,-0.44545 v -0.37259 c 0,-0.55188 -0.444433,-0.9958 -0.996322,-0.9958 z" />
    </g>
    <path
       d="m 8.5408992,284.62413 c -0.551888,0 -0.9958049,0.44392 -0.9958049,0.9958 v 0.39584 a 2.8007783,2.8007783 0 0 0 -0.7513751,0.43357 l -0.3426148,-0.19792 c -0.4779507,-0.27595 -1.0846959,-0.11312 -1.3606404,0.36483 -0.27594,0.47795 -0.1136319,1.0847 0.3643188,1.36064 l 0.3426145,0.19792 a 2.8007783,2.8007783 0 0 0 -0.056844,0.43357 2.8007783,2.8007783 0 0 0 0.056844,0.43408 l -0.3426145,0.19792 c -0.4779507,0.27595 -0.6402639,0.88269 -0.3643188,1.36064 0.2759445,0.47795 0.8826897,0.64078 1.3606404,0.36484 l 0.3426148,-0.19792 a 2.8007783,2.8007783 0 0 0 0.7513751,0.43356 v 0.39584 c 0,0.55189 0.4439169,0.99581 0.9958049,0.99581 0.5518883,0 0.9963213,-0.44392 0.9963213,-0.99581 v -0.37258 a 2.8007783,2.8007783 0 0 0 0.7710125,-0.44545 l 0.322977,0.18655 c 0.477951,0.27594 1.084701,0.1131 1.360641,-0.36484 0.275945,-0.47795 0.113632,-1.08469 -0.364319,-1.36064 l -0.322461,-0.18603 a 2.8007783,2.8007783 0 0 0 0.03669,-0.44597 2.8007783,2.8007783 0 0 0 -0.03669,-0.44493 l 0.322461,-0.18656 c 0.477951,-0.27594 0.640264,-0.88269 0.364319,-1.36064 -0.275945,-0.47795 -0.88269,-0.64078 -1.360641,-0.36483 l -0.322977,0.18655 a 2.8007783,2.8007783 0 0 0 -0.7710125,-0.44545 v -0.37259 c 0,-0.55188 -0.444433,-0.9958 -0.9963213,-0.9958 z"
       style="opacity:1;fill:url(#radialGradient1163);fill-opacity:1;stroke-width:0.79375;stroke-linecap:round;stroke-linejoin:round;stroke-opacity:0.02"
       id="rect969" />
    <path
       sodipodi:nodetypes="cc"
       id="path985"
       d="m 7.5450942,286.01577 c -0.4364687,-2.44422 4.5485698,-4.53821 7.4518388,-1.89698"
       style="fill:none;stroke:#ffffff;stroke-width:0.1;stroke-linecap:butt;stroke-linejoin:miter;stroke-miterlimit:4;stroke-dasharray:none;stroke-opacity:0.28265101" />
    <path
       style="fill:none;stroke:#ffffff;stroke-width:0.1;stroke-linecap:butt;stroke-linejoin:miter;stroke-miterlimit:4;stroke-dasharray:none;stroke-opacity:0.28265101"
       d="m 11.305071,289.05435 c 2.33499,0.84411 1.655944,6.20827 -2.0830872,7.40197"
       id="path987"
       sodipodi:nodetypes="cc" />
    <path
       sodipodi:nodetypes="cc"
       id="path989"
       d="m 6.7937192,290.76794 c -1.8985143,1.6001 -6.20456846,-1.66976 -5.3687498,-5.505"
       style="fill:none;stroke:#ffffff;stroke-width:0.1;stroke-linecap:butt;stroke-linejoin:miter;stroke-miterlimit:4;stroke-dasharray:none;stroke-opacity:0.28265101" />
    <circle
       style="opacity:1;fill:none;fill-opacity:1;stroke:url(#linearGradient840);stroke-width:0.81756413;stroke-linecap:round;stroke-miterlimit:4;stroke-dasharray:none;stroke-dashoffset:0;stroke-opacity:1"
       id="circle832"
       cx="8.5411577"
       cy="288.60864"
       r="7.7297897" />
  </g>
</svg>
