<?xml version="1.0" encoding="UTF-8" standalone="no"?>
<!-- Created with Inkscape (http://www.inkscape.org/) -->

<svg
   xmlns:dc="http://purl.org/dc/elements/1.1/"
   xmlns:cc="http://creativecommons.org/ns#"
   xmlns:rdf="http://www.w3.org/1999/02/22-rdf-syntax-ns#"
   xmlns:svg="http://www.w3.org/2000/svg"
   xmlns="http://www.w3.org/2000/svg"
   xmlns:xlink="http://www.w3.org/1999/xlink"
   xmlns:sodipodi="http://sodipodi.sourceforge.net/DTD/sodipodi-0.dtd"
   xmlns:inkscape="http://www.inkscape.org/namespaces/inkscape"
   width="64"
   height="64"
   viewBox="0 0 16.933333 16.933333"
   version="1.1"
   id="svg8"
   inkscape:version="0.92.2 (5c3e80d, 2017-08-06)"
   sodipodi:docname="preferences-system.svg">
  <defs
     id="defs2">
    <linearGradient
       gradientTransform="matrix(0.26458333,0,0,0.26458333,-69.79515,275.61173)"
       inkscape:collect="always"
       xlink:href="#linearGradient1107"
       id="linearGradient1109"
       x1="279.18945"
       y1="24.046875"
       x2="295.62183"
       y2="73.184288"
       gradientUnits="userSpaceOnUse" />
    <linearGradient
       inkscape:collect="always"
       id="linearGradient1107">
      <stop
         style="stop-color:#ffffff;stop-opacity:1;"
         offset="0"
         id="stop1103" />
      <stop
         style="stop-color:#ffffff;stop-opacity:0;"
         offset="1"
         id="stop1105" />
    </linearGradient>
    <linearGradient
       gradientTransform="matrix(0.26458333,0,0,0.26458333,-69.79515,275.61173)"
       inkscape:collect="always"
       xlink:href="#linearGradient1107"
       id="linearGradient1074"
       x1="319.55319"
       y1="99.876251"
       x2="308.87701"
       y2="32.569271"
       gradientUnits="userSpaceOnUse" />
    <linearGradient
       gradientTransform="matrix(0.26458333,0,0,0.26458333,-69.79515,275.61173)"
       inkscape:collect="always"
       xlink:href="#linearGradient1041"
       id="linearGradient1043"
       x1="277.28241"
       y1="11.777443"
       x2="275.84888"
       y2="70.230339"
       gradientUnits="userSpaceOnUse" />
    <linearGradient
       inkscape:collect="always"
       id="linearGradient1041">
      <stop
         style="stop-color:#9c3d3d;stop-opacity:1"
         offset="0"
         id="stop1037" />
      <stop
         style="stop-color:#782121;stop-opacity:0;"
         offset="1"
         id="stop1039" />
    </linearGradient>
    <linearGradient
       gradientTransform="matrix(0.26458333,0,0,0.26458333,-69.79515,275.61173)"
       inkscape:collect="always"
       xlink:href="#linearGradient987"
       id="linearGradient1117"
       x1="302.16949"
       y1="55.661015"
       x2="302.10172"
       y2="45.016949"
       gradientUnits="userSpaceOnUse" />
    <linearGradient
       id="linearGradient987"
       inkscape:collect="always">
      <stop
         id="stop1011"
         offset="0"
         style="stop-color:#ff9c5a;stop-opacity:1" />
      <stop
         id="stop1013"
         offset="1"
         style="stop-color:#ffd0b1;stop-opacity:1" />
    </linearGradient>
    <linearGradient
       gradientTransform="matrix(0.26458333,0,0,0.26458333,-69.79515,275.61173)"
       inkscape:collect="always"
       xlink:href="#linearGradient1028"
       id="linearGradient1125"
       x1="289.62717"
       y1="52.135593"
       x2="291.38986"
       y2="40.135593"
       gradientUnits="userSpaceOnUse" />
    <linearGradient
       inkscape:collect="always"
       id="linearGradient1028">
      <stop
         style="stop-color:#c03c3c;stop-opacity:1"
         offset="0"
         id="stop1024" />
      <stop
         style="stop-color:#dd9292;stop-opacity:1"
         offset="1"
         id="stop1026" />
    </linearGradient>
    <linearGradient
       inkscape:collect="always"
       xlink:href="#linearGradient1107"
       id="linearGradient935"
       gradientUnits="userSpaceOnUse"
       x1="291.85654"
       y1="87.830597"
       x2="315.7688"
       y2="51.466545"
       gradientTransform="matrix(-0.26413715,0.0153591,-0.0153591,-0.26413715,87.174526,297.03619)" />
    <linearGradient
       inkscape:collect="always"
       xlink:href="#linearGradient1107"
       id="linearGradient931"
       x1="281.64389"
       y1="99.521584"
       x2="314.69016"
       y2="55.709187"
       gradientUnits="userSpaceOnUse"
       gradientTransform="matrix(0.26458333,0,0,0.26458333,-70.381972,275.62939)" />
    <linearGradient
       gradientTransform="matrix(0.26458333,0,0,0.26458333,-69.79515,275.61173)"
       inkscape:collect="always"
       xlink:href="#linearGradient987-3"
       id="linearGradient989"
       x1="313.7627"
       y1="86.440674"
       x2="284.21207"
       y2="32.74831"
       gradientUnits="userSpaceOnUse" />
    <linearGradient
       inkscape:collect="always"
       id="linearGradient987-3">
      <stop
         style="stop-color:#ff9e5d;stop-opacity:1"
         offset="0"
         id="stop983" />
      <stop
         style="stop-color:#e65c00;stop-opacity:0;"
         offset="1"
         id="stop985" />
    </linearGradient>
    <linearGradient
       gradientTransform="matrix(0.26458333,0,0,0.26458333,-69.79515,275.61173)"
       inkscape:collect="always"
       xlink:href="#linearGradient1060"
       id="linearGradient1062"
       x1="331.76096"
       y1="38.347588"
       x2="314.73199"
       y2="47.839596"
       gradientUnits="userSpaceOnUse" />
    <linearGradient
       inkscape:collect="always"
       id="linearGradient1060">
      <stop
         style="stop-color:#e88441;stop-opacity:1;"
         offset="0"
         id="stop1056" />
      <stop
         style="stop-color:#f06c12;stop-opacity:0"
         offset="1"
         id="stop1058" />
    </linearGradient>
    <linearGradient
       gradientTransform="matrix(0.26458333,0,0,0.26458333,-69.79515,275.61173)"
       inkscape:collect="always"
       xlink:href="#linearGradient987"
       id="linearGradient1009"
       gradientUnits="userSpaceOnUse"
       x1="329.1683"
       y1="53.994457"
       x2="289.5426"
       y2="24.70632" />
    <linearGradient
       gradientTransform="matrix(0.26458333,0,0,0.26458333,-69.79515,275.61173)"
       inkscape:collect="always"
       xlink:href="#linearGradient1097"
       id="linearGradient1099"
       x1="267.37708"
       y1="50.727654"
       x2="277.3765"
       y2="47.575115"
       gradientUnits="userSpaceOnUse" />
    <linearGradient
       inkscape:collect="always"
       id="linearGradient1097">
      <stop
         style="stop-color:#a02c2c;stop-opacity:0.396"
         offset="0"
         id="stop1093" />
      <stop
         style="stop-color:#a02c2c;stop-opacity:0;"
         offset="1"
         id="stop1095" />
    </linearGradient>
    <linearGradient
       gradientTransform="matrix(0.26458333,0,0,0.26458333,-69.79515,275.61173)"
       inkscape:collect="always"
       xlink:href="#linearGradient1028"
       id="linearGradient1022"
       x1="269.39062"
       y1="34.705078"
       x2="316.97699"
       y2="75.518738"
       gradientUnits="userSpaceOnUse" />
  </defs>
  <sodipodi:namedview
     id="base"
     pagecolor="#ffffff"
     bordercolor="#666666"
     borderopacity="1.0"
     inkscape:pageopacity="0"
     inkscape:pageshadow="2"
     inkscape:zoom="7.919596"
     inkscape:cx="10.639588"
     inkscape:cy="28.403676"
     inkscape:document-units="mm"
     inkscape:current-layer="layer1"
     showgrid="false"
     units="px"
     inkscape:window-width="1360"
     inkscape:window-height="715"
     inkscape:window-x="0"
     inkscape:window-y="24"
     inkscape:window-maximized="1" />
  <metadata
     id="metadata5">
    <rdf:RDF>
      <cc:Work
         rdf:about="">
        <dc:format>image/svg+xml</dc:format>
        <dc:type
           rdf:resource="http://purl.org/dc/dcmitype/StillImage" />
        <dc:title />
      </cc:Work>
    </rdf:RDF>
  </metadata>
  <g
     inkscape:label="Layer 1"
     inkscape:groupmode="layer"
     id="layer1"
     transform="translate(0,-280.06667)">
    <g
       id="g999"
       transform="translate(0.13363476,0.20045215)">
      <circle
         r="7.7297902"
         cy="288.44742"
         cx="8.2854271"
         id="path826"
         style="opacity:1;fill:#c83737;fill-opacity:1;stroke:none;stroke-width:0.81756413;stroke-linecap:round;stroke-miterlimit:4;stroke-dasharray:none;stroke-dashoffset:0;stroke-opacity:1" />
      <path
         id="path975"
         d="m 7.8140651,280.73441 a 7.7297899,7.7297899 0 0 0 -0.1162712,0.0129 7.7297899,7.7297899 0 0 0 -0.1131729,0.0129 7.7297899,7.7297899 0 0 0 -0.3607011,0.0403 7.7297899,7.7297899 0 0 0 -0.287319,0.0429 7.7297899,7.7297899 0 0 0 -0.4723236,0.10129 7.7297899,7.7297899 0 0 0 -0.2831862,0.0724 7.7297899,7.7297899 0 0 0 -0.1576149,0.0506 7.7297899,7.7297899 0 0 0 -0.2909385,0.0935 7.7297899,7.7297899 0 0 0 -0.287319,0.10491 7.7297899,7.7297899 0 0 0 -0.428916,0.18706 7.7297899,7.7297899 0 0 0 -0.2713011,0.13126 7.7297899,7.7297899 0 0 0 -0.4087601,0.22893 7.7297899,7.7297899 0 0 0 -0.2625169,0.16071 7.7297899,7.7297899 0 0 0 -0.3746527,0.26252 7.7297899,7.7297899 0 0 0 -0.4325329,0.34726 7.7297899,7.7297899 0 0 0 -0.1617477,0.13901 7.7297899,7.7297899 0 0 0 -0.2371937,0.22118 7.7297899,7.7297899 0 0 0 -0.306959,0.32298 7.7297899,7.7297899 0 0 0 -0.2165244,0.24649 7.7297899,7.7297899 0 0 0 -0.272333,0.3514 7.7297899,7.7297899 0 0 0 -0.1901692,0.2651 7.7297899,7.7297899 0 0 0 -0.2361618,0.37672 7.7297899,7.7297899 0 0 0 -0.2780189,0.51625 7.7297899,7.7297899 0 0 0 -0.076999,0.15503 7.7297899,7.7297899 0 0 0 -0.1446927,0.32401 7.7297899,7.7297899 0 0 0 -0.037208,0.0997 7.7297899,7.7297899 0 0 0 -0.1059365,0.28163 7.7297899,7.7297899 0 0 0 -0.11523928,0.34572 7.7297899,7.7297899 0 0 0 -0.0496094,0.18604 7.7297899,7.7297899 0 0 0 -0.0547767,0.20722 7.7297899,7.7297899 0 0 0 -0.0811318,0.36173 7.7297899,7.7297899 0 0 0 -0.0630449,0.39016 7.7297899,7.7297899 0 0 0 -0.0454739,0.37259 7.7297899,7.7297899 0 0 0 -0.0155046,0.25993 7.7297899,7.7297899 0 0 0 -0.0165365,0.28422 7.7297899,7.7297899 0 0 0 -0.005689,0.15658 7.7297899,7.7297899 0 0 0 7.72975968,7.72976 7.7297899,7.7297899 0 0 0 0.1612318,-0.008 l -0.021193,-0.0744 c 2.5177725,-0.77087 4.5511395,-2.67103 4.8648195,-5.20175 0.201509,-1.62576 -0.448752,-3.29219 -1.678451,-4.42092 l -0.108521,-0.009 c 0.648835,0.43597 1.072483,1.21884 1.103291,1.92443 0.09305,2.13122 -2.243817,3.58071 -4.441589,3.46232 -1.3382678,-0.0721 -2.4821912,-0.60968 -3.3393301,-1.40974 -0.063421,-0.0592 -0.1242536,-0.12042 -0.184486,-0.18241 -0.093493,-0.0962 -0.1831261,-0.19572 -0.2687161,-0.29818 -0.029766,-0.0356 -0.058034,-0.0722 -0.086818,-0.10852 -0.083503,-0.10539 -0.1641977,-0.21258 -0.23926,-0.32349 -0.018098,-0.0268 -0.035108,-0.0541 -0.05271,-0.0811 -0.071514,-0.10989 -0.1379591,-0.22249 -0.2010225,-0.33693 -0.017119,-0.0311 -0.035184,-0.0616 -0.051676,-0.093 -0.066794,-0.12715 -0.1278466,-0.25689 -0.1839674,-0.38861 -0.014314,-0.0336 -0.027747,-0.0674 -0.041341,-0.10129 -0.053946,-0.13426 -0.1036902,-0.2703 -0.1462458,-0.40824 -0.00855,-0.0277 -0.015187,-0.0559 -0.023257,-0.0837 -0.037338,-0.12866 -0.070014,-0.25812 -0.09715,-0.38913 -0.00574,-0.0278 -0.012806,-0.0553 -0.018097,-0.0832 -0.00238,-0.013 -0.00434,-0.0262 -0.00672,-0.0393 -0.014129,-0.0779 -0.026247,-0.15612 -0.036692,-0.23461 -0.00415,-0.0311 -0.00781,-0.0623 -0.011377,-0.0935 -0.00699,-0.0614 -0.012885,-0.12285 -0.017568,-0.18448 -0.00283,-0.0372 -0.00524,-0.0744 -0.00725,-0.11162 -0.00307,-0.0577 -0.00466,-0.11533 -0.00569,-0.17312 -5.292e-4,-0.0369 -0.00185,-0.0737 -0.00159,-0.11059 2.646e-4,-0.0589 0.00212,-0.11781 0.00466,-0.17673 0.00159,-0.037 0.00238,-0.0741 0.00466,-0.1111 0.00601,-0.0926 0.014393,-0.18508 0.025823,-0.27751 0.3136794,-2.53072 2.3475659,-4.43087 4.8653382,-5.20175 l -0.217043,-0.10697 z m 8.1839959,8.20002 c -0.0024,0.0363 -0.005,0.0724 -0.0078,0.10852 a 7.7297899,7.7297899 0 0 0 0.0078,-0.10852 z m -0.09095,0.79065 c -0.0039,0.0236 -0.0082,0.0472 -0.01241,0.0708 a 7.7297899,7.7297899 0 0 0 0.01241,-0.0708 z m -0.164846,0.75034 c -0.0067,0.0248 -0.01315,0.0497 -0.02016,0.0744 a 7.7297899,7.7297899 0 0 0 0.02016,-0.0744 z m -0.235646,0.72192 c -0.01098,0.0287 -0.02125,0.0577 -0.03256,0.0863 a 7.7297899,7.7297899 0 0 0 0.03256,-0.0863 z m -0.297141,0.678 c -0.01953,0.0393 -0.0377,0.0794 -0.05788,0.11834 a 7.7297899,7.7297899 0 0 0 0.05788,-0.11834 z m -0.360182,0.64492 c -0.0438,0.0703 -0.0884,0.14 -0.134361,0.20877 a 7.7297899,7.7297899 0 0 0 0.134361,-0.20877 z m -0.433568,0.62683 c -0.05874,0.0764 -0.119369,0.15118 -0.180866,0.22531 a 7.7297899,7.7297899 0 0 0 0.180866,-0.22531 z m -0.510561,0.60048 c -0.06419,0.068 -0.130818,0.13383 -0.197405,0.19947 a 7.7297899,7.7297899 0 0 0 0.197405,-0.19947 z m -0.549838,0.52762 c -0.06945,0.0605 -0.14079,0.11873 -0.212389,0.17673 a 7.7297899,7.7297899 0 0 0 0.212389,-0.17673 z m -0.608748,0.47852 c -0.0702,0.0498 -0.142031,0.0978 -0.21394,0.14521 a 7.7297899,7.7297899 0 0 0 0.21394,-0.14521 z m -0.656291,0.41652 c -0.06708,0.0381 -0.134774,0.075 -0.203089,0.1111 a 7.7297899,7.7297899 0 0 0 0.203089,-0.1111 z m -0.698664,0.35036 c -0.06343,0.0279 -0.12741,0.0549 -0.19172,0.0811 a 7.7297899,7.7297899 0 0 0 0.19172,-0.0811 z m -0.730705,0.27854 c -0.06196,0.02 -0.124431,0.0389 -0.187069,0.0574 a 7.7297899,7.7297899 0 0 0 0.187069,-0.0574 z m -0.7343221,0.1974 c -0.070631,0.0153 -0.14156,0.0295 -0.2129075,0.0429 a 7.7297899,7.7297899 0 0 0 0.2129075,-0.0429 z m -0.7560283,0.12506 c -0.079386,0.009 -0.1591469,0.0166 -0.2392601,0.0233 a 7.7297899,7.7297899 0 0 0 0.2392601,-0.0233 z"
         style="fill:url(#linearGradient1022);fill-opacity:1;fill-rule:evenodd;stroke:none;stroke-width:0.22965305"
         inkscape:connector-curvature="0" />
      <path
         id="path1076"
         d="m 7.8140651,280.73441 a 7.7297899,7.7297899 0 0 0 -0.1162712,0.0129 7.7297899,7.7297899 0 0 0 -0.1131729,0.0129 7.7297899,7.7297899 0 0 0 -0.3607011,0.0403 7.7297899,7.7297899 0 0 0 -0.287319,0.0429 7.7297899,7.7297899 0 0 0 -0.4723236,0.10129 7.7297899,7.7297899 0 0 0 -0.2831862,0.0724 7.7297899,7.7297899 0 0 0 -0.1576149,0.0506 7.7297899,7.7297899 0 0 0 -0.042892,0.0139 c -5.1274424,2.63202 -4.8467248,9.47943 -0.2180722,12.10365 1.7488852,0.99154 4.1119663,1.03384 6.338112,0.48886 0.631733,-0.79619 1.059725,-1.73348 1.189593,-2.78122 0.20151,-1.62576 -0.448751,-3.29219 -1.67845,-4.42092 l -0.108522,-0.009 c 0.648835,0.43598 1.072484,1.21885 1.103292,1.92443 0.09305,2.13123 -2.243818,3.58072 -4.4415899,3.46233 -1.3382677,-0.0721 -2.4821911,-0.60968 -3.33933,-1.40974 -0.063421,-0.0592 -0.1242536,-0.12042 -0.184486,-0.18242 -0.093493,-0.0962 -0.1831261,-0.19571 -0.2687162,-0.29817 -0.029766,-0.0356 -0.058034,-0.0722 -0.086818,-0.10852 -0.083502,-0.1054 -0.1641978,-0.21258 -0.2392601,-0.32349 -0.018097,-0.0268 -0.035107,-0.0541 -0.05271,-0.0811 -0.071514,-0.10988 -0.1379591,-0.22248 -0.2010225,-0.33693 -0.017119,-0.0311 -0.035184,-0.0616 -0.051676,-0.093 -0.066794,-0.12715 -0.1278467,-0.25689 -0.1839674,-0.38861 -0.014314,-0.0336 -0.027747,-0.0674 -0.041341,-0.10129 -0.053946,-0.13426 -0.1036902,-0.2703 -0.1462458,-0.40824 -0.00855,-0.0277 -0.015187,-0.0559 -0.023257,-0.0837 -0.037338,-0.12865 -0.070014,-0.25811 -0.09715,-0.38912 -0.00574,-0.0278 -0.012806,-0.0553 -0.018098,-0.0832 -0.00238,-0.013 -0.00434,-0.0262 -0.00672,-0.0393 -0.014129,-0.0779 -0.026247,-0.15612 -0.036692,-0.23461 -0.00415,-0.0311 -0.00781,-0.0623 -0.011377,-0.0935 -0.00699,-0.0614 -0.012885,-0.12285 -0.017568,-0.18448 -0.00283,-0.0372 -0.00524,-0.0744 -0.00725,-0.11162 -0.00307,-0.0577 -0.00466,-0.11533 -0.00569,-0.17312 -5.292e-4,-0.0369 -0.00185,-0.0737 -0.00159,-0.11059 2.646e-4,-0.0589 0.00212,-0.11781 0.00466,-0.17673 0.00159,-0.037 0.00238,-0.0741 0.00466,-0.11111 0.00601,-0.0926 0.014393,-0.18507 0.025823,-0.2775 0.3136795,-2.53072 2.3475659,-4.43088 4.8653383,-5.20175 l -0.217043,-0.10697 z m 4.2865589,12.93978 c -0.441994,0.55706 -0.984964,1.04395 -1.598866,1.44901 0.614852,-0.40451 1.156803,-0.89186 1.598866,-1.44901 z m 3.897437,-4.73976 c -0.0024,0.0363 -0.005,0.0724 -0.0078,0.10852 a 7.7297899,7.7297899 0 0 0 0.0078,-0.10852 z m -0.09095,0.79065 c -0.0039,0.0236 -0.0082,0.0472 -0.01241,0.0708 a 7.7297899,7.7297899 0 0 0 0.01241,-0.0708 z m -0.164846,0.75034 c -0.0067,0.0248 -0.01315,0.0497 -0.02016,0.0744 a 7.7297899,7.7297899 0 0 0 0.02016,-0.0744 z m -0.235646,0.72192 c -0.01098,0.0287 -0.02125,0.0577 -0.03256,0.0863 a 7.7297899,7.7297899 0 0 0 0.03256,-0.0863 z m -0.297141,0.678 c -0.01953,0.0393 -0.0377,0.0794 -0.05788,0.11834 a 7.7297899,7.7297899 0 0 0 0.05788,-0.11834 z m -0.360182,0.64492 c -0.0438,0.0703 -0.0884,0.14 -0.134361,0.20877 a 7.7297899,7.7297899 0 0 0 0.134361,-0.20877 z m -4.414203,2.64531 c -0.123449,0.0796 -0.249975,0.15549 -0.378787,0.22841 0.128986,-0.0728 0.255156,-0.14891 0.378787,-0.22841 z m -0.5002258,0.29559 c -0.1147339,0.0623 -0.2319311,0.12137 -0.3503666,0.17829 0.1185995,-0.0569 0.2354527,-0.11607 0.3503666,-0.17829 z m -0.4955778,0.24753 c -0.1204119,0.0549 -0.2432024,0.10571 -0.366903,0.15503 0.12378,-0.0493 0.24638,-0.10016 0.366903,-0.15503 z m -0.4997106,0.20878 c -0.1689921,0.064 -0.3400637,0.12394 -0.5141807,0.17725 0.1740852,-0.0533 0.3451331,-0.11332 0.5141807,-0.17725 z"
         style="fill:url(#linearGradient1099);fill-opacity:1;fill-rule:evenodd;stroke:none;stroke-width:0.22965305"
         inkscape:connector-curvature="0" />
      <path
         style="fill:url(#linearGradient1009);fill-opacity:1;fill-rule:evenodd;stroke:none;stroke-width:0.22965305"
         d="m 8.2853541,280.71788 a 7.7297899,7.7297899 0 0 0 -0.4583694,0.0232 l 0.2175589,0.10697 c -2.5177723,0.77087 -4.5516588,2.67103 -4.8653382,5.20175 -0.1997261,1.61138 0.4377848,3.26229 1.6464121,4.39043 l 0.1405599,0.0393 c -0.6488351,-0.43598 -1.0719673,-1.21885 -1.1027754,-1.92444 -0.093049,-2.13122 2.2433015,-3.58071 4.4410736,-3.46232 0.147447,0.008 0.2914676,0.0234 0.4340807,0.0424 0.029509,0.004 0.059073,0.008 0.088368,0.0119 0.1370779,0.0205 0.2723541,0.0457 0.4046246,0.076 0.02413,0.006 0.047868,0.0117 0.071832,0.0176 0.1322017,0.0322 0.2620645,0.0681 0.3891228,0.10955 0.00452,0.001 0.00942,0.002 0.013943,0.004 0.00132,4.5e-4 0.00275,10e-4 0.00413,0.002 0.133649,0.0441 0.2640436,0.0945 0.3917073,0.14831 0.01918,0.008 0.03833,0.016 0.05736,0.0243 0.126957,0.0553 0.250912,0.11448 0.371551,0.1788 0.008,0.004 0.01574,0.009 0.02376,0.0134 0.118353,0.0639 0.233765,0.13205 0.345715,0.20412 0.0093,0.006 0.0191,0.0115 0.02842,0.0176 0.114707,0.0749 0.225695,0.1543 0.333314,0.23719 0.01146,0.009 0.02273,0.018 0.03411,0.0269 0.108698,0.0852 0.214196,0.17339 0.315227,0.26613 1.229698,1.12873 1.87996,2.79516 1.67845,4.42092 -0.313679,2.53072 -2.347047,4.43088 -4.8648188,5.20175 l 0.021193,0.0744 5.292e-4,0.003 c 2.1536736,-0.0451 4.0848066,-0.96939 5.4580656,-2.42415 1.307049,-1.38462 2.10888,-3.24964 2.109949,-5.29993 a 7.7297899,7.7297899 0 0 0 -0.0031,-0.13023 c -0.02601,-1.56763 -0.517676,-3.02155 -1.344104,-4.22919 a 7.7297899,7.7297899 0 0 0 -0.01085,-0.015 c -0.140494,-0.20426 -0.29009,-0.40175 -0.449067,-0.59118 a 7.7297899,7.7297899 0 0 0 -0.03256,-0.0377 c -0.153961,-0.18108 -0.315973,-0.35478 -0.485759,-0.5209 a 7.7297899,7.7297899 0 0 0 -0.05116,-0.0486 c -0.167664,-0.1611 -0.341852,-0.31486 -0.523481,-0.46043 a 7.7297899,7.7297899 0 0 0 -0.05788,-0.045 c -0.182872,-0.14376 -0.372301,-0.27962 -0.567926,-0.4067 a 7.7297899,7.7297899 0 0 0 -0.05736,-0.0367 c -0.203128,-0.12942 -0.412427,-0.2498 -0.627869,-0.36018 a 7.7297899,7.7297899 0 0 0 -0.02429,-0.0124 c -0.225055,-0.1143 -0.45642,-0.21781 -0.693497,-0.31006 -0.237458,-0.0924 -0.480459,-0.17343 -0.728639,-0.24236 -0.0016,-4.5e-4 -0.0031,-10e-4 -0.0047,-0.002 a 7.7297899,7.7297899 0 0 0 -0.0041,-0.001 c -0.24054,-0.0665 -0.4854965,-0.12163 -0.7348372,-0.16484 a 7.7297899,7.7297899 0 0 0 -0.026352,-0.005 C 9.3543344,280.78989 9.1174,280.76139 8.877542,280.74319 a 7.7297899,7.7297899 0 0 0 -0.095599,-0.007 c -0.1643539,-0.0104 -0.3296285,-0.0176 -0.4966123,-0.0176 z m -0.5875602,0.0294 a 7.7297899,7.7297899 0 0 0 -0.473874,0.0532 7.7297899,7.7297899 0 0 1 0.473874,-0.0532 z m -0.761193,0.0961 a 7.7297899,7.7297899 0 0 0 -0.4723236,0.10129 7.7297899,7.7297899 0 0 1 0.4723236,-0.10129 z m -0.7555098,0.17363 a 7.7297899,7.7297899 0 0 0 -0.4485534,0.14418 7.7297899,7.7297899 0 0 1 0.4485534,-0.14418 z m -0.7358724,0.24908 a 7.7297899,7.7297899 0 0 0 -0.428916,0.18707 7.7297899,7.7297899 0 0 1 0.428916,-0.18707 z m -0.7002171,0.31833 a 7.7297899,7.7297899 0 0 0 -0.4087601,0.22893 7.7297899,7.7297899 0 0 1 0.4087601,-0.22893 z m -0.671277,0.38964 a 7.7297899,7.7297899 0 0 0 -0.3746527,0.26252 7.7297899,7.7297899 0 0 1 0.3746527,-0.26252 z m -0.6283854,0.45579 a 7.7297899,7.7297899 0 0 0 -0.3405479,0.293 7.7297899,7.7297899 0 0 1 0.3405479,-0.293 z m -0.5777416,0.51418 a 7.7297899,7.7297899 0 0 0 -0.306959,0.32298 7.7297899,7.7297899 0 0 1 0.306959,-0.32298 z m -0.5234834,0.56947 a 7.7297899,7.7297899 0 0 0 -0.272333,0.3514 7.7297899,7.7297899 0 0 1 0.272333,-0.3514 z M 1.881612,284.13 A 7.7297899,7.7297899 0 0 0 1.6454502,284.50672 7.7297899,7.7297899 0 0 1 1.881612,284.13 Z m -0.4004945,0.66404 a 7.7297899,7.7297899 0 0 0 -0.1906852,0.38396 7.7297899,7.7297899 0 0 1 0.1906852,-0.38396 z m -0.3353779,0.70797 a 7.7297899,7.7297899 0 0 0 -0.1431449,0.38137 7.7297899,7.7297899 0 0 1 0.1431449,-0.38137 z m -0.25838413,0.72709 a 7.7297899,7.7297899 0 0 0 -0.10438606,0.39326 7.7297899,7.7297899 0 0 1 0.10438606,-0.39326 z m -0.18551789,0.75499 a 7.7297899,7.7297899 0 0 0 -0.0630449,0.39016 7.7297899,7.7297899 0 0 1 0.0630449,-0.39016 z m -0.10851886,0.76275 a 7.7297899,7.7297899 0 0 0 -0.032041,0.54415 7.7297899,7.7297899 0 0 1 0.032041,-0.54415 z"
         id="path991"
         inkscape:connector-curvature="0" />
      <path
         id="path1047"
         d="m 7.4988405,283.1415 c -1.3205116,-0.0128 -2.6102231,0.27198 -3.6328535,0.86868 -0.083426,0.14591 -0.1595147,0.29616 -0.22996,0.44907 -0.013864,0.0303 -0.028006,0.0604 -0.041341,0.091 -0.037148,0.0846 -0.071945,0.17022 -0.1049047,0.25683 -0.030112,0.0798 -0.059357,0.16032 -0.085783,0.24185 -0.015928,0.0486 -0.030906,0.0975 -0.045474,0.14676 -0.033758,0.11523 -0.064741,0.23144 -0.090951,0.34985 -0.00706,0.0317 -0.013123,0.0637 -0.019632,0.0956 -0.027242,0.13455 -0.051575,0.27036 -0.068731,0.40876 -0.1997261,1.61138 0.4377848,3.26229 1.6464121,4.39043 l 0.1405599,0.0393 c -0.081105,-0.0545 -0.1588188,-0.1143 -0.232545,-0.17881 -0.5160803,-0.45156 -0.843272,-1.12824 -0.8702304,-1.74562 -0.093049,-2.13123 2.2433015,-3.58072 4.4410736,-3.46233 0.147447,0.008 0.2914676,0.0234 0.4340807,0.0424 0.029509,0.004 0.059074,0.008 0.088368,0.0119 0.1370779,0.0205 0.2723541,0.0457 0.4046246,0.076 0.02413,0.006 0.047868,0.0117 0.071832,0.0176 0.1322017,0.0322 0.2620645,0.0681 0.3891227,0.10955 0.00452,10e-4 0.00942,0.002 0.013944,0.004 0.00132,4.5e-4 0.00275,0.001 0.00413,0.002 0.133649,0.0441 0.2640436,0.0945 0.3917075,0.14831 0.01918,0.008 0.03833,0.016 0.05736,0.0243 0.126958,0.0553 0.250912,0.11448 0.371552,0.1788 0.008,0.004 0.01574,0.009 0.02376,0.0134 0.118354,0.0639 0.233765,0.13205 0.345715,0.20412 0.0093,0.006 0.0191,0.0115 0.02842,0.0176 0.114707,0.0749 0.225695,0.15431 0.333314,0.2372 0.01146,0.009 0.02273,0.018 0.03411,0.0269 0.108699,0.0852 0.214196,0.1734 0.315227,0.26613 1.229699,1.12873 1.87996,2.79516 1.678451,4.42092 -0.01865,0.15048 -0.04436,0.29852 -0.07493,0.44442 -0.01061,0.0507 -0.02469,0.0998 -0.03669,0.14986 -0.02252,0.094 -0.04553,0.18764 -0.07286,0.27957 -0.01688,0.0568 -0.03662,0.11241 -0.05529,0.16846 -0.02792,0.0837 -0.05603,0.16719 -0.08785,0.24908 -0.02315,0.0597 -0.04874,0.11806 -0.0739,0.17674 -0.03143,0.0732 -0.06369,0.14593 -0.09818,0.21755 -0.03077,0.064 -0.06298,0.12696 -0.09612,0.18966 -0.03315,0.0626 -0.06737,0.1247 -0.102836,0.18603 -0.03849,0.0667 -0.07771,0.13282 -0.118856,0.19792 -0.03437,0.0543 -0.07028,0.10753 -0.106453,0.16072 -0.0464,0.0683 -0.09283,0.1366 -0.14211,0.20309 -0.0315,0.0424 -0.06502,0.0834 -0.09767,0.12505 -0.05909,0.0755 -0.118139,0.15081 -0.180867,0.22376 -0.0159,0.0185 -0.03298,0.036 -0.04909,0.0543 -0.351565,0.39943 -0.756203,0.75898 -1.203029,1.07332 -0.116223,0.0818 -0.235474,0.16007 -0.357082,0.23565 -0.119681,0.0744 -0.241913,0.1452 -0.3663865,0.21342 -0.00185,10e-4 -0.0037,0.003 -0.00569,0.004 -0.00159,8.2e-4 -0.00318,0.001 -0.00466,0.002 -0.1236372,0.0675 -0.249301,0.13199 -0.3772377,0.19327 -0.00132,6.6e-4 -0.00275,0.001 -0.00413,0.002 -0.00159,8e-4 -0.00349,0.001 -0.00516,0.002 -0.1293601,0.0618 -0.2604532,0.12047 -0.3937741,0.1757 l 0.4196133,0.24081 c 0.3635877,-0.0624 0.717844,-0.1508 1.06195,-0.262 1.93e-4,-1.5e-4 2.65e-4,-3.7e-4 5.29e-4,-5.3e-4 5.295032,-4.21953 4.099375,-9.68924 1.041797,-11.52798 -1.214519,-0.73037 -2.7279228,-1.11477 -4.204393,-1.12913 z"
         style="fill:url(#linearGradient1062);fill-opacity:1;fill-rule:evenodd;stroke:none;stroke-width:0.22965305"
         inkscape:connector-curvature="0" />
      <path
         sodipodi:nodetypes="sccccccccccccccccccccccscccss"
         inkscape:connector-curvature="0"
         id="path961"
         d="m 7.4988405,283.1415 c -1.3205116,-0.0128 -2.6102231,0.27198 -3.6328535,0.86868 -0.3537241,0.61867 -0.5952543,1.30125 -0.6867816,2.03967 -0.1997261,1.61138 0.4377848,3.26229 1.6464121,4.39043 l 0.1405599,0.0393 c -0.6488351,-0.43598 -1.0719673,-1.21885 -1.1027754,-1.92443 -0.093049,-2.13123 2.2433015,-3.58072 4.4410736,-3.46233 0.147447,0.008 0.2914676,0.0234 0.4340807,0.0424 0.029509,0.004 0.059073,0.008 0.088368,0.0119 0.1370779,0.0205 0.2723541,0.0457 0.4046246,0.076 0.02413,0.006 0.047868,0.0117 0.071832,0.0176 0.1322017,0.0322 0.2620645,0.0681 0.3891228,0.10955 0.00452,10e-4 0.00942,0.002 0.013943,0.004 0.00132,4.5e-4 0.00275,0.001 0.00413,0.002 0.133649,0.0441 0.2640436,0.0945 0.3917073,0.14831 0.01918,0.008 0.03833,0.016 0.05736,0.0243 0.126957,0.0553 0.250912,0.11448 0.371551,0.1788 0.008,0.004 0.01574,0.009 0.02376,0.0134 0.118353,0.0639 0.233765,0.13205 0.345715,0.20412 0.0093,0.006 0.0191,0.0115 0.02842,0.0176 0.114707,0.0749 0.225695,0.15431 0.333314,0.2372 0.01146,0.009 0.02273,0.018 0.03411,0.0269 0.108698,0.0852 0.214196,0.1734 0.315227,0.26613 1.229698,1.12873 1.87996,2.79516 1.67845,4.42092 -0.281606,2.27196 -1.951048,4.03266 -4.1108595,4.92735 l 0.4196133,0.24081 c 0.9392782,-0.16111 0.2721239,0.2048 1.0619492,-0.262 5.295699,-4.21959 4.100002,-9.68969 1.042313,-11.5285 -1.214519,-0.73037 -2.7279222,-1.11477 -4.2043924,-1.12913 z"
         style="fill:url(#linearGradient989);fill-opacity:1;stroke:none;stroke-width:0.26458332px;stroke-linecap:butt;stroke-linejoin:miter;stroke-opacity:1" />
      <path
         sodipodi:nodetypes="cc"
         inkscape:connector-curvature="0"
         id="path923"
         d="m 8.8021886,295.99741 c 3.2976284,-1.55593 5.3596114,-4.56404 3.9935384,-7.89155"
         style="fill:none;stroke:url(#linearGradient931);stroke-width:0.26458332px;stroke-linecap:butt;stroke-linejoin:miter;stroke-opacity:1" />
      <path
         style="fill:none;stroke:url(#linearGradient935);stroke-width:0.26458332px;stroke-linecap:butt;stroke-linejoin:miter;stroke-opacity:1"
         d="m 7.8499293,280.97441 c -3.7454972,1.33034 -5.5726065,4.97398 -4.0442091,8.20707"
         id="path933"
         inkscape:connector-curvature="0"
         sodipodi:nodetypes="cc" />
      <rect
         ry="3.4261301"
         y="285.08292"
         x="3.5347886"
         height="6.8522601"
         width="9.4711933"
         id="rect911"
         style="opacity:1;fill:#241c1c;fill-opacity:1;stroke:none;stroke-width:0.26499999;stroke-linecap:round;stroke-linejoin:round;stroke-miterlimit:4;stroke-dasharray:none;stroke-dashoffset:0;stroke-opacity:1" />
      <path
         style="color:#000000;font-style:normal;font-variant:normal;font-weight:normal;font-stretch:normal;font-size:medium;line-height:normal;font-family:sans-serif;font-variant-ligatures:normal;font-variant-position:normal;font-variant-caps:normal;font-variant-numeric:normal;font-variant-alternates:normal;font-feature-settings:normal;text-indent:0;text-align:start;text-decoration:none;text-decoration-line:none;text-decoration-style:solid;text-decoration-color:#000000;letter-spacing:normal;word-spacing:normal;text-transform:none;writing-mode:lr-tb;direction:ltr;text-orientation:mixed;dominant-baseline:auto;baseline-shift:baseline;text-anchor:start;white-space:normal;shape-padding:0;clip-rule:nonzero;display:inline;overflow:visible;visibility:visible;opacity:1;isolation:auto;mix-blend-mode:normal;color-interpolation:sRGB;color-interpolation-filters:linearRGB;solid-color:#000000;solid-opacity:1;vector-effect:none;fill:#ffffff;fill-opacity:1;fill-rule:nonzero;stroke:none;stroke-width:0.52916664;stroke-linecap:round;stroke-linejoin:miter;stroke-miterlimit:4;stroke-dasharray:none;stroke-dashoffset:0;stroke-opacity:1;color-rendering:auto;image-rendering:auto;shape-rendering:auto;text-rendering:auto;enable-background:accumulate"
         d="m 6.6523438,286.39258 a 0.26460978,0.26460978 0 0 0 -0.2617188,0.26953 v 4.87891 a 0.26464845,0.26464845 0 1 0 0.5292969,0 v -4.87891 a 0.26460978,0.26460978 0 0 0 -0.2675781,-0.26953 z"
         id="path917"
         inkscape:connector-curvature="0" />
      <circle
         r="1.5247176"
         cy="287.89917"
         cx="6.6380472"
         id="path915"
         style="opacity:1;fill:url(#linearGradient1125);fill-opacity:1;stroke:none;stroke-width:0.26499999;stroke-linecap:round;stroke-linejoin:round;stroke-miterlimit:4;stroke-dasharray:none;stroke-dashoffset:0;stroke-opacity:1" />
      <path
         style="color:#000000;font-style:normal;font-variant:normal;font-weight:normal;font-stretch:normal;font-size:medium;line-height:normal;font-family:sans-serif;font-variant-ligatures:normal;font-variant-position:normal;font-variant-caps:normal;font-variant-numeric:normal;font-variant-alternates:normal;font-feature-settings:normal;text-indent:0;text-align:start;text-decoration:none;text-decoration-line:none;text-decoration-style:solid;text-decoration-color:#000000;letter-spacing:normal;word-spacing:normal;text-transform:none;writing-mode:lr-tb;direction:ltr;text-orientation:mixed;dominant-baseline:auto;baseline-shift:baseline;text-anchor:start;white-space:normal;shape-padding:0;clip-rule:nonzero;display:inline;overflow:visible;visibility:visible;opacity:1;isolation:auto;mix-blend-mode:normal;color-interpolation:sRGB;color-interpolation-filters:linearRGB;solid-color:#000000;solid-opacity:1;vector-effect:none;fill:#ffffff;fill-opacity:1;fill-rule:nonzero;stroke:none;stroke-width:0.52916664;stroke-linecap:round;stroke-linejoin:miter;stroke-miterlimit:4;stroke-dasharray:none;stroke-dashoffset:0;stroke-opacity:1;color-rendering:auto;image-rendering:auto;shape-rendering:auto;text-rendering:auto;enable-background:accumulate"
         d="m 10.132812,286.39258 a 0.26460978,0.26460978 0 0 0 -0.2617182,0.26953 v 4.87891 a 0.2646486,0.2646486 0 1 0 0.5292972,0 v -4.87891 a 0.26460978,0.26460978 0 0 0 -0.267579,-0.26953 z"
         id="path919"
         inkscape:connector-curvature="0" />
      <circle
         r="1.5247176"
         style="opacity:1;fill:url(#linearGradient1117);fill-opacity:1;stroke:none;stroke-width:0.26499999;stroke-linecap:round;stroke-linejoin:round;stroke-miterlimit:4;stroke-dasharray:none;stroke-dashoffset:0;stroke-opacity:1"
         id="circle921"
         cx="10.117987"
         cy="289.15482" />
      <path
         id="path1032"
         d="m 5.9805846,281.08168 a 7.7297899,7.7297899 0 0 0 -0.2480469,0.0796 7.7297899,7.7297899 0 0 0 -0.287319,0.1049 7.7297899,7.7297899 0 0 0 -0.428916,0.18707 7.7297899,7.7297899 0 0 0 -0.2713011,0.13126 7.7297899,7.7297899 0 0 0 -0.4087601,0.22893 7.7297899,7.7297899 0 0 0 -0.2625169,0.16071 7.7297899,7.7297899 0 0 0 -0.3746527,0.26252 7.7297899,7.7297899 0 0 0 -0.4325329,0.34726 7.7297899,7.7297899 0 0 0 -0.1617477,0.13901 7.7297899,7.7297899 0 0 0 -0.2371937,0.22118 7.7297899,7.7297899 0 0 0 -0.306959,0.32298 7.7297899,7.7297899 0 0 0 -0.2165244,0.24649 7.7297899,7.7297899 0 0 0 -0.272333,0.3514 7.7297899,7.7297899 0 0 0 -0.1901692,0.2651 7.7297899,7.7297899 0 0 0 -0.2361618,0.37672 7.7297899,7.7297899 0 0 0 -0.2780189,0.51625 7.7297899,7.7297899 0 0 0 -0.076999,0.15503 7.7297899,7.7297899 0 0 0 -0.1446927,0.32401 7.7297899,7.7297899 0 0 0 -0.037208,0.0997 7.7297899,7.7297899 0 0 0 -0.1059365,0.28163 7.7297899,7.7297899 0 0 0 -0.11523927,0.34572 7.7297899,7.7297899 0 0 0 -0.0496094,0.18603 7.7297899,7.7297899 0 0 0 -0.0547767,0.20723 7.7297899,7.7297899 0 0 0 -0.0811318,0.36173 7.7297899,7.7297899 0 0 0 -0.0630449,0.39016 7.7297899,7.7297899 0 0 0 -0.0454739,0.37259 7.7297899,7.7297899 0 0 0 -0.0155046,0.25993 7.7297899,7.7297899 0 0 0 -0.0165365,0.28422 7.7297899,7.7297899 0 0 0 -0.005689,0.15658 7.7297899,7.7297899 0 0 0 7.72975967,7.72976 7.7297899,7.7297899 0 0 0 0.1612318,-0.008 l -0.021193,-0.0744 c 1.4753881,-0.45173 2.7810745,-1.2936 3.6752265,-2.42053 -2.2261459,0.54498 -4.589227,0.50268 -6.3381122,-0.48886 -4.6286526,-2.62422 -4.90937019,-9.47163 0.2180722,-12.10365 z m 8.4351434,12.06541 c -0.05874,0.0764 -0.119369,0.15118 -0.180866,0.22531 a 7.7297899,7.7297899 0 0 0 0.180866,-0.22531 z m -0.510561,0.60048 c -0.06419,0.068 -0.130818,0.13383 -0.197405,0.19947 a 7.7297899,7.7297899 0 0 0 0.197405,-0.19947 z m -0.549838,0.52762 c -0.06945,0.0605 -0.14079,0.11873 -0.212389,0.17673 a 7.7297899,7.7297899 0 0 0 0.212389,-0.17673 z m -0.608748,0.47852 c -0.0702,0.0498 -0.142031,0.0978 -0.21394,0.14521 a 7.7297899,7.7297899 0 0 0 0.21394,-0.14521 z m -0.656291,0.41652 c -0.06708,0.0381 -0.134774,0.075 -0.203089,0.1111 a 7.7297899,7.7297899 0 0 0 0.203089,-0.1111 z m -0.698664,0.35036 c -0.06343,0.0279 -0.12741,0.0549 -0.19172,0.0811 a 7.7297899,7.7297899 0 0 0 0.19172,-0.0811 z m -0.730705,0.27854 c -0.06196,0.02 -0.124431,0.0389 -0.187069,0.0574 a 7.7297899,7.7297899 0 0 0 0.187069,-0.0574 z m -0.7343221,0.1974 c -0.070631,0.0153 -0.14156,0.0295 -0.2129075,0.0429 a 7.7297899,7.7297899 0 0 0 0.2129075,-0.0429 z m -0.7560283,0.12506 c -0.079386,0.009 -0.1591469,0.0166 -0.2392601,0.0233 a 7.7297899,7.7297899 0 0 0 0.2392601,-0.0233 z"
         style="fill:url(#linearGradient1043);fill-opacity:1;stroke:none;stroke-width:0.26458332px;stroke-linecap:butt;stroke-linejoin:miter;stroke-opacity:1"
         inkscape:connector-curvature="0" />
      <path
         style="fill:none;fill-opacity:1;stroke:url(#linearGradient1074);stroke-width:0.13229166;stroke-linecap:butt;stroke-linejoin:miter;stroke-miterlimit:4;stroke-dasharray:none;stroke-opacity:0.32926833"
         d="m 10.675698,295.91234 c 5.438391,-4.34326 4.108161,-9.96433 0.955344,-11.7746 -0.808017,-0.46394 -1.725697,-0.79715 -2.6910981,-0.92361"
         id="path1066"
         inkscape:connector-curvature="0"
         sodipodi:nodetypes="csc" />
      <path
         sodipodi:nodetypes="csc"
         inkscape:connector-curvature="0"
         style="fill:none;fill-opacity:1;fill-rule:evenodd;stroke:url(#linearGradient1109);stroke-width:0.13229166;stroke-miterlimit:4;stroke-dasharray:none;stroke-opacity:0.2073171"
         d="m 5.1114336,281.47226 c -4.37057263,3.1254 -3.7348398,9.3267 0.574974,11.77015 0.951955,0.53971 2.127459,0.81932 3.3427776,0.83951"
         id="path1101" />
      <path
         inkscape:connector-curvature="0"
         id="circle872"
         d="m 8.2853541,280.3086 c -4.4899659,0 -8.13851975,3.64907 -8.13851975,8.13904 0,4.48997 3.64855385,8.13852 8.13851975,8.13852 4.4899679,0 8.1385219,-3.64855 8.1385219,-8.13852 0,-4.48997 -3.648554,-8.13904 -8.1385219,-8.13904 z m 0,0.81804 c 4.0481219,0 7.3209989,3.27288 7.3209989,7.321 0,4.04812 -3.272877,7.321 -7.3209989,7.321 -4.0481223,0 -7.32099958,-3.27288 -7.32099958,-7.321 0,-4.04812 3.27287728,-7.321 7.32099958,-7.321 z"
         style="color:#000000;font-style:normal;font-variant:normal;font-weight:normal;font-stretch:normal;font-size:medium;line-height:normal;font-family:sans-serif;font-variant-ligatures:normal;font-variant-position:normal;font-variant-caps:normal;font-variant-numeric:normal;font-variant-alternates:normal;font-feature-settings:normal;text-indent:0;text-align:start;text-decoration:none;text-decoration-line:none;text-decoration-style:solid;text-decoration-color:#000000;letter-spacing:normal;word-spacing:normal;text-transform:none;writing-mode:lr-tb;direction:ltr;text-orientation:mixed;dominant-baseline:auto;baseline-shift:baseline;text-anchor:start;white-space:normal;shape-padding:0;clip-rule:nonzero;display:inline;overflow:visible;visibility:visible;opacity:1;isolation:auto;mix-blend-mode:normal;color-interpolation:sRGB;color-interpolation-filters:linearRGB;solid-color:#000000;solid-opacity:1;vector-effect:none;fill:#fdfbf2;fill-opacity:1;fill-rule:nonzero;stroke:none;stroke-width:0.81756413;stroke-linecap:round;stroke-linejoin:miter;stroke-miterlimit:4;stroke-dasharray:none;stroke-dashoffset:0;stroke-opacity:1;color-rendering:auto;image-rendering:auto;shape-rendering:auto;text-rendering:auto;enable-background:accumulate" />
    </g>
  </g>
</svg>
