<?xml version="1.0" encoding="UTF-8" standalone="no"?>
<svg
   xmlns:dc="http://purl.org/dc/elements/1.1/"
   xmlns:cc="http://creativecommons.org/ns#"
   xmlns:rdf="http://www.w3.org/1999/02/22-rdf-syntax-ns#"
   xmlns:svg="http://www.w3.org/2000/svg"
   xmlns="http://www.w3.org/2000/svg"
   xmlns:xlink="http://www.w3.org/1999/xlink"
   xmlns:sodipodi="http://sodipodi.sourceforge.net/DTD/sodipodi-0.dtd"
   xmlns:inkscape="http://www.inkscape.org/namespaces/inkscape"
   width="64"
   height="64"
   viewBox="0 0 16.933333 16.933333"
   version="1.1"
   id="svg8"
   inkscape:version="1.0.1 (3bc2e813f5, 2020-09-07)"
   sodipodi:docname="qps.svg">
  <defs
     id="defs2">
    <linearGradient
       inkscape:collect="always"
       id="linearGradient983">
      <stop
         style="stop-color:#6c5353;stop-opacity:0.22499999"
         offset="0"
         id="stop979" />
      <stop
         style="stop-color:#6c5353;stop-opacity:0;"
         offset="1"
         id="stop981" />
    </linearGradient>
    <linearGradient
       inkscape:collect="always"
       id="linearGradient973">
      <stop
         style="stop-color:#ac9d93;stop-opacity:1;"
         offset="0"
         id="stop969" />
      <stop
         style="stop-color:#ac9d93;stop-opacity:0;"
         offset="1"
         id="stop971" />
    </linearGradient>
    <linearGradient
       inkscape:collect="always"
       id="linearGradient954">
      <stop
         style="stop-color:#ff9a80;stop-opacity:1;"
         offset="0"
         id="stop950" />
      <stop
         style="stop-color:#ff9a80;stop-opacity:0;"
         offset="1"
         id="stop952" />
    </linearGradient>
    <linearGradient
       inkscape:collect="always"
       id="linearGradient944">
      <stop
         style="stop-color:#ffeb9a;stop-opacity:1;"
         offset="0"
         id="stop940" />
      <stop
         style="stop-color:#ffeb9a;stop-opacity:0;"
         offset="1"
         id="stop942" />
    </linearGradient>
    <linearGradient
       id="linearGradient934"
       inkscape:collect="always">
      <stop
         id="stop930"
         offset="0"
         style="stop-color:#10ff98;stop-opacity:1" />
      <stop
         id="stop932"
         offset="1"
         style="stop-color:#0026b8;stop-opacity:0;" />
    </linearGradient>
    <linearGradient
       inkscape:collect="always"
       id="linearGradient922">
      <stop
         style="stop-color:#2bcfff;stop-opacity:1;"
         offset="0"
         id="stop918" />
      <stop
         style="stop-color:#2bcfff;stop-opacity:0;"
         offset="1"
         id="stop920" />
    </linearGradient>
    <linearGradient
       inkscape:collect="always"
       id="linearGradient912">
      <stop
         style="stop-color:#d3b21f;stop-opacity:1;"
         offset="0"
         id="stop908" />
      <stop
         style="stop-color:#bc9e1c;stop-opacity:0"
         offset="1"
         id="stop910" />
    </linearGradient>
    <linearGradient
       inkscape:collect="always"
       id="linearGradient902">
      <stop
         style="stop-color:#006b7d;stop-opacity:1;"
         offset="0"
         id="stop898" />
      <stop
         style="stop-color:#006b7d;stop-opacity:0;"
         offset="1"
         id="stop900" />
    </linearGradient>
    <linearGradient
       inkscape:collect="always"
       id="linearGradient888">
      <stop
         style="stop-color:#0026b8;stop-opacity:1;"
         offset="0"
         id="stop884" />
      <stop
         style="stop-color:#0026b8;stop-opacity:0;"
         offset="1"
         id="stop886" />
    </linearGradient>
    <linearGradient
       inkscape:collect="always"
       id="linearGradient848">
      <stop
         style="stop-color:#576c73;stop-opacity:1"
         offset="0"
         id="stop844" />
      <stop
         style="stop-color:#b2c0c5;stop-opacity:1"
         offset="1"
         id="stop846" />
    </linearGradient>
    <linearGradient
       inkscape:collect="always"
       xlink:href="#linearGradient848"
       id="linearGradient850"
       x1="8.4285498"
       y1="299.29941"
       x2="8.5410805"
       y2="282.7926"
       gradientUnits="userSpaceOnUse" />
    <linearGradient
       inkscape:collect="always"
       xlink:href="#linearGradient888"
       id="linearGradient890"
       x1="8.7806921"
       y1="19.284878"
       x2="32.28125"
       y2="3.0703125"
       gradientUnits="userSpaceOnUse" />
    <linearGradient
       inkscape:collect="always"
       xlink:href="#linearGradient902"
       id="linearGradient904"
       x1="20.674107"
       y1="2.14202"
       x2="47.825054"
       y2="16.74135"
       gradientUnits="userSpaceOnUse" />
    <linearGradient
       inkscape:collect="always"
       xlink:href="#linearGradient912"
       id="linearGradient914"
       x1="47.951324"
       y1="12.738523"
       x2="55.940254"
       y2="26.123045"
       gradientUnits="userSpaceOnUse" />
    <linearGradient
       inkscape:collect="always"
       xlink:href="#linearGradient922"
       id="linearGradient924"
       x1="3.0664062"
       y1="36.957111"
       x2="13.075641"
       y2="16.526596"
       gradientUnits="userSpaceOnUse" />
    <linearGradient
       inkscape:collect="always"
       xlink:href="#linearGradient934"
       id="linearGradient928"
       gradientUnits="userSpaceOnUse"
       x1="29.488819"
       y1="7.6681232"
       x2="51.852955"
       y2="4.8380795"
       gradientTransform="matrix(-0.26458333,0,0,0.26458333,17.082161,280.06667)" />
    <linearGradient
       inkscape:collect="always"
       xlink:href="#linearGradient944"
       id="linearGradient946"
       x1="50.22768"
       y1="15.445592"
       x2="40.424664"
       y2="7.3205914"
       gradientUnits="userSpaceOnUse" />
    <linearGradient
       inkscape:collect="always"
       xlink:href="#linearGradient954"
       id="linearGradient958"
       x1="59.88895"
       y1="41.957111"
       x2="55.424664"
       y2="19.099022"
       gradientUnits="userSpaceOnUse" />
    <linearGradient
       inkscape:collect="always"
       xlink:href="#linearGradient973"
       id="linearGradient975"
       x1="8.5648546"
       y1="293.71133"
       x2="8.6119547"
       y2="287.75821"
       gradientUnits="userSpaceOnUse" />
    <radialGradient
       inkscape:collect="always"
       xlink:href="#linearGradient983"
       id="radialGradient987"
       cx="8.1631813"
       cy="291.34897"
       fx="8.1631813"
       fy="291.34897"
       r="7.7297897"
       gradientUnits="userSpaceOnUse" />
  </defs>
  <sodipodi:namedview
     id="base"
     pagecolor="#ffffff"
     bordercolor="#666666"
     borderopacity="1.0"
     inkscape:pageopacity="0"
     inkscape:pageshadow="2"
     inkscape:zoom="0.98994949"
     inkscape:cx="6.9282364"
     inkscape:cy="24.627892"
     inkscape:document-units="mm"
     inkscape:current-layer="layer1"
     showgrid="false"
     units="px"
     inkscape:window-width="1920"
     inkscape:window-height="1027"
     inkscape:window-x="0"
     inkscape:window-y="25"
     inkscape:window-maximized="1"
     inkscape:document-rotation="0" />
  <metadata
     id="metadata5">
    <rdf:RDF>
      <cc:Work
         rdf:about="">
        <dc:format>image/svg+xml</dc:format>
        <dc:type
           rdf:resource="http://purl.org/dc/dcmitype/StillImage" />
        <dc:title></dc:title>
      </cc:Work>
    </rdf:RDF>
  </metadata>
  <g
     inkscape:label="Layer 1"
     inkscape:groupmode="layer"
     id="layer1"
     transform="translate(0,-280.06667)">
    <circle
       style="opacity:1;fill:url(#linearGradient850);fill-opacity:1;stroke:none;stroke-width:0.81756413;stroke-linecap:round;stroke-miterlimit:4;stroke-dasharray:none;stroke-dashoffset:0;stroke-opacity:1"
       id="path826"
       cx="8.5411577"
       cy="288.60864"
       r="7.7297897" />
    <path
       style="opacity:1;fill:#00b8b8;fill-opacity:1;stroke:none;stroke-width:3.09000611;stroke-linecap:round;stroke-miterlimit:4;stroke-dasharray:none;stroke-dashoffset:0;stroke-opacity:1"
       d="M 61.496094,32.285156 C 61.496034,16.150268 48.416138,3.0703727 32.28125,3.0703125 16.146362,3.0703728 3.0664667,16.150268 3.0664062,32.285156 h 7.2324218 c 2.14e-4,-12.140468 9.841954,-21.982208 21.982422,-21.982422 12.140468,2.14e-4 21.982208,9.841954 21.982422,21.982422 z"
       id="circle833"
       inkscape:connector-curvature="0"
       sodipodi:nodetypes="ccccccc"
       transform="matrix(0.26458333,0,0,0.26458333,0,280.06667)" />
    <path
       transform="matrix(0.26458333,0,0,0.26458333,0,280.06667)"
       sodipodi:nodetypes="ccccccc"
       inkscape:connector-curvature="0"
       id="path882"
       d="M 61.496094,32.285156 C 61.496034,16.150268 48.416138,3.0703727 32.28125,3.0703125 16.146362,3.0703728 3.0664667,16.150268 3.0664062,32.285156 h 7.2324218 c 2.14e-4,-12.140468 9.841954,-21.982208 21.982422,-21.982422 12.140468,2.14e-4 21.982208,9.841954 21.982422,21.982422 z"
       style="opacity:1;fill:url(#linearGradient890);fill-opacity:1;stroke:none;stroke-width:3.09000611;stroke-linecap:round;stroke-miterlimit:4;stroke-dasharray:none;stroke-dashoffset:0;stroke-opacity:1" />
    <path
       style="opacity:1;fill:url(#linearGradient928);fill-opacity:1;stroke:none;stroke-width:0.81756413;stroke-linecap:round;stroke-miterlimit:4;stroke-dasharray:none;stroke-dashoffset:0;stroke-opacity:1"
       d="m 0.81131996,288.60878 c 1.588e-5,-4.26902 3.46073834,-7.72974 7.72976074,-7.72976 4.2690223,2e-5 7.7297443,3.46074 7.7297603,7.72976 h -1.913578 c -5.7e-5,-3.21216 -2.604017,-5.81612 -5.8161823,-5.81618 -3.2121655,6e-5 -5.8161258,2.60402 -5.8161824,5.81618 z"
       id="path926"
       inkscape:connector-curvature="0"
       sodipodi:nodetypes="ccccccc" />
    <path
       transform="matrix(0.26458333,0,0,0.26458333,0,280.06667)"
       sodipodi:nodetypes="ccccc"
       inkscape:connector-curvature="0"
       id="path840"
       d="M 61.496094,32.285156 C 61.496034,16.150268 48.416138,3.0703727 32.28125,3.0703125 v 7.2324215 c 12.140468,2.14e-4 21.982208,9.841954 21.982422,21.982422 z"
       style="opacity:1;fill:#ffd42a;fill-opacity:1;stroke:none;stroke-width:3.09000611;stroke-linecap:round;stroke-miterlimit:4;stroke-dasharray:none;stroke-dashoffset:0;stroke-opacity:1" />
    <path
       style="opacity:0.468;fill:url(#linearGradient904);fill-opacity:1;stroke:none;stroke-width:3.09000611;stroke-linecap:round;stroke-miterlimit:4;stroke-dasharray:none;stroke-dashoffset:0;stroke-opacity:1"
       d="M 61.496094,32.285156 C 61.496034,16.150268 48.416138,3.0703727 32.28125,3.0703125 v 7.2324215 c 12.140468,2.14e-4 21.982208,9.841954 21.982422,21.982422 z"
       id="path896"
       inkscape:connector-curvature="0"
       sodipodi:nodetypes="ccccc"
       transform="matrix(0.26458333,0,0,0.26458333,0,280.06667)" />
    <path
       style="opacity:0.488;fill:url(#linearGradient946);fill-opacity:1;stroke:none;stroke-width:3.09000611;stroke-linecap:round;stroke-miterlimit:4;stroke-dasharray:none;stroke-dashoffset:0;stroke-opacity:1"
       d="M 61.496094,32.285156 C 61.496034,16.150268 48.416138,3.0703727 32.28125,3.0703125 v 7.2324215 c 12.140468,2.14e-4 21.982208,9.841954 21.982422,21.982422 z"
       id="path938"
       inkscape:connector-curvature="0"
       sodipodi:nodetypes="ccccc"
       transform="matrix(0.26458333,0,0,0.26458333,0,280.06667)" />
    <path
       transform="matrix(0.26458333,0,0,0.26458333,0,280.06667)"
       sodipodi:nodetypes="ccccc"
       inkscape:connector-curvature="0"
       id="path838"
       d="m 61.496094,32.285156 c -3e-5,-8.067444 -3.270019,-15.37114 -8.556861,-20.657982 l -5.114177,5.114176 c 3.978021,3.97802 6.438509,9.473572 6.438616,15.543806 z"
       style="opacity:1;fill:#ff2a2a;fill-opacity:1;stroke:none;stroke-width:3.09000611;stroke-linecap:round;stroke-miterlimit:4;stroke-dasharray:none;stroke-dashoffset:0;stroke-opacity:1" />
    <path
       style="opacity:1;fill:url(#linearGradient914);fill-opacity:1;stroke:none;stroke-width:3.09000611;stroke-linecap:round;stroke-miterlimit:4;stroke-dasharray:none;stroke-dashoffset:0;stroke-opacity:1"
       d="m 61.496094,32.285156 c -3e-5,-8.067444 -3.270019,-15.37114 -8.556861,-20.657982 l -5.114177,5.114176 c 3.978021,3.97802 6.438509,9.473572 6.438616,15.543806 z"
       id="path906"
       inkscape:connector-curvature="0"
       sodipodi:nodetypes="ccccc"
       transform="matrix(0.26458333,0,0,0.26458333,0,280.06667)" />
    <path
       transform="matrix(0.26458333,0,0,0.26458333,0,280.06667)"
       sodipodi:nodetypes="ccccc"
       inkscape:connector-curvature="0"
       id="path842"
       d="M 11.623268,11.627174 C 6.3364254,16.914016 3.0664365,24.217712 3.0664062,32.285156 h 7.2324218 c 1.07e-4,-6.070234 2.460596,-11.565786 6.438616,-15.543806 z"
       style="opacity:1;fill:#0066ff;fill-opacity:1;stroke:none;stroke-width:3.09000611;stroke-linecap:round;stroke-miterlimit:4;stroke-dasharray:none;stroke-dashoffset:0;stroke-opacity:1" />
    <path
       style="opacity:1;fill:url(#linearGradient924);fill-opacity:1;stroke:none;stroke-width:3.09000611;stroke-linecap:round;stroke-miterlimit:4;stroke-dasharray:none;stroke-dashoffset:0;stroke-opacity:1"
       d="M 11.623268,11.627174 C 6.3364254,16.914016 3.0664365,24.217712 3.0664062,32.285156 h 7.2324218 c 1.07e-4,-6.070234 2.460596,-11.565786 6.438616,-15.543806 z"
       id="path916"
       inkscape:connector-curvature="0"
       sodipodi:nodetypes="ccccc"
       transform="matrix(0.26458333,0,0,0.26458333,0,280.06667)" />
    <path
       style="opacity:1;fill:url(#linearGradient958);fill-opacity:1;stroke:none;stroke-width:3.09000611;stroke-linecap:round;stroke-miterlimit:4;stroke-dasharray:none;stroke-dashoffset:0;stroke-opacity:1"
       d="m 61.496094,32.285156 c -3e-5,-8.067444 -3.270019,-15.37114 -8.556861,-20.657982 l -5.114177,5.114176 c 3.978021,3.97802 6.438509,9.473572 6.438616,15.543806 z"
       id="path948"
       inkscape:connector-curvature="0"
       sodipodi:nodetypes="ccccc"
       transform="matrix(0.26458333,0,0,0.26458333,0,280.06667)" />
    <circle
       r="7.7297897"
       cy="288.60864"
       cx="8.5411577"
       id="circle872"
       style="opacity:1;fill:none;fill-opacity:1;stroke:#f1faf6;stroke-width:0.81756413;stroke-linecap:round;stroke-miterlimit:4;stroke-dasharray:none;stroke-dashoffset:0;stroke-opacity:1" />
    <path
       style="opacity:1;fill:#f9f9f9;fill-opacity:1;stroke:none;stroke-width:4.23333311;stroke-linecap:round;stroke-linejoin:round;stroke-miterlimit:4;stroke-dasharray:none;stroke-dashoffset:0;stroke-opacity:1"
       d="m 8.5411577,285.11248 -0.7214031,3.70365 a 1.7245163,1.7245163 0 0 0 -1.0030394,1.56424 1.7245163,1.7245163 0 0 0 1.7244425,1.72444 1.7245163,1.7245163 0 0 0 1.7244423,-1.72444 1.7245163,1.7245163 0 0 0 -1.0035562,-1.56424 z"
       id="path960"
       inkscape:connector-curvature="0" />
    <circle
       r="7.7297897"
       cy="288.60864"
       cx="8.5411577"
       id="circle977"
       style="opacity:1;fill:url(#radialGradient987);fill-opacity:1;stroke:none;stroke-width:0.81756413;stroke-linecap:round;stroke-miterlimit:4;stroke-dasharray:none;stroke-dashoffset:0;stroke-opacity:1" />
    <path
       inkscape:connector-curvature="0"
       id="path967"
       d="m 8.5411577,285.11248 -0.7214031,3.70365 a 1.7245163,1.7245163 0 0 0 -1.0030394,1.56424 1.7245163,1.7245163 0 0 0 1.7244425,1.72444 1.7245163,1.7245163 0 0 0 1.7244423,-1.72444 1.7245163,1.7245163 0 0 0 -1.0035562,-1.56424 z"
       style="opacity:1;fill:url(#linearGradient975);fill-opacity:1;stroke:none;stroke-width:4.23333311;stroke-linecap:round;stroke-linejoin:round;stroke-miterlimit:4;stroke-dasharray:none;stroke-dashoffset:0;stroke-opacity:1" />
  </g>
</svg>
