<?xml version="1.0" encoding="UTF-8" standalone="no"?>
<!-- Created with Inkscape (http://www.inkscape.org/) -->

<svg
   width="64"
   height="64"
   viewBox="0 0 16.933333 16.933333"
   version="1.1"
   id="svg8"
   inkscape:version="1.1.2 (0a00cf5339, 2022-02-04)"
   sodipodi:docname="rhythmbox.svg"
   xmlns:inkscape="http://www.inkscape.org/namespaces/inkscape"
   xmlns:sodipodi="http://sodipodi.sourceforge.net/DTD/sodipodi-0.dtd"
   xmlns:xlink="http://www.w3.org/1999/xlink"
   xmlns="http://www.w3.org/2000/svg"
   xmlns:svg="http://www.w3.org/2000/svg"
   xmlns:rdf="http://www.w3.org/1999/02/22-rdf-syntax-ns#"
   xmlns:cc="http://creativecommons.org/ns#"
   xmlns:dc="http://purl.org/dc/elements/1.1/">
  <defs
     id="defs2">
    <linearGradient
       inkscape:collect="always"
       id="linearGradient838">
      <stop
         style="stop-color:#ffffff;stop-opacity:1"
         offset="0"
         id="stop834" />
      <stop
         style="stop-color:#f7f7f7;stop-opacity:1"
         offset="1"
         id="stop836" />
    </linearGradient>
    <linearGradient
       inkscape:collect="always"
       id="linearGradient842">
      <stop
         style="stop-color:#ffffff;stop-opacity:1"
         offset="0"
         id="stop838" />
      <stop
         style="stop-color:#e4e4e4;stop-opacity:1"
         offset="1"
         id="stop840" />
    </linearGradient>
    <linearGradient
       inkscape:collect="always"
       id="linearGradient887">
      <stop
         style="stop-color:#fcebe0;stop-opacity:1"
         offset="0"
         id="stop883" />
      <stop
         style="stop-color:#e2ebf0;stop-opacity:1"
         offset="1"
         id="stop885" />
    </linearGradient>
    <linearGradient
       inkscape:collect="always"
       xlink:href="#linearGradient842"
       id="linearGradient844"
       x1="9.7574968"
       y1="280.90738"
       x2="9.3091936"
       y2="296.54614"
       gradientUnits="userSpaceOnUse" />
    <linearGradient
       inkscape:collect="always"
       xlink:href="#linearGradient838"
       id="linearGradient840"
       x1="8.6235685"
       y1="279.39548"
       x2="8.6004887"
       y2="297.49109"
       gradientUnits="userSpaceOnUse" />
    <linearGradient
       inkscape:collect="always"
       xlink:href="#linearGradient6386"
       id="linearGradient6388"
       x1="735.66742"
       y1="660.83142"
       x2="735.66742"
       y2="388.10217"
       gradientUnits="userSpaceOnUse"
       gradientTransform="matrix(0.04450677,0,0,0.04450677,-23.487181,265.42416)" />
    <linearGradient
       inkscape:collect="always"
       id="linearGradient6386">
      <stop
         style="stop-color:#f2b187;stop-opacity:1"
         offset="0"
         id="stop6382" />
      <stop
         style="stop-color:#ec908c;stop-opacity:1;"
         offset="0.54933107"
         id="stop23871" />
      <stop
         style="stop-color:#ec8f8b;stop-opacity:1;"
         offset="0.8804239"
         id="stop23677" />
      <stop
         style="stop-color:#de6865;stop-opacity:1"
         offset="1"
         id="stop6384" />
    </linearGradient>
    <linearGradient
       inkscape:collect="always"
       xlink:href="#linearGradient26704"
       id="linearGradient26784"
       gradientUnits="userSpaceOnUse"
       x1="722.4295"
       y1="521.9483"
       x2="731.73212"
       y2="556.66614"
       gradientTransform="matrix(0.04450677,0,0,0.04450677,-23.487181,265.42416)" />
    <linearGradient
       inkscape:collect="always"
       id="linearGradient26704">
      <stop
         style="stop-color:#f2bd9a;stop-opacity:0"
         offset="0"
         id="stop26700" />
      <stop
         style="stop-color:#1631cf;stop-opacity:0.61176471;"
         offset="0.10469195"
         id="stop26980" />
      <stop
         style="stop-color:#003cf2;stop-opacity:0.00045954"
         offset="1"
         id="stop26702" />
    </linearGradient>
    <linearGradient
       inkscape:collect="always"
       xlink:href="#linearGradient25252"
       id="linearGradient25254"
       x1="748.22168"
       y1="404.50122"
       x2="734.85419"
       y2="538.79596"
       gradientUnits="userSpaceOnUse"
       gradientTransform="matrix(0.04450677,0,0,0.04450677,-23.487181,265.42416)" />
    <linearGradient
       inkscape:collect="always"
       id="linearGradient25252">
      <stop
         style="stop-color:#f2b187;stop-opacity:1;"
         offset="0"
         id="stop25248" />
      <stop
         style="stop-color:#f2a472;stop-opacity:1"
         offset="1"
         id="stop25250" />
    </linearGradient>
    <linearGradient
       inkscape:collect="always"
       xlink:href="#linearGradient25530"
       id="linearGradient25532"
       x1="740.75671"
       y1="450.95929"
       x2="687.04364"
       y2="584.65771"
       gradientUnits="userSpaceOnUse"
       gradientTransform="matrix(0.04450677,0,0,0.04450677,-23.487181,265.42416)" />
    <linearGradient
       inkscape:collect="always"
       id="linearGradient25530">
      <stop
         style="stop-color:#f2bd9a;stop-opacity:1;"
         offset="0"
         id="stop25526" />
      <stop
         style="stop-color:#f26000;stop-opacity:0.25890476"
         offset="1"
         id="stop25528" />
    </linearGradient>
    <linearGradient
       inkscape:collect="always"
       xlink:href="#linearGradient26428"
       id="linearGradient26430"
       x1="746.40808"
       y1="555.41046"
       x2="681.24591"
       y2="574.94653"
       gradientUnits="userSpaceOnUse"
       gradientTransform="matrix(0.04450677,0,0,0.04450677,-23.487181,265.42416)" />
    <linearGradient
       inkscape:collect="always"
       id="linearGradient26428">
      <stop
         style="stop-color:#f2bd9a;stop-opacity:0.69014871"
         offset="0"
         id="stop26424" />
      <stop
         style="stop-color:#f2bd9a;stop-opacity:0;"
         offset="1"
         id="stop26426" />
    </linearGradient>
    <linearGradient
       inkscape:collect="always"
       xlink:href="#linearGradient30948"
       id="linearGradient30950"
       x1="674.57922"
       y1="450.78961"
       x2="786.78943"
       y2="568.28052"
       gradientUnits="userSpaceOnUse"
       gradientTransform="matrix(0.04450677,0,0,0.04450677,-23.487181,265.42416)" />
    <linearGradient
       inkscape:collect="always"
       id="linearGradient30948">
      <stop
         style="stop-color:#ffd14b;stop-opacity:1;"
         offset="0"
         id="stop30944" />
      <stop
         style="stop-color:#ffd14b;stop-opacity:0;"
         offset="1"
         id="stop30946" />
    </linearGradient>
    <linearGradient
       inkscape:collect="always"
       xlink:href="#linearGradient6386"
       id="linearGradient1096"
       gradientUnits="userSpaceOnUse"
       x1="735.66742"
       y1="660.83142"
       x2="735.66742"
       y2="388.10217"
       gradientTransform="matrix(0.04450677,0,0,0.04450677,-23.487181,265.42416)" />
    <linearGradient
       inkscape:collect="always"
       xlink:href="#linearGradient30948"
       id="linearGradient1098"
       gradientUnits="userSpaceOnUse"
       x1="674.57922"
       y1="450.78961"
       x2="786.78943"
       y2="568.28052"
       gradientTransform="matrix(0.04450677,0,0,0.04450677,-23.487181,265.42416)" />
    <radialGradient
       inkscape:collect="always"
       xlink:href="#linearGradient887"
       id="radialGradient1109"
       cx="8.5411577"
       cy="288.60864"
       fx="8.5411577"
       fy="288.60864"
       r="7.7297897"
       gradientUnits="userSpaceOnUse"
       gradientTransform="matrix(1.2816302,0,0,2.3717398,-2.4054479,-395.89598)" />
  </defs>
  <sodipodi:namedview
     id="base"
     pagecolor="#ffffff"
     bordercolor="#666666"
     borderopacity="1.0"
     inkscape:pageopacity="0"
     inkscape:pageshadow="2"
     inkscape:zoom="3.959798"
     inkscape:cx="-22.98097"
     inkscape:cy="33.966379"
     inkscape:document-units="mm"
     inkscape:current-layer="layer1"
     showgrid="false"
     units="px"
     inkscape:window-width="1920"
     inkscape:window-height="1028"
     inkscape:window-x="0"
     inkscape:window-y="24"
     inkscape:window-maximized="1"
     inkscape:pagecheckerboard="0" />
  <metadata
     id="metadata5">
    <rdf:RDF>
      <cc:Work
         rdf:about="">
        <dc:format>image/svg+xml</dc:format>
        <dc:type
           rdf:resource="http://purl.org/dc/dcmitype/StillImage" />
      </cc:Work>
    </rdf:RDF>
  </metadata>
  <g
     inkscape:label="Layer 1"
     inkscape:groupmode="layer"
     id="layer1"
     transform="translate(0,-280.06667)">
    <circle
       style="opacity:1;fill:url(#radialGradient1109);fill-opacity:1;stroke:none;stroke-width:0.81756413;stroke-linecap:round;stroke-miterlimit:4;stroke-dasharray:none;stroke-dashoffset:0;stroke-opacity:1"
       id="path826"
       cx="8.5411577"
       cy="288.60864"
       r="7.7297897" />
    <path
       id="circle872"
       style="opacity:1;fill:none;fill-opacity:1;stroke:url(#linearGradient844);stroke-width:0.81756413;stroke-linecap:round;stroke-miterlimit:4;stroke-dasharray:none;stroke-dashoffset:0;stroke-opacity:1"
       r="7.7297897"
       cy="288.60864"
       cx="8.5411577" />
    <circle
       r="7.7297897"
       cy="288.60864"
       cx="8.5411577"
       id="circle832"
       style="opacity:1;fill:none;fill-opacity:1;stroke:url(#linearGradient840);stroke-width:0.81756413;stroke-linecap:round;stroke-miterlimit:4;stroke-dasharray:none;stroke-dashoffset:0;stroke-opacity:1" />
    <path
       id="path1211"
       style="fill:#45007e;fill-opacity:0.0695295;stroke:none;stroke-width:0.047217px;stroke-linecap:butt;stroke-linejoin:miter;stroke-opacity:1"
       d="m 10.035055,281.6152 c -0.4568601,-0.002 -0.8583452,0.61702 -0.8583452,0.61702 0.06104,-0.08 0.1408269,-0.15322 0.2309935,-0.19689 -0.2919715,0.15738 -0.5772399,0.69803 -0.8195882,1.40354 -0.3047121,0.88706 -0.2744737,1.9295 -0.1736328,2.78639 -1.9098561,1.2348 -2.1706615,1.70463 -2.6251627,2.49184 -0.9655466,1.67238 -0.2524514,3.47888 0.9710002,4.37596 0,0 5.167e-4,5.1e-4 5.167e-4,5.1e-4 0.00169,10e-4 0.00347,0.002 0.00517,0.004 0.00151,10e-4 0.00314,0.002 0.00465,0.003 0.04918,0.0358 0.099126,0.0701 0.1498616,0.10284 0.00996,0.006 0.019956,0.0128 0.029972,0.0191 0.016123,0.0102 0.03231,0.0201 0.048576,0.03 0.01559,0.009 0.031309,0.0188 0.047026,0.0279 0,0 5.167e-4,5.1e-4 5.167e-4,5.1e-4 8.702e-4,5.1e-4 0.00171,0.001 0.00258,0.002 0.038333,0.0223 0.077231,0.0436 0.116272,0.0641 0.011022,0.006 0.021997,0.0119 0.033073,0.0176 0.00893,0.005 0.017908,0.009 0.026872,0.0134 0.024489,0.0122 0.049165,0.0237 0.073897,0.0351 0.00294,0.001 0.00584,0.003 0.00879,0.004 0.023293,0.0107 0.046786,0.0209 0.07028,0.031 0.00845,0.004 0.016844,0.007 0.025322,0.0109 0.02956,0.0123 0.059036,0.0244 0.088883,0.0357 0.6273384,0.23773 1.5169319,0.34766 2.4039877,0.14366 0.014159,0.0751 0.026963,0.14728 0.037207,0.21394 0.0064,0.0418 0.01212,0.0818 0.01705,0.1204 0.03452,0.27054 0.03283,0.46513 0.001,0.60307 -0.0045,0.0197 -0.0098,0.0378 -0.0155,0.0553 -0.0058,0.0175 -0.01219,0.0343 -0.01912,0.0496 -0.0069,0.0153 -0.01467,0.0296 -0.022737,0.0429 -0.00807,0.0133 -0.016665,0.0258 -0.025838,0.0372 -0.00917,0.0114 -0.018697,0.0219 -0.028939,0.0315 -0.010242,0.01 -0.021281,0.0183 -0.032556,0.0264 -0.011275,0.008 -0.022867,0.0152 -0.03514,0.0217 -0.03682,0.0194 -0.077828,0.0322 -0.1229899,0.0398 -0.015054,0.003 -0.030599,0.004 -0.046509,0.006 -0.015909,10e-4 -0.032362,0.003 -0.049092,0.003 -0.03346,9.8e-4 -0.068376,9e-5 -0.1049033,-0.002 -0.036527,-0.002 -0.074894,-0.005 -0.1142048,-0.01 -0.039311,-0.004 -0.07963,-0.01 -0.1214398,-0.0155 -0.04181,-0.006 -0.08465,-0.0115 -0.1286742,-0.0176 -0.018454,-0.003 -0.036409,-0.005 -0.053743,-0.006 -0.017335,-0.001 -0.034402,-0.002 -0.050643,-0.002 -0.016241,8e-5 -0.031854,8e-4 -0.047026,0.002 -0.015172,10e-4 -0.029798,0.003 -0.043925,0.005 -0.028254,0.005 -0.054324,0.0118 -0.078548,0.0207 -0.012112,0.004 -0.023998,0.01 -0.03514,0.015 -0.011141,0.005 -0.021844,0.0109 -0.032039,0.0171 -0.010195,0.006 -0.019665,0.0127 -0.028939,0.0196 -0.00927,0.007 -0.017977,0.0141 -0.026355,0.0217 -0.00838,0.008 -0.016265,0.016 -0.023771,0.0243 -0.00751,0.008 -0.015045,0.0165 -0.021704,0.0253 -0.05327,0.0706 -0.079625,0.15808 -0.085783,0.24391 -0.00154,0.0215 -0.00195,0.0426 -0.00103,0.0636 9.115e-4,0.021 0.00304,0.0415 0.0062,0.0615 0.00316,0.02 0.0077,0.0395 0.012919,0.0579 0.00522,0.0184 0.011007,0.036 0.018087,0.0522 0.014159,0.0324 0.032302,0.0597 0.05271,0.0801 0,0 0.00796,0.0118 0.024288,0.031 0.016324,0.0192 0.040745,0.046 0.073381,0.076 0.016318,0.015 0.0349,0.0304 0.055294,0.0465 0.020394,0.0161 0.042711,0.0324 0.067179,0.0486 0.036702,0.0242 0.078159,0.0479 0.1240235,0.0693 0.015288,0.007 0.030719,0.0141 0.047026,0.0207 0.016306,0.007 0.033319,0.0128 0.050643,0.0186 0.034647,0.0117 0.071354,0.022 0.1100706,0.03 0.019358,0.004 0.039053,0.007 0.059428,0.0103 0.020375,0.003 0.041137,0.005 0.062529,0.007 0.021392,0.002 0.043737,0.003 0.066146,0.003 0.022409,2.9e-4 0.045305,-3.5e-4 0.06873,-0.002 0.023425,-10e-4 0.046872,-0.003 0.071313,-0.006 0.024441,-0.003 0.049474,-0.007 0.074931,-0.0114 0.025457,-0.005 0.051558,-0.01 0.078031,-0.0165 0.026473,-0.007 0.053643,-0.0142 0.081132,-0.0227 0.027489,-0.009 0.055212,-0.0177 0.083716,-0.0284 0.028504,-0.0107 0.057814,-0.0227 0.087333,-0.0357 0.02952,-0.013 0.05938,-0.027 0.08992,-0.0424 0.03053,-0.0154 0.06147,-0.0322 0.09302,-0.0501 0.03155,-0.018 0.06355,-0.0372 0.09612,-0.0579 0.02855,-0.0181 0.05636,-0.0367 0.08268,-0.0558 0.02632,-0.0191 0.05129,-0.0389 0.07545,-0.0589 0.02416,-0.02 0.04716,-0.0401 0.06925,-0.061 0.02209,-0.0208 0.04347,-0.0424 0.06356,-0.0641 0.02009,-0.0216 0.03919,-0.0433 0.05736,-0.0656 0.01818,-0.0224 0.03533,-0.0452 0.05168,-0.0682 0.01634,-0.023 0.03192,-0.0462 0.04651,-0.0698 0.01459,-0.0236 0.02791,-0.0477 0.04082,-0.0718 0.01291,-0.0241 0.02538,-0.0483 0.03669,-0.0729 0.02263,-0.0492 0.04218,-0.0993 0.05891,-0.14987 0.0084,-0.0253 0.01573,-0.0509 0.02274,-0.0765 0.007,-0.0256 0.01338,-0.0512 0.01912,-0.077 0.0057,-0.0258 0.01096,-0.0516 0.0155,-0.0775 0.02724,-0.15548 0.03357,-0.31282 0.0279,-0.46509 -0.0019,-0.0507 -0.005,-0.10101 -0.0093,-0.15038 -0.0043,-0.0494 -0.0095,-0.0978 -0.0155,-0.14521 -0.0069,-0.0548 -0.01493,-0.10815 -0.02325,-0.15968 -0.0025,-0.0158 -0.0051,-0.0305 -0.0078,-0.046 -0.0045,-0.0265 -0.0089,-0.0517 -0.01344,-0.077 -0.0023,-0.0125 -0.0039,-0.0224 -0.0062,-0.0346 -0.0036,-0.0196 -0.0068,-0.037 -0.01034,-0.0558 -0.0012,-0.006 -0.0025,-0.0121 -0.0036,-0.0181 -0.0074,-0.0386 -0.01414,-0.0754 -0.02067,-0.11007 0,0 -0.0137,-0.0705 -0.01395,-0.0718 0.269928,-0.13495 0.531114,-0.3078 0.775146,-0.52296 3.63e-4,-3.2e-4 6.7e-4,-7.2e-4 0.001,-0.001 0.05647,-0.0498 0.112376,-0.101 0.166915,-0.15554 0,0 0,-5.2e-4 0,-5.2e-4 0.0081,-0.008 0.01585,-0.0165 0.02377,-0.0248 0.0022,-0.002 0.0045,-0.004 0.0067,-0.007 0.0022,-0.002 0.004,-0.005 0.0062,-0.007 0.01767,-0.0189 0.03522,-0.0384 0.05219,-0.0584 0.0095,-0.0112 0.01918,-0.0221 0.02842,-0.0336 0,0 0,-5.2e-4 0,-5.2e-4 0.0071,-0.009 0.01419,-0.0183 0.02119,-0.0274 0.0015,-0.002 0.0032,-0.004 0.0046,-0.006 6.71e-4,-8.8e-4 0.0014,-0.002 0.0021,-0.003 0.0012,-0.002 0.0024,-0.003 0.0036,-0.005 0.0077,-0.0102 0.01569,-0.0201 0.02325,-0.0305 0.0052,-0.007 0.0099,-0.0149 0.01499,-0.0222 0.01238,-0.0176 0.02477,-0.0351 0.03669,-0.0532 0,0 0,-5.2e-4 0,-5.2e-4 0.0039,-0.006 0.0075,-0.0121 0.01137,-0.0181 7.96e-4,-0.001 0.0018,-0.002 0.0026,-0.004 0.0036,-0.006 0.0073,-0.0113 0.01085,-0.0171 0.0081,-0.013 0.01641,-0.026 0.02429,-0.0393 0,0 0,-5.2e-4 0,-5.2e-4 0.0045,-0.008 0.009,-0.0156 0.01344,-0.0233 0.0011,-0.002 0.002,-0.004 0.0031,-0.006 0.0023,-0.004 0.0049,-0.008 0.0072,-0.0119 0.0076,-0.0135 0.01532,-0.0266 0.02274,-0.0403 0,0 0,-5.2e-4 0,-5.2e-4 0.01491,-0.0276 0.02944,-0.0557 0.04341,-0.0842 0,0 0,-5.1e-4 0,-5.1e-4 0.04201,-0.086 0.07984,-0.17627 0.113171,-0.26924 0.01107,-0.0309 0.02195,-0.062 0.03204,-0.0935 0,0 0,-5.2e-4 0,-5.2e-4 0,0 0,-5.2e-4 0,-5.2e-4 0.01009,-0.0315 0.01984,-0.063 0.02894,-0.0951 0,0 0,-5.2e-4 0,-5.2e-4 0.0091,-0.032 0.01775,-0.0641 0.02584,-0.0966 0,0 0,-5.2e-4 0,-5.2e-4 0.0081,-0.0325 0.01567,-0.0653 0.02274,-0.0982 0,0 0,-5.1e-4 0,-5.1e-4 0.0014,-0.007 0.0027,-0.0135 0.0041,-0.0202 3.24e-4,-0.002 7.11e-4,-0.003 0.001,-0.005 2.13e-4,-10e-4 3.06e-4,-0.002 5.17e-4,-0.003 0.0049,-0.024 0.01009,-0.0477 0.01447,-0.0718 0.006,-0.033 0.01156,-0.066 0.01654,-0.0992 5e-5,-3.3e-4 -5.1e-5,-6.9e-4 0,-10e-4 0.005,-0.0333 0.0095,-0.0663 0.01344,-0.0997 0,0 0,-5.1e-4 0,-5.1e-4 0.0039,-0.0335 0.0074,-0.0673 0.01033,-0.10077 0,0 0,-5.2e-4 0,-5.2e-4 0.0029,-0.0335 0.0049,-0.0668 0.0067,-0.10025 0,0 0,-5.2e-4 0,-5.2e-4 0.0018,-0.0335 0.0034,-0.0669 0.0041,-0.10025 0,0 0,-5.2e-4 0,-5.2e-4 7.19e-4,-0.0332 8.77e-4,-0.0667 5.17e-4,-0.0997 -4e-6,-3.5e-4 4e-6,-6.9e-4 0,-0.001 -3.74e-4,-0.0332 -0.0016,-0.0658 -0.0031,-0.0987 0,0 0,-5.1e-4 0,-5.1e-4 -0.0015,-0.0329 -0.0036,-0.0657 -0.0062,-0.0982 0,0 0,-5.2e-4 0,-5.2e-4 -0.0026,-0.0324 -0.0056,-0.0647 -0.0093,-0.0966 0,0 0,-5.2e-4 0,-5.2e-4 0,0 0,-5.1e-4 0,-5.1e-4 -0.0037,-0.0319 -0.0081,-0.0637 -0.01292,-0.0951 -5.2e-5,-3.4e-4 5.2e-5,-7e-4 0,-0.001 -0.0049,-0.0316 -0.01052,-0.0626 -0.01654,-0.0935 0,0 0,-5.1e-4 0,-5.1e-4 -0.006,-0.0308 -0.01251,-0.0613 -0.01964,-0.0915 0,0 0,-5.2e-4 0,-5.2e-4 0,0 0,-5.1e-4 0,-5.1e-4 -0.0072,-0.0303 -0.01542,-0.0599 -0.02377,-0.0894 0,0 0,-5.2e-4 0,-5.2e-4 -0.0084,-0.0295 -0.01734,-0.0587 -0.02687,-0.0873 0,0 0,-5.2e-4 0,-5.2e-4 -0.0095,-0.0287 -0.01976,-0.057 -0.03049,-0.0847 0,0 0,-5.2e-4 0,-5.2e-4 -0.01074,-0.0277 -0.02217,-0.0549 -0.03411,-0.0817 0,0 0,-5.1e-4 0,-5.1e-4 -0.01201,-0.0269 -0.02449,-0.0533 -0.03772,-0.0791 -0.01799,-0.0351 -0.03705,-0.0693 -0.05633,-0.10335 -0.0015,-0.003 -0.0032,-0.005 -0.0047,-0.008 -0.09608,-0.16847 -0.207535,-0.32447 -0.330729,-0.46561 -0.0019,-0.002 -0.0038,-0.004 -0.0057,-0.006 -0.198798,-0.22634 -0.42779,-0.41491 -0.672311,-0.55759 -0.0012,-7e-4 -0.0024,-10e-4 -0.0036,-0.002 -0.18415,-0.10705 -0.376893,-0.18799 -0.572058,-0.23978 -10e-4,-2.7e-4 -0.0021,-2.5e-4 -0.0031,-5.2e-4 -0.129857,-0.0343 -0.260655,-0.0557 -0.390674,-0.063 -0.0014,-8e-5 -0.0028,7e-5 -0.0041,0 -0.03766,-0.002 -0.07519,-0.003 -0.1126537,-0.003 v 5.1e-4 c -0.02648,1.8e-4 -0.0527,4.6e-4 -0.07906,0.002 -0.024324,10e-4 -0.048682,0.003 -0.072864,0.006 -0.016589,0.002 -0.033097,0.004 -0.049609,0.006 -0.1021601,-0.52348 -0.1892843,-0.96692 -0.291455,-1.49138 -6.64e-5,-3.4e-4 6.62e-5,-7e-4 0,-0.001 -0.011613,-0.0597 -0.021228,-0.11739 -0.031523,-0.1757 0.2840294,-0.30175 0.5438141,-0.58927 0.6996987,-0.7953 0.01373,-0.0181 0.02766,-0.0376 0.04186,-0.0579 0.0142,-0.0203 0.02884,-0.0412 0.04341,-0.0636 0.01457,-0.0223 0.02907,-0.046 0.04392,-0.0703 0.01485,-0.0242 0.02992,-0.0494 0.04496,-0.0754 0.120348,-0.2088 0.245441,-0.4753 0.3514,-0.77567 0.01319,-0.0374 0.0262,-0.0753 0.03876,-0.11369 0,0 0,-5.1e-4 0,-5.1e-4 0.01261,-0.0386 0.02482,-0.0773 0.03669,-0.11679 0.154372,-0.51325 0.242906,-1.10067 0.164848,-1.65985 -0.01199,-0.0859 -0.02784,-0.17111 -0.04806,-0.25528 0,0 0,-5.2e-4 0,-5.2e-4 -0.01014,-0.0422 -0.02125,-0.084 -0.03359,-0.12557 -0.02468,-0.0832 -0.0538,-0.16506 -0.08785,-0.24546 -0.0101,-0.0239 -0.02025,-0.0463 -0.03049,-0.0687 -0.0039,-0.008 -0.0075,-0.0165 -0.01137,-0.0248 -0.0022,-0.005 -0.0045,-0.009 -0.0067,-0.0134 -0.01186,-0.0248 -0.02364,-0.0489 -0.03566,-0.0718 -2.96e-4,-5.7e-4 -7.37e-4,-9.9e-4 -0.001,-0.002 -0.0283,-0.054 -0.05672,-0.10303 -0.08578,-0.14728 -0.0018,-0.003 -0.0034,-0.005 -0.0052,-0.008 -0.02763,-0.0415 -0.05557,-0.0788 -0.08372,-0.11214 -0.0014,-0.002 -0.0027,-0.003 -0.0041,-0.005 -0.01352,-0.0159 -0.02721,-0.0309 -0.04082,-0.045 -2.63e-4,-2.7e-4 -7.71e-4,-2.5e-4 -10e-4,-5.2e-4 -0.04494,-0.0464 -0.0899,-0.0839 -0.135392,-0.11265 -8.7e-4,-5.5e-4 -0.0017,-0.001 -0.0026,-0.002 -0.02665,-0.0166 -0.05344,-0.0301 -0.0801,-0.0413 -0.0055,-0.002 -0.011,-0.005 -0.01654,-0.007 -0.04312,-0.0164 -0.08604,-0.0264 -0.128674,-0.0305 -8.64e-4,-8e-5 -0.0017,8e-5 -0.0026,0 -0.01421,-0.001 -0.02826,-0.003 -0.04238,-0.003 z m -0.2036049,0.48628 c 0.010546,0.009 0.020986,0.019 0.031523,0.0295 0.081767,0.0814 0.1631799,0.20321 0.2402959,0.37827 0.104832,0.2291 0.422491,1.81265 -0.7797979,3.03134 -1.62e-5,-3.4e-4 1.58e-5,-7e-4 0,-0.001 -0.00266,-0.0563 -0.00431,-0.11184 -0.00568,-0.16639 -0.00125,-0.0497 -0.00235,-0.0985 -0.00258,-0.14677 -1.108e-4,-0.0237 3.9e-4,-0.0469 5.168e-4,-0.0703 3.902e-4,-0.073 0.00206,-0.14431 0.00465,-0.21394 6.08e-4,-0.0163 8.274e-4,-0.0329 0.00155,-0.0491 0.00163,-0.0365 0.00348,-0.0724 0.00568,-0.108 0.00156,-0.0251 0.00334,-0.0498 0.00517,-0.0744 0.00227,-0.0306 0.00456,-0.0615 0.00723,-0.0915 0.00411,-0.046 0.00894,-0.091 0.013953,-0.1354 0.00424,-0.0375 0.00859,-0.0743 0.013436,-0.11058 0.00168,-0.0126 0.00341,-0.0252 0.00517,-0.0377 0.011094,-0.079 0.023568,-0.15501 0.037207,-0.22841 0.00564,-0.0303 0.012062,-0.06 0.018087,-0.0894 0.00264,-0.0129 0.00504,-0.026 0.00775,-0.0387 0.00711,-0.0333 0.014661,-0.0661 0.022221,-0.0982 2.419e-4,-0.001 2.744e-4,-0.002 5.168e-4,-0.003 0.016962,-0.0718 0.034897,-0.14054 0.053743,-0.20619 0.00835,-0.0291 0.016674,-0.0574 0.025322,-0.0853 0.00232,-0.007 0.0049,-0.0148 0.00723,-0.0222 0.00882,-0.0279 0.017802,-0.0555 0.026872,-0.0822 H 9.570999 c 0.2302335,-0.67818 0.532268,-0.97255 0.532268,-0.97255 -0.07863,-0.16875 -0.1589353,-0.29345 -0.2402961,-0.37827 -0.010436,-0.0109 -0.021057,-0.0199 -0.031523,-0.0295 z m -1.2102621,5.42913 c 0.00748,0.0423 0.017448,0.0949 0.023255,0.13074 0.016604,0.10246 0.040999,0.23947 0.07183,0.40359 0.030831,0.16412 0.067848,0.35547 0.1100709,0.56792 0.00507,0.0255 0.011844,0.0571 0.017053,0.0832 -0.075738,0.0483 -0.1460302,0.0976 -0.2108399,0.1478 -3.741e-4,2.9e-4 -0.00118,0.001 -0.00155,0.002 -5.855e-4,4.5e-4 -9.66e-4,10e-4 -0.00155,0.002 -0.025229,0.0196 -0.049743,0.039 -0.073381,0.0589 -0.00122,10e-4 -0.0024,0.002 -0.00362,0.003 -0.00124,0.001 -0.00238,0.002 -0.00362,0.003 -0.018644,0.0158 -0.037628,0.0321 -0.055294,0.0481 -0.013645,0.0123 -0.026716,0.0248 -0.039791,0.0372 -0.00737,0.007 -0.01503,0.0137 -0.022221,0.0207 -0.00156,0.002 -0.00362,0.004 -0.00517,0.005 -0.011163,0.0109 -0.021824,0.0221 -0.032556,0.0331 -0.013509,0.0139 -0.026956,0.0274 -0.039791,0.0413 -0.00251,0.003 -0.00475,0.006 -0.00723,0.008 -0.011695,0.0129 -0.02297,0.0258 -0.034107,0.0387 -0.014234,0.0165 -0.027998,0.033 -0.041341,0.0496 -0.00299,0.004 -0.00584,0.008 -0.00878,0.0114 -0.00823,0.0104 -0.016402,0.0211 -0.024288,0.0315 -0.015162,0.0201 -0.030513,0.0397 -0.044442,0.0599 -0.076708,0.11118 -0.1344668,0.22383 -0.1772502,0.33693 -0.00855,0.0226 -0.016438,0.0451 -0.023771,0.0677 0,0 0,5.1e-4 0,5.1e-4 -0.014667,0.0452 -0.027118,0.0903 -0.037207,0.1354 -0.00504,0.0225 -0.00947,0.0447 -0.013436,0.0672 0,0 0,5.1e-4 0,5.1e-4 -0.00397,0.0225 -0.00739,0.0448 -0.010335,0.0672 -0.00294,0.0224 -0.00527,0.0444 -0.00723,0.0667 0,0 0,5.2e-4 0,5.2e-4 -0.03724,0.42361 0.098005,0.82518 0.2470131,1.12603 0.015685,0.0317 0.03175,0.0621 0.047543,0.0915 0,0 0,5.1e-4 0,5.1e-4 0.015719,0.0292 0.03157,0.057 0.047025,0.0837 0,0 0,5.2e-4 0,5.2e-4 0.015449,0.0267 0.031175,0.052 0.045992,0.076 0,0 0,5.2e-4 0,5.2e-4 0.044578,0.0722 0.085621,0.13209 0.1178224,0.17673 0.042978,0.0596 0.07028,0.092 0.07028,0.092 0,0 -0.00788,-0.021 -0.020154,-0.062 -0.0061,-0.0204 -0.013399,-0.046 -0.021187,-0.076 0,0 0,-5.2e-4 0,-5.2e-4 -5.392e-4,-0.002 -0.00101,-0.005 -0.00155,-0.007 -0.00739,-0.0288 -0.015198,-0.0612 -0.023255,-0.0982 -4.963e-4,-0.002 -0.00105,-0.005 -0.00155,-0.007 -0.00695,-0.0322 -0.014279,-0.0683 -0.021187,-0.10645 -7.353e-4,-0.004 -0.00133,-0.007 -0.00207,-0.0114 0,0 0,-5.1e-4 0,-5.1e-4 -4.365e-4,-0.002 -0.00111,-0.005 -0.00155,-0.007 -4.315e-4,-0.002 -6.037e-4,-0.005 -0.00103,-0.008 -0.00808,-0.0467 -0.016099,-0.0973 -0.023254,-0.15193 -0.00752,-0.0574 -0.014529,-0.11915 -0.020154,-0.185 0,0 0,-5.2e-4 0,-5.2e-4 -0.00562,-0.0659 -0.0101,-0.13581 -0.012919,-0.2098 0,0 0,-5.2e-4 0,-5.2e-4 -0.0083,-0.17416 0.011306,-0.33393 0.05271,-0.47904 0,0 0,-5.2e-4 0,-5.2e-4 0.027622,-0.0967 0.065143,-0.18675 0.1111044,-0.27027 0,0 0,-5.1e-4 0,-5.1e-4 0.011444,-0.0208 0.02371,-0.041 0.036174,-0.061 0,0 0,-5.2e-4 0,-5.2e-4 0.012472,-0.02 0.025828,-0.0393 0.039274,-0.0584 0,0 0,-5.2e-4 0,-5.2e-4 0.026992,-0.0384 0.05618,-0.075 0.086816,-0.11007 0,0 0,-5.2e-4 0,-5.2e-4 0.015367,-0.0175 0.030813,-0.0344 0.047026,-0.0512 0.081062,-0.0836 0.1725965,-0.1564 0.2713014,-0.21859 0.00392,-0.002 0.00794,-0.005 0.011885,-0.007 0.1444819,0.69977 0.3111336,1.48828 0.4749065,2.23914 0.034368,0.15757 0.067647,0.30648 0.1012859,0.45888 h -5.167e-4 c 0.015721,0.0712 0.030516,0.13752 0.045992,0.20723 0.00286,0.0129 0.00593,0.0254 0.00878,0.0382 -0.6036421,0.0717 -1.2789249,-0.10667 -1.8624187,-0.58911 -0.020487,-0.0169 -0.040081,-0.0344 -0.059428,-0.0517 -0.00649,-0.006 -0.012753,-0.0117 -0.01912,-0.0176 -0.00342,-0.003 -0.00695,-0.006 -0.010335,-0.009 -0.00923,-0.009 -0.01843,-0.0172 -0.027389,-0.0258 -0.026208,-0.0254 -0.051496,-0.0514 -0.075448,-0.0775 -0.022646,-0.0247 -0.043908,-0.0497 -0.064596,-0.0749 -0.016539,-0.0202 -0.032739,-0.0404 -0.048059,-0.061 -0.00868,-0.0116 -0.017025,-0.0234 -0.025321,-0.0351 -0.0037,-0.005 -0.00775,-0.0108 -0.011369,-0.016 -0.012849,-0.0187 -0.025296,-0.0374 -0.037207,-0.0563 -2.072e-4,-3.3e-4 -3.101e-4,-7.1e-4 -5.168e-4,-10e-4 -0.00164,-0.003 -0.00354,-0.006 -0.00517,-0.008 -0.00362,-0.006 -0.0068,-0.0117 -0.010335,-0.0176 -0.035203,-0.0584 -0.066666,-0.1178 -0.093534,-0.17829 -9.11e-4,-0.002 -0.00168,-0.004 -0.00258,-0.006 -0.029762,-0.0677 -0.05478,-0.13692 -0.074931,-0.2067 -3.048e-4,-0.001 -7.31e-4,-0.002 -0.00103,-0.003 -0.00297,-0.0104 -0.0055,-0.0206 -0.00827,-0.031 -0.00202,-0.008 -0.00377,-0.0151 -0.00568,-0.0227 -1.334e-4,-5.3e-4 -3.839e-4,-10e-4 -5.167e-4,-0.002 -0.00727,-0.029 -0.01386,-0.0581 -0.019637,-0.0873 -0.00474,-0.024 -0.00915,-0.0482 -0.012919,-0.0723 -0.00322,-0.0206 -0.00574,-0.0413 -0.00827,-0.062 -1.481e-4,-0.001 -3.706e-4,-0.002 -5.167e-4,-0.004 -0.00902,-0.075 -0.013794,-0.15062 -0.014469,-0.22634 -2.014e-4,-0.0226 3.17e-5,-0.0451 5.167e-4,-0.0677 0.00109,-0.0509 0.00391,-0.10203 0.00827,-0.15296 0.00609,-0.0711 0.015084,-0.14218 0.026872,-0.2129 0,0 0,-5.2e-4 0,-5.2e-4 0.0019,-0.0114 0.00417,-0.0227 0.0062,-0.0341 2.801e-4,-0.002 7.508e-4,-0.003 0.00103,-0.005 0.00469,-0.026 0.00962,-0.0517 0.014986,-0.0775 0.00122,-0.006 0.00237,-0.0117 0.00362,-0.0176 0.00337,-0.0158 0.00724,-0.0313 0.010852,-0.047 0.00638,-0.0278 0.013065,-0.0556 0.020154,-0.0832 0.00431,-0.0167 0.00837,-0.0335 0.012919,-0.0501 0.00524,-0.0192 0.010991,-0.0383 0.016537,-0.0574 0.00386,-0.0133 0.00789,-0.0266 0.011886,-0.0398 0.00265,-0.009 0.00505,-0.0176 0.00775,-0.0263 0,0 0,-5.2e-4 0,-5.2e-4 0.00399,-0.0128 0.00828,-0.0255 0.012402,-0.0382 0.014315,-0.0443 0.029268,-0.0883 0.044958,-0.13177 0.012795,-0.0355 0.025698,-0.0712 0.039274,-0.10594 0.00207,-0.005 0.00463,-0.0102 0.00672,-0.0155 0.016293,-0.0413 0.032942,-0.0823 0.050126,-0.12248 0.055097,-0.12854 0.1138364,-0.25078 0.1736328,-0.36483 0,0 0,-5.2e-4 0,-5.2e-4 0.00179,-0.003 0.0039,-0.006 0.00568,-0.01 0.04623,-0.0877 0.09316,-0.17041 0.138493,-0.24701 -0.0014,0.002 -0.00274,0.004 -0.00413,0.006 0.1127575,-0.19116 0.2182562,-0.34574 0.2924884,-0.44596 0.026145,-0.0353 0.048791,-0.0639 0.066146,-0.0853 0.017355,-0.0213 0.038542,-0.0462 0.063562,-0.0744 0.099418,-0.11224 0.268298,-0.28855 0.4521686,-0.47904 z m 1.3368697,1.73012 c 0.1552183,0.002 0.3089733,0.0232 0.4537183,0.0656 0.0436,0.0128 0.08632,0.0274 0.128157,0.0439 0.104605,0.0413 0.202961,0.0943 0.292489,0.15916 0.05372,0.0389 0.104289,0.0822 0.150895,0.12971 0.03107,0.0317 0.06041,0.0652 0.08785,0.10077 0.08233,0.10668 0.14722,0.2307 0.190169,0.37258 0,0 0,5.2e-4 0,5.2e-4 0.0071,0.0235 0.01378,0.0474 0.01964,0.0718 0,0 0,5.2e-4 0,5.2e-4 0.0059,0.0245 0.01145,0.0495 0.01602,0.0749 0,0 0,5.2e-4 0,5.2e-4 0.0091,0.0511 0.01544,0.10409 0.01912,0.15916 0,0 0,5.2e-4 0,5.2e-4 0.0018,0.0275 0.0032,0.0558 0.0036,0.0842 4.03e-4,0.0286 9.9e-5,0.0567 -5.17e-4,0.0848 0,0 0,5.1e-4 0,5.1e-4 -0.0012,0.056 -0.0041,0.11101 -0.0093,0.16485 0,0 0,5.2e-4 0,5.2e-4 -0.0026,0.0268 -0.0058,0.0533 -0.0093,0.0796 0,0 0,5.2e-4 0,5.2e-4 -0.0035,0.0263 -0.0079,0.0523 -0.0124,0.078 0,0 0,5.2e-4 0,5.2e-4 -0.009,0.0516 -0.01948,0.10208 -0.03204,0.15141 0,0 0,5.1e-4 0,5.1e-4 -0.0063,0.0246 -0.01302,0.0489 -0.02015,0.0729 0,0 0,5.2e-4 0,5.2e-4 -0.0017,0.006 -0.0039,0.0113 -0.0057,0.0171 -0.013,0.0423 -0.02729,0.0836 -0.04289,0.12402 -0.0089,0.023 -0.01771,0.0453 -0.02739,0.0677 0,0 0,5.1e-4 0,5.1e-4 -0.0193,0.0446 -0.04063,0.0881 -0.06305,0.13023 0,0 0,5.2e-4 0,5.2e-4 -0.01117,0.021 -0.02271,0.0416 -0.03462,0.062 0,0 0,5.1e-4 0,5.1e-4 -0.0059,0.0101 -0.0125,0.02 -0.0186,0.03 -0.0061,0.01 -0.01228,0.0201 -0.0186,0.03 0,0 0,5.2e-4 0,5.2e-4 -0.01265,0.0198 -0.02592,0.0392 -0.03927,0.0584 0,0 0,5.2e-4 0,5.2e-4 -0.01336,0.0191 -0.0273,0.0378 -0.04134,0.0563 0,0 0,5.2e-4 0,5.2e-4 -0.01404,0.0185 -0.0287,0.0364 -0.04341,0.0543 0,0 0,5.2e-4 0,5.2e-4 -0.02951,0.0358 -0.06046,0.0701 -0.0925,0.10335 0,0 0,5.2e-4 0,5.2e-4 -0.06232,0.0646 -0.130023,0.12394 -0.201022,0.17828 -0.0066,0.004 -0.01345,0.0101 -0.02015,0.015 -0.02213,0.0165 -0.04431,0.0326 -0.06718,0.0481 -0.148804,-0.76217 -0.291759,-1.49301 -0.5622383,-2.87735 z" />
    <path
       id="path860-0"
       style="fill:#45007e;fill-opacity:0.0695295;stroke:none;stroke-width:0.047217px;stroke-linecap:butt;stroke-linejoin:miter;stroke-opacity:1"
       d="m 9.8603547,281.34778 c -0.4568598,-0.002 -0.8583449,0.61702 -0.8583449,0.61702 0.06104,-0.08 0.1408269,-0.15322 0.2309935,-0.19689 -0.2919715,0.15738 -0.5772399,0.69803 -0.8195882,1.40354 -0.3047121,0.88706 -0.2744737,1.9295 -0.1736328,2.78639 -1.9098561,1.2348 -2.1706615,1.70463 -2.6251627,2.49184 -0.9655466,1.67238 -0.2524514,3.47888 0.9710002,4.37596 0,0 5.167e-4,5.1e-4 5.167e-4,5.1e-4 0.00169,0.001 0.00347,0.002 0.00517,0.004 0.00151,10e-4 0.00314,0.002 0.00465,0.003 0.04918,0.0358 0.099126,0.0701 0.1498616,0.10284 0.00996,0.006 0.019956,0.0128 0.029972,0.0191 0.016123,0.0102 0.03231,0.0201 0.048576,0.03 0.01559,0.009 0.031309,0.0188 0.047026,0.0279 0,0 5.167e-4,5.1e-4 5.167e-4,5.1e-4 8.702e-4,5.1e-4 0.00171,10e-4 0.00258,0.002 0.038333,0.0223 0.077231,0.0436 0.116272,0.0641 0.011022,0.006 0.021997,0.0119 0.033073,0.0176 0.00893,0.005 0.017908,0.009 0.026872,0.0134 0.024489,0.0122 0.049165,0.0237 0.073897,0.0351 0.00294,0.001 0.00584,0.003 0.00879,0.004 0.023293,0.0107 0.046786,0.0209 0.07028,0.031 0.00845,0.004 0.016844,0.007 0.025322,0.0109 0.02956,0.0123 0.059036,0.0244 0.088883,0.0357 0.6273384,0.23773 1.5169319,0.34766 2.4039877,0.14366 0.014159,0.0751 0.026963,0.14728 0.037207,0.21394 0.0064,0.0418 0.01212,0.0818 0.01705,0.1204 0.03452,0.27054 0.03283,0.46513 0.001,0.60307 -0.0045,0.0197 -0.0098,0.0378 -0.0155,0.0553 -0.0058,0.0175 -0.01219,0.0343 -0.01912,0.0496 -0.0069,0.0153 -0.01467,0.0296 -0.022737,0.0429 -0.00807,0.0133 -0.016665,0.0258 -0.025838,0.0372 -0.00917,0.0114 -0.018697,0.0219 -0.028939,0.0315 -0.010242,0.01 -0.021281,0.0183 -0.032556,0.0264 -0.011275,0.008 -0.022867,0.0152 -0.03514,0.0217 -0.03682,0.0194 -0.077828,0.0322 -0.1229899,0.0398 -0.015054,0.003 -0.030599,0.004 -0.046509,0.006 -0.015909,0.001 -0.032362,0.003 -0.049092,0.003 -0.03346,9.8e-4 -0.068376,9e-5 -0.1049033,-0.002 -0.036527,-0.002 -0.074894,-0.005 -0.1142048,-0.01 -0.039311,-0.004 -0.07963,-0.01 -0.1214398,-0.0155 -0.04181,-0.006 -0.08465,-0.0115 -0.1286742,-0.0176 -0.018454,-0.003 -0.036409,-0.005 -0.053743,-0.006 -0.017335,-0.001 -0.034402,-0.002 -0.050643,-0.002 -0.016241,8e-5 -0.031854,8e-4 -0.047026,0.002 -0.015172,10e-4 -0.029798,0.003 -0.043925,0.005 -0.028254,0.005 -0.054324,0.0118 -0.078548,0.0207 -0.012112,0.004 -0.023998,0.01 -0.03514,0.015 -0.011141,0.005 -0.021844,0.0109 -0.032039,0.0171 -0.010195,0.006 -0.019665,0.0127 -0.028939,0.0196 -0.00927,0.007 -0.017977,0.0141 -0.026355,0.0217 -0.00838,0.008 -0.016265,0.016 -0.023771,0.0243 -0.00751,0.008 -0.015045,0.0165 -0.021704,0.0253 -0.05327,0.0706 -0.079625,0.15808 -0.085783,0.24391 -0.00154,0.0215 -0.00195,0.0426 -0.00103,0.0636 9.115e-4,0.021 0.00304,0.0415 0.0062,0.0615 0.00316,0.02 0.0077,0.0395 0.012919,0.0579 0.00522,0.0184 0.011007,0.036 0.018087,0.0522 0.014159,0.0324 0.032302,0.0597 0.05271,0.0801 0,0 0.00796,0.0118 0.024288,0.031 0.016324,0.0192 0.040745,0.046 0.073381,0.076 0.016318,0.015 0.0349,0.0304 0.055294,0.0465 0.020394,0.0161 0.042711,0.0324 0.067179,0.0486 0.036702,0.0242 0.078159,0.0479 0.1240235,0.0693 0.015288,0.007 0.030719,0.0141 0.047026,0.0207 0.016306,0.007 0.033319,0.0128 0.050643,0.0186 0.034647,0.0117 0.071354,0.022 0.1100706,0.03 0.019358,0.004 0.039053,0.007 0.059428,0.0103 0.020375,0.003 0.041137,0.005 0.062529,0.007 0.021392,0.002 0.043737,0.003 0.066146,0.003 0.022409,2.9e-4 0.045305,-3.5e-4 0.06873,-0.002 0.023425,-0.001 0.046872,-0.003 0.071313,-0.006 0.024441,-0.003 0.049474,-0.007 0.074931,-0.0114 0.025457,-0.005 0.051558,-0.01 0.078031,-0.0165 0.026473,-0.007 0.053643,-0.0142 0.081132,-0.0227 0.027489,-0.009 0.055212,-0.0177 0.083716,-0.0284 0.028504,-0.0107 0.057814,-0.0227 0.087333,-0.0357 0.02952,-0.013 0.05938,-0.027 0.08992,-0.0424 0.03053,-0.0154 0.06147,-0.0322 0.09302,-0.0501 0.03155,-0.018 0.06355,-0.0372 0.09612,-0.0579 0.02855,-0.0181 0.05636,-0.0367 0.08268,-0.0558 0.02632,-0.0191 0.05129,-0.0389 0.07545,-0.0589 0.02416,-0.02 0.04716,-0.0401 0.06925,-0.061 0.02209,-0.0208 0.04347,-0.0424 0.06356,-0.0641 0.02009,-0.0216 0.03919,-0.0433 0.05736,-0.0656 0.01818,-0.0224 0.03533,-0.0452 0.05168,-0.0682 0.01634,-0.023 0.03192,-0.0462 0.04651,-0.0698 0.01459,-0.0236 0.02791,-0.0477 0.04082,-0.0718 0.01291,-0.0241 0.02538,-0.0483 0.03669,-0.0729 0.02263,-0.0492 0.04218,-0.0993 0.05891,-0.14987 0.0084,-0.0253 0.01573,-0.0509 0.02274,-0.0765 0.007,-0.0256 0.01338,-0.0512 0.01912,-0.077 0.0057,-0.0258 0.01096,-0.0516 0.0155,-0.0775 0.02724,-0.15548 0.03357,-0.31282 0.0279,-0.46509 -0.0019,-0.0507 -0.005,-0.10101 -0.0093,-0.15038 -0.0043,-0.0494 -0.0095,-0.0978 -0.0155,-0.14521 -0.0069,-0.0548 -0.01493,-0.10815 -0.02325,-0.15968 -0.0025,-0.0158 -0.0051,-0.0305 -0.0078,-0.046 -0.0045,-0.0265 -0.0089,-0.0517 -0.01344,-0.077 -0.0023,-0.0125 -0.0039,-0.0224 -0.0062,-0.0346 -0.0036,-0.0196 -0.0068,-0.037 -0.01034,-0.0558 -0.0012,-0.006 -0.0025,-0.0121 -0.0036,-0.0181 -0.0074,-0.0386 -0.01414,-0.0754 -0.02067,-0.11007 0,0 -0.0137,-0.0705 -0.01395,-0.0718 0.269928,-0.13495 0.531114,-0.3078 0.775146,-0.52296 3.63e-4,-3.2e-4 6.7e-4,-7.2e-4 0.001,-10e-4 0.05647,-0.0498 0.112376,-0.101 0.166915,-0.15554 0,0 0,-5.2e-4 0,-5.2e-4 0.0081,-0.008 0.01585,-0.0165 0.02377,-0.0248 0.0022,-0.002 0.0045,-0.004 0.0067,-0.007 0.0022,-0.002 0.004,-0.005 0.0062,-0.007 0.01767,-0.0189 0.03522,-0.0384 0.05219,-0.0584 0.0095,-0.0112 0.01918,-0.0221 0.02842,-0.0336 0,0 0,-5.2e-4 0,-5.2e-4 0.0071,-0.009 0.01419,-0.0183 0.02119,-0.0274 0.0015,-0.002 0.0032,-0.004 0.0046,-0.006 6.71e-4,-8.8e-4 0.0014,-0.002 0.0021,-0.003 0.0012,-0.002 0.0024,-0.003 0.0036,-0.005 0.0077,-0.0102 0.01569,-0.0201 0.02325,-0.0305 0.0052,-0.007 0.0099,-0.0149 0.01499,-0.0222 0.01238,-0.0176 0.02477,-0.0351 0.03669,-0.0532 0,0 0,-5.2e-4 0,-5.2e-4 0.0039,-0.006 0.0075,-0.0121 0.01137,-0.0181 7.96e-4,-0.001 0.0018,-0.002 0.0026,-0.004 0.0036,-0.006 0.0073,-0.0113 0.01085,-0.0171 0.0081,-0.013 0.01641,-0.026 0.02429,-0.0393 0,0 0,-5.2e-4 0,-5.2e-4 0.0045,-0.008 0.009,-0.0156 0.01344,-0.0233 0.0011,-0.002 0.002,-0.004 0.0031,-0.006 0.0023,-0.004 0.0049,-0.008 0.0072,-0.0119 0.0076,-0.0135 0.01532,-0.0266 0.02274,-0.0403 0,0 0,-5.2e-4 0,-5.2e-4 0.01491,-0.0276 0.02944,-0.0557 0.04341,-0.0842 0,0 0,-5.1e-4 0,-5.1e-4 0.04201,-0.086 0.07984,-0.17627 0.113171,-0.26924 0.01107,-0.0309 0.02195,-0.062 0.03204,-0.0935 0,0 0,-5.2e-4 0,-5.2e-4 0,0 0,-5.2e-4 0,-5.2e-4 0.01009,-0.0315 0.01984,-0.063 0.02894,-0.0951 0,0 0,-5.2e-4 0,-5.2e-4 0.0091,-0.032 0.01775,-0.0641 0.02584,-0.0966 0,0 0,-5.2e-4 0,-5.2e-4 0.0081,-0.0325 0.01567,-0.0653 0.02274,-0.0982 0,0 0,-5.1e-4 0,-5.1e-4 0.0014,-0.007 0.0027,-0.0135 0.0041,-0.0202 3.24e-4,-0.002 7.11e-4,-0.003 0.001,-0.005 2.13e-4,-0.001 3.06e-4,-0.002 5.17e-4,-0.003 0.0049,-0.024 0.01009,-0.0477 0.01447,-0.0718 0.006,-0.033 0.01156,-0.066 0.01654,-0.0992 5e-5,-3.3e-4 -5.1e-5,-6.9e-4 0,-10e-4 0.005,-0.0333 0.0095,-0.0663 0.01344,-0.0997 0,0 0,-5.1e-4 0,-5.1e-4 0.0039,-0.0335 0.0074,-0.0673 0.01033,-0.10077 0,0 0,-5.2e-4 0,-5.2e-4 0.0029,-0.0335 0.0049,-0.0668 0.0067,-0.10025 0,0 0,-5.2e-4 0,-5.2e-4 0.0018,-0.0335 0.0034,-0.0669 0.0041,-0.10025 0,0 0,-5.2e-4 0,-5.2e-4 7.19e-4,-0.0332 8.77e-4,-0.0667 5.17e-4,-0.0997 -4e-6,-3.5e-4 4e-6,-6.9e-4 0,-10e-4 -3.74e-4,-0.0332 -0.0016,-0.0658 -0.0031,-0.0987 0,0 0,-5.1e-4 0,-5.1e-4 -0.0015,-0.0329 -0.0036,-0.0657 -0.0062,-0.0982 0,0 0,-5.2e-4 0,-5.2e-4 -0.0026,-0.0324 -0.0056,-0.0647 -0.0093,-0.0966 0,0 0,-5.2e-4 0,-5.2e-4 0,0 0,-5.1e-4 0,-5.1e-4 -0.0037,-0.0319 -0.0081,-0.0637 -0.01292,-0.0951 -5.2e-5,-3.4e-4 5.2e-5,-7e-4 0,-10e-4 -0.0049,-0.0316 -0.01052,-0.0626 -0.01654,-0.0935 0,0 0,-5.1e-4 0,-5.1e-4 -0.006,-0.0308 -0.01251,-0.0613 -0.01964,-0.0915 0,0 0,-5.2e-4 0,-5.2e-4 0,0 0,-5.1e-4 0,-5.1e-4 -0.0072,-0.0303 -0.01542,-0.0599 -0.02377,-0.0894 0,0 0,-5.2e-4 0,-5.2e-4 -0.0084,-0.0295 -0.01734,-0.0587 -0.02687,-0.0873 0,0 0,-5.2e-4 0,-5.2e-4 -0.0095,-0.0287 -0.01976,-0.057 -0.03049,-0.0847 0,0 0,-5.2e-4 0,-5.2e-4 -0.01074,-0.0277 -0.02217,-0.0549 -0.03411,-0.0817 0,0 0,-5.1e-4 0,-5.1e-4 -0.01201,-0.0269 -0.02449,-0.0533 -0.03772,-0.0791 -0.01799,-0.0351 -0.03705,-0.0693 -0.05633,-0.10335 -0.0015,-0.003 -0.0032,-0.005 -0.0047,-0.008 -0.09608,-0.16847 -0.207535,-0.32447 -0.330729,-0.46561 -0.0019,-0.002 -0.0038,-0.004 -0.0057,-0.006 -0.198798,-0.22634 -0.42779,-0.41491 -0.672311,-0.55759 -0.0012,-7e-4 -0.0024,-10e-4 -0.0036,-0.002 -0.18415,-0.10705 -0.376893,-0.18799 -0.572058,-0.23978 -0.001,-2.7e-4 -0.0021,-2.5e-4 -0.0031,-5.2e-4 -0.129857,-0.0343 -0.260655,-0.0557 -0.3906733,-0.063 -0.0014,-8e-5 -0.0028,7e-5 -0.0041,0 -0.03766,-0.002 -0.07519,-0.003 -0.112654,-0.003 v 5.1e-4 c -0.02648,1.8e-4 -0.0527,4.6e-4 -0.07906,0.002 -0.024324,0.001 -0.048682,0.003 -0.072864,0.006 -0.016589,0.002 -0.033097,0.004 -0.049609,0.006 -0.1021601,-0.52348 -0.1892843,-0.96692 -0.291455,-1.49138 -6.64e-5,-3.4e-4 6.62e-5,-7e-4 0,-10e-4 -0.011613,-0.0597 -0.021228,-0.11739 -0.031523,-0.1757 0.2840294,-0.30175 0.5438141,-0.58927 0.6996989,-0.7953 0.01373,-0.0181 0.02766,-0.0376 0.04186,-0.0579 0.0142,-0.0203 0.02884,-0.0412 0.04341,-0.0636 0.01457,-0.0223 0.02907,-0.046 0.04392,-0.0703 0.01485,-0.0242 0.02992,-0.0494 0.04496,-0.0754 0.120348,-0.2088 0.245441,-0.4753 0.3514,-0.77567 0.01319,-0.0374 0.0262,-0.0753 0.03876,-0.11369 0,0 0,-5.1e-4 0,-5.1e-4 0.01261,-0.0386 0.02482,-0.0773 0.03669,-0.11679 0.154372,-0.51325 0.242906,-1.10067 0.164848,-1.65985 -0.01199,-0.0859 -0.02784,-0.17111 -0.04806,-0.25528 0,0 0,-5.2e-4 0,-5.2e-4 -0.01014,-0.0422 -0.02125,-0.084 -0.03359,-0.12557 -0.02468,-0.0832 -0.0538,-0.16506 -0.08785,-0.24546 -0.0101,-0.0239 -0.02025,-0.0463 -0.03049,-0.0687 -0.0039,-0.008 -0.0075,-0.0165 -0.01137,-0.0248 -0.0022,-0.005 -0.0045,-0.009 -0.0067,-0.0134 -0.01186,-0.0248 -0.02364,-0.0489 -0.03566,-0.0718 -2.96e-4,-5.7e-4 -7.37e-4,-9.9e-4 -10e-4,-0.002 -0.0283,-0.054 -0.05672,-0.10303 -0.08578,-0.14728 -0.0018,-0.003 -0.0034,-0.005 -0.0052,-0.008 -0.02763,-0.0415 -0.05557,-0.0788 -0.08372,-0.11214 -0.0014,-0.002 -0.0027,-0.003 -0.0041,-0.005 -0.01352,-0.0159 -0.02721,-0.0309 -0.04082,-0.045 -2.63e-4,-2.7e-4 -7.71e-4,-2.5e-4 -10e-4,-5.2e-4 -0.04494,-0.0464 -0.0899,-0.0839 -0.135392,-0.11265 -8.7e-4,-5.5e-4 -0.0017,-0.001 -0.0026,-0.002 -0.02665,-0.0166 -0.05344,-0.0301 -0.0801,-0.0413 -0.0055,-0.002 -0.011,-0.005 -0.01654,-0.007 -0.04312,-0.0164 -0.08604,-0.0264 -0.1286742,-0.0305 -8.64e-4,-8e-5 -0.0017,8e-5 -0.0026,0 -0.01421,-10e-4 -0.02826,-0.003 -0.04238,-0.003 z m -0.2036046,0.48628 c 0.010546,0.009 0.020986,0.019 0.031523,0.0295 0.081767,0.0814 0.1631796,0.20321 0.2402956,0.37827 0.1048323,0.2291 0.4224913,1.81265 -0.7797976,3.03134 -1.62e-5,-3.4e-4 1.58e-5,-7e-4 0,-10e-4 -0.00266,-0.0563 -0.00431,-0.11184 -0.00568,-0.16639 -0.00125,-0.0497 -0.00235,-0.0985 -0.00258,-0.14677 -1.108e-4,-0.0237 3.9e-4,-0.0469 5.168e-4,-0.0703 3.902e-4,-0.073 0.00206,-0.14431 0.00465,-0.21394 6.08e-4,-0.0163 8.274e-4,-0.0329 0.00155,-0.0491 0.00163,-0.0365 0.00348,-0.0724 0.00568,-0.108 0.00156,-0.0251 0.00334,-0.0498 0.00517,-0.0744 0.00227,-0.0306 0.00456,-0.0615 0.00723,-0.0915 0.00411,-0.046 0.00894,-0.091 0.013953,-0.1354 0.00424,-0.0375 0.00859,-0.0743 0.013436,-0.11058 0.00168,-0.0126 0.00341,-0.0252 0.00517,-0.0377 0.011094,-0.079 0.023568,-0.15501 0.037207,-0.22841 0.00564,-0.0303 0.012062,-0.06 0.018087,-0.0894 0.00264,-0.0129 0.00504,-0.026 0.00775,-0.0387 0.00711,-0.0333 0.014661,-0.0661 0.022221,-0.0982 2.419e-4,-0.001 2.744e-4,-0.002 5.168e-4,-0.003 0.016962,-0.0718 0.034897,-0.14054 0.053743,-0.20619 0.00835,-0.0291 0.016674,-0.0574 0.025322,-0.0853 0.00232,-0.007 0.0049,-0.0148 0.00723,-0.0222 0.00882,-0.0279 0.017802,-0.0555 0.026872,-0.0822 H 9.396299 c 0.2302335,-0.67818 0.5322677,-0.97255 0.5322677,-0.97255 -0.07863,-0.16875 -0.158935,-0.29345 -0.2402958,-0.37827 -0.010436,-0.0109 -0.021057,-0.0199 -0.031523,-0.0295 z m -1.2102621,5.42913 c 0.00748,0.0423 0.017448,0.0949 0.023255,0.13074 0.016604,0.10246 0.040999,0.23947 0.07183,0.40359 0.030831,0.16412 0.067848,0.35547 0.1100709,0.56792 0.00507,0.0255 0.011844,0.0571 0.017053,0.0832 -0.075738,0.0483 -0.1460302,0.0976 -0.2108399,0.1478 -3.741e-4,2.9e-4 -0.00118,0.001 -0.00155,0.002 -5.855e-4,4.5e-4 -9.66e-4,0.001 -0.00155,0.002 -0.025229,0.0196 -0.049743,0.039 -0.073381,0.0589 -0.00122,0.001 -0.0024,0.002 -0.00362,0.003 -0.00124,0.001 -0.00238,0.002 -0.00362,0.003 -0.018644,0.0158 -0.037628,0.0321 -0.055294,0.0481 -0.013645,0.0123 -0.026716,0.0248 -0.039791,0.0372 -0.00737,0.007 -0.01503,0.0137 -0.022221,0.0207 -0.00156,0.002 -0.00362,0.004 -0.00517,0.005 -0.011163,0.0109 -0.021824,0.0221 -0.032556,0.0331 -0.013509,0.0139 -0.026956,0.0274 -0.039791,0.0413 -0.00251,0.003 -0.00475,0.006 -0.00723,0.008 -0.011695,0.0129 -0.02297,0.0258 -0.034107,0.0387 -0.014234,0.0165 -0.027998,0.033 -0.041341,0.0496 -0.00299,0.004 -0.00584,0.008 -0.00878,0.0114 -0.00823,0.0104 -0.016402,0.0211 -0.024288,0.0315 -0.015162,0.0201 -0.030513,0.0397 -0.044442,0.0599 -0.076708,0.11118 -0.1344668,0.22383 -0.1772502,0.33693 -0.00855,0.0226 -0.016438,0.0451 -0.023771,0.0677 0,0 0,5.1e-4 0,5.1e-4 -0.014667,0.0452 -0.027118,0.0903 -0.037207,0.1354 -0.00504,0.0225 -0.00947,0.0447 -0.013436,0.0672 0,0 0,5.1e-4 0,5.1e-4 -0.00397,0.0225 -0.00739,0.0448 -0.010335,0.0672 -0.00294,0.0224 -0.00527,0.0444 -0.00723,0.0667 0,0 0,5.2e-4 0,5.2e-4 -0.03724,0.42361 0.098005,0.82518 0.2470131,1.12603 0.015685,0.0317 0.03175,0.0621 0.047543,0.0915 0,0 0,5.1e-4 0,5.1e-4 0.015719,0.0292 0.03157,0.057 0.047025,0.0837 0,0 0,5.2e-4 0,5.2e-4 0.015449,0.0267 0.031175,0.052 0.045992,0.076 0,0 0,5.2e-4 0,5.2e-4 0.044578,0.0722 0.085621,0.13209 0.1178224,0.17673 0.042978,0.0596 0.07028,0.092 0.07028,0.092 0,0 -0.00788,-0.021 -0.020154,-0.062 -0.0061,-0.0204 -0.013399,-0.046 -0.021187,-0.076 0,0 0,-5.2e-4 0,-5.2e-4 -5.392e-4,-0.002 -0.00101,-0.005 -0.00155,-0.007 -0.00739,-0.0288 -0.015198,-0.0612 -0.023255,-0.0982 -4.963e-4,-0.002 -0.00105,-0.005 -0.00155,-0.007 -0.00695,-0.0322 -0.014279,-0.0683 -0.021187,-0.10645 -7.353e-4,-0.004 -0.00133,-0.007 -0.00207,-0.0114 0,0 0,-5.1e-4 0,-5.1e-4 -4.365e-4,-0.002 -0.00111,-0.005 -0.00155,-0.007 -4.315e-4,-0.002 -6.037e-4,-0.005 -0.00103,-0.008 -0.00808,-0.0467 -0.016099,-0.0973 -0.023254,-0.15193 -0.00752,-0.0574 -0.014529,-0.11915 -0.020154,-0.185 0,0 0,-5.2e-4 0,-5.2e-4 -0.00562,-0.0659 -0.0101,-0.13581 -0.012919,-0.2098 0,0 0,-5.2e-4 0,-5.2e-4 -0.0083,-0.17416 0.011306,-0.33393 0.05271,-0.47904 0,0 0,-5.2e-4 0,-5.2e-4 0.027622,-0.0967 0.065143,-0.18675 0.1111044,-0.27027 0,0 0,-5.1e-4 0,-5.1e-4 0.011444,-0.0208 0.02371,-0.041 0.036174,-0.061 0,0 0,-5.2e-4 0,-5.2e-4 0.012472,-0.02 0.025828,-0.0393 0.039274,-0.0584 0,0 0,-5.2e-4 0,-5.2e-4 0.026992,-0.0384 0.05618,-0.075 0.086816,-0.11007 0,0 0,-5.2e-4 0,-5.2e-4 0.015367,-0.0175 0.030813,-0.0344 0.047026,-0.0512 0.081062,-0.0836 0.1725965,-0.1564 0.2713014,-0.21859 0.00392,-0.002 0.00794,-0.005 0.011885,-0.007 0.1444819,0.69977 0.3111336,1.48828 0.4749065,2.23914 0.034368,0.15757 0.067647,0.30648 0.1012859,0.45888 h -5.167e-4 c 0.015721,0.0712 0.030516,0.13752 0.045992,0.20723 0.00286,0.0129 0.00593,0.0254 0.00878,0.0382 -0.6036421,0.0717 -1.2789249,-0.10667 -1.8624187,-0.58911 -0.020487,-0.0169 -0.040081,-0.0344 -0.059428,-0.0517 -0.00649,-0.006 -0.012753,-0.0117 -0.01912,-0.0176 -0.00342,-0.003 -0.00695,-0.006 -0.010335,-0.009 -0.00923,-0.009 -0.01843,-0.0172 -0.027389,-0.0258 -0.026208,-0.0254 -0.051496,-0.0514 -0.075448,-0.0775 -0.022646,-0.0247 -0.043908,-0.0497 -0.064596,-0.0749 -0.016539,-0.0202 -0.032739,-0.0404 -0.048059,-0.061 -0.00868,-0.0116 -0.017025,-0.0234 -0.025321,-0.0351 -0.0037,-0.005 -0.00775,-0.0108 -0.011369,-0.016 -0.012849,-0.0187 -0.025296,-0.0374 -0.037207,-0.0563 -2.072e-4,-3.3e-4 -3.101e-4,-7.1e-4 -5.168e-4,-10e-4 -0.00164,-0.003 -0.00354,-0.006 -0.00517,-0.008 -0.00362,-0.006 -0.0068,-0.0117 -0.010335,-0.0176 -0.035203,-0.0584 -0.066666,-0.1178 -0.093534,-0.17829 -9.11e-4,-0.002 -0.00168,-0.004 -0.00258,-0.006 -0.029762,-0.0677 -0.05478,-0.13692 -0.074931,-0.2067 -3.048e-4,-0.001 -7.31e-4,-0.002 -0.00103,-0.003 -0.00297,-0.0104 -0.0055,-0.0206 -0.00827,-0.031 -0.00202,-0.008 -0.00377,-0.0151 -0.00568,-0.0227 -1.334e-4,-5.3e-4 -3.839e-4,-10e-4 -5.167e-4,-0.002 -0.00727,-0.029 -0.01386,-0.0581 -0.019637,-0.0873 -0.00474,-0.024 -0.00915,-0.0482 -0.012919,-0.0723 -0.00322,-0.0206 -0.00574,-0.0413 -0.00827,-0.062 -1.481e-4,-10e-4 -3.706e-4,-0.002 -5.167e-4,-0.004 -0.00902,-0.075 -0.013794,-0.15062 -0.014469,-0.22634 -2.014e-4,-0.0226 3.17e-5,-0.0451 5.167e-4,-0.0677 0.00109,-0.0509 0.00391,-0.10203 0.00827,-0.15296 0.00609,-0.0711 0.015084,-0.14218 0.026872,-0.2129 0,0 0,-5.2e-4 0,-5.2e-4 0.0019,-0.0114 0.00417,-0.0227 0.0062,-0.0341 2.801e-4,-0.002 7.508e-4,-0.003 0.00103,-0.005 0.00469,-0.026 0.00962,-0.0517 0.014986,-0.0775 0.00122,-0.006 0.00237,-0.0117 0.00362,-0.0176 0.00337,-0.0158 0.00724,-0.0313 0.010852,-0.047 0.00638,-0.0278 0.013065,-0.0556 0.020154,-0.0832 0.00431,-0.0167 0.00837,-0.0335 0.012919,-0.0501 0.00524,-0.0192 0.010991,-0.0383 0.016537,-0.0574 0.00386,-0.0133 0.00789,-0.0266 0.011886,-0.0398 0.00265,-0.009 0.00505,-0.0176 0.00775,-0.0263 0,0 0,-5.2e-4 0,-5.2e-4 0.00399,-0.0128 0.00828,-0.0255 0.012402,-0.0382 0.014315,-0.0443 0.029268,-0.0883 0.044958,-0.13177 0.012795,-0.0355 0.025698,-0.0712 0.039274,-0.10594 0.00207,-0.005 0.00463,-0.0102 0.00672,-0.0155 0.016293,-0.0413 0.032942,-0.0823 0.050126,-0.12248 0.055097,-0.12854 0.1138364,-0.25078 0.1736328,-0.36483 0,0 0,-5.2e-4 0,-5.2e-4 0.00179,-0.003 0.0039,-0.006 0.00568,-0.01 0.04623,-0.0877 0.09316,-0.17041 0.138493,-0.24701 -0.0014,0.002 -0.00274,0.004 -0.00413,0.006 0.1127575,-0.19116 0.2182562,-0.34574 0.2924884,-0.44596 0.026145,-0.0353 0.048791,-0.0639 0.066146,-0.0853 0.017355,-0.0213 0.038542,-0.0462 0.063562,-0.0744 0.099418,-0.11224 0.268298,-0.28855 0.4521686,-0.47904 z m 1.3368697,1.73012 c 0.155218,0.002 0.3089733,0.0232 0.4537183,0.0656 0.0436,0.0128 0.08632,0.0274 0.128157,0.0439 0.104605,0.0413 0.202961,0.0943 0.292489,0.15916 0.05372,0.0389 0.104289,0.0822 0.150895,0.12971 0.03107,0.0317 0.06041,0.0652 0.08785,0.10077 0.08233,0.10668 0.14722,0.2307 0.190169,0.37258 0,0 0,5.2e-4 0,5.2e-4 0.0071,0.0235 0.01378,0.0474 0.01964,0.0718 0,0 0,5.2e-4 0,5.2e-4 0.0059,0.0245 0.01145,0.0495 0.01602,0.0749 0,0 0,5.2e-4 0,5.2e-4 0.0091,0.0511 0.01544,0.10409 0.01912,0.15916 0,0 0,5.2e-4 0,5.2e-4 0.0018,0.0275 0.0032,0.0558 0.0036,0.0842 4.03e-4,0.0286 9.9e-5,0.0567 -5.17e-4,0.0848 0,0 0,5.1e-4 0,5.1e-4 -0.0012,0.056 -0.0041,0.11101 -0.0093,0.16485 0,0 0,5.2e-4 0,5.2e-4 -0.0026,0.0268 -0.0058,0.0533 -0.0093,0.0796 0,0 0,5.2e-4 0,5.2e-4 -0.0035,0.0263 -0.0079,0.0523 -0.0124,0.078 0,0 0,5.2e-4 0,5.2e-4 -0.009,0.0516 -0.01948,0.10208 -0.03204,0.15141 0,0 0,5.1e-4 0,5.1e-4 -0.0063,0.0246 -0.01302,0.0489 -0.02015,0.0729 0,0 0,5.2e-4 0,5.2e-4 -0.0017,0.006 -0.0039,0.0113 -0.0057,0.0171 -0.013,0.0423 -0.02729,0.0836 -0.04289,0.12402 -0.0089,0.023 -0.01771,0.0453 -0.02739,0.0677 0,0 0,5.1e-4 0,5.1e-4 -0.0193,0.0446 -0.04063,0.0881 -0.06305,0.13023 0,0 0,5.2e-4 0,5.2e-4 -0.01117,0.021 -0.02271,0.0416 -0.03462,0.062 0,0 0,5.1e-4 0,5.1e-4 -0.0059,0.0101 -0.0125,0.02 -0.0186,0.03 -0.0061,0.01 -0.01228,0.0201 -0.0186,0.03 0,0 0,5.2e-4 0,5.2e-4 -0.01265,0.0198 -0.02592,0.0392 -0.03927,0.0584 0,0 0,5.2e-4 0,5.2e-4 -0.01336,0.0191 -0.0273,0.0378 -0.04134,0.0563 0,0 0,5.2e-4 0,5.2e-4 -0.01404,0.0185 -0.0287,0.0364 -0.04341,0.0543 0,0 0,5.2e-4 0,5.2e-4 -0.02951,0.0358 -0.06046,0.0701 -0.0925,0.10335 0,0 0,5.2e-4 0,5.2e-4 -0.06232,0.0646 -0.130023,0.12394 -0.201022,0.17828 -0.0066,0.004 -0.01345,0.0101 -0.02015,0.015 -0.02213,0.0165 -0.04431,0.0326 -0.06718,0.0481 -0.148804,-0.76217 -0.291759,-1.49301 -0.5622383,-2.87735 z" />
    <g
       id="g884"
       transform="matrix(1.0608945,0,0,1.0608945,-0.29948855,-17.988689)">
      <path
         style="fill:url(#linearGradient1096);fill-opacity:1;stroke:none;stroke-width:0.0445067px;stroke-linecap:butt;stroke-linejoin:miter;stroke-opacity:1"
         d="m 9.408375,282.77861 c 0,0 -1.1585803,1.12675 -0.5829009,4.08182 0.5756786,2.95507 1.2090649,6.18753 1.2090649,6.18753 0.09851,0.52262 0.335625,1.55628 -0.5256921,2.10251 -0.9822446,0.62293 -1.4748089,-0.083 -1.4748089,-0.083 -0.1538947,-0.1539 -0.1431022,-0.73886 0.4135194,-0.66273 0.6639625,0.0908 1.0778565,0.19478 0.6928618,-1.48434 -0.3849938,-1.67912 -0.9820569,-4.51242 -1.1072691,-5.28506 -0.1071274,-0.66104 -0.5479081,-2.53997 -0.053159,-3.98024 0.4113898,-1.19762 0.9540252,-1.89449 1.4283836,-0.8765 z"
         id="path860"
         sodipodi:nodetypes="cscscssssc" />
      <path
         style="opacity:0.500664;fill:url(#linearGradient26784);fill-opacity:1;stroke:none;stroke-width:0.0445067px;stroke-linecap:butt;stroke-linejoin:miter;stroke-opacity:1"
         d="m 8.8254741,286.86043 c 0.5756786,2.95507 1.2090649,6.18753 1.2090649,6.18753 0.09851,0.52262 0.335625,1.55628 -0.5256921,2.10251 -0.9822446,0.62293 -1.4748089,-0.083 -1.4748089,-0.083 -0.1538947,-0.1539 -0.1431022,-0.73886 0.4135194,-0.66273 0.6639625,0.0908 1.0778565,0.19478 0.6928618,-1.48434 -0.3849938,-1.67912 -0.9820569,-4.51242 -1.1072691,-5.28506 z"
         id="path26641"
         sodipodi:nodetypes="ccscsscc" />
      <path
         style="fill:url(#linearGradient25254);fill-opacity:1;stroke:none;stroke-width:0.0445067px;stroke-linecap:butt;stroke-linejoin:miter;stroke-opacity:1"
         d="m 8.5351463,282.51764 c 0,0 0.8778917,-1.35495 1.4819087,0.0715 0.513469,1.21259 -0.1476566,2.80861 -0.5619102,3.35611 -0.4256285,0.56254 -1.668418,1.76664 -1.930157,2.08827 -0.2617384,0.32164 -1.7100215,2.41359 -0.3114663,3.56994 1.4019501,1.15915 3.3658025,0.45742 3.3414625,-1.26946 -0.02434,-1.72687 -2.8821745,-1.51654 -2.798662,0.23648 0.02125,0.55941 0.1410579,0.87805 0.1410579,0.87805 0,0 -1.6559293,-1.9754 0.7854768,-3.0647 0.9043448,-0.4035 2.0925353,0.17185 2.6391003,1.23692 0.399086,0.77768 0.204561,2.10266 -0.4112,2.71843 -1.2090357,1.20903 -2.9494391,1.178 -3.9631612,0.79385 -1.5366618,-0.58233 -2.6860278,-2.63158 -1.6056979,-4.50277 0.4478252,-0.77565 0.6918299,-1.2223 2.724995,-2.50965 1.8334505,-1.16089 1.4550045,-3.09386 1.3414821,-3.34195 -0.3072159,-0.6974 -0.6840051,-0.50887 -0.8732287,-0.26097 z"
         id="path2652"
         sodipodi:nodetypes="csssssccsssscscc" />
      <path
         id="path25289"
         style="fill:url(#linearGradient25532);fill-opacity:1;stroke:none;stroke-width:0.0445067px;stroke-linecap:butt;stroke-linejoin:miter;stroke-opacity:1"
         d="m 9.3438574,281.93608 c -0.00951,-4e-5 -0.018887,8.6e-4 -0.02834,0.002 0.598343,0.60405 2.1091786,2.76543 -2.5322779,6.12133 -2.056504,1.48692 -1.7506032,3.1732 -0.5255621,4.69599 0.2155983,0.15805 0.4479343,0.28625 0.6899416,0.37796 1.0137221,0.38416 2.7540643,0.41513 3.963101,-0.7939 0.615762,-0.61577 0.810339,-1.94072 0.411254,-2.7184 -0.546566,-1.06506 -1.7347686,-1.64047 -2.6391129,-1.23697 -2.441406,1.0893 -0.7854749,3.06479 -0.7854749,3.06479 0,0 -0.1198327,-0.31871 -0.1410828,-0.87814 -0.083512,-1.75304 2.7743696,-1.96335 2.7987106,-0.23647 0.02434,1.72687 -1.9395343,2.42863 -3.3414845,1.26949 -1.3985552,-1.15635 0.049722,-3.2483 0.3114606,-3.56994 0.2617389,-0.32162 1.504504,-1.52579 1.930133,-2.08833 0.4142543,-0.54751 1.0753679,-2.14351 0.5618979,-3.35609 -0.2076306,-0.49032 -0.4475932,-0.65197 -0.6731648,-0.653 z" />
      <path
         id="path25643"
         style="fill:url(#linearGradient26430);fill-opacity:1;stroke:none;stroke-width:0.0445067px;stroke-linecap:butt;stroke-linejoin:miter;stroke-opacity:1"
         d="m 7.1908431,288.52882 c -1.8761204,2.54409 0.2894288,5.19835 2.9642199,3.72205 0.971292,-0.53608 1.224305,-2.20043 0.380133,-2.97369 -1.161378,-1.06383 -3.695765,-0.11019 -2.637808,2.17136 0,0 -0.1198327,-0.31873 -0.1410829,-0.87815 -0.083512,-1.75301 2.7743689,-1.96332 2.7987099,-0.23644 0.02434,1.72688 -1.9395335,2.42864 -3.3414837,1.26948 -1.0660874,-0.88144 -0.4784833,-2.3044 -0.022688,-3.07461 z" />
      <path
         id="path30388"
         style="fill:url(#linearGradient1098);fill-opacity:1;stroke:none;stroke-width:0.0445067px;stroke-linecap:butt;stroke-linejoin:miter;stroke-opacity:1"
         d="m 9.2900496,288.25447 c -0.024961,1.7e-4 -0.049829,8.6e-4 -0.074671,0.002 -0.1834222,0.0101 -0.3629513,0.0513 -0.5325159,0.12691 -0.6663183,0.2973 -1.0259361,0.66069 -1.1988141,1.03183 -0.184598,1.07678 0.4133392,2.03297 0.4133392,2.03297 -1.0579569,-2.28155 1.4764293,-3.23518 2.6378072,-2.17136 0.844173,0.77326 0.59116,2.43761 -0.380132,2.97369 -0.3109496,0.17163 -0.6148412,0.28681 -0.906477,0.35345 l 0.2808613,0.57425 c 0.4889907,-0.15871 0.9665437,-0.42473 1.3812747,-0.83946 0.61576,-0.61576 0.810338,-1.94072 0.411252,-2.71839 -0.430206,-0.83833 -1.257991,-1.37322 -2.0319244,-1.36624 z m 1.2618364,2.22308 c -4.37e-4,0.009 -7.82e-4,0.0167 -0.0013,0.0249 5.21e-4,-0.009 8.53e-4,-0.0166 0.0013,-0.0249 z m -0.0139,0.157 c -0.0011,0.009 -0.0025,0.0171 -0.0037,0.0257 0.0013,-0.009 0.0026,-0.0171 0.0037,-0.0257 z m -0.02616,0.15585 c -4.72e-4,0.002 -0.0011,0.004 -0.0015,0.007 4.71e-4,-0.002 0.0011,-0.004 0.0015,-0.007 z m -0.0326,0.1284 c -0.002,0.007 -0.0038,0.0135 -0.0057,0.0201 0.002,-0.007 0.0038,-0.0134 0.0057,-0.0201 z m -0.04486,0.13518 c -0.0032,0.009 -0.0064,0.0165 -0.0096,0.0247 0.0032,-0.009 0.0065,-0.0165 0.0096,-0.0247 z m -0.05703,0.1342 c -0.002,0.004 -0.0042,0.009 -0.0061,0.0124 0.002,-0.004 0.0042,-0.009 0.0061,-0.0124 z m -0.06007,0.11362 c -0.0027,0.004 -0.0053,0.009 -0.008,0.0141 0.0027,-0.005 0.0053,-0.009 0.008,-0.0141 z m -0.07067,0.11222 c -0.0046,0.007 -0.0094,0.0135 -0.01417,0.0202 0.0048,-0.007 0.0095,-0.0134 0.01417,-0.0202 z m -0.08388,0.11206 c -0.0029,0.003 -0.0059,0.007 -0.0088,0.0103 0.0029,-0.003 0.0059,-0.007 0.0088,-0.0103 z m -0.08067,0.0911 c -0.0044,0.005 -0.0087,0.009 -0.01322,0.0141 0.0045,-0.005 0.0088,-0.009 0.01322,-0.0141 z m -0.09362,0.0912 c -0.0065,0.006 -0.01306,0.0116 -0.01965,0.0174 0.0066,-0.006 0.01314,-0.0115 0.01965,-0.0174 z m -0.104573,0.0871 c -0.0062,0.004 -0.01272,0.009 -0.01904,0.014 0.0063,-0.004 0.01278,-0.009 0.01904,-0.014 z m -0.1017052,0.072 c -0.00503,0.003 -0.010024,0.007 -0.015125,0.0101 0.00512,-0.003 0.010049,-0.007 0.015125,-0.0101 z m -0.1101365,0.0666 c -0.00845,0.005 -0.016934,0.009 -0.025473,0.014 0.00855,-0.004 0.017011,-0.009 0.025473,-0.014 z m -0.1239584,0.0631 c -0.00682,0.003 -0.013743,0.006 -0.020602,0.009 0.00682,-0.003 0.013786,-0.006 0.020602,-0.009 z m -0.087449,0.0367 c -0.030575,0.0122 -0.061585,0.0236 -0.092925,0.0343 0.031368,-0.0107 0.062335,-0.0221 0.092925,-0.0343 z m -0.140649,0.0501 c -0.034252,0.0107 -0.069015,0.0199 -0.1040515,0.0287 0.035036,-0.009 0.0698,-0.018 0.1040515,-0.0287 z m -0.1440384,0.039 c -0.049044,0.0112 -0.098684,0.0208 -0.1489928,0.0282 0.050313,-0.008 0.099946,-0.0171 0.1489928,-0.0282 z" />
      <path
         style="fill:url(#linearGradient6388);fill-opacity:1;stroke:none;stroke-width:0.0445067px;stroke-linecap:butt;stroke-linejoin:miter;stroke-opacity:1"
         d="m 9.7726839,291.71047 c 0.1596345,0.8158 0.2618551,1.33749 0.2618551,1.33749 0.09851,0.52262 0.335625,1.55628 -0.5256921,2.10251 -0.9822446,0.62293 -1.4748089,-0.083 -1.4748089,-0.083 -0.1538947,-0.1539 -0.1431022,-0.73886 0.4135194,-0.66273 0.6639625,0.0908 1.0778565,0.19478 0.6928618,-1.48434 -0.068845,-0.30026 -0.1444712,-0.63743 -0.2229682,-0.99312 z"
         id="path27384"
         sodipodi:nodetypes="ccscsscc" />
      <path
         id="path27666"
         style="fill:#f6ebff;fill-opacity:0.197812;stroke:none;stroke-width:0.0445067px;stroke-linecap:butt;stroke-linejoin:miter;stroke-opacity:1"
         d="m 8.8685398,283.69462 c -0.337052,0.60693 -0.4670051,1.35955 -0.4690599,2.18796 0.099585,-0.0802 0.1905948,-0.16298 0.2739947,-0.24757 -0.040155,-0.84931 0.079378,-1.48586 0.233487,-1.93961 z m -0.073367,2.99726 c -0.1090517,0.11591 -0.2159721,0.23052 -0.3279764,0.34692 0.04899,0.4412 0.1210458,0.89356 0.2073214,1.34885 0.00286,-0.002 0.00548,-0.003 0.00834,-0.003 0.1339649,-0.0598 0.2742748,-0.0972 0.4176862,-0.11561 -0.1288062,-0.65968 -0.1440698,-0.73541 -0.2750384,-1.4077 -0.011164,-0.0573 -0.020458,-0.11262 -0.030338,-0.16856 z m 0.4760138,2.44717 c -0.1467179,0.011 -0.2621992,0.003 -0.4016911,0.0463 0.542492,2.58336 1.3205735,4.89156 0.7616569,5.87654 0.7132216,-0.56316 0.4968846,-1.51811 0.4034286,-2.01392 0,0 -0.3959922,-2.02857 -0.7633944,-3.90895 z" />
      <path
         id="path31535"
         style="fill:url(#linearGradient30950);fill-opacity:1;stroke:none;stroke-width:0.0445067px;stroke-linecap:butt;stroke-linejoin:miter;stroke-opacity:1"
         d="m 9.2900496,288.25447 c -0.024961,1.7e-4 -0.049829,8.6e-4 -0.074671,0.002 -0.1834222,0.0101 -0.3629513,0.0513 -0.5325159,0.12691 -0.6663183,0.2973 -1.0259361,0.66069 -1.1988141,1.03183 -0.184598,1.07678 0.4133392,2.03297 0.4133392,2.03297 -1.0579569,-2.28155 1.4764293,-3.23518 2.6378072,-2.17136 0.844173,0.77326 0.59116,2.43761 -0.380132,2.97369 -0.3109496,0.17163 -0.6148412,0.28681 -0.906477,0.35345 l 0.2808613,0.57425 c 0.4889907,-0.15871 0.9665437,-0.42473 1.3812747,-0.83946 0.61576,-0.61576 0.810338,-1.94072 0.411252,-2.71839 -0.430206,-0.83833 -1.257991,-1.37322 -2.0319244,-1.36624 z m 1.2618364,2.22308 c -4.37e-4,0.009 -7.82e-4,0.0167 -0.0013,0.0249 5.21e-4,-0.009 8.53e-4,-0.0166 0.0013,-0.0249 z m -0.0139,0.157 c -0.0011,0.009 -0.0025,0.0171 -0.0037,0.0257 0.0013,-0.009 0.0026,-0.0171 0.0037,-0.0257 z m -0.02616,0.15585 c -4.72e-4,0.002 -0.0011,0.004 -0.0015,0.007 4.71e-4,-0.002 0.0011,-0.004 0.0015,-0.007 z m -0.0326,0.1284 c -0.002,0.007 -0.0038,0.0135 -0.0057,0.0201 0.002,-0.007 0.0038,-0.0134 0.0057,-0.0201 z m -0.04486,0.13518 c -0.0032,0.009 -0.0064,0.0165 -0.0096,0.0247 0.0032,-0.009 0.0065,-0.0165 0.0096,-0.0247 z m -0.05703,0.1342 c -0.002,0.004 -0.0042,0.009 -0.0061,0.0124 0.002,-0.004 0.0042,-0.009 0.0061,-0.0124 z m -0.06007,0.11362 c -0.0027,0.004 -0.0053,0.009 -0.008,0.0141 0.0027,-0.005 0.0053,-0.009 0.008,-0.0141 z m -0.07067,0.11222 c -0.0046,0.007 -0.0094,0.0135 -0.01417,0.0202 0.0048,-0.007 0.0095,-0.0134 0.01417,-0.0202 z m -0.08388,0.11206 c -0.0029,0.003 -0.0059,0.007 -0.0088,0.0103 0.0029,-0.003 0.0059,-0.007 0.0088,-0.0103 z m -0.08067,0.0911 c -0.0044,0.005 -0.0087,0.009 -0.01322,0.0141 0.0045,-0.005 0.0088,-0.009 0.01322,-0.0141 z m -0.09362,0.0912 c -0.0065,0.006 -0.01306,0.0116 -0.01965,0.0174 0.0066,-0.006 0.01314,-0.0115 0.01965,-0.0174 z m -0.104573,0.0871 c -0.0062,0.004 -0.01272,0.009 -0.01904,0.014 0.0063,-0.004 0.01278,-0.009 0.01904,-0.014 z m -0.1017052,0.072 c -0.00503,0.003 -0.010024,0.007 -0.015125,0.0101 0.00512,-0.003 0.010049,-0.007 0.015125,-0.0101 z m -0.1101365,0.0666 c -0.00845,0.005 -0.016934,0.009 -0.025473,0.014 0.00855,-0.004 0.017011,-0.009 0.025473,-0.014 z m -0.1239584,0.0631 c -0.00682,0.003 -0.013743,0.006 -0.020602,0.009 0.00682,-0.003 0.013786,-0.006 0.020602,-0.009 z m -0.087449,0.0367 c -0.030575,0.0122 -0.061585,0.0236 -0.092925,0.0343 0.031368,-0.0107 0.062335,-0.0221 0.092925,-0.0343 z m -0.140649,0.0501 c -0.034252,0.0107 -0.069015,0.0199 -0.1040515,0.0287 0.035036,-0.009 0.0698,-0.018 0.1040515,-0.0287 z m -0.1440384,0.039 c -0.049044,0.0112 -0.098684,0.0208 -0.1489928,0.0282 0.050313,-0.008 0.099946,-0.0171 0.1489928,-0.0282 z" />
    </g>
  </g>
</svg>
