<?xml version="1.0" encoding="UTF-8" standalone="no"?>
<!-- Created with Inkscape (http://www.inkscape.org/) -->

<svg
   xmlns:dc="http://purl.org/dc/elements/1.1/"
   xmlns:cc="http://creativecommons.org/ns#"
   xmlns:rdf="http://www.w3.org/1999/02/22-rdf-syntax-ns#"
   xmlns:svg="http://www.w3.org/2000/svg"
   xmlns="http://www.w3.org/2000/svg"
   xmlns:xlink="http://www.w3.org/1999/xlink"
   xmlns:sodipodi="http://sodipodi.sourceforge.net/DTD/sodipodi-0.dtd"
   xmlns:inkscape="http://www.inkscape.org/namespaces/inkscape"
   width="64"
   height="64"
   viewBox="0 0 16.933333 16.933333"
   version="1.1"
   id="svg8"
   inkscape:version="0.92.2 (5c3e80d, 2017-08-06)"
   sodipodi:docname="images.svg">
  <defs
     id="defs2">
    <linearGradient
       inkscape:collect="always"
       id="linearGradient1090">
      <stop
         style="stop-color:#302317;stop-opacity:1;"
         offset="0"
         id="stop1086" />
      <stop
         style="stop-color:#302317;stop-opacity:0;"
         offset="1"
         id="stop1088" />
    </linearGradient>
    <linearGradient
       inkscape:collect="always"
       id="linearGradient1080">
      <stop
         style="stop-color:#946c46;stop-opacity:1;"
         offset="0"
         id="stop1076" />
      <stop
         style="stop-color:#946c46;stop-opacity:0;"
         offset="1"
         id="stop1078" />
    </linearGradient>
    <linearGradient
       inkscape:collect="always"
       id="linearGradient1070">
      <stop
         style="stop-color:#412f1f;stop-opacity:1;"
         offset="0"
         id="stop1066" />
      <stop
         style="stop-color:#412f1f;stop-opacity:0;"
         offset="1"
         id="stop1068" />
    </linearGradient>
    <linearGradient
       inkscape:collect="always"
       id="linearGradient1060">
      <stop
         style="stop-color:#93704f;stop-opacity:1;"
         offset="0"
         id="stop1056" />
      <stop
         style="stop-color:#93704f;stop-opacity:0;"
         offset="1"
         id="stop1058" />
    </linearGradient>
    <linearGradient
       inkscape:collect="always"
       id="linearGradient1026">
      <stop
         style="stop-color:#ffffff;stop-opacity:0.21393035"
         offset="0"
         id="stop1022" />
      <stop
         style="stop-color:#ffffff;stop-opacity:0;"
         offset="1"
         id="stop1024" />
    </linearGradient>
    <linearGradient
       id="linearGradient1016"
       inkscape:collect="always">
      <stop
         id="stop1012"
         offset="0"
         style="stop-color:#ffffff;stop-opacity:0.58208954" />
      <stop
         id="stop1014"
         offset="1"
         style="stop-color:#ffffff;stop-opacity:0.2039801" />
    </linearGradient>
    <linearGradient
       inkscape:collect="always"
       id="linearGradient1004">
      <stop
         style="stop-color:#ffffff;stop-opacity:0.58208954"
         offset="0"
         id="stop1000" />
      <stop
         style="stop-color:#ffffff;stop-opacity:0;"
         offset="1"
         id="stop1002" />
    </linearGradient>
    <linearGradient
       inkscape:collect="always"
       id="linearGradient957">
      <stop
         style="stop-color:#f2b75a;stop-opacity:1;"
         offset="0"
         id="stop953" />
      <stop
         style="stop-color:#f2b75a;stop-opacity:0;"
         offset="1"
         id="stop955" />
    </linearGradient>
    <linearGradient
       inkscape:collect="always"
       id="linearGradient947">
      <stop
         style="stop-color:#a5541a;stop-opacity:1;"
         offset="0"
         id="stop943" />
      <stop
         style="stop-color:#a5541a;stop-opacity:0;"
         offset="1"
         id="stop945" />
    </linearGradient>
    <linearGradient
       inkscape:collect="always"
       id="linearGradient927">
      <stop
         style="stop-color:#803300;stop-opacity:1;"
         offset="0"
         id="stop923" />
      <stop
         style="stop-color:#803300;stop-opacity:0;"
         offset="1"
         id="stop925" />
    </linearGradient>
    <linearGradient
       inkscape:collect="always"
       id="linearGradient917">
      <stop
         style="stop-color:#492e17;stop-opacity:1;"
         offset="0"
         id="stop913" />
      <stop
         style="stop-color:#492e17;stop-opacity:0;"
         offset="1"
         id="stop915" />
    </linearGradient>
    <linearGradient
       inkscape:collect="always"
       id="linearGradient907">
      <stop
         style="stop-color:#905c2c;stop-opacity:1;"
         offset="0"
         id="stop903" />
      <stop
         style="stop-color:#905c2c;stop-opacity:0;"
         offset="1"
         id="stop905" />
    </linearGradient>
    <linearGradient
       inkscape:collect="always"
       id="linearGradient895">
      <stop
         style="stop-color:#57371b;stop-opacity:1;"
         offset="0"
         id="stop891" />
      <stop
         style="stop-color:#57371b;stop-opacity:0;"
         offset="1"
         id="stop893" />
    </linearGradient>
    <linearGradient
       inkscape:collect="always"
       id="linearGradient885">
      <stop
         style="stop-color:#a05a2c;stop-opacity:1;"
         offset="0"
         id="stop881" />
      <stop
         style="stop-color:#a05a2c;stop-opacity:0;"
         offset="1"
         id="stop883" />
    </linearGradient>
    <linearGradient
       inkscape:collect="always"
       id="linearGradient875">
      <stop
         style="stop-color:#6e4522;stop-opacity:1;"
         offset="0"
         id="stop871" />
      <stop
         style="stop-color:#6e4522;stop-opacity:0;"
         offset="1"
         id="stop873" />
    </linearGradient>
    <linearGradient
       inkscape:collect="always"
       id="linearGradient865">
      <stop
         style="stop-color:#d86e1a;stop-opacity:1;"
         offset="0"
         id="stop861" />
      <stop
         style="stop-color:#d86e1a;stop-opacity:0;"
         offset="1"
         id="stop863" />
    </linearGradient>
    <linearGradient
       inkscape:collect="always"
       id="linearGradient841">
      <stop
         style="stop-color:#ffa366;stop-opacity:1"
         offset="0"
         id="stop837" />
      <stop
         style="stop-color:#9de9ff;stop-opacity:1"
         offset="1"
         id="stop839" />
    </linearGradient>
    <linearGradient
       inkscape:collect="always"
       xlink:href="#linearGradient841"
       id="linearGradient843"
       x1="8.3806067"
       y1="289.57483"
       x2="10.430566"
       y2="275.13242"
       gradientUnits="userSpaceOnUse" />
    <linearGradient
       inkscape:collect="always"
       xlink:href="#linearGradient865"
       id="linearGradient867"
       x1="0.72086489"
       y1="287.23578"
       x2="3.5294006"
       y2="290.3541"
       gradientUnits="userSpaceOnUse" />
    <linearGradient
       inkscape:collect="always"
       xlink:href="#linearGradient875"
       id="linearGradient877"
       x1="1.8547934"
       y1="290.58484"
       x2="4.3128586"
       y2="291.38806"
       gradientUnits="userSpaceOnUse" />
    <linearGradient
       inkscape:collect="always"
       xlink:href="#linearGradient885"
       id="linearGradient887"
       x1="7.2882013"
       y1="291.57703"
       x2="4.2183647"
       y2="292.09674"
       gradientUnits="userSpaceOnUse" />
    <linearGradient
       inkscape:collect="always"
       xlink:href="#linearGradient895"
       id="linearGradient897"
       x1="2.2327697"
       y1="292.24765"
       x2="6.6467891"
       y2="291.46808"
       gradientUnits="userSpaceOnUse" />
    <linearGradient
       inkscape:collect="always"
       xlink:href="#linearGradient907"
       id="linearGradient909"
       x1="10.406505"
       y1="290.68851"
       x2="6.7885303"
       y2="292.31851"
       gradientUnits="userSpaceOnUse" />
    <linearGradient
       inkscape:collect="always"
       xlink:href="#linearGradient917"
       id="linearGradient919"
       x1="3.8864155"
       y1="293.75955"
       x2="9.5911465"
       y2="289.55457"
       gradientUnits="userSpaceOnUse" />
    <linearGradient
       inkscape:collect="always"
       xlink:href="#linearGradient927"
       id="linearGradient929"
       x1="11.847539"
       y1="287.87732"
       x2="9.1186762"
       y2="291.70432"
       gradientUnits="userSpaceOnUse" />
    <linearGradient
       inkscape:collect="always"
       xlink:href="#linearGradient947"
       id="linearGradient949"
       x1="19.107143"
       y1="20.487614"
       x2="34.606026"
       y2="22.541185"
       gradientUnits="userSpaceOnUse" />
    <linearGradient
       inkscape:collect="always"
       xlink:href="#linearGradient957"
       id="linearGradient959"
       x1="43.537109"
       y1="22.035156"
       x2="28.534597"
       y2="15.487614"
       gradientUnits="userSpaceOnUse" />
    <linearGradient
       inkscape:collect="always"
       xlink:href="#linearGradient947"
       id="linearGradient969"
       x1="25.982143"
       y1="23.368303"
       x2="40.590679"
       y2="27.654018"
       gradientUnits="userSpaceOnUse" />
    <linearGradient
       inkscape:collect="always"
       xlink:href="#linearGradient957"
       id="linearGradient973"
       gradientUnits="userSpaceOnUse"
       x1="45.625"
       y1="26.13616"
       x2="35.947823"
       y2="22.564732" />
    <linearGradient
       inkscape:collect="always"
       xlink:href="#linearGradient947"
       id="linearGradient983"
       x1="9.8510046"
       y1="285.96783"
       x2="11.528275"
       y2="286.74741"
       gradientUnits="userSpaceOnUse" />
    <linearGradient
       inkscape:collect="always"
       xlink:href="#linearGradient1004"
       id="linearGradient1006"
       x1="54.90308"
       y1="12.008335"
       x2="38.869061"
       y2="29.924423"
       gradientUnits="userSpaceOnUse" />
    <linearGradient
       inkscape:collect="always"
       xlink:href="#linearGradient1016"
       id="linearGradient1010"
       gradientUnits="userSpaceOnUse"
       x1="50.357395"
       y1="22.109861"
       x2="40.697811"
       y2="21.731054" />
    <linearGradient
       inkscape:collect="always"
       xlink:href="#linearGradient1026"
       id="linearGradient1028"
       x1="12.100326"
       y1="285.70059"
       x2="8.4731979"
       y2="285.79413"
       gradientUnits="userSpaceOnUse"
       gradientTransform="matrix(3.7795276,0,0,3.7795276,0,-1058.5197)" />
    <linearGradient
       inkscape:collect="always"
       xlink:href="#linearGradient1026"
       id="linearGradient1032"
       gradientUnits="userSpaceOnUse"
       x1="11.246734"
       y1="285.29718"
       x2="10.51948"
       y2="285.09256"
       gradientTransform="matrix(3.7795276,0,0,3.7795276,0,-1058.5197)" />
    <linearGradient
       inkscape:collect="always"
       xlink:href="#linearGradient947"
       id="linearGradient1052"
       x1="5.7499628"
       y1="285.97977"
       x2="10.030543"
       y2="291.61871"
       gradientUnits="userSpaceOnUse" />
    <linearGradient
       inkscape:collect="always"
       xlink:href="#linearGradient1060"
       id="linearGradient1062"
       x1="13.337547"
       y1="292.38956"
       x2="9.4355154"
       y2="292.76373"
       gradientUnits="userSpaceOnUse" />
    <linearGradient
       inkscape:collect="always"
       xlink:href="#linearGradient1070"
       id="linearGradient1072"
       x1="7.2805514"
       y1="292.8573"
       x2="14.003163"
       y2="292.52991"
       gradientUnits="userSpaceOnUse" />
    <linearGradient
       inkscape:collect="always"
       xlink:href="#linearGradient1080"
       id="linearGradient1082"
       x1="16.073719"
       y1="286.61322"
       x2="12.155663"
       y2="292.20248"
       gradientUnits="userSpaceOnUse" />
    <linearGradient
       inkscape:collect="always"
       xlink:href="#linearGradient1090"
       id="linearGradient1092"
       x1="11.606977"
       y1="293.25488"
       x2="13.975504"
       y2="290.26144"
       gradientUnits="userSpaceOnUse" />
  </defs>
  <sodipodi:namedview
     id="base"
     pagecolor="#ffffff"
     bordercolor="#666666"
     borderopacity="1.0"
     inkscape:pageopacity="0"
     inkscape:pageshadow="2"
     inkscape:zoom="4"
     inkscape:cx="35.638459"
     inkscape:cy="28.476181"
     inkscape:document-units="mm"
     inkscape:current-layer="layer1"
     showgrid="false"
     units="px"
     inkscape:window-width="1360"
     inkscape:window-height="715"
     inkscape:window-x="0"
     inkscape:window-y="24"
     inkscape:window-maximized="1"
     showguides="false" />
  <metadata
     id="metadata5">
    <rdf:RDF>
      <cc:Work
         rdf:about="">
        <dc:format>image/svg+xml</dc:format>
        <dc:type
           rdf:resource="http://purl.org/dc/dcmitype/StillImage" />
        <dc:title></dc:title>
      </cc:Work>
    </rdf:RDF>
  </metadata>
  <g
     inkscape:label="Layer 1"
     inkscape:groupmode="layer"
     id="layer1"
     transform="translate(0,-280.06667)">
    <circle
       style="opacity:1;fill:url(#linearGradient843);fill-opacity:1;stroke:none;stroke-width:0.81756413;stroke-linecap:round;stroke-miterlimit:4;stroke-dasharray:none;stroke-dashoffset:0;stroke-opacity:1"
       id="path826"
       cx="8.5411577"
       cy="288.60864"
       r="7.7297897" />
    <circle
       style="opacity:1;fill:#dc7023;fill-opacity:1;stroke:none;stroke-width:1.5;stroke-linecap:round;stroke-linejoin:round;stroke-miterlimit:4;stroke-dasharray:none;stroke-dashoffset:0;stroke-opacity:1"
       id="path851"
       cx="8.953311"
       cy="286.62927"
       r="2.669457" />
    <circle
       r="2.669457"
       cy="286.62927"
       cx="8.953311"
       id="circle975"
       style="opacity:1;fill:url(#linearGradient983);fill-opacity:1;stroke:none;stroke-width:1.5;stroke-linecap:round;stroke-linejoin:round;stroke-miterlimit:4;stroke-dasharray:none;stroke-dashoffset:0;stroke-opacity:1" />
    <path
       style="fill:#473422;fill-opacity:1;stroke:none;stroke-width:0.26458332px;stroke-linecap:butt;stroke-linejoin:miter;stroke-opacity:1"
       d="m 3.0710565,294.02345 c 2.4401435,-1.56049 4.4486505,-3.72527 7.3232885,-4.67747 2.138439,0.73644 3.743253,1.68529 5.194799,2.85104 -4.094742,5.33899 -9.8407561,4.28403 -12.5180875,1.82643 z"
       id="path835"
       inkscape:connector-curvature="0"
       sodipodi:nodetypes="cccc" />
    <path
       sodipodi:nodetypes="cccc"
       inkscape:connector-curvature="0"
       id="path1084"
       d="m 3.0710565,294.02345 c 2.4401435,-1.56049 4.4486505,-3.72527 7.3232885,-4.67747 2.138439,0.73644 3.743253,1.68529 5.194799,2.85104 -4.094742,5.33899 -9.8407561,4.28403 -12.5180875,1.82643 z"
       style="fill:url(#linearGradient1092);fill-opacity:1;stroke:none;stroke-width:0.26458332px;stroke-linecap:butt;stroke-linejoin:miter;stroke-opacity:1" />
    <path
       sodipodi:nodetypes="cccc"
       inkscape:connector-curvature="0"
       id="path1042"
       d="m 3.0710565,294.02345 c 2.4401435,-1.56049 4.4486505,-3.72527 7.3232885,-4.67747 1.355301,1.41975 3.306474,2.56865 3.795907,4.38197 -3.917899,3.5601 -8.7351473,2.48389 -11.1191955,0.2955 z"
       style="fill:#523c27;fill-opacity:1;stroke:none;stroke-width:0.26458332px;stroke-linecap:butt;stroke-linejoin:miter;stroke-opacity:1" />
    <path
       style="fill:url(#linearGradient1072);fill-opacity:1;stroke:none;stroke-width:0.26458332px;stroke-linecap:butt;stroke-linejoin:miter;stroke-opacity:1"
       d="m 3.0710565,294.02345 c 2.4401435,-1.56049 4.4486505,-3.72527 7.3232885,-4.67747 1.355301,1.41975 3.306474,2.56865 3.795907,4.38197 -3.917899,3.5601 -8.7351473,2.48389 -11.1191955,0.2955 z"
       id="path1064"
       inkscape:connector-curvature="0"
       sodipodi:nodetypes="cccc" />
    <path
       sodipodi:nodetypes="cccc"
       inkscape:connector-curvature="0"
       id="path1040"
       d="m 3.0710565,294.02345 c 2.4401435,-1.56049 4.4486505,-3.72527 7.3232885,-4.67747 -0.8906133,2.1151 -0.4026741,4.35553 -0.4150134,6.55047 -2.7230785,0.5233 -5.3412764,-0.43461 -6.9082751,-1.873 z"
       style="fill:#5d4732;fill-opacity:1;stroke:none;stroke-width:0.26458332px;stroke-linecap:butt;stroke-linejoin:miter;stroke-opacity:1" />
    <path
       style="fill:url(#linearGradient1062);fill-opacity:1;stroke:none;stroke-width:0.26458332px;stroke-linecap:butt;stroke-linejoin:miter;stroke-opacity:1"
       d="m 3.0710565,294.02345 c 2.4401435,-1.56049 4.4486505,-3.72527 7.3232885,-4.67747 -0.8906133,2.1151 -0.4026741,4.35553 -0.4150134,6.55047 -2.7230785,0.5233 -5.3412764,-0.43461 -6.9082751,-1.873 z"
       id="path1054"
       inkscape:connector-curvature="0"
       sodipodi:nodetypes="cccc" />
    <path
       style="fill:url(#linearGradient1052);fill-opacity:1;stroke:none;stroke-width:0.26458332px;stroke-linecap:butt;stroke-linejoin:miter;stroke-opacity:1"
       d="m 3.0710565,294.02345 c 2.4401435,-1.56049 4.4486505,-3.72527 7.3232885,-4.67747 -0.8906133,2.1151 -0.4026741,4.35553 -0.4150134,6.55047 -2.7230785,0.5233 -5.3412764,-0.43461 -6.9082751,-1.873 z"
       id="path1044"
       inkscape:connector-curvature="0"
       sodipodi:nodetypes="cccc" />
    <path
       style="fill:#603d1e;fill-opacity:1;stroke:none;stroke-width:0.26458332px;stroke-linecap:butt;stroke-linejoin:miter;stroke-opacity:1"
       d="m 1.1697116,291.27975 c 0.9731635,-1.54022 2.1962298,-2.9204 4.0369582,-4.10713 1.6024231,1.34646 4.9774432,4.97497 6.5578392,7.90885 -5.4855551,2.92323 -8.7076209,0.069 -10.5947974,-3.80172 z"
       id="path833"
       inkscape:connector-curvature="0"
       sodipodi:nodetypes="cccc" />
    <path
       style="fill:url(#linearGradient929);fill-opacity:1;stroke:none;stroke-width:0.26458332px;stroke-linecap:butt;stroke-linejoin:miter;stroke-opacity:1"
       d="m 1.1697116,291.27975 c 0.9731635,-1.54022 2.1962298,-2.9204 4.0369582,-4.10713 1.6024231,1.34646 4.9774432,4.97497 6.5578392,7.90885 -5.4855551,2.92323 -8.7076209,0.069 -10.5947974,-3.80172 z"
       id="path921"
       inkscape:connector-curvature="0"
       sodipodi:nodetypes="cccc" />
    <path
       sodipodi:nodetypes="cccc"
       inkscape:connector-curvature="0"
       id="path911"
       d="m 1.1697116,291.27975 c 0.9731635,-1.54022 2.1962298,-2.9204 4.0369582,-4.10713 1.6024231,1.34646 4.9774432,4.97497 6.5578392,7.90885 -5.4855551,2.92323 -8.7076209,0.069 -10.5947974,-3.80172 z"
       style="fill:url(#linearGradient919);fill-opacity:1;stroke:none;stroke-width:0.26458332px;stroke-linecap:butt;stroke-linejoin:miter;stroke-opacity:1" />
    <path
       sodipodi:nodetypes="cccc"
       inkscape:connector-curvature="0"
       id="path857"
       d="m 1.1697116,291.27975 c 0.9731635,-1.54022 2.1962298,-2.9204 4.0369582,-4.10713 2.2888231,3.21336 3.2232323,6.16457 3.5662354,9.00131 -3.7142273,0.66408 -6.0886161,-1.78768 -7.6031936,-4.89418 z"
       style="fill:#6f4722;fill-opacity:1;stroke:none;stroke-width:0.26458332px;stroke-linecap:butt;stroke-linejoin:miter;stroke-opacity:1" />
    <path
       style="fill:url(#linearGradient909);fill-opacity:1;stroke:none;stroke-width:0.26458332px;stroke-linecap:butt;stroke-linejoin:miter;stroke-opacity:1"
       d="m 1.1697116,291.27975 c 0.9731635,-1.54022 2.1962298,-2.9204 4.0369582,-4.10713 2.2888231,3.21336 3.2232323,6.16457 3.5662354,9.00131 -3.7142273,0.66408 -6.0886161,-1.78768 -7.6031936,-4.89418 z"
       id="path901"
       inkscape:connector-curvature="0"
       sodipodi:nodetypes="cccc" />
    <path
       style="fill:url(#linearGradient897);fill-opacity:1;stroke:none;stroke-width:0.26458332px;stroke-linecap:butt;stroke-linejoin:miter;stroke-opacity:1"
       d="m 1.1697116,291.27975 c 0.9731635,-1.54022 2.1962298,-2.9204 4.0369582,-4.10713 2.2888231,3.21336 3.2232323,6.16457 3.5662354,9.00131 -3.7142273,0.66408 -6.0886161,-1.78768 -7.6031936,-4.89418 z"
       id="path889"
       inkscape:connector-curvature="0"
       sodipodi:nodetypes="cccc" />
    <path
       sodipodi:nodetypes="cccc"
       inkscape:connector-curvature="0"
       id="path855"
       d="m 1.1697116,291.27975 c 0.9731635,-1.54022 2.1962298,-2.9204 4.0369582,-4.10713 0.4133256,3.08958 0.2997794,5.88646 0.1570213,8.66711 -1.8525405,-0.78625 -3.206139,-2.53386 -4.1939795,-4.55998 z"
       style="fill:#7f5027;fill-opacity:1;stroke:none;stroke-width:0.26458332px;stroke-linecap:butt;stroke-linejoin:miter;stroke-opacity:1" />
    <path
       sodipodi:nodetypes="cccc"
       inkscape:connector-curvature="0"
       id="path879"
       d="m 1.1697116,291.27975 c 0.9731635,-1.54022 2.1962298,-2.9204 4.0369582,-4.10713 0.4133256,3.08958 0.2997794,5.88646 0.1570213,8.66711 -1.8525405,-0.78625 -3.206139,-2.53386 -4.1939795,-4.55998 z"
       style="fill:url(#linearGradient887);fill-opacity:1;stroke:none;stroke-width:0.26458332px;stroke-linecap:butt;stroke-linejoin:miter;stroke-opacity:1" />
    <path
       style="fill:url(#linearGradient877);fill-opacity:1;stroke:none;stroke-width:0.26458332px;stroke-linecap:butt;stroke-linejoin:miter;stroke-opacity:1"
       d="m 1.1697116,291.27975 c 0.9731635,-1.54022 2.1962298,-2.9204 4.0369582,-4.10713 0.4133256,3.08958 0.2997794,5.88646 0.1570213,8.66711 -1.8525405,-0.78625 -3.206139,-2.53386 -4.1939795,-4.55998 z"
       id="path869"
       inkscape:connector-curvature="0"
       sodipodi:nodetypes="cccc" />
    <path
       sodipodi:nodetypes="cccc"
       inkscape:connector-curvature="0"
       id="path853"
       d="m 1.1697116,291.27975 c 0.9731635,-1.54022 2.1962298,-2.9204 4.0369582,-4.10713 -1.2641528,2.12098 -1.952748,4.24197 -2.6660298,6.36295 -0.5213029,-0.67808 -0.97543,-1.44463 -1.3709284,-2.25582 z"
       style="fill:#af6f36;fill-opacity:1;stroke:none;stroke-width:0.26458332px;stroke-linecap:butt;stroke-linejoin:miter;stroke-opacity:1" />
    <path
       style="fill:url(#linearGradient867);fill-opacity:1;stroke:none;stroke-width:0.26458332px;stroke-linecap:butt;stroke-linejoin:miter;stroke-opacity:1"
       d="m 1.1697116,291.27975 c 0.9731635,-1.54022 2.1962298,-2.9204 4.0369582,-4.10713 -1.2641528,2.12098 -1.952748,4.24197 -2.6660298,6.36295 -0.5213029,-0.67808 -0.97543,-1.44463 -1.3709284,-2.25582 z"
       id="path859"
       inkscape:connector-curvature="0"
       sodipodi:nodetypes="cccc" />
    <circle
       r="7.7297897"
       cy="288.60864"
       cx="8.5411577"
       id="circle872"
       style="opacity:1;fill:none;fill-opacity:1;stroke:#fbf7f4;stroke-width:0.81756413;stroke-linecap:round;stroke-miterlimit:4;stroke-dasharray:none;stroke-dashoffset:0;stroke-opacity:1" />
    <path
       style="fill:#dc7023;stroke:none;stroke-width:0.99999994px;stroke-linecap:butt;stroke-linejoin:miter;stroke-opacity:1;fill-opacity:1"
       d="M 33.839844 14.714844 A 10.089286 10.089286 0 0 0 23.75 24.802734 A 10.089286 10.089286 0 0 0 33.582031 34.878906 C 42.086531 31.145934 36.986086 21.931394 43.537109 22.035156 A 10.089286 10.089286 0 0 0 33.839844 14.714844 z "
       transform="matrix(0.26458333,0,0,0.26458333,0,280.06667)"
       id="path936" />
    <path
       style="fill:url(#linearGradient973);stroke:none;stroke-width:0.99999994px;stroke-linecap:butt;stroke-linejoin:miter;stroke-opacity:1;fill-opacity:1"
       d="M 33.839844 14.714844 A 10.089286 10.089286 0 0 0 23.75 24.802734 A 10.089286 10.089286 0 0 0 33.582031 34.878906 C 42.086531 31.145934 36.986086 21.931394 43.537109 22.035156 A 10.089286 10.089286 0 0 0 33.839844 14.714844 z "
       transform="matrix(0.26458333,0,0,0.26458333,0,280.06667)"
       id="path971" />
    <path
       id="path961"
       transform="matrix(0.26458333,0,0,0.26458333,0,280.06667)"
       d="M 33.839844 14.714844 A 10.089286 10.089286 0 0 0 23.75 24.802734 A 10.089286 10.089286 0 0 0 33.582031 34.878906 C 42.086531 31.145934 36.986086 21.931394 43.537109 22.035156 A 10.089286 10.089286 0 0 0 33.839844 14.714844 z "
       style="fill:url(#linearGradient969);stroke:none;stroke-width:0.99999994px;stroke-linecap:butt;stroke-linejoin:miter;stroke-opacity:1;fill-opacity:1" />
    <path
       style="fill:#dc7023;stroke:none;stroke-width:0.99999994px;stroke-linecap:butt;stroke-linejoin:miter;stroke-opacity:1;fill-opacity:1"
       d="M 33.839844,14.714844 C 28.268012,14.714536 23.750771,19.230902 23.75,24.802734 c 0.0033,1.335018 0.271485,2.65611 0.789062,3.886719 9.978645,4.429658 12.243434,-11.411982 17.65625,-9.525391 -1.873389,-2.778699 -5.004238,-4.44585 -8.355468,-4.449218 z"
       transform="matrix(0.26458333,0,0,0.26458333,0,280.06667)"
       id="path931"
       inkscape:connector-curvature="0"
       sodipodi:nodetypes="ccccc" />
    <path
       sodipodi:nodetypes="ccccc"
       inkscape:connector-curvature="0"
       id="path941"
       transform="matrix(0.26458333,0,0,0.26458333,0,280.06667)"
       d="M 33.839844,14.714844 C 28.268012,14.714536 23.750771,19.230902 23.75,24.802734 c 0.0033,1.335018 0.271485,2.65611 0.789062,3.886719 9.978645,4.429658 12.243434,-11.411982 17.65625,-9.525391 -1.873389,-2.778699 -5.004238,-4.44585 -8.355468,-4.449218 z"
       style="fill:url(#linearGradient949);stroke:none;stroke-width:0.99999994px;stroke-linecap:butt;stroke-linejoin:miter;stroke-opacity:1;fill-opacity:1" />
    <path
       style="fill:url(#linearGradient959);stroke:none;stroke-width:0.99999994px;stroke-linecap:butt;stroke-linejoin:miter;stroke-opacity:1;fill-opacity:1"
       d="M 33.839844,14.714844 C 28.268012,14.714536 23.750771,19.230902 23.75,24.802734 c 0.0033,1.335018 0.271485,2.65611 0.789062,3.886719 9.978645,4.429658 12.243434,-11.411982 17.65625,-9.525391 -1.873389,-2.778699 -5.004238,-4.44585 -8.355468,-4.449218 z"
       transform="matrix(0.26458333,0,0,0.26458333,0,280.06667)"
       id="path951"
       inkscape:connector-curvature="0"
       sodipodi:nodetypes="ccccc" />
    <path
       style="color:#000000;font-style:normal;font-variant:normal;font-weight:normal;font-stretch:normal;font-size:medium;line-height:normal;font-family:sans-serif;font-variant-ligatures:normal;font-variant-position:normal;font-variant-caps:normal;font-variant-numeric:normal;font-variant-alternates:normal;font-feature-settings:normal;text-indent:0;text-align:start;text-decoration:none;text-decoration-line:none;text-decoration-style:solid;text-decoration-color:#000000;letter-spacing:normal;word-spacing:normal;text-transform:none;writing-mode:lr-tb;direction:ltr;text-orientation:mixed;dominant-baseline:auto;baseline-shift:baseline;text-anchor:start;white-space:normal;shape-padding:0;clip-rule:nonzero;display:inline;overflow:visible;visibility:visible;opacity:0.23;isolation:auto;mix-blend-mode:normal;color-interpolation:sRGB;color-interpolation-filters:linearRGB;solid-color:#000000;solid-opacity:1;vector-effect:none;fill:url(#linearGradient1006);fill-opacity:1;fill-rule:nonzero;stroke:none;stroke-width:0.56692916;stroke-linecap:butt;stroke-linejoin:miter;stroke-miterlimit:4;stroke-dasharray:none;stroke-dashoffset:0;stroke-opacity:1;color-rendering:auto;image-rendering:auto;shape-rendering:auto;text-rendering:auto;enable-background:accumulate"
       d="M 42.78125 21.478516 C 41.897375 21.550847 41.204012 21.859961 40.673828 22.34375 C 39.966917 22.988878 39.553254 23.91055 39.234375 24.927734 C 38.596621 26.962103 38.327651 29.430916 37.234375 31.128906 L 37.707031 31.431641 C 38.909293 29.564365 39.162481 27.046532 39.773438 25.097656 C 40.078899 24.123218 40.469842 23.302923 41.058594 22.765625 C 41.623606 22.249993 42.387218 21.969715 43.541016 22.046875 A 10.089286 10.089286 0 0 0 43.353516 21.484375 C 43.160329 21.479283 42.958874 21.46398 42.78125 21.478516 z "
       transform="matrix(0.26458333,0,0,0.26458333,0,280.06667)"
       id="path985" />
    <path
       id="path1008"
       transform="matrix(0.26458333,0,0,0.26458333,0,280.06667)"
       d="M 42.78125 21.478516 C 41.897375 21.550847 41.204012 21.859961 40.673828 22.34375 C 39.966917 22.988878 39.553254 23.91055 39.234375 24.927734 C 38.596621 26.962103 38.327651 29.430916 37.234375 31.128906 L 37.707031 31.431641 C 38.909293 29.564365 39.162481 27.046532 39.773438 25.097656 C 40.078899 24.123218 40.469842 23.302923 41.058594 22.765625 C 41.623606 22.249993 42.387218 21.969715 43.541016 22.046875 A 10.089286 10.089286 0 0 0 43.353516 21.484375 C 43.160329 21.479283 42.958874 21.46398 42.78125 21.478516 z "
       style="color:#000000;font-style:normal;font-variant:normal;font-weight:normal;font-stretch:normal;font-size:medium;line-height:normal;font-family:sans-serif;font-variant-ligatures:normal;font-variant-position:normal;font-variant-caps:normal;font-variant-numeric:normal;font-variant-alternates:normal;font-feature-settings:normal;text-indent:0;text-align:start;text-decoration:none;text-decoration-line:none;text-decoration-style:solid;text-decoration-color:#000000;letter-spacing:normal;word-spacing:normal;text-transform:none;writing-mode:lr-tb;direction:ltr;text-orientation:mixed;dominant-baseline:auto;baseline-shift:baseline;text-anchor:start;white-space:normal;shape-padding:0;clip-rule:nonzero;display:inline;overflow:visible;visibility:visible;opacity:0.23;isolation:auto;mix-blend-mode:normal;color-interpolation:sRGB;color-interpolation-filters:linearRGB;solid-color:#000000;solid-opacity:1;vector-effect:none;fill:url(#linearGradient1010);fill-opacity:1;fill-rule:nonzero;stroke:none;stroke-width:0.56692916;stroke-linecap:butt;stroke-linejoin:miter;stroke-miterlimit:4;stroke-dasharray:none;stroke-dashoffset:0;stroke-opacity:1;color-rendering:auto;image-rendering:auto;shape-rendering:auto;text-rendering:auto;enable-background:accumulate" />
    <path
       style="color:#000000;font-style:normal;font-variant:normal;font-weight:normal;font-stretch:normal;font-size:medium;line-height:normal;font-family:sans-serif;font-variant-ligatures:normal;font-variant-position:normal;font-variant-caps:normal;font-variant-numeric:normal;font-variant-alternates:normal;font-feature-settings:normal;text-indent:0;text-align:start;text-decoration:none;text-decoration-line:none;text-decoration-style:solid;text-decoration-color:#000000;letter-spacing:normal;word-spacing:normal;text-transform:none;writing-mode:lr-tb;direction:ltr;text-orientation:mixed;dominant-baseline:auto;baseline-shift:baseline;text-anchor:start;white-space:normal;shape-padding:0;clip-rule:nonzero;display:inline;overflow:visible;visibility:visible;opacity:1;isolation:auto;mix-blend-mode:normal;color-interpolation:sRGB;color-interpolation-filters:linearRGB;solid-color:#000000;solid-opacity:1;vector-effect:none;fill:url(#linearGradient1028);fill-opacity:1;fill-rule:nonzero;stroke:none;stroke-width:0.56692916;stroke-linecap:butt;stroke-linejoin:miter;stroke-miterlimit:4;stroke-dasharray:none;stroke-dashoffset:0;stroke-opacity:1;color-rendering:auto;image-rendering:auto;shape-rendering:auto;text-rendering:auto;enable-background:accumulate"
       d="M 41.574219 18.429688 C 40.814396 18.392018 40.132834 18.575348 39.515625 18.925781 C 38.528095 19.486399 37.701562 20.435845 36.849609 21.546875 C 35.145705 23.768897 33.330029 26.640942 30.177734 28.449219 L 30.457031 28.935547 C 33.75166 27.045594 35.622848 24.082651 37.300781 21.894531 C 38.139747 20.800434 38.932668 19.903587 39.794922 19.414062 C 40.488503 19.020328 41.22978 18.885974 42.140625 19.087891 A 10.089286 10.089286 0 0 0 41.660156 18.439453 C 41.631822 18.437447 41.602338 18.431082 41.574219 18.429688 z "
       transform="matrix(0.26458333,0,0,0.26458333,0,280.06667)"
       id="path1018" />
    <path
       style="color:#000000;font-style:normal;font-variant:normal;font-weight:normal;font-stretch:normal;font-size:medium;line-height:normal;font-family:sans-serif;font-variant-ligatures:normal;font-variant-position:normal;font-variant-caps:normal;font-variant-numeric:normal;font-variant-alternates:normal;font-feature-settings:normal;text-indent:0;text-align:start;text-decoration:none;text-decoration-line:none;text-decoration-style:solid;text-decoration-color:#000000;letter-spacing:normal;word-spacing:normal;text-transform:none;writing-mode:lr-tb;direction:ltr;text-orientation:mixed;dominant-baseline:auto;baseline-shift:baseline;text-anchor:start;white-space:normal;shape-padding:0;clip-rule:nonzero;display:inline;overflow:visible;visibility:visible;opacity:1;isolation:auto;mix-blend-mode:normal;color-interpolation:sRGB;color-interpolation-filters:linearRGB;solid-color:#000000;solid-opacity:1;vector-effect:none;fill:url(#linearGradient1032);fill-opacity:1;fill-rule:nonzero;stroke:none;stroke-width:0.56692916;stroke-linecap:butt;stroke-linejoin:miter;stroke-miterlimit:4;stroke-dasharray:none;stroke-dashoffset:0;stroke-opacity:1;color-rendering:auto;image-rendering:auto;shape-rendering:auto;text-rendering:auto;enable-background:accumulate"
       d="M 41.574219 18.429688 C 40.814396 18.392018 40.132834 18.575348 39.515625 18.925781 C 38.528095 19.486399 37.701562 20.435845 36.849609 21.546875 C 35.145705 23.768897 33.330029 26.640942 30.177734 28.449219 L 30.457031 28.935547 C 33.75166 27.045594 35.622848 24.082651 37.300781 21.894531 C 38.139747 20.800434 38.932668 19.903587 39.794922 19.414062 C 40.488503 19.020328 41.22978 18.885974 42.140625 19.087891 A 10.089286 10.089286 0 0 0 41.660156 18.439453 C 41.631822 18.437447 41.602338 18.431082 41.574219 18.429688 z "
       transform="matrix(0.26458333,0,0,0.26458333,0,280.06667)"
       id="path1030" />
    <path
       style="fill:url(#linearGradient1082);fill-opacity:1;stroke:none;stroke-width:0.26458332px;stroke-linecap:butt;stroke-linejoin:miter;stroke-opacity:1"
       d="m 3.0710565,294.02345 c 2.4401435,-1.56049 4.4486505,-3.72527 7.3232885,-4.67747 1.355301,1.41975 3.306474,2.56865 3.795907,4.38197 -3.917899,3.5601 -8.7351473,2.48389 -11.1191955,0.2955 z"
       id="path1074"
       inkscape:connector-curvature="0"
       sodipodi:nodetypes="cccc" />
  </g>
</svg>
