<?xml version="1.0" encoding="UTF-8" standalone="no"?>
<!-- Created with Inkscape (http://www.inkscape.org/) -->

<svg
   xmlns:dc="http://purl.org/dc/elements/1.1/"
   xmlns:cc="http://creativecommons.org/ns#"
   xmlns:rdf="http://www.w3.org/1999/02/22-rdf-syntax-ns#"
   xmlns:svg="http://www.w3.org/2000/svg"
   xmlns="http://www.w3.org/2000/svg"
   xmlns:xlink="http://www.w3.org/1999/xlink"
   xmlns:sodipodi="http://sodipodi.sourceforge.net/DTD/sodipodi-0.dtd"
   xmlns:inkscape="http://www.inkscape.org/namespaces/inkscape"
   width="64"
   height="64"
   viewBox="0 0 16.933333 16.933333"
   version="1.1"
   id="svg8"
   inkscape:version="0.92.2 (5c3e80d, 2017-08-06)"
   sodipodi:docname="SYSTEM-UPDATE.svg">
  <defs
     id="defs2">
    <linearGradient
       inkscape:collect="always"
       id="linearGradient1351">
      <stop
         style="stop-color:#ffffff;stop-opacity:0.57692307"
         offset="0"
         id="stop1347" />
      <stop
         style="stop-color:#ffffff;stop-opacity:0;"
         offset="1"
         id="stop1349" />
    </linearGradient>
    <linearGradient
       id="linearGradient3874">
      <stop
         id="stop1338"
         offset="0"
         style="stop-color:#ffffff;stop-opacity:1" />
      <stop
         id="stop1340"
         offset="1"
         style="stop-color:#ffffff;stop-opacity:0" />
    </linearGradient>
    <linearGradient
       inkscape:collect="always"
       id="linearGradient1316">
      <stop
         style="stop-color:#24d3ff;stop-opacity:1;"
         offset="0"
         id="stop1312" />
      <stop
         style="stop-color:#00beee;stop-opacity:1"
         offset="1"
         id="stop1314" />
    </linearGradient>
    <linearGradient
       inkscape:collect="always"
       id="linearGradient1308">
      <stop
         style="stop-color:#00cd9d;stop-opacity:1"
         offset="0"
         id="stop1304" />
      <stop
         style="stop-color:#00ffc4;stop-opacity:1"
         offset="1"
         id="stop1306" />
    </linearGradient>
    <linearGradient
       inkscape:collect="always"
       id="linearGradient1292">
      <stop
         style="stop-color:#14d0ff;stop-opacity:1"
         offset="0"
         id="stop1288" />
      <stop
         style="stop-color:#008bad;stop-opacity:1"
         offset="1"
         id="stop1290" />
    </linearGradient>
    <linearGradient
       id="linearGradient3866">
      <stop
         style="stop-color:#000000;stop-opacity:0.52083331"
         offset="0"
         id="stop3868" />
      <stop
         style="stop-color:#2883c3;stop-opacity:0;"
         offset="1"
         id="stop3870" />
    </linearGradient>
    <linearGradient
       id="linearGradient3874-2">
      <stop
         style="stop-color:#000d0e;stop-opacity:0.84105963;"
         offset="0"
         id="stop3876" />
      <stop
         style="stop-color:#000000;stop-opacity:0;"
         offset="1"
         id="stop3878" />
    </linearGradient>
    <radialGradient
       inkscape:collect="always"
       xlink:href="#linearGradient1292"
       id="radialGradient1294"
       cx="8.5411577"
       cy="288.60864"
       fx="8.5411577"
       fy="288.60864"
       r="7.7297897"
       gradientUnits="userSpaceOnUse"
       gradientTransform="matrix(0.72950866,0.00715421,-0.00746892,0.7615994,4.465904,68.74337)" />
    <linearGradient
       inkscape:collect="always"
       xlink:href="#linearGradient1308"
       id="linearGradient1310"
       x1="5.3392501"
       y1="-11.829515"
       x2="39.301212"
       y2="47.029041"
       gradientUnits="userSpaceOnUse" />
    <linearGradient
       inkscape:collect="always"
       xlink:href="#linearGradient1316"
       id="linearGradient1318"
       x1="6.8125157"
       y1="283.3421"
       x2="11.74121"
       y2="294.8681"
       gradientUnits="userSpaceOnUse"
       gradientTransform="matrix(3.7795276,0,0,3.7795276,0,-1058.5197)" />
    <linearGradient
       inkscape:collect="always"
       xlink:href="#linearGradient3874-2"
       id="linearGradient1330"
       gradientUnits="userSpaceOnUse"
       x1="-6.5803928"
       y1="-13.570587"
       x2="47.872643"
       y2="15.421898" />
    <linearGradient
       inkscape:collect="always"
       xlink:href="#linearGradient3874-2"
       id="linearGradient1334"
       gradientUnits="userSpaceOnUse"
       x1="16.698956"
       y1="301.76843"
       x2="4.6895914"
       y2="292.99002"
       gradientTransform="matrix(3.7795276,0,0,3.7795276,0,-1058.5197)" />
    <linearGradient
       inkscape:collect="always"
       xlink:href="#linearGradient1351"
       id="linearGradient1353"
       x1="14.467216"
       y1="278.11594"
       x2="2.1129797"
       y2="290.19098"
       gradientUnits="userSpaceOnUse"
       gradientTransform="matrix(3.7795276,0,0,3.7795276,0,-1058.5197)" />
    <linearGradient
       inkscape:collect="always"
       xlink:href="#linearGradient1351"
       id="linearGradient1359"
       gradientUnits="userSpaceOnUse"
       x1="14.467216"
       y1="278.11594"
       x2="2.1129797"
       y2="290.19098"
       gradientTransform="matrix(-3.7795276,0,0,-3.7795276,64.52956,1123.296)" />
  </defs>
  <sodipodi:namedview
     id="base"
     pagecolor="#ffffff"
     bordercolor="#666666"
     borderopacity="1.0"
     inkscape:pageopacity="0"
     inkscape:pageshadow="2"
     inkscape:zoom="4.9777778"
     inkscape:cx="44.200655"
     inkscape:cy="30.303898"
     inkscape:document-units="mm"
     inkscape:current-layer="layer1"
     showgrid="false"
     units="px"
     inkscape:window-width="1360"
     inkscape:window-height="723"
     inkscape:window-x="0"
     inkscape:window-y="24"
     inkscape:window-maximized="1"
     showguides="false" />
  <metadata
     id="metadata5">
    <rdf:RDF>
      <cc:Work
         rdf:about="">
        <dc:format>image/svg+xml</dc:format>
        <dc:type
           rdf:resource="http://purl.org/dc/dcmitype/StillImage" />
        <dc:title></dc:title>
      </cc:Work>
    </rdf:RDF>
  </metadata>
  <g
     inkscape:label="Layer 1"
     inkscape:groupmode="layer"
     id="layer1"
     transform="translate(0,-280.06667)">
    <circle
       style="opacity:1;fill:url(#radialGradient1294);fill-opacity:1;stroke:none;stroke-width:0.81756413;stroke-linecap:round;stroke-miterlimit:4;stroke-dasharray:none;stroke-dashoffset:0;stroke-opacity:1"
       id="path826"
       cx="8.5411577"
       cy="288.60864"
       r="7.7297897" />
    <path
       style="opacity:1;fill:#29befd;fill-opacity:1;stroke:none;stroke-width:3.09000611;stroke-linecap:round;stroke-miterlimit:4;stroke-dasharray:none;stroke-dashoffset:0;stroke-opacity:1"
       d="M 32.28125 3.0703125 A 29.214953 29.214953 0 0 0 3.0664062 32.285156 A 29.214953 29.214953 0 0 0 32.28125 61.5 A 29.214953 29.214953 0 0 0 61.496094 32.285156 A 29.214953 29.214953 0 0 0 32.28125 3.0703125 z M 32.28125 16.753906 A 15.531096 15.531096 0 0 1 47.8125 32.285156 A 15.531096 15.531096 0 0 1 32.28125 47.816406 A 15.531096 15.531096 0 0 1 16.75 32.285156 A 15.531096 15.531096 0 0 1 32.28125 16.753906 z "
       transform="matrix(0.26458333,0,0,0.26458333,0,280.06667)"
       id="circle1254" />
    <path
       style="opacity:1;fill:url(#linearGradient1310);fill-opacity:1;stroke:none;stroke-width:3.09000611;stroke-linecap:round;stroke-miterlimit:4;stroke-dasharray:none;stroke-dashoffset:0;stroke-opacity:1"
       d="M 32.28125 3.0703125 A 29.214953 29.214953 0 0 0 30.404297 3.1367188 C 30.282693 3.1444372 30.162211 3.1548607 30.041016 3.1640625 A 29.214953 29.214953 0 0 0 27.394531 3.484375 C 27.335787 3.4942722 27.277375 3.5053777 27.21875 3.515625 A 29.214953 29.214953 0 0 0 24.482422 4.1308594 A 29.214953 29.214953 0 0 0 24.449219 4.140625 A 29.214953 29.214953 0 0 0 21.724609 5.0449219 C 21.703617 5.0530637 21.683078 5.0621236 21.662109 5.0703125 A 29.214953 29.214953 0 0 0 19.074219 6.2285156 C 19.043572 6.2440808 19.013006 6.2597206 18.982422 6.2753906 A 29.214953 29.214953 0 0 0 16.609375 7.6367188 C 16.537019 7.6828209 16.464499 7.7286709 16.392578 7.7753906 A 29.214953 29.214953 0 0 0 14.246094 9.3125 C 14.172775 9.3701375 14.098142 9.4260533 14.025391 9.484375 A 29.214953 29.214953 0 0 0 12.072266 11.199219 C 11.994834 11.273451 11.916456 11.346802 11.839844 11.421875 A 29.214953 29.214953 0 0 0 10.044922 13.347656 C 9.9921803 13.409527 9.9369984 13.468936 9.8847656 13.53125 A 29.214953 29.214953 0 0 0 8.1992188 15.751953 C 8.1860086 15.771158 8.1713685 15.789355 8.1582031 15.808594 A 29.214953 29.214953 0 0 0 3.0664062 32.285156 A 29.214953 29.214953 0 0 0 3.1367188 34.236328 C 3.1428938 34.329914 3.153102 34.422283 3.1601562 34.515625 A 29.214953 29.214953 0 0 0 4.1308594 40.099609 A 29.214953 29.214953 0 0 0 5.0429688 42.839844 C 5.0499634 42.857882 5.0554706 42.87651 5.0625 42.894531 A 29.214953 29.214953 0 0 0 6.2128906 45.46875 C 6.2373983 45.517113 6.262341 45.565073 6.2871094 45.613281 A 29.214953 29.214953 0 0 0 7.6542969 47.996094 C 7.6943292 48.058717 7.7368481 48.119344 7.7773438 48.181641 A 29.214953 29.214953 0 0 0 9.3691406 50.40625 C 9.4016005 50.447236 9.4360753 50.486536 9.46875 50.527344 A 29.214953 29.214953 0 0 0 11.324219 52.638672 A 29.214953 29.214953 0 0 0 13.404297 54.576172 C 13.432083 54.599724 13.458453 54.624987 13.486328 54.648438 A 29.214953 29.214953 0 0 0 13.603516 54.738281 L 21.736328 43.6875 C 18.669887 40.850361 16.749955 36.792209 16.75 32.285156 C 16.749915 23.707448 23.703542 16.753821 32.28125 16.753906 C 40.858958 16.753821 47.812585 23.707448 47.8125 32.285156 C 47.812558 38.059303 44.654756 43.087124 39.978516 45.763672 L 39.978516 41.767578 L 23.169922 54.490234 L 32.28125 61.388672 L 32.28125 61.5 A 29.214953 29.214953 0 0 0 40.074219 60.439453 C 40.12507 60.425406 40.173869 60.406892 40.224609 60.392578 A 29.214953 29.214953 0 0 0 42.666016 59.580078 C 42.879655 59.498745 43.087623 59.406478 43.298828 59.320312 A 29.214953 29.214953 0 0 0 45.150391 58.492188 C 45.40257 58.368129 45.652374 58.240425 45.900391 58.109375 A 29.214953 29.214953 0 0 0 47.583984 57.144531 C 47.813819 57.002785 48.047885 56.866626 48.273438 56.71875 A 29.214953 29.214953 0 0 0 50.228516 55.322266 C 50.304923 55.262673 50.387094 55.210723 50.462891 55.150391 C 50.478419 55.138031 50.49231 55.123719 50.507812 55.111328 A 29.214953 29.214953 0 0 0 52.423828 53.429688 C 52.66009 53.204646 52.882701 52.967144 53.111328 52.734375 A 29.214953 29.214953 0 0 0 54.28125 51.476562 C 54.506996 51.218083 54.726694 50.953882 54.943359 50.6875 A 29.214953 29.214953 0 0 0 56.033203 49.257812 C 56.199271 49.025936 56.369918 48.797416 56.529297 48.560547 A 29.214953 29.214953 0 0 0 59.134766 43.775391 C 59.198033 43.627777 59.251607 43.475027 59.3125 43.326172 A 29.214953 29.214953 0 0 0 60.083984 41.210938 C 60.156026 40.986485 60.222341 40.759986 60.289062 40.533203 A 29.214953 29.214953 0 0 0 60.912109 38.095703 C 60.912639 38.093079 60.913533 38.090515 60.914062 38.087891 A 29.214953 29.214953 0 0 0 60.916016 38.078125 A 29.214953 29.214953 0 0 0 61.337891 35.277344 C 61.342547 35.231616 61.349071 35.186415 61.353516 35.140625 A 29.214953 29.214953 0 0 0 61.496094 32.285156 A 29.214953 29.214953 0 0 0 61.429688 30.408203 C 61.421969 30.286599 61.411546 30.166117 61.402344 30.044922 A 29.214953 29.214953 0 0 0 61.082031 27.402344 C 61.071377 27.339055 61.059889 27.27604 61.048828 27.212891 A 29.214953 29.214953 0 0 0 60.4375 24.494141 C 60.432449 24.475849 60.426961 24.45773 60.421875 24.439453 A 29.214953 29.214953 0 0 0 59.521484 21.728516 C 59.513343 21.707524 59.504283 21.686984 59.496094 21.666016 A 29.214953 29.214953 0 0 0 58.337891 19.078125 C 58.322325 19.047478 58.306686 19.016913 58.291016 18.986328 A 29.214953 29.214953 0 0 0 56.929688 16.613281 C 56.883585 16.540925 56.837735 16.468405 56.791016 16.396484 A 29.214953 29.214953 0 0 0 55.253906 14.25 C 55.196585 14.177084 55.140029 14.103605 55.082031 14.03125 A 29.214953 29.214953 0 0 0 53.365234 12.074219 C 53.291305 11.997118 53.219294 11.918085 53.144531 11.841797 A 29.214953 29.214953 0 0 0 51.220703 10.050781 C 51.156364 9.9959249 51.094116 9.9390716 51.029297 9.8847656 A 29.214953 29.214953 0 0 0 48.853516 8.2304688 C 48.814714 8.2036859 48.777219 8.1750371 48.738281 8.1484375 A 29.214953 29.214953 0 0 0 35.203125 3.2167969 C 35.201145 3.2166002 35.199246 3.2150401 35.197266 3.2148438 A 29.214953 29.214953 0 0 0 35.179688 3.2148438 A 29.214953 29.214953 0 0 0 32.28125 3.0703125 z "
       transform="matrix(0.26458333,0,0,0.26458333,0,280.06667)"
       id="path1259" />
    <path
       style="color:#000000;font-style:normal;font-variant:normal;font-weight:normal;font-stretch:normal;font-size:medium;line-height:normal;font-family:sans-serif;font-variant-ligatures:normal;font-variant-position:normal;font-variant-caps:normal;font-variant-numeric:normal;font-variant-alternates:normal;font-feature-settings:normal;text-indent:0;text-align:start;text-decoration:none;text-decoration-line:none;text-decoration-style:solid;text-decoration-color:#000000;letter-spacing:normal;word-spacing:normal;text-transform:none;writing-mode:lr-tb;direction:ltr;text-orientation:mixed;dominant-baseline:auto;baseline-shift:baseline;text-anchor:start;white-space:normal;shape-padding:0;clip-rule:nonzero;display:inline;overflow:visible;visibility:visible;opacity:1;isolation:auto;mix-blend-mode:normal;color-interpolation:sRGB;color-interpolation-filters:linearRGB;solid-color:#000000;solid-opacity:1;vector-effect:none;fill:#ffffff;fill-opacity:0.23999999;fill-rule:nonzero;stroke:none;stroke-width:0.49133855;stroke-linecap:butt;stroke-linejoin:miter;stroke-miterlimit:4;stroke-dasharray:none;stroke-dashoffset:0;stroke-opacity:1;color-rendering:auto;image-rendering:auto;shape-rendering:auto;text-rendering:auto;enable-background:accumulate"
       d="M 31.59375 16.121094 L 31.601562 16.607422 C 39.880795 16.502351 46.938968 22.002455 47.960938 30.457031 C 48.528509 35.152452 46.82165 41.459636 39.802734 45.972656 L 39.861328 42.017578 L 23.496094 54.396484 L 32.931641 61.476562 A 29.214953 29.214953 0 0 0 33.71875 61.449219 L 24.308594 54.388672 L 39.353516 43.021484 L 39.300781 47.029297 L 39.677734 46.800781 C 47.338655 42.178306 49.049416 35.37993 48.447266 30.398438 C 47.395914 21.700762 40.094875 16.013113 31.59375 16.121094 z "
       transform="matrix(0.26458333,0,0,0.26458333,0,280.06667)"
       id="path1298" />
    <path
       style="opacity:1;fill:url(#linearGradient1330);fill-opacity:1;stroke:none;stroke-width:3.09000611;stroke-linecap:round;stroke-miterlimit:4;stroke-dasharray:none;stroke-dashoffset:0;stroke-opacity:1"
       d="M 32.28125 3.0703125 A 29.214953 29.214953 0 0 0 30.404297 3.1367188 C 30.282693 3.1444372 30.162211 3.1548607 30.041016 3.1640625 A 29.214953 29.214953 0 0 0 27.394531 3.484375 C 27.335787 3.4942722 27.277375 3.5053777 27.21875 3.515625 A 29.214953 29.214953 0 0 0 24.482422 4.1308594 A 29.214953 29.214953 0 0 0 24.449219 4.140625 A 29.214953 29.214953 0 0 0 21.724609 5.0449219 C 21.703617 5.0530637 21.683078 5.0621236 21.662109 5.0703125 A 29.214953 29.214953 0 0 0 19.074219 6.2285156 C 19.043572 6.2440808 19.013006 6.2597206 18.982422 6.2753906 A 29.214953 29.214953 0 0 0 16.609375 7.6367188 C 16.537019 7.6828209 16.464499 7.7286709 16.392578 7.7753906 A 29.214953 29.214953 0 0 0 14.246094 9.3125 C 14.172775 9.3701375 14.098142 9.4260533 14.025391 9.484375 A 29.214953 29.214953 0 0 0 12.072266 11.199219 C 11.994834 11.273451 11.916456 11.346802 11.839844 11.421875 A 29.214953 29.214953 0 0 0 10.044922 13.347656 C 9.9921803 13.409527 9.9369984 13.468936 9.8847656 13.53125 A 29.214953 29.214953 0 0 0 8.1992188 15.751953 C 8.1860086 15.771158 8.1713685 15.789355 8.1582031 15.808594 A 29.214953 29.214953 0 0 0 3.0664062 32.285156 A 29.214953 29.214953 0 0 0 3.1367188 34.236328 C 3.1428938 34.329914 3.153102 34.422283 3.1601562 34.515625 A 29.214953 29.214953 0 0 0 4.1308594 40.099609 A 29.214953 29.214953 0 0 0 5.0429688 42.839844 C 5.0499634 42.857882 5.0554706 42.87651 5.0625 42.894531 A 29.214953 29.214953 0 0 0 6.2128906 45.46875 C 6.2373983 45.517113 6.262341 45.565073 6.2871094 45.613281 A 29.214953 29.214953 0 0 0 7.6542969 47.996094 C 7.6943292 48.058717 7.7368481 48.119344 7.7773438 48.181641 A 29.214953 29.214953 0 0 0 9.3691406 50.40625 C 9.4016005 50.447236 9.4360753 50.486536 9.46875 50.527344 A 29.214953 29.214953 0 0 0 11.324219 52.638672 A 29.214953 29.214953 0 0 0 13.404297 54.576172 C 13.432083 54.599724 13.458453 54.624987 13.486328 54.648438 A 29.214953 29.214953 0 0 0 13.603516 54.738281 L 21.736328 43.6875 C 18.669887 40.850361 16.749955 36.792209 16.75 32.285156 C 16.749915 23.707448 23.703542 16.753821 32.28125 16.753906 C 40.858958 16.753821 47.812585 23.707448 47.8125 32.285156 C 47.812558 38.059303 44.654756 43.087124 39.978516 45.763672 L 39.978516 41.767578 L 23.169922 54.490234 L 32.28125 61.388672 L 32.28125 61.5 A 29.214953 29.214953 0 0 0 40.074219 60.439453 C 40.12507 60.425406 40.173869 60.406892 40.224609 60.392578 A 29.214953 29.214953 0 0 0 42.666016 59.580078 C 42.879655 59.498745 43.087623 59.406478 43.298828 59.320312 A 29.214953 29.214953 0 0 0 45.150391 58.492188 C 45.40257 58.368129 45.652374 58.240425 45.900391 58.109375 A 29.214953 29.214953 0 0 0 47.583984 57.144531 C 47.813819 57.002785 48.047885 56.866626 48.273438 56.71875 A 29.214953 29.214953 0 0 0 50.228516 55.322266 C 50.304923 55.262673 50.387094 55.210723 50.462891 55.150391 C 50.478419 55.138031 50.49231 55.123719 50.507812 55.111328 A 29.214953 29.214953 0 0 0 52.423828 53.429688 C 52.66009 53.204646 52.882701 52.967144 53.111328 52.734375 A 29.214953 29.214953 0 0 0 54.28125 51.476562 C 54.506996 51.218083 54.726694 50.953882 54.943359 50.6875 A 29.214953 29.214953 0 0 0 56.033203 49.257812 C 56.199271 49.025936 56.369918 48.797416 56.529297 48.560547 A 29.214953 29.214953 0 0 0 59.134766 43.775391 C 59.198033 43.627777 59.251607 43.475027 59.3125 43.326172 A 29.214953 29.214953 0 0 0 60.083984 41.210938 C 60.156026 40.986485 60.222341 40.759986 60.289062 40.533203 A 29.214953 29.214953 0 0 0 60.912109 38.095703 C 60.912639 38.093079 60.913533 38.090515 60.914062 38.087891 A 29.214953 29.214953 0 0 0 60.916016 38.078125 A 29.214953 29.214953 0 0 0 61.337891 35.277344 C 61.342547 35.231616 61.349071 35.186415 61.353516 35.140625 A 29.214953 29.214953 0 0 0 61.496094 32.285156 A 29.214953 29.214953 0 0 0 61.429688 30.408203 C 61.421969 30.286599 61.411546 30.166117 61.402344 30.044922 A 29.214953 29.214953 0 0 0 61.082031 27.402344 C 61.071377 27.339055 61.059889 27.27604 61.048828 27.212891 A 29.214953 29.214953 0 0 0 60.4375 24.494141 C 60.432449 24.475849 60.426961 24.45773 60.421875 24.439453 A 29.214953 29.214953 0 0 0 59.521484 21.728516 C 59.513343 21.707524 59.504283 21.686984 59.496094 21.666016 A 29.214953 29.214953 0 0 0 58.337891 19.078125 C 58.322325 19.047478 58.306686 19.016913 58.291016 18.986328 A 29.214953 29.214953 0 0 0 56.929688 16.613281 C 56.883585 16.540925 56.837735 16.468405 56.791016 16.396484 A 29.214953 29.214953 0 0 0 55.253906 14.25 C 55.196585 14.177084 55.140029 14.103605 55.082031 14.03125 A 29.214953 29.214953 0 0 0 53.365234 12.074219 C 53.291305 11.997118 53.219294 11.918085 53.144531 11.841797 A 29.214953 29.214953 0 0 0 51.220703 10.050781 C 51.156364 9.9959249 51.094116 9.9390716 51.029297 9.8847656 A 29.214953 29.214953 0 0 0 48.853516 8.2304688 C 48.814714 8.2036859 48.777219 8.1750371 48.738281 8.1484375 A 29.214953 29.214953 0 0 0 35.203125 3.2167969 C 35.201145 3.2166002 35.199246 3.2150401 35.197266 3.2148438 A 29.214953 29.214953 0 0 0 35.179688 3.2148438 A 29.214953 29.214953 0 0 0 32.28125 3.0703125 z "
       transform="matrix(0.26458333,0,0,0.26458333,0,280.06667)"
       id="path1328" />
    <path
       style="opacity:1;fill:url(#linearGradient1318);fill-opacity:1;stroke:none;stroke-width:3.09000611;stroke-linecap:round;stroke-miterlimit:4;stroke-dasharray:none;stroke-dashoffset:0;stroke-opacity:1"
       d="M 32.28125 3.0703125 A 29.214953 29.214953 0 0 0 24.726562 4.0761719 L 24.726562 4.0957031 C 12.327104 7.4742984 3.2090222 18.811089 3.2089844 32.28125 C 3.2090065 41.747102 7.6665614 50.158279 14.605469 55.498047 A 29.214953 29.214953 0 0 0 15.015625 55.810547 C 15.47867 56.153971 15.953814 56.481019 16.4375 56.796875 A 29.214953 29.214953 0 0 0 17.806641 57.636719 C 18.058944 57.782175 18.311313 57.926455 18.568359 58.064453 A 29.214953 29.214953 0 0 0 20.816406 59.150391 C 20.855292 59.167108 20.892667 59.186573 20.931641 59.203125 A 29.214953 29.214953 0 0 0 20.939453 59.205078 A 29.214953 29.214953 0 0 0 32.28125 61.5 A 29.214953 29.214953 0 0 0 32.421875 61.494141 L 23.169922 54.490234 L 31.119141 48.445312 L 31.662109 48.03125 L 31.951172 47.8125 C 23.373458 47.812576 16.892503 40.858963 16.892578 32.28125 C 16.892503 26.507077 20.050342 21.479282 24.726562 18.802734 L 24.726562 22.798828 L 41.535156 10.076172 L 32.423828 3.1777344 L 32.423828 3.078125 A 29.214953 29.214953 0 0 0 32.28125 3.0703125 z "
       transform="matrix(0.26458333,0,0,0.26458333,0,280.06667)"
       id="path1278" />
    <path
       style="color:#000000;font-style:normal;font-variant:normal;font-weight:normal;font-stretch:normal;font-size:medium;line-height:normal;font-family:sans-serif;font-variant-ligatures:normal;font-variant-position:normal;font-variant-caps:normal;font-variant-numeric:normal;font-variant-alternates:normal;font-feature-settings:normal;text-indent:0;text-align:start;text-decoration:none;text-decoration-line:none;text-decoration-style:solid;text-decoration-color:#000000;letter-spacing:normal;word-spacing:normal;text-transform:none;writing-mode:lr-tb;direction:ltr;text-orientation:mixed;dominant-baseline:auto;baseline-shift:baseline;text-anchor:start;white-space:normal;shape-padding:0;clip-rule:nonzero;display:inline;overflow:visible;visibility:visible;opacity:1;isolation:auto;mix-blend-mode:normal;color-interpolation:sRGB;color-interpolation-filters:linearRGB;solid-color:#000000;solid-opacity:1;vector-effect:none;fill:#ffffff;fill-opacity:0.24444442;fill-rule:nonzero;stroke:none;stroke-width:0.49133855;stroke-linecap:butt;stroke-linejoin:miter;stroke-miterlimit:4;stroke-dasharray:none;stroke-dashoffset:0;stroke-opacity:1;color-rendering:auto;image-rendering:auto;shape-rendering:auto;text-rendering:auto;enable-background:accumulate"
       d="M 31.880859 3.0839844 A 29.214953 29.214953 0 0 0 31.09375 3.1113281 L 40.416016 10.105469 L 25.371094 21.480469 L 25.429688 17.464844 L 25.046875 17.693359 C 17.385203 22.316251 15.791516 29.110317 16.277344 34.095703 C 17.043653 41.959275 22.92269 47.366501 30.568359 48.400391 C 30.740033 48.423068 30.912525 48.443993 31.085938 48.462891 L 31.710938 48.025391 C 31.552881 48.014052 31.394906 47.998296 31.238281 47.982422 C 23.490282 47.189364 17.528556 41.893867 16.763672 34.044922 C 16.304383 29.331813 17.919517 23.038739 24.921875 18.527344 L 24.869141 22.476562 L 41.234375 10.097656 L 31.880859 3.0839844 z "
       transform="matrix(0.26458333,0,0,0.26458333,0,280.06667)"
       id="path1296" />
    <path
       style="opacity:1;fill:url(#linearGradient1334);fill-opacity:1;stroke:none;stroke-width:3.09000611;stroke-linecap:round;stroke-miterlimit:4;stroke-dasharray:none;stroke-dashoffset:0;stroke-opacity:1"
       d="M 32.28125 3.0703125 A 29.214953 29.214953 0 0 0 24.726562 4.0761719 L 24.726562 4.0957031 C 12.327104 7.4742984 3.2090222 18.811089 3.2089844 32.28125 C 3.2090065 41.747102 7.6665614 50.158279 14.605469 55.498047 A 29.214953 29.214953 0 0 0 15.015625 55.810547 C 15.47867 56.153971 15.953814 56.481019 16.4375 56.796875 A 29.214953 29.214953 0 0 0 17.806641 57.636719 C 18.058944 57.782175 18.311313 57.926455 18.568359 58.064453 A 29.214953 29.214953 0 0 0 20.816406 59.150391 C 20.855292 59.167108 20.892667 59.186573 20.931641 59.203125 A 29.214953 29.214953 0 0 0 20.939453 59.205078 A 29.214953 29.214953 0 0 0 32.28125 61.5 A 29.214953 29.214953 0 0 0 32.421875 61.494141 L 23.169922 54.490234 L 31.119141 48.445312 L 31.662109 48.03125 L 31.951172 47.8125 C 23.373458 47.812576 16.892503 40.858963 16.892578 32.28125 C 16.892503 26.507077 20.050342 21.479282 24.726562 18.802734 L 24.726562 22.798828 L 41.535156 10.076172 L 32.423828 3.1777344 L 32.423828 3.078125 A 29.214953 29.214953 0 0 0 32.28125 3.0703125 z "
       transform="matrix(0.26458333,0,0,0.26458333,0,280.06667)"
       id="path1332" />
    <path
       style="opacity:1;fill:url(#linearGradient1353);fill-opacity:1;stroke:none;stroke-width:3.09000611;stroke-linecap:round;stroke-miterlimit:4;stroke-dasharray:none;stroke-dashoffset:0;stroke-opacity:1"
       d="M 32.28125 3.0703125 A 29.214953 29.214953 0 0 0 24.726562 4.0761719 L 24.726562 4.0957031 C 12.327104 7.4742984 3.2090222 18.811089 3.2089844 32.28125 C 3.2090065 41.747102 7.6665614 50.158279 14.605469 55.498047 A 29.214953 29.214953 0 0 0 15.015625 55.810547 C 15.47867 56.153971 15.953814 56.481019 16.4375 56.796875 A 29.214953 29.214953 0 0 0 17.806641 57.636719 C 18.058944 57.782175 18.311313 57.926455 18.568359 58.064453 A 29.214953 29.214953 0 0 0 20.816406 59.150391 C 20.855292 59.167108 20.892667 59.186573 20.931641 59.203125 A 29.214953 29.214953 0 0 0 20.939453 59.205078 A 29.214953 29.214953 0 0 0 32.28125 61.5 A 29.214953 29.214953 0 0 0 32.421875 61.494141 L 23.169922 54.490234 L 31.119141 48.445312 L 31.662109 48.03125 L 31.951172 47.8125 C 23.373458 47.812576 16.892503 40.858963 16.892578 32.28125 C 16.892503 26.507077 20.050342 21.479282 24.726562 18.802734 L 24.726562 22.798828 L 41.535156 10.076172 L 32.423828 3.1777344 L 32.423828 3.078125 A 29.214953 29.214953 0 0 0 32.28125 3.0703125 z "
       transform="matrix(0.26458333,0,0,0.26458333,0,280.06667)"
       id="path1345" />
    <path
       style="opacity:0.57099998;fill:url(#linearGradient1359);fill-opacity:1;stroke:none;stroke-width:3.09000611;stroke-linecap:round;stroke-miterlimit:4;stroke-dasharray:none;stroke-dashoffset:0;stroke-opacity:1"
       d="M 32.248047 3.2753906 L 32.105469 3.2792969 L 41.359375 10.285156 L 33.410156 16.332031 L 32.867188 16.746094 L 32.580078 16.962891 C 41.157792 16.962815 47.636794 23.916427 47.636719 32.494141 C 47.636794 38.268314 44.478955 43.296108 39.802734 45.972656 L 39.802734 41.976562 L 22.994141 54.699219 L 31.955078 61.484375 A 29.214953 29.214953 0 0 0 32.28125 61.5 A 29.214953 29.214953 0 0 0 54.292969 51.462891 C 54.511475 51.207655 54.731665 50.954152 54.941406 50.691406 A 29.214953 29.214953 0 0 0 55.599609 49.826172 C 59.185066 44.976161 61.320294 38.989101 61.320312 32.494141 C 61.320275 16.359262 48.382926 3.2754662 32.248047 3.2753906 z "
       transform="matrix(0.26458333,0,0,0.26458333,0,280.06667)"
       id="path1357" />
    <circle
       r="7.7297897"
       cy="288.60864"
       cx="8.5411577"
       id="circle872"
       style="opacity:1;fill:none;fill-opacity:1;stroke:#f7fff7;stroke-width:0.81756413;stroke-linecap:round;stroke-miterlimit:4;stroke-dasharray:none;stroke-dashoffset:0;stroke-opacity:1" />
  </g>
</svg>
