<?xml version="1.0" encoding="UTF-8" standalone="no"?>
<!-- Created with Inkscape (http://www.inkscape.org/) -->

<svg
   xmlns:dc="http://purl.org/dc/elements/1.1/"
   xmlns:cc="http://creativecommons.org/ns#"
   xmlns:rdf="http://www.w3.org/1999/02/22-rdf-syntax-ns#"
   xmlns:svg="http://www.w3.org/2000/svg"
   xmlns="http://www.w3.org/2000/svg"
   xmlns:xlink="http://www.w3.org/1999/xlink"
   xmlns:sodipodi="http://sodipodi.sourceforge.net/DTD/sodipodi-0.dtd"
   xmlns:inkscape="http://www.inkscape.org/namespaces/inkscape"
   width="64"
   height="64"
   viewBox="0 0 16.933333 16.933333"
   version="1.1"
   id="svg8"
   inkscape:version="0.92.2 (5c3e80d, 2017-08-06)"
   sodipodi:docname="browser.svg">
  <defs
     id="defs2">
    <linearGradient
       inkscape:collect="always"
       id="linearGradient882">
      <stop
         style="stop-color:#e9e9e9;stop-opacity:1;"
         offset="0"
         id="stop878" />
      <stop
         style="stop-color:#e9e9e9;stop-opacity:0;"
         offset="1"
         id="stop880" />
    </linearGradient>
    <linearGradient
       inkscape:collect="always"
       id="linearGradient865">
      <stop
         style="stop-color:#999999;stop-opacity:1;"
         offset="0"
         id="stop861" />
      <stop
         style="stop-color:#e4e4e4;stop-opacity:1"
         offset="1"
         id="stop863" />
    </linearGradient>
    <linearGradient
       inkscape:collect="always"
       id="linearGradient849">
      <stop
         style="stop-color:#f9f9f9;stop-opacity:1;"
         offset="0"
         id="stop845" />
      <stop
         style="stop-color:#ececec;stop-opacity:1"
         offset="1"
         id="stop847" />
    </linearGradient>
    <linearGradient
       inkscape:collect="always"
       xlink:href="#linearGradient849"
       id="linearGradient851"
       x1="5.3662987"
       y1="294.5462"
       x2="13.317561"
       y2="283.83224"
       gradientUnits="userSpaceOnUse" />
    <radialGradient
       inkscape:collect="always"
       xlink:href="#linearGradient865"
       id="radialGradient869"
       cx="8.6580162"
       cy="288.62546"
       fx="8.6580162"
       fy="288.62546"
       r="0.76776409"
       gradientUnits="userSpaceOnUse" />
    <radialGradient
       inkscape:collect="always"
       xlink:href="#linearGradient882"
       id="radialGradient884"
       cx="32.723633"
       cy="32.405273"
       fx="32.723633"
       fy="32.405273"
       r="2.9013672"
       gradientTransform="matrix(1,0,0,0.55705151,0,14.353867)"
       gradientUnits="userSpaceOnUse" />
    <filter
       inkscape:collect="always"
       style="color-interpolation-filters:sRGB"
       id="filter925"
       x="-0.089161548"
       width="1.1783231"
       y="-0.039973958"
       height="1.0799479">
      <feGaussianBlur
         inkscape:collect="always"
         stdDeviation="0.14420589"
         id="feGaussianBlur927" />
    </filter>
  </defs>
  <sodipodi:namedview
     id="base"
     pagecolor="#ffffff"
     bordercolor="#666666"
     borderopacity="1.0"
     inkscape:pageopacity="0"
     inkscape:pageshadow="2"
     inkscape:zoom="7.9195959"
     inkscape:cx="32.477443"
     inkscape:cy="29.924705"
     inkscape:document-units="mm"
     inkscape:current-layer="layer1"
     showgrid="false"
     units="px"
     inkscape:window-width="1360"
     inkscape:window-height="715"
     inkscape:window-x="0"
     inkscape:window-y="24"
     inkscape:window-maximized="1" />
  <metadata
     id="metadata5">
    <rdf:RDF>
      <cc:Work
         rdf:about="">
        <dc:format>image/svg+xml</dc:format>
        <dc:type
           rdf:resource="http://purl.org/dc/dcmitype/StillImage" />
        <dc:title></dc:title>
      </cc:Work>
    </rdf:RDF>
  </metadata>
  <g
     inkscape:label="Layer 1"
     inkscape:groupmode="layer"
     id="layer1"
     transform="translate(0,-280.06667)">
    <circle
       style="opacity:1;fill:url(#linearGradient851);fill-opacity:1;stroke:none;stroke-width:0.81756413;stroke-linecap:round;stroke-miterlimit:4;stroke-dasharray:none;stroke-dashoffset:0;stroke-opacity:1"
       id="path826"
       cx="8.5411577"
       cy="288.60864"
       r="7.7297897" />
    <circle
       r="7.7297897"
       cy="288.60864"
       cx="8.5411577"
       id="circle872"
       style="opacity:1;fill:none;fill-opacity:1;stroke:#f8fbfd;stroke-width:0.81756413;stroke-linecap:round;stroke-miterlimit:4;stroke-dasharray:none;stroke-dashoffset:0;stroke-opacity:1" />
    <g
       id="g843"
       transform="translate(0.05535027,0.16126758)"
       style="stroke:#7b7b7b;stroke-opacity:0.5">
      <path
         id="Path 35"
         class="shp37"
         d="m 8.4858073,281.69246 v 1.26222 m 1.3149768,-1.13289 -0.2407168,1.2391 m 1.5156897,-0.85215 -0.49316,1.16186 m 1.65812,-0.53798 -0.705943,1.04631 m 1.727437,-0.20796 -0.892514,0.89251 m 1.730886,0.12864 -1.046328,0.70594 m 1.67433,0.46937 -1.170477,0.47282 m 1.553278,0.7918 -1.239106,0.24072 m 1.368431,1.07462 h -1.262212 m 1.132887,1.31496 -1.239106,-0.24072 m 0.852166,1.51569 -1.161857,-0.49316 m 0.537994,1.65812 -1.046328,-0.70594 m 0.207956,1.72743 -0.892514,-0.8925 m -0.12898,1.7309 -0.705943,-1.04635 m -0.469019,1.67433 -0.472813,-1.17047 m -0.7921579,1.55329 -0.2407168,-1.23912 m -1.07426,1.36844 v -1.26221 m -1.3149765,1.13289 0.2407169,-1.23912 m -1.5156892,0.85182 0.4931593,-1.16186 m -1.6581192,0.53836 0.7059423,-1.04635 m -1.7274372,0.20795 0.892515,-0.8925 m -1.7308861,-0.12899 1.0463255,-0.70594 m -1.6701893,-0.45902 1.1618559,-0.49316 m -1.5487966,-0.78181 1.2391062,-0.24072 m -1.3684304,-1.07424 h 1.2622118 m -1.1328876,-1.31534 1.2391062,0.24072 m -0.8521655,-1.51535 1.1618559,0.49317 m -0.5379921,-1.65847 1.0463255,0.70594 m -0.2079544,-1.72709 0.892515,0.89251 m 0.1289799,-1.73086 0.7059423,1.04631 m 0.4690187,-1.67433 0.4728121,1.17047 m 0.7921591,-1.55328 0.2407169,1.2391"
         style="fill:#000000;stroke:#7b7b7b;stroke-width:0.20692003;stroke-linecap:round;stroke-opacity:0.5"
         inkscape:connector-curvature="0" />
      <path
         id="path855"
         class="shp38"
         d="m 9.1445026,281.74662 -0.051731,0.51039 m 1.3453274,-0.25348 -0.148294,0.4911 m 1.370845,0.0152 -0.246924,0.44971 m 1.343254,0.28312 -0.328312,0.39418 m 1.261177,0.538 -0.39763,0.32418 m 1.130472,0.77215 -0.452119,0.24244 m 0.958729,0.98013 -0.49247,0.14311 m 0.74974,1.15049 -0.510747,0.0466 m 0.510747,1.27222 -0.510404,-0.0517 m 0.253477,1.34532 -0.491088,-0.14829 m -0.01519,1.37086 -0.44971,-0.24692 m -0.283132,1.34323 -0.394185,-0.3283 m -0.537991,1.26083 -0.324175,-0.39764 m -0.772501,1.13082 -0.242442,-0.45213 m -0.979765,0.95875 -0.14312,-0.49246 m -1.1504754,0.7494 -0.046556,-0.51075 m -1.2722136,0.51108 0.05173,-0.51041 m -1.3453249,0.25348 0.1482932,-0.49109 m -1.3708459,-0.0153 0.2469247,-0.4497 m -1.3432555,-0.28312 0.3283129,-0.39419 m -1.2611772,-0.53834 0.3976313,-0.32417 m -1.1304732,-0.77217 0.4521201,-0.24243 m -0.9573501,-0.97562 0.4900561,-0.15175 m -0.748705,-1.14599 0.5107474,-0.0466 m -0.5107474,-1.27222 0.510402,0.0517 m -0.2534771,-1.34534 0.4910905,0.1483 m 0.015175,-1.37085 0.4497069,0.24694 m 0.2831352,-1.34362 0.3941824,0.32832 m 0.5379923,-1.26082 0.3241744,0.39761 m 0.7725017,-1.13047 0.2424411,0.45213 m 0.979766,-0.95873 0.1431198,0.49247 m 1.1504751,-0.74974 0.046557,0.51074"
         style="fill:#000000;fill-opacity:1;stroke:#7b7b7b;stroke-width:0.20692003;stroke-linecap:round;stroke-opacity:0.5"
         inkscape:connector-curvature="0" />
    </g>
    <g
       transform="rotate(-24.148211,8.8861802,289.0467)"
       id="g919"
       style="filter:url(#filter925)">
      <path
         inkscape:connector-curvature="0"
         style="fill:#272727;fill-opacity:1;stroke:none;stroke-width:0.99999994px;stroke-linecap:butt;stroke-linejoin:miter;stroke-opacity:1"
         d="m 32.640625,14.501953 c -0.406764,6.122759 -0.666292,12.279433 -2.841797,17.931641 2.175505,5.652208 2.435033,11.806928 2.841797,17.929687 C 33.01569,44.214973 33.457879,38.087049 35.482422,32.433594 33.457879,26.780139 33.01569,20.650262 32.640625,14.501953 Z"
         transform="matrix(0.26458333,0,0,0.26458333,0,280.06667)"
         id="path913" />
    </g>
    <g
       id="g911"
       style="stroke:#8b8b8b;stroke-opacity:0.22839506"
       transform="translate(-10.877369,-0.66145833)">
      <g
         id="g897"
         style="stroke:#8b8b8b;stroke-opacity:0.22839506">
        <path
           style="fill:none;stroke:#8b8b8b;stroke-width:0.26458332px;stroke-linecap:butt;stroke-linejoin:miter;stroke-opacity:0.22839506"
           d="m 19.418527,285.75521 v 7.37054"
           id="path891"
           inkscape:connector-curvature="0"
           sodipodi:nodetypes="cc" />
        <path
           sodipodi:nodetypes="cc"
           inkscape:connector-curvature="0"
           id="path893"
           d="m 23.103797,289.44048 h -7.37054"
           style="fill:none;stroke:#8b8b8b;stroke-width:0.26458332px;stroke-linecap:butt;stroke-linejoin:miter;stroke-opacity:0.22839506" />
      </g>
      <g
         transform="rotate(-45,19.418527,289.44048)"
         id="g903"
         style="stroke:#8b8b8b;stroke-opacity:0.22839506">
        <path
           sodipodi:nodetypes="cc"
           inkscape:connector-curvature="0"
           id="path899"
           d="m 19.418527,285.75521 v 7.37054"
           style="fill:none;stroke:#8b8b8b;stroke-width:0.26458332px;stroke-linecap:butt;stroke-linejoin:miter;stroke-opacity:0.22839506" />
        <path
           style="fill:none;stroke:#8b8b8b;stroke-width:0.26458332px;stroke-linecap:butt;stroke-linejoin:miter;stroke-opacity:0.22839506"
           d="m 23.103797,289.44048 h -7.37054"
           id="path901"
           inkscape:connector-curvature="0"
           sodipodi:nodetypes="cc" />
      </g>
    </g>
    <g
       id="g889"
       transform="rotate(-24.148211,8.8861802,289.0467)">
      <path
         id="path853"
         transform="matrix(0.26458333,0,0,0.26458333,0,280.06667)"
         d="m 32.640625,14.501953 c -0.406764,6.122759 -0.666292,12.279433 -2.841797,17.931641 2.175505,5.652208 2.435033,11.806928 2.841797,17.929687 C 33.01569,44.214973 33.457879,38.087049 35.482422,32.433594 33.457879,26.780139 33.01569,20.650262 32.640625,14.501953 Z"
         style="fill:#272727;fill-opacity:1;stroke:none;stroke-width:0.99999994px;stroke-linecap:butt;stroke-linejoin:miter;stroke-opacity:1"
         inkscape:connector-curvature="0" />
      <circle
         r="0.76776409"
         cy="288.62546"
         cx="8.6580162"
         id="path859"
         style="opacity:1;fill:url(#radialGradient869);fill-opacity:1;stroke:none;stroke-width:0.26499999;stroke-linecap:round;stroke-linejoin:round;stroke-miterlimit:4;stroke-dasharray:none;stroke-dashoffset:0;stroke-opacity:1" />
      <path
         sodipodi:nodetypes="cccccccccc"
         inkscape:connector-curvature="0"
         id="path873"
         transform="matrix(0.26458333,0,0,0.26458333,0,280.06667)"
         d="m 35.167969,30.789062 -2.492237,1.710571 2.414112,1.521851 c 0.347101,-0.489219 0.534062,-1.073984 0.535156,-1.673828 -8.74e-4,-0.552444 -0.15943,-1.09316 -0.457031,-1.558594 z m -2.492237,1.710571 -2.453076,-1.618774 c -0.261462,0.444654 -0.39967,0.950968 -0.40039,1.466797 -2.54e-4,0.46864 0.113,0.93037 0.330078,1.345703 z"
         style="fill:url(#radialGradient884);fill-opacity:1;stroke:none;stroke-width:0.99999994px;stroke-linecap:butt;stroke-linejoin:miter;stroke-opacity:1" />
    </g>
  </g>
</svg>
