<?xml version="1.0" encoding="UTF-8" standalone="no"?>
<svg
   xmlns:svg="http://www.w3.org/2000/svg"
   xmlns="http://www.w3.org/2000/svg"
   xmlns:sodipodi="http://sodipodi.sourceforge.net/DTD/sodipodi-0.dtd"
   xmlns:inkscape="http://www.inkscape.org/namespaces/inkscape"
   inkscape:version="1.1-dev (1:0.92.0+devel+202004260039+9758c7a)"
   sodipodi:docname="folder-favorites.svg"
   id="svg7"
   version="1.1"
   viewBox="0 0 16 16"
   height="16"
   width="16">
  <sodipodi:namedview
     inkscape:current-layer="svg7"
     inkscape:window-maximized="0"
     inkscape:window-y="30"
     inkscape:window-x="0"
     inkscape:cy="8"
     inkscape:cx="8"
     inkscape:zoom="46.3125"
     showgrid="false"
     id="namedview9"
     inkscape:window-height="480"
     inkscape:window-width="851"
     inkscape:pageshadow="2"
     inkscape:pageopacity="0"
     guidetolerance="10"
     gridtolerance="10"
     objecttolerance="10"
     borderopacity="1"
     bordercolor="#666666"
     pagecolor="#ffffff" />
  <defs
     id="defs3">
    <style
       type="text/css"
       id="current-color-scheme">
   .ColorScheme-Text { color:#536076; } .ColorScheme-Highlight { color:#ffffff; }
  </style>
  </defs>
  <path
     id="path5"
     d="M3,12 L5,9.9 L7,12 L7,6 L14.9334969,6.00039167 C14.9770043,6.18842931 15,6.38432198 15,6.58558559 L15,11.4144144 C15,12.8423939 13.8423939,14 12.4144144,14 L3.58558559,14 C2.1576061,14 1,12.8423939 1,11.4144144 L0.999,6 L3,6 L3,12 Z M7.38196601,2 C8.0671711,2 8.69356697,2.38713394 9,3 C9.30643303,3.61286606 9.9328289,4 10.618034,4 L12.4144144,4 C13.2449466,4 13.9840184,4.39158836 14.4570713,5.00020659 L0.999,5 L1,4.58558559 C1,3.1576061 2.1576061,2 3.58558559,2 L7.38196601,2 Z"
     class="ColorScheme-Text"
     style="fill:currentColor" />
</svg>
