<?xml version="1.0" encoding="UTF-8" standalone="no"?>
<svg
   xmlns:svg="http://www.w3.org/2000/svg"
   xmlns="http://www.w3.org/2000/svg"
   xmlns:sodipodi="http://sodipodi.sourceforge.net/DTD/sodipodi-0.dtd"
   xmlns:inkscape="http://www.inkscape.org/namespaces/inkscape"
   inkscape:version="1.1-dev (1:0.92.0+devel+202004260039+9758c7a)"
   sodipodi:docname="default-folder-video.svg"
   id="svg7"
   version="1.1"
   viewBox="0 0 16 16"
   height="16"
   width="16">
  <sodipodi:namedview
     inkscape:current-layer="svg7"
     inkscape:window-maximized="0"
     inkscape:window-y="30"
     inkscape:window-x="0"
     inkscape:cy="8"
     inkscape:cx="8"
     inkscape:zoom="46.3125"
     showgrid="false"
     id="namedview9"
     inkscape:window-height="480"
     inkscape:window-width="851"
     inkscape:pageshadow="2"
     inkscape:pageopacity="0"
     guidetolerance="10"
     gridtolerance="10"
     objecttolerance="10"
     borderopacity="1"
     bordercolor="#666666"
     pagecolor="#ffffff" />
  <defs
     id="defs3">
    <style
       type="text/css"
       id="current-color-scheme">
   .ColorScheme-Text { color:#536076; } .ColorScheme-Highlight { color:#ffffff; }
  </style>
  </defs>
  <path
     id="path5"
     d="M12,1 C13.1045695,1 14,1.8954305 14,3 L14,12 C14,13.1045695 13.1045695,14 12,14 L4,14 C2.8954305,14 2,13.1045695 2,12 L2,3 C2,1.8954305 2.8954305,1 4,1 L12,1 Z M5,11 L3,11 L3,12 C3,12.5128358 3.38604019,12.9355072 3.88337887,12.9932723 L4,13 L5,13 L5,11 Z M13,11 L11,11 L11,13 L12,13 C12.5522847,13 13,12.5522847 13,12 L13,12 L13,11 Z M5,8 L3,8 L3,10 L5,10 L5,8 Z M13,8 L11,8 L11,10 L13,10 L13,8 Z M5,5 L3,5 L3,7 L5,7 L5,5 Z M13,5 L11,5 L11,7 L13,7 L13,5 Z M5,2 L4,2 C3.48716416,2 3.06449284,2.38604019 3.00672773,2.88337887 L3,3 L3,4 L5,4 L5,2 Z M12,2 L11,2 L11,4 L13,4 L13,3 C13,2.44771525 12.5522847,2 12,2 Z"
     class="ColorScheme-Text"
     style="fill:currentColor" />
</svg>
