<?xml version="1.0" encoding="UTF-8" standalone="no"?>
<svg
   xmlns:svg="http://www.w3.org/2000/svg"
   xmlns="http://www.w3.org/2000/svg"
   xmlns:sodipodi="http://sodipodi.sourceforge.net/DTD/sodipodi-0.dtd"
   xmlns:inkscape="http://www.inkscape.org/namespaces/inkscape"
   inkscape:version="1.1-dev (1:0.92.0+devel+202004260039+9758c7a)"
   sodipodi:docname="user-desktop.svg"
   id="svg7"
   version="1.1"
   viewBox="0 0 16 16"
   height="16"
   width="16">
  <sodipodi:namedview
     inkscape:current-layer="svg7"
     inkscape:window-maximized="0"
     inkscape:window-y="30"
     inkscape:window-x="0"
     inkscape:cy="8"
     inkscape:cx="8"
     inkscape:zoom="46.3125"
     showgrid="false"
     id="namedview9"
     inkscape:window-height="480"
     inkscape:window-width="851"
     inkscape:pageshadow="2"
     inkscape:pageopacity="0"
     guidetolerance="10"
     gridtolerance="10"
     objecttolerance="10"
     borderopacity="1"
     bordercolor="#666666"
     pagecolor="#ffffff" />
  <defs
     id="defs3">
    <style
       type="text/css"
       id="current-color-scheme">
   .ColorScheme-Text { color:#536076; } .ColorScheme-Highlight { color:#ffffff; }
  </style>
  </defs>
  <path
     id="path5"
     d="M13,2 C14.1045695,2 15,2.8954305 15,4 L15,12 C15,13.1045695 14.1045695,14 13,14 L3,14 C1.8954305,14 1,13.1045695 1,12 L1,4 C1,2.8954305 1.8954305,2 3,2 L13,2 Z M13,11 L3,11 C2.44771525,11 2,11.4477153 2,12 C2,12.5128358 2.38604019,12.9355072 2.88337887,12.9932723 L3,13 L13,13 C13.5522847,13 14,12.5522847 14,12 C14,11.4477153 13.5522847,11 13,11 Z M3.5,6 L2.5,6 C2.22385763,6 2,6.22385763 2,6.5 L2,6.5 L2,7.5 C2,7.77614237 2.22385763,8 2.5,8 L2.5,8 L3.5,8 C3.77614237,8 4,7.77614237 4,7.5 L4,7.5 L4,6.5 C4,6.22385763 3.77614237,6 3.5,6 L3.5,6 Z M3.5,3 L3,3 C2.48716416,3 2.06449284,3.38604019 2.00672773,3.88337887 L2,4 L2,4.5 C2,4.74545989 2.17687516,4.94960837 2.41012437,4.99194433 L2.5,5 L3.5,5 C3.74545989,5 3.94960837,4.82312484 3.99194433,4.58987563 L4,4.5 L4,3.5 C4,3.22385763 3.77614237,3 3.5,3 Z"
     class="ColorScheme-Text"
     style="fill:currentColor" />
</svg>
