<?xml version="1.0" encoding="UTF-8" standalone="no"?>
<svg
   xmlns:svg="http://www.w3.org/2000/svg"
   xmlns="http://www.w3.org/2000/svg"
   xmlns:sodipodi="http://sodipodi.sourceforge.net/DTD/sodipodi-0.dtd"
   xmlns:inkscape="http://www.inkscape.org/namespaces/inkscape"
   inkscape:version="1.1-dev (1:0.92.0+devel+202004260039+9758c7a)"
   sodipodi:docname="user-home.svg"
   id="svg7"
   version="1.1"
   viewBox="0 0 16 16"
   height="16"
   width="16">
  <sodipodi:namedview
     inkscape:current-layer="svg7"
     inkscape:window-maximized="0"
     inkscape:window-y="30"
     inkscape:window-x="0"
     inkscape:cy="8"
     inkscape:cx="8"
     inkscape:zoom="46.3125"
     showgrid="false"
     id="namedview9"
     inkscape:window-height="480"
     inkscape:window-width="851"
     inkscape:pageshadow="2"
     inkscape:pageopacity="0"
     guidetolerance="10"
     gridtolerance="10"
     objecttolerance="10"
     borderopacity="1"
     bordercolor="#666666"
     pagecolor="#ffffff" />
  <defs
     id="defs3">
    <style
       type="text/css"
       id="current-color-scheme">
   .ColorScheme-Text { color:#536076; } .ColorScheme-Highlight { color:#ffffff; }
  </style>
  </defs>
  <path
     id="path5"
     d="M8.00100657,1.13447237 C8.00100657,1.13447237 15.954817,9 15.5010066,9 L15.5010066,9 L13.0010061,9 L13.0010065,14.009222 C13.0010065,14.5490248 12.5553519,15 12.005609,15 L12.005609,15 L3.99640414,15 C3.45667097,15 3.00100658,14.5564136 3.00100658,14.009222 L3.00100658,14.009222 L3.0010066,9 L0.501006573,9 Z M10.5078753,7.41092894 C9.92499732,6.86302369 8.9791064,6.86302369 8.39622844,7.41092894 L8.39622844,7.41092894 L8.00021429,7.78300452 L7.60420015,7.41092894 C7.0208936,6.86302369 6.07543127,6.86302369 5.49212472,7.41092894 C4.83595843,8.02758276 4.83595843,9.02672861 5.49212472,9.64338243 L5.49212472,9.64338243 L8.00021429,12 L10.5078753,9.64338243 C11.1640416,9.02672861 11.1640416,8.02758276 10.5078753,7.41092894 Z"
     class="ColorScheme-Text"
     style="fill:currentColor" />
</svg>
