<?xml version="1.0" encoding="UTF-8" standalone="no"?>
<svg
   xmlns:dc="http://purl.org/dc/elements/1.1/"
   xmlns:cc="http://creativecommons.org/ns#"
   xmlns:rdf="http://www.w3.org/1999/02/22-rdf-syntax-ns#"
   xmlns:svg="http://www.w3.org/2000/svg"
   xmlns="http://www.w3.org/2000/svg"
   xmlns:xlink="http://www.w3.org/1999/xlink"
   xmlns:sodipodi="http://sodipodi.sourceforge.net/DTD/sodipodi-0.dtd"
   xmlns:inkscape="http://www.inkscape.org/namespaces/inkscape"
   width="64"
   height="64"
   viewBox="0 0 16.933333 16.933334"
   version="1.1"
   id="svg1147"
   inkscape:version="1.0.2 (e86c870879, 2021-01-15)"
   sodipodi:docname="slingcold.svg">
  <defs
     id="defs1141">
    <linearGradient
       inkscape:collect="always"
       xlink:href="#linearGradient850"
       id="linearGradient854"
       gradientUnits="userSpaceOnUse"
       x1="1555.5963"
       y1="939.76978"
       x2="1555.5963"
       y2="282.9606" />
    <linearGradient
       inkscape:collect="always"
       id="linearGradient850">
      <stop
         style="stop-color:#cde8f8;stop-opacity:1"
         offset="0"
         id="stop846" />
      <stop
         style="stop-color:#e9f6fa;stop-opacity:1"
         offset="0.47304806"
         id="stop856" />
      <stop
         style="stop-color:#d5eefc;stop-opacity:1"
         offset="1"
         id="stop848" />
    </linearGradient>
    <linearGradient
       inkscape:collect="always"
       xlink:href="#linearGradient867"
       id="linearGradient1027"
       gradientUnits="userSpaceOnUse"
       x1="-115.95532"
       y1="694.87579"
       x2="-115.95532"
       y2="291.49982" />
    <linearGradient
       inkscape:collect="always"
       id="linearGradient867">
      <stop
         style="stop-color:#2b97f9;stop-opacity:1"
         offset="0"
         id="stop863" />
      <stop
         style="stop-color:#61c3fb;stop-opacity:1"
         offset="1"
         id="stop865" />
    </linearGradient>
    <radialGradient
       inkscape:collect="always"
       xlink:href="#linearGradient877"
       id="radialGradient879"
       cx="-95.164894"
       cy="119.74522"
       fx="-95.164894"
       fy="119.74522"
       r="310.80603"
       gradientTransform="matrix(1,0,0,0.91063919,0,38.47437)"
       gradientUnits="userSpaceOnUse" />
    <linearGradient
       inkscape:collect="always"
       id="linearGradient877">
      <stop
         style="stop-color:#44aefe;stop-opacity:1;"
         offset="0"
         id="stop873" />
      <stop
         style="stop-color:#44aefe;stop-opacity:0;"
         offset="1"
         id="stop875" />
    </linearGradient>
    <radialGradient
       inkscape:collect="always"
       xlink:href="#linearGradient1001"
       id="radialGradient1005"
       cx="1574.0195"
       cy="787.09003"
       fx="1574.0195"
       fy="787.09003"
       r="166.18719"
       gradientTransform="matrix(0.26458333,0,0,0.19020218,-408.22492,-91.321874)"
       gradientUnits="userSpaceOnUse" />
    <linearGradient
       inkscape:collect="always"
       id="linearGradient1001">
      <stop
         style="stop-color:#ebf6f9;stop-opacity:1"
         offset="0"
         id="stop997" />
      <stop
         style="stop-color:#e3f4fa;stop-opacity:0;"
         offset="1"
         id="stop999" />
    </linearGradient>
    <linearGradient
       inkscape:collect="always"
       xlink:href="#linearGradient991"
       id="linearGradient993"
       x1="1527.4863"
       y1="738.74164"
       x2="1618.014"
       y2="742.00647"
       gradientUnits="userSpaceOnUse" />
    <linearGradient
       inkscape:collect="always"
       id="linearGradient991">
      <stop
         style="stop-color:#c3e8f9;stop-opacity:1"
         offset="0"
         id="stop987" />
      <stop
         style="stop-color:#ddeff6;stop-opacity:1"
         offset="1"
         id="stop989" />
    </linearGradient>
    <radialGradient
       inkscape:collect="always"
       xlink:href="#linearGradient1015"
       id="radialGradient1019"
       cx="1307.7858"
       cy="724.55432"
       fx="1307.7858"
       fy="724.55432"
       r="110.27298"
       gradientTransform="matrix(0.43194538,0,0,0.36241024,-627.09866,-216.0071)"
       gradientUnits="userSpaceOnUse" />
    <linearGradient
       inkscape:collect="always"
       id="linearGradient1015">
      <stop
         style="stop-color:#afe7fb;stop-opacity:1;"
         offset="0"
         id="stop1011" />
      <stop
         style="stop-color:#6bc1f8;stop-opacity:1"
         offset="1"
         id="stop1013" />
    </linearGradient>
    <radialGradient
       inkscape:collect="always"
       xlink:href="#linearGradient1015"
       id="radialGradient1023"
       gradientUnits="userSpaceOnUse"
       gradientTransform="matrix(-0.43194538,0,0,0.36241024,638.9365,-214.97484)"
       cx="1307.7858"
       cy="724.55432"
       fx="1307.7858"
       fy="724.55432"
       r="110.27298" />
    <radialGradient
       inkscape:collect="always"
       xlink:href="#linearGradient1035"
       id="radialGradient1037"
       cx="1971.8053"
       cy="355.26035"
       fx="1971.8053"
       fy="355.26035"
       r="169.93825"
       gradientUnits="userSpaceOnUse"
       gradientTransform="matrix(0.26458333,0,0,0.26458333,-516.59012,-105.24188)" />
    <linearGradient
       inkscape:collect="always"
       id="linearGradient1035">
      <stop
         style="stop-color:#64dff9;stop-opacity:1;"
         offset="0"
         id="stop1031" />
      <stop
         style="stop-color:#64dff9;stop-opacity:0;"
         offset="1"
         id="stop1033" />
    </linearGradient>
    <linearGradient
       inkscape:collect="always"
       xlink:href="#linearGradient929"
       id="linearGradient931"
       x1="1057.7705"
       y1="491.95215"
       x2="1248.5322"
       y2="491.95215"
       gradientUnits="userSpaceOnUse" />
    <linearGradient
       inkscape:collect="always"
       id="linearGradient929">
      <stop
         style="stop-color:#b6f1fe;stop-opacity:1"
         offset="0"
         id="stop925" />
      <stop
         style="stop-color:#80d6fe;stop-opacity:1"
         offset="0.30623338"
         id="stop933" />
      <stop
         style="stop-color:#b7eaff;stop-opacity:1"
         offset="0.6843785"
         id="stop935" />
      <stop
         style="stop-color:#e9fdfe;stop-opacity:1"
         offset="1"
         id="stop927" />
    </linearGradient>
    <linearGradient
       inkscape:collect="always"
       xlink:href="#linearGradient945"
       id="linearGradient939"
       gradientUnits="userSpaceOnUse"
       x1="1149.7826"
       y1="467.00302"
       x2="1149.7826"
       y2="405.48062"
       gradientTransform="matrix(0.55022,0,0,-0.55022,518.6644,836.88245)" />
    <linearGradient
       inkscape:collect="always"
       id="linearGradient945">
      <stop
         style="stop-color:#89e6fb;stop-opacity:1"
         offset="0"
         id="stop941" />
      <stop
         style="stop-color:#e5fcfe;stop-opacity:1"
         offset="1"
         id="stop943" />
    </linearGradient>
    <linearGradient
       inkscape:collect="always"
       xlink:href="#linearGradient904"
       id="linearGradient906"
       x1="1118.2399"
       y1="492.55069"
       x2="1186.9292"
       y2="492.8866"
       gradientUnits="userSpaceOnUse" />
    <linearGradient
       inkscape:collect="always"
       id="linearGradient904">
      <stop
         style="stop-color:#a8efff;stop-opacity:1"
         offset="0"
         id="stop900" />
      <stop
         style="stop-color:#e5fcfe;stop-opacity:1"
         offset="1"
         id="stop902" />
    </linearGradient>
    <linearGradient
       inkscape:collect="always"
       xlink:href="#linearGradient850"
       id="linearGradient1855"
       gradientUnits="userSpaceOnUse"
       x1="1555.5963"
       y1="939.76978"
       x2="1555.5963"
       y2="282.9606" />
    <linearGradient
       inkscape:collect="always"
       xlink:href="#linearGradient850"
       id="linearGradient1857"
       gradientUnits="userSpaceOnUse"
       x1="1555.5963"
       y1="939.76978"
       x2="1555.5963"
       y2="282.9606" />
    <linearGradient
       inkscape:collect="always"
       xlink:href="#linearGradient867"
       id="linearGradient1859"
       gradientUnits="userSpaceOnUse"
       x1="-115.95532"
       y1="694.87579"
       x2="-115.95532"
       y2="291.49982" />
  </defs>
  <sodipodi:namedview
     id="base"
     pagecolor="#ffffff"
     bordercolor="#666666"
     borderopacity="1.0"
     inkscape:pageopacity="0.0"
     inkscape:pageshadow="2"
     inkscape:zoom="3.959798"
     inkscape:cx="105.982"
     inkscape:cy="14.742451"
     inkscape:document-units="mm"
     inkscape:current-layer="layer1"
     inkscape:document-rotation="0"
     showgrid="false"
     units="px"
     inkscape:window-width="1507"
     inkscape:window-height="1056"
     inkscape:window-x="0"
     inkscape:window-y="24"
     inkscape:window-maximized="0" />
  <metadata
     id="metadata1144">
    <rdf:RDF>
      <cc:Work
         rdf:about="">
        <dc:format>image/svg+xml</dc:format>
        <dc:type
           rdf:resource="http://purl.org/dc/dcmitype/StillImage" />
        <dc:title></dc:title>
      </cc:Work>
    </rdf:RDF>
  </metadata>
  <g
     inkscape:label="Capa 1"
     inkscape:groupmode="layer"
     id="layer1">
    <g
       id="g1895"
       transform="matrix(0.08430647,0,0,0.08430647,7.9619395,7.2616829)">
      <g
         id="path837"
         inkscape:transform-center-x="-1.3119737e-05"
         inkscape:transform-center-y="-76.83799"
         style="fill:url(#linearGradient1857);fill-opacity:1"
         transform="matrix(0.26458333,0,0,0.26458333,-408.22492,-149.86653)">
        <path
           style="color:#000000;font-style:normal;font-variant:normal;font-weight:normal;font-stretch:normal;font-size:medium;line-height:normal;font-family:sans-serif;font-variant-ligatures:normal;font-variant-position:normal;font-variant-caps:normal;font-variant-numeric:normal;font-variant-alternates:normal;font-variant-east-asian:normal;font-feature-settings:normal;font-variation-settings:normal;text-indent:0;text-align:start;text-decoration:none;text-decoration-line:none;text-decoration-style:solid;text-decoration-color:#000000;letter-spacing:normal;word-spacing:normal;text-transform:none;writing-mode:lr-tb;direction:ltr;text-orientation:mixed;dominant-baseline:auto;baseline-shift:baseline;text-anchor:start;white-space:normal;shape-padding:0;shape-margin:0;inline-size:0;clip-rule:nonzero;display:inline;overflow:visible;visibility:visible;isolation:auto;mix-blend-mode:normal;color-interpolation:sRGB;color-interpolation-filters:linearRGB;solid-color:#000000;solid-opacity:1;vector-effect:none;fill:url(#linearGradient1855);fill-opacity:1;fill-rule:nonzero;stroke:none;stroke-linecap:round;stroke-linejoin:round;stroke-miterlimit:4;stroke-dasharray:none;stroke-dashoffset:0;stroke-opacity:1;color-rendering:auto;image-rendering:auto;shape-rendering:auto;text-rendering:auto;enable-background:accumulate;stop-color:#000000;stop-opacity:1"
           d="m 1563.3359,274.54399 a 135.0135,135.0135 0 0 0 -116.666,67.52539 l -231.1367,400.64649 a 135.0135,135.0135 0 0 0 116.9355,202.46289 h 462.2715 A 135.0135,135.0135 0 0 0 1911.6777,742.71587 L 1680.541,342.06938 a 135.0135,135.0135 0 0 0 -117.2051,-67.52539 z"
           id="path844" />
      </g>
      <g
         id="g883"
         transform="matrix(0.26458333,0,0,0.26458333,30.08499,-102.42399)">
        <path
           id="rect858"
           style="opacity:1;fill:url(#linearGradient1859);fill-opacity:1;stroke:none;stroke-width:270;stroke-linecap:round;stroke-linejoin:round;stroke-miterlimit:4;stroke-dasharray:none;stroke-opacity:0.987369"
           d="m -95.164895,147.51906 c -0.0944,2.1e-4 -0.1888,0.003 -0.2832,0.004 -0.0963,6.9e-4 -0.19275,0.003 -0.28907,0.004 -33.121215,0.26673 -65.168975,17.08766 -83.822255,47.08984 -0.22246,0.35683 -0.44829,0.71099 -0.66602,1.07032 -0.0363,0.06 -0.0712,0.12152 -0.10742,0.18164 -0.39827,0.66045 -0.78766,1.32553 -1.16992,1.99414 -0.0128,0.0223 -0.0263,0.044 -0.0391,0.0664 l -209.05856,366.3377 c -27.39694,48.00858 -10.80349,108.71439 37.20508,136.11133 48.00857,27.39694 108.71439,10.8035 136.11133,-37.20508 l 82.68766,-144.89669 c 20.61605,-35.41074 59.687775,-35.62371 82.663065,0.3049 l 83.72153,143.33984 c 27.87818,47.73073 88.745895,63.71411 136.476595,35.83594 47.7307,-27.87817 63.7141,-88.74778 35.8359,-136.47852 L -8.6297346,197.06007 c -0.005,-0.009 -0.0106,-0.0168 -0.0156,-0.0254 -0.42645,-0.72961 -0.86101,-1.45423 -1.30664,-2.17383 -0.003,-0.005 -0.005,-0.009 -0.008,-0.0137 -2.9e-4,-4.7e-4 2.9e-4,-0.001 0,-0.002 -0.2709804,-0.43739 -0.5520504,-0.86917 -0.8300804,-1.30274 -18.55291,-29.01343 -49.69092,-45.35272 -81.95313,-46 -0.004,-7e-5 -0.008,8e-5 -0.0117,0 -0.001,-2e-5 -0.003,3e-5 -0.004,0 -0.4898,-0.01 -0.98043,-0.0112 -1.4707,-0.0137 -0.31185,-0.002 -0.62388,-0.0105 -0.93555,-0.01 z"
           sodipodi:nodetypes="ccccscsccsccccscccssccsscccc" />
        <path
           id="path871"
           style="opacity:1;fill:url(#radialGradient879);fill-opacity:1;stroke:none;stroke-width:270;stroke-linecap:round;stroke-linejoin:round;stroke-miterlimit:4;stroke-dasharray:none;stroke-opacity:0.987369"
           d="m -95.164895,147.51906 c -0.0944,2.1e-4 -0.1888,0.003 -0.2832,0.004 -0.0963,6.9e-4 -0.19275,0.003 -0.28907,0.004 -33.121215,0.26673 -65.168975,17.08766 -83.822255,47.08984 -0.22246,0.35683 -0.44829,0.71099 -0.66602,1.07032 -0.0363,0.06 -0.0712,0.12152 -0.10742,0.18164 -0.39827,0.66045 -0.78766,1.32553 -1.16992,1.99414 -0.0128,0.0223 -0.0263,0.044 -0.0391,0.0664 l -209.05856,366.3377 c -27.39694,48.00858 -10.80349,108.71439 37.20508,136.11133 48.00857,27.39694 108.71439,10.8035 136.11133,-37.20508 l 82.68766,-144.89669 c 20.61605,-35.41074 59.687775,-35.62371 82.663065,0.3049 l 83.72153,143.33984 c 27.87818,47.73073 88.745895,63.71411 136.476595,35.83594 47.7307,-27.87817 63.7141,-88.74778 35.8359,-136.47852 L -8.6297346,197.06007 c -0.005,-0.009 -0.0106,-0.0168 -0.0156,-0.0254 -0.42645,-0.72961 -0.86101,-1.45423 -1.30664,-2.17383 -0.003,-0.005 -0.005,-0.009 -0.008,-0.0137 -2.9e-4,-4.7e-4 2.9e-4,-0.001 0,-0.002 -0.2709804,-0.43739 -0.5520504,-0.86917 -0.8300804,-1.30274 -18.55291,-29.01343 -49.69092,-45.35272 -81.95313,-46 -0.004,-7e-5 -0.008,8e-5 -0.0117,0 -0.001,-2e-5 -0.003,3e-5 -0.004,0 -0.4898,-0.01 -0.98043,-0.0112 -1.4707,-0.0137 -0.31185,-0.002 -0.62388,-0.0105 -0.93555,-0.01 z"
           sodipodi:nodetypes="ccccscsccsccccscccssccsscccc" />
      </g>
      <ellipse
         style="fill:url(#radialGradient1005);fill-opacity:1;stroke:none;stroke-width:10.5833;stroke-linecap:round;stroke-linejoin:round;stroke-miterlimit:4;stroke-dasharray:none;stroke-opacity:1"
         id="path995"
         cx="2.6357899"
         cy="58.384369"
         rx="43.97036"
         ry="31.609167" />
      <g
         id="g966"
         inkscape:transform-center-x="-1.3119737e-05"
         inkscape:transform-center-y="-76.83799"
         style="fill:url(#linearGradient854);fill-opacity:1"
         transform="matrix(0.26458333,0,0,0.26458333,-413.99154,-148.74721)">
        <path
           id="path964"
           style="color:#000000;font-style:normal;font-variant:normal;font-weight:normal;font-stretch:normal;font-size:medium;line-height:normal;font-family:sans-serif;font-variant-ligatures:normal;font-variant-position:normal;font-variant-caps:normal;font-variant-numeric:normal;font-variant-alternates:normal;font-variant-east-asian:normal;font-feature-settings:normal;font-variation-settings:normal;text-indent:0;text-align:start;text-decoration:none;text-decoration-line:none;text-decoration-style:solid;text-decoration-color:#000000;letter-spacing:normal;word-spacing:normal;text-transform:none;writing-mode:lr-tb;direction:ltr;text-orientation:mixed;dominant-baseline:auto;baseline-shift:baseline;text-anchor:start;white-space:normal;shape-padding:0;shape-margin:0;inline-size:0;clip-rule:nonzero;display:inline;overflow:visible;visibility:visible;isolation:auto;mix-blend-mode:normal;color-interpolation:sRGB;color-interpolation-filters:linearRGB;solid-color:#000000;solid-opacity:1;vector-effect:none;fill:url(#linearGradient993);fill-opacity:1;fill-rule:nonzero;stroke:none;stroke-linecap:round;stroke-linejoin:round;stroke-miterlimit:4;stroke-dasharray:none;stroke-dashoffset:0;stroke-opacity:1;color-rendering:auto;image-rendering:auto;shape-rendering:auto;text-rendering:auto;enable-background:accumulate;stop-color:#000000;stop-opacity:1"
           d="m 1561.248,668.92383 c -15.2171,-0.0114 -30.1392,8.89424 -40.4472,26.59961 l -47.336,82.94922 a 128.60217,87.787842 0 0 0 94.5098,28.25195 128.60217,87.787842 0 0 0 86.8145,-23.02149 l -51.3243,-87.875 c -11.4876,-17.9643 -26.9997,-26.89285 -42.2168,-26.90429 z"
           transform="translate(21.795117,-4.2305026)" />
      </g>
      <g
         id="g976"
         transform="matrix(0.26458333,0,0,0.26458333,30.08499,-102.42399)">
        <path
           id="path972"
           style="opacity:1;fill:url(#linearGradient1027);fill-opacity:1;stroke:none;stroke-width:270;stroke-linecap:round;stroke-linejoin:round;stroke-miterlimit:4;stroke-dasharray:none;stroke-opacity:0.987369"
           d="m -95.164895,147.51906 c -0.0944,2.1e-4 -0.1888,0.003 -0.2832,0.004 -0.0963,6.9e-4 -0.19275,0.003 -0.28907,0.004 -33.121215,0.26673 -65.168975,17.08766 -83.822255,47.08984 -0.22246,0.35683 -0.44829,0.71099 -0.66602,1.07032 -0.0363,0.06 -0.0712,0.12152 -0.10742,0.18164 -0.39827,0.66045 -0.78766,1.32553 -1.16992,1.99414 -0.0128,0.0223 -0.0263,0.044 -0.0391,0.0664 l -209.05856,366.3377 c -27.39694,48.00858 -10.80349,108.71439 37.20508,136.11133 48.00857,27.39694 108.71439,10.8035 136.11133,-37.20508 l 82.68766,-144.89669 c 20.61605,-35.41074 59.687775,-35.62371 82.663065,0.3049 l 83.72153,143.33984 c 27.87818,47.73073 88.745895,63.71411 136.476595,35.83594 47.7307,-27.87817 63.7141,-88.74778 35.8359,-136.47852 L -8.6297346,197.06007 c -0.005,-0.009 -0.0106,-0.0168 -0.0156,-0.0254 -0.42645,-0.72961 -0.86101,-1.45423 -1.30664,-2.17383 -0.003,-0.005 -0.005,-0.009 -0.008,-0.0137 -2.9e-4,-4.7e-4 2.9e-4,-0.001 0,-0.002 -0.2709804,-0.43739 -0.5520504,-0.86917 -0.8300804,-1.30274 -18.55291,-29.01343 -49.69092,-45.35272 -81.95313,-46 -0.004,-7e-5 -0.008,8e-5 -0.0117,0 -0.001,-2e-5 -0.003,3e-5 -0.004,0 -0.4898,-0.01 -0.98043,-0.0112 -1.4707,-0.0137 -0.31185,-0.002 -0.62388,-0.0105 -0.93555,-0.01 z"
           sodipodi:nodetypes="ccccscsccsccccscccssccsscccc" />
      </g>
      <path
         style="fill:url(#radialGradient1019);fill-opacity:1;stroke:none;stroke-width:0.264583px;stroke-linecap:butt;stroke-linejoin:miter;stroke-opacity:1"
         d="m -17.766863,56.455984 c 0,0 -19.927649,-14.676046 -33.690295,-15.566636 -9.966246,-0.644922 -14.828547,1.290439 -19.457194,6.897293 -2.700258,3.270925 -7.68686,12.808985 -3.742028,22.413958 3.652255,8.892648 14.31925,16.780703 25.068529,16.171402 14.558592,-0.82522 19.89791,-9.171779 24.842126,-17.938009 5.077672,-9.002829 6.978862,-11.978008 6.978862,-11.978008 z"
         id="path1009"
         sodipodi:nodetypes="csssssc" />
      <path
         style="fill:url(#radialGradient1023);fill-opacity:1;stroke:none;stroke-width:0.264583px;stroke-linecap:butt;stroke-linejoin:miter;stroke-opacity:1"
         d="m 29.604692,57.488248 c 0,0 19.927649,-14.676046 33.690295,-15.566636 9.966245,-0.644922 14.828546,1.290439 19.457193,6.897293 2.700258,3.270925 7.68686,12.808985 3.742029,22.413958 -3.652256,8.892648 -14.31925,16.780703 -25.06853,16.171402 C 46.867087,86.579045 41.527769,78.232486 36.583553,69.466256 31.505882,60.463427 29.604692,57.488248 29.604692,57.488248 Z"
         id="path1021"
         sodipodi:nodetypes="csssssc" />
      <circle
         style="opacity:0.531932;fill:url(#radialGradient1037);fill-opacity:1;stroke:none;stroke-width:10.5833;stroke-linecap:round;stroke-linejoin:round;stroke-miterlimit:4;stroke-dasharray:none;stroke-opacity:1"
         id="path1029"
         cx="5.1166787"
         cy="-11.24591"
         r="44.962826" />
      <g
         id="g950"
         transform="matrix(0.26458333,0,0,0.26458333,-299.62561,-146.89895)">
        <path
           id="path918"
           style="color:#000000;font-style:normal;font-variant:normal;font-weight:normal;font-stretch:normal;font-size:medium;line-height:normal;font-family:sans-serif;font-variant-ligatures:normal;font-variant-position:normal;font-variant-caps:normal;font-variant-numeric:normal;font-variant-alternates:normal;font-variant-east-asian:normal;font-feature-settings:normal;font-variation-settings:normal;text-indent:0;text-align:start;text-decoration:none;text-decoration-line:none;text-decoration-style:solid;text-decoration-color:#000000;letter-spacing:normal;word-spacing:normal;text-transform:none;writing-mode:lr-tb;direction:ltr;text-orientation:mixed;dominant-baseline:auto;baseline-shift:baseline;text-anchor:start;white-space:normal;shape-padding:0;shape-margin:0;inline-size:0;clip-rule:nonzero;display:inline;overflow:visible;visibility:visible;isolation:auto;mix-blend-mode:normal;color-interpolation:sRGB;color-interpolation-filters:linearRGB;solid-color:#000000;solid-opacity:1;vector-effect:none;fill:url(#linearGradient931);fill-opacity:1;fill-rule:nonzero;stroke:none;stroke-width:39.1118;stroke-linecap:round;stroke-linejoin:round;stroke-miterlimit:4;stroke-dasharray:none;stroke-dashoffset:0;stroke-opacity:1;color-rendering:auto;image-rendering:auto;shape-rendering:auto;text-rendering:auto;enable-background:accumulate;stop-color:#000000"
           d="m 1153.1699,440.16211 a 19.557856,19.557856 0 0 0 -12.6855,4.65625 l -75.8282,64.46875 a 19.557856,19.557856 0 0 0 12.6661,34.45508 h 151.6582 a 19.557856,19.557856 0 0 0 12.666,-34.45508 l -75.8281,-64.46875 a 19.557856,19.557856 0 0 0 -12.6485,-4.65625 z" />
        <path
           id="path937"
           style="color:#000000;font-style:normal;font-variant:normal;font-weight:normal;font-stretch:normal;font-size:medium;line-height:normal;font-family:sans-serif;font-variant-ligatures:normal;font-variant-position:normal;font-variant-caps:normal;font-variant-numeric:normal;font-variant-alternates:normal;font-variant-east-asian:normal;font-feature-settings:normal;font-variation-settings:normal;text-indent:0;text-align:start;text-decoration:none;text-decoration-line:none;text-decoration-style:solid;text-decoration-color:#000000;letter-spacing:normal;word-spacing:normal;text-transform:none;writing-mode:lr-tb;direction:ltr;text-orientation:mixed;dominant-baseline:auto;baseline-shift:baseline;text-anchor:start;white-space:normal;shape-padding:0;shape-margin:0;inline-size:0;clip-rule:nonzero;display:inline;overflow:visible;visibility:visible;isolation:auto;mix-blend-mode:normal;color-interpolation:sRGB;color-interpolation-filters:linearRGB;solid-color:#000000;solid-opacity:1;vector-effect:none;fill:url(#linearGradient939);fill-opacity:1;fill-rule:nonzero;stroke:none;stroke-width:22.0088;stroke-linecap:round;stroke-linejoin:round;stroke-miterlimit:4;stroke-dasharray:none;stroke-dashoffset:0;stroke-opacity:1;color-rendering:auto;image-rendering:auto;shape-rendering:auto;text-rendering:auto;enable-background:accumulate;stop-color:#000000"
           d="m 1153.11,618.77288 a 11.0055,11.0055 0 0 1 -10.6971,-8.59504 l -18.6193,-83.14017 a 11.0055,11.0055 0 0 1 10.7389,-13.40947 h 37.2377 a 11.0055,11.0055 0 0 1 10.7389,13.40947 l -18.6193,83.14017 a 11.0055,11.0055 0 0 1 -10.7798,8.59504 z" />
        <path
           id="path892"
           style="color:#000000;font-style:normal;font-variant:normal;font-weight:normal;font-stretch:normal;font-size:medium;line-height:normal;font-family:sans-serif;font-variant-ligatures:normal;font-variant-position:normal;font-variant-caps:normal;font-variant-numeric:normal;font-variant-alternates:normal;font-variant-east-asian:normal;font-feature-settings:normal;font-variation-settings:normal;text-indent:0;text-align:start;text-decoration:none;text-decoration-line:none;text-decoration-style:solid;text-decoration-color:#000000;letter-spacing:normal;word-spacing:normal;text-transform:none;writing-mode:lr-tb;direction:ltr;text-orientation:mixed;dominant-baseline:auto;baseline-shift:baseline;text-anchor:start;white-space:normal;shape-padding:0;shape-margin:0;inline-size:0;clip-rule:nonzero;display:inline;overflow:visible;visibility:visible;isolation:auto;mix-blend-mode:normal;color-interpolation:sRGB;color-interpolation-filters:linearRGB;solid-color:#000000;solid-opacity:1;vector-effect:none;fill:url(#linearGradient906);fill-opacity:1;fill-rule:nonzero;stroke:none;stroke-width:40;stroke-linecap:round;stroke-linejoin:round;stroke-miterlimit:4;stroke-dasharray:none;stroke-dashoffset:0;stroke-opacity:1;color-rendering:auto;image-rendering:auto;shape-rendering:auto;text-rendering:auto;enable-background:accumulate;stop-color:#000000"
           d="m 1153.0762,396.4043 a 20.002,20.002 0 0 0 -19.4414,15.62109 l -33.8399,151.10352 A 20.002,20.002 0 0 0 1119.3125,587.5 h 67.6777 a 20.002,20.002 0 0 0 19.5176,-24.37109 L 1172.668,412.02539 a 20.002,20.002 0 0 0 -19.5918,-15.62109 z" />
      </g>
    </g>
  </g>
</svg>
